<?xml version="1.0" standalone="no"?>
<!DOCTYPE svg PUBLIC "-//W3C//DTD SVG 1.1//EN" "http://www.w3.org/Graphics/SVG/1.1/DTD/svg11.dtd" >
<svg>
<metadata>
Created by FontForge 20090914 at Wed May 16 10:16:49 2012
 By www-data
Copyright (c) 2011 by Tarek Atrissi Design. All rights reserved.
</metadata>
<defs>
<font id="STC-Italic" horiz-adv-x="297" >
  <font-face 
    font-family="STC"
    font-weight="400"
    font-style="italic"
    font-stretch="normal"
    units-per-em="1000"
    panose-1="1 0 5 0 0 0 0 2 0 6"
    ascent="800"
    descent="-200"
    x-height="436"
    cap-height="666"
    bbox="-126 -489 1317 894.47"
    underline-thickness="29"
    underline-position="-451"
    unicode-range="U+0020-U+FEFC"
  />
<missing-glyph horiz-adv-x="500" 
d="M62 0v562h375v-562h-375zM125 62h250v438h-250v-438z" />
    <glyph glyph-name="shaddehdamatan" unicode="&#x651;&#x64c;" horiz-adv-x="312" arabic-form="isolated" 
d="M41 618c13.333 0 21.1689 3.33398 23.502 10.001s2.83301 15.334 1.5 26.001l-5 51c-1.33301 8.66699 2 13 10 13h26l9 -84c3.33301 -2.66699 6.66602 -5.16699 9.99902 -7.5s7.33301 -4.33301 12 -6s10 -2.5 16 -2.5c9.33301 0.666992 16.666 2.5 21.999 5.5
s7.33301 11.5 6 25.5l-6 56c-1.33301 8.66699 2 13 10 13h26l9 -80c2 -18.667 -2.66699 -32.667 -14 -42s-24.666 -14 -39.999 -14c-8 0 -17 1.66699 -27 5s-19.667 9.66602 -29 18.999c-3.33301 -6.66699 -9.33301 -12.334 -18 -17.001s-20.334 -7 -35.001 -7h-7
c-24 0 -42.5 5.33301 -55.5 16s-20.167 24 -21.5 40l-9 80h26c8 0 12.667 -4.33301 14 -13l5 -56c1.33301 -14 6 -22.667 14 -26s17 -5 27 -5zM125.003 801.001c7.33301 4 12.998 8.66992 16.998 14.0029c3.33301 4.66699 5.33301 10.167 6 16.5s-2.83301 13.5 -10.5 21.5
s-17 10.167 -28 6.5s-16.167 -10.834 -15.5 -21.501s4.83398 -18.834 12.501 -24.501s13.834 -9.83398 18.501 -12.501zM94.001 786.004c-6 3.33301 -11.5 7.49609 -16.5 12.4961s-9.33301 11 -13 18s-5.5 15.5 -5.5 25.5s3.16699 19.333 9.5 28s14.666 15.167 24.999 19.5
s21.5 5.83301 33.5 4.5s24 -7.16602 36 -17.499s19 -21.666 21 -33.999s1 -24.166 -3 -35.499s-12 -21.333 -24 -30s-24.667 -15.667 -38 -21c-22 -9.33301 -39.667 -12.833 -53 -10.5s-25.666 13.5 -36.999 33.5c2.66699 -13.333 2.33398 -24.333 -0.999023 -33
s-6.33301 -14.667 -9 -18c-3.33301 -3.33301 -7 -4 -11 -2l-18 12c4.66699 6.66699 7.66699 14.5 9 23.5s1.66602 18.167 0.999023 27.5c-0.666992 3.33301 -0.833984 6 -0.500977 8s2.83301 4 7.5 6l18 9c6.66699 2.66699 11.834 2.33398 15.501 -0.999023
s6.16699 -6 7.5 -8c3.33301 -4.66699 8 -10.167 14 -16.5s11.5 -8.83301 16.5 -7.5s8.5 2.5 10.5 3.5s3.66699 2.16699 5 3.5z" />
    <glyph glyph-name="shaddehkasratan" unicode="&#x651;&#x64d;" horiz-adv-x="264" arabic-form="isolated" 
d="M8 771c13.333 0 21.1689 3.33398 23.502 10.001s2.83301 15.334 1.5 26.001l-5 51c-1.33301 8.66699 2 13 10 13h26l9 -84c3.33301 -2.66699 6.66602 -5.16699 9.99902 -7.5s7.33301 -4.33301 12 -6s10 -2.5 16 -2.5c9.33301 0.666992 16.666 2.5 21.999 5.5
s7.33301 11.5 6 25.5l-6 56c-1.33301 8.66699 2 13 10 13h26l9 -80c2 -18.667 -2.66699 -32.667 -14 -42s-24.666 -14 -39.999 -14c-8 0 -17 1.66699 -27 5s-19.667 9.66602 -29 18.999c-3.33301 -6.66699 -9.33301 -12.334 -18 -17.001s-20.334 -7 -35.001 -7h-7
c-24 0 -42.5 5.33301 -55.5 16s-20.167 24 -21.5 40l-9 80h26c8 0 12.667 -4.33301 14 -13l5 -56c1.33301 -14 6 -22.667 14 -26s17 -5 27 -5zM-46.9971 633.001c-6 -1.33301 -10.832 -0.500977 -14.499 2.49902s-5.83398 6.5 -6.50098 10.5l-3 25l247 46
c4 0.666992 7.5 -0.166016 10.5 -2.49902s4.83301 -5.83301 5.5 -10.5l2 -26zM-46.9961 565c-6 -1.33301 -10.832 -0.500977 -14.499 2.49902s-5.83398 6.5 -6.50098 10.5l-3 25l247 46c4 0.666992 7.5 -0.166016 10.5 -2.49902s4.83301 -5.83301 5.5 -10.5l2 -26z" />
    <glyph glyph-name="shaddehfatha" unicode="&#x651;&#x64e;" horiz-adv-x="312" arabic-form="isolated" 
d="M63 614c13.333 0 21.1689 3.33398 23.502 10.001s2.83301 15.334 1.5 26.001l-5 51c-1.33301 8.66699 2 13 10 13h26l9 -84c3.33301 -2.66699 6.66602 -5.16699 9.99902 -7.5s7.33301 -4.33301 12 -6s10 -2.5 16 -2.5c9.33301 0.666992 16.666 2.5 21.999 5.5
s7.33301 11.5 6 25.5l-6 56c-1.33301 8.66699 2 13 10 13h26l9 -80c2 -18.667 -2.66699 -32.667 -14 -42s-24.666 -14 -39.999 -14c-8 0 -17 1.66699 -27 5s-19.667 9.66602 -29 18.999c-3.33301 -6.66699 -9.33301 -12.334 -18 -17.001s-20.334 -7 -35.001 -7h-7
c-24 0 -42.5 5.33301 -55.5 16s-20.167 24 -21.5 40l-9 80h26c8 0 12.667 -4.33301 14 -13l5 -56c1.33301 -14 6 -22.667 14 -26s17 -5 27 -5zM-18.9971 731.001c-6 -1.33301 -10.832 -0.500977 -14.499 2.49902s-5.83398 6.5 -6.50098 10.5l-3 25l247 46
c4 0.666992 7.5 -0.166016 10.5 -2.49902s4.83301 -5.83301 5.5 -10.5l2 -26z" />
    <glyph glyph-name="shaddehdamma" unicode="&#x651;&#x64f;" horiz-adv-x="312" arabic-form="isolated" 
d="M41 601c13.333 0 21.1689 3.33398 23.502 10.001s2.83301 15.334 1.5 26.001l-5 51c-1.33301 8.66699 2 13 10 13h26l9 -84c3.33301 -2.66699 6.66602 -5.16699 9.99902 -7.5s7.33301 -4.33301 12 -6s10 -2.5 16 -2.5c9.33301 0.666992 16.666 2.5 21.999 5.5
s7.33301 11.5 6 25.5l-6 56c-1.33301 8.66699 2 13 10 13h26l9 -80c2 -18.667 -2.66699 -32.667 -14 -42s-24.666 -14 -39.999 -14c-8 0 -17 1.66699 -27 5s-19.667 9.66602 -29 18.999c-3.33301 -6.66699 -9.33301 -12.334 -18 -17.001s-20.334 -7 -35.001 -7h-7
c-24 0 -42.5 5.33301 -55.5 16s-20.167 24 -21.5 40l-9 80h26c8 0 12.667 -4.33301 14 -13l5 -56c1.33301 -14 6 -22.667 14 -26s17 -5 27 -5zM56.0029 760.001c-6 3.33301 -11.498 7.49805 -16.498 12.498s-9.33301 11 -13 18s-5.5 15.5 -5.5 25.5s3.16699 19.333 9.5 28
s14.666 15.167 24.999 19.5s21.5 5.83301 33.5 4.5s24 -7.16602 36 -17.499s19 -21.666 21 -33.999s1 -24.333 -3 -36s-12 -21.834 -24 -30.501s-24.667 -15.667 -38 -21l-32 -12.5c-8 -3 -14.333 -5.16699 -19 -6.5c-7.33301 -2 -13 0.666992 -17 8l-9 22
c13.333 3.33301 24.666 6.83301 33.999 10.5s15.333 6.83398 18 9.50098zM87.0049 774.999c7.33301 4 12.998 8.66992 16.998 14.0029c3.33301 4.66699 5.33301 10.167 6 16.5s-2.83301 13.5 -10.5 21.5s-17 10.167 -28 6.5s-16.167 -10.834 -15.5 -21.501
s4.83398 -18.834 12.501 -24.501s13.834 -9.83398 18.501 -12.501z" />
    <glyph glyph-name="shaddehkasra" unicode="&#x651;&#x650;" horiz-adv-x="286" arabic-form="isolated" 
d="M27 709c13.333 0 21.1689 3.33398 23.502 10.001s2.83301 15.334 1.5 26.001l-5 51c-1.33301 8.66699 2 13 10 13h26l9 -84c3.33301 -2.66699 6.66602 -5.16699 9.99902 -7.5s7.33301 -4.33301 12 -6s10 -2.5 16 -2.5c9.33301 0.666992 16.666 2.5 21.999 5.5
s7.33301 11.5 6 25.5l-6 56c-1.33301 8.66699 2 13 10 13h26l9 -80c2 -18.667 -2.66699 -32.667 -14 -42s-24.666 -14 -39.999 -14c-8 0 -17 1.66699 -27 5s-19.667 9.66602 -29 18.999c-3.33301 -6.66699 -9.33301 -12.334 -18 -17.001s-20.334 -7 -35.001 -7h-7
c-24 0 -42.5 5.33301 -55.5 16s-20.167 24 -21.5 40l-9 80h26c8 0 12.667 -4.33301 14 -13l5 -56c1.33301 -14 6 -22.667 14 -26s17 -5 27 -5zM-20.9971 572.001c-6 -1.33301 -10.832 -0.500977 -14.499 2.49902s-5.83398 6.5 -6.50098 10.5l-3 25l247 46
c4 0.666992 7.5 -0.166016 10.5 -2.49902s4.83301 -5.83301 5.5 -10.5l2 -26z" />
    <glyph glyph-name="lammeeminitial" unicode="&#xfedf;&#xfee4;" horiz-adv-x="802" arabic-form="initial" 
d="M710 201c3.33301 -31.333 3.50195 -59.332 0.501953 -83.999s-10.5 -45.667 -22.5 -63s-29.667 -30.666 -53 -39.999c-20 -8 -44.667 -12.667 -74 -14h-17c-8.66699 0 -18.167 0.833008 -28.5 2.5s-20.833 4.33398 -31.5 8.00098s-21.334 8.16699 -32.001 13.5
s-20.334 11.666 -29.001 18.999c-5.33301 -20.667 -16.333 -38 -33 -52s-43 -21 -79 -21c-12 0 -27.167 1.5 -45.5 4.5s-37.166 6.5 -56.499 10.5s-40 9 -62 15h-168l-7 75h95c-5.33301 9.33301 -11 24.5 -17 45.5s-10.667 44.833 -14 71.5
c-2.66699 29.333 -0.166992 56.166 7.5 80.499s20.334 45.166 38.001 62.499s39.667 30.666 66 39.999s56.833 14 91.5 14c17.333 0 35.5 -1.5 54.5 -4.5s37 -6.33301 54 -10s34.167 -7.83398 51.5 -12.501l27 -255c0.666992 -1.33301 3.66699 -3.66602 9 -6.99902
s12.333 -6.83301 21 -10.5s19.5 -7 32.5 -10s28.167 -4.5 45.5 -4.5h13c32 1.33301 55 9.33301 69 24c16 16.667 22.667 40.334 20 71.001l-44 411c-0.666992 8 1.16602 14.667 5.49902 20s10.166 8 17.499 8h52zM330.002 302.001c-10 2 -21.502 4.16504 -34.502 6.49805
s-28.833 3.5 -47.5 3.5c-25.333 0 -46.666 -3.66699 -63.999 -11s-31.333 -16.833 -42 -28.5s-18 -25.167 -22 -40.5s-5.33301 -31 -4 -47c2 -17.333 4.5 -32.833 7.5 -46.5s6.33301 -25.667 10 -36s7.83398 -19.166 12.501 -26.499c14.667 -4.66699 29 -8.66699 43 -12
l42 -10c14 -3.33301 26.333 -5.66602 37 -6.99902c28 -5.33301 49.5 -3.5 64.5 5.5s20.833 27.167 17.5 54.5z" />
    <glyph glyph-name="aleffathatanfina" unicode="&#xfe8e;&#x64b;" horiz-adv-x="261" arabic-form="final" 
d="M2 609h50c7.33301 0 14.166 -2.66699 20.499 -8s9.83301 -12 10.5 -20l44 -412c3.33301 -30.667 14.666 -54 33.999 -70s48 -24 86 -24h22l8 -75h-22c-37.333 0 -68.666 4.66699 -93.999 14s-46 22.666 -62 39.999s-28.167 38.333 -36.5 63
s-14.166 52.334 -17.499 83.001zM-50 707c-6 -1.33301 -10.832 -0.500977 -14.499 2.49902s-5.83398 6.5 -6.50098 10.5l-3 25l247 46c4 0.666992 7.5 -0.166016 10.5 -2.49902s4.83301 -5.83301 5.5 -10.5l2 -26zM-49.999 637.999
c-6 -1.33301 -10.832 -0.500977 -14.499 2.49902s-5.83398 6.5 -6.50098 10.5l-3 25l247 46c4 0.666992 7.5 -0.166016 10.5 -2.49902s4.83301 -5.83301 5.5 -10.5l2 -26z" />
    <glyph glyph-name="aleffathataniso" unicode="&#x627;&#x64b;" horiz-adv-x="234" arabic-form="isolated" 
d="M154 28c0.666992 -8 -1.16699 -14.667 -5.5 -20s-10.833 -8 -19.5 -8h-51l-62 581c-0.666992 8 1.5 14.667 6.5 20s11.167 8 18.5 8h51zM-56.001 707c-6 -1.33301 -10.832 -0.500977 -14.499 2.49902s-5.83398 6.5 -6.50098 10.5l-3 25l247 46
c4 0.666992 7.5 -0.166016 10.5 -2.49902s4.83301 -5.83301 5.5 -10.5l2 -26zM-56 637.999c-6 -1.33301 -10.832 -0.500977 -14.499 2.49902s-5.83398 6.5 -6.50098 10.5l-3 25l247 46c4 0.666992 7.5 -0.166016 10.5 -2.49902s4.83301 -5.83301 5.5 -10.5l2 -26z" />
    <glyph glyph-name="lilah" unicode="&#xfedf;&#xfee0;&#x651;&#x670;&#xfeea;" horiz-adv-x="1056" arabic-form="isolated" 
d="M543 581c-0.666992 8 0.999023 14.6621 4.99902 19.9951s9.66699 8 17 8h53l53 -502c6.66699 -6 15 -11.167 25 -15.5s21.667 -8.16602 35 -11.499s29.666 -5 48.999 -5h19c33.333 1.33301 57 9.33301 71 24c16 16.667 22.667 40.334 20 71.001l-44 411
c-0.666992 8 1.16602 14.667 5.49902 20s10.166 8 17.499 8h52l43 -408c3.33301 -31.333 3.5 -59.333 0.5 -84s-10.5 -45.667 -22.5 -63s-29.667 -30.666 -53 -39.999c-21.333 -8.66699 -48.666 -13.334 -81.999 -14.001h-19c-17.333 0 -38.5 4 -63.5 12
s-46.167 21 -63.5 39c-6.66699 -13.333 -19 -25.166 -37 -35.499s-42 -15.5 -72 -15.5h-105c-10.667 0 -20.667 1.83301 -30 5.5s-17.666 8 -24.999 13s-13.666 10.167 -18.999 15.5s-9.33301 10 -12 14c-3.33301 -4 -8.16602 -9.16699 -14.499 -15.5
s-14.666 -12.333 -24.999 -18s-22.833 -10.667 -37.5 -15s-31.667 -6.5 -51 -6.5c-20.667 0 -41.834 2.66699 -63.501 8s-42.167 15.666 -61.5 30.999s-36.166 36.833 -50.499 64.5s-23.833 63.834 -28.5 108.501c-2.66699 27.333 -2 52.833 2 76.5s12.667 44.334 26 62.001
s31.166 31.5 53.499 41.5s50.833 15 85.5 15c23.333 0 46.166 -1.33301 68.499 -4s43 -5.66699 62 -9s37.5 -7.33301 55.5 -12l28 -261c1.33301 -13.333 6.5 -23.166 15.5 -29.499s19.167 -9.5 30.5 -9.5h67c26.667 0 44.834 6.66699 54.501 20s13.5 31 11.5 53z
M309.999 314.995c-18 4.66699 -35.832 7.66699 -53.499 9s-32.167 2 -43.5 2c-14 0 -28.5 -2 -43.5 -6s-27.333 -10.667 -37 -20s-16.834 -21.333 -21.501 -36s-5.66699 -35 -3 -61c5.33301 -48.667 18.833 -83.667 40.5 -105s50.167 -32 85.5 -32c18.667 0 34 2 46 6
s22.333 8.83301 31 14.5s15.667 12.167 21 19.5z" />
    <glyph glyph-name="lamalefmaddaaboveiso" unicode="&#xfedf;&#xfe82;" horiz-adv-x="656" arabic-form="isolated" 
d="M326 507c-3.33301 -4 -7.50098 -5.49902 -12.501 -4.49902s-10.833 4.16699 -17.5 9.5c-16.667 13.333 -31.334 21.833 -44.001 25.5s-25.5 -0.5 -38.5 -12.5s-29.167 -19.667 -48.5 -23s-36.5 -0.833008 -51.5 7.5s-26.167 15.166 -33.5 20.499s-14 10.833 -20 16.5
l-18 17.5l18 18c4.66699 4.66699 9.33398 6.66699 14.001 6s11.334 -4.33398 20.001 -11.001l19.5 -12.5c7 -4.33301 14.167 -7.5 21.5 -9.5s14.333 -2.33301 21 -1s13.667 5.83301 21 13.5s16.166 13.334 26.499 17.001s23.5 5.5 39.5 5.5s33.333 -6 52 -18
s35.334 -25.667 50.001 -41zM204.999 395.001c-0.666992 8 1.16797 14.667 5.50098 20s10.166 8 17.499 8h52l37 -348h83c38 0 64.833 8.16699 80.5 24.5s22.167 39.833 19.5 70.5l-43 410c-1.33301 8 0.166992 14.833 4.5 20.5s10.166 8.5 17.499 8.5h52l43 -409
c3.33301 -30.667 3.5 -58.334 0.5 -83.001s-10.5 -45.667 -22.5 -63s-29.667 -30.666 -53 -39.999s-53.666 -14 -90.999 -14h-358l-5 44c-1.33301 10 0.166992 17.667 4.5 23s10.5 8 18.5 8h171l-34 320v0z" />
    <glyph glyph-name="lamalefmaddaabovefina" unicode="&#xfee0;&#xfe82;" horiz-adv-x="696" arabic-form="final" 
d="M305 508c-3.33301 -4 -7.50098 -5.49902 -12.501 -4.49902s-10.833 4.16699 -17.5 9.5c-16.667 13.333 -31.334 21.833 -44.001 25.5s-25.5 -0.5 -38.5 -12.5s-29.167 -19.667 -48.5 -23s-36.5 -0.833008 -51.5 7.5s-26.167 15.166 -33.5 20.499s-14 10.833 -20 16.5
l-18 17.5l18 18c4.66699 4.66699 9.33398 6.66699 14.001 6s11.334 -4.33398 20.001 -11.001l19.5 -12.5c7 -4.33301 14.167 -7.5 21.5 -9.5s14.333 -2.33301 21 -1s13.667 5.83301 21 13.5s16.166 13.334 26.499 17.001s23.5 5.5 39.5 5.5s33.333 -6 52 -18
s35.334 -25.667 50.001 -41zM33.999 44.001c-0.666992 7.33301 0.335938 14.333 3.00293 21s8 10 16 10h173l-34 320c-0.666992 8 1.16602 14.667 5.49902 20s10.166 8 17.499 8h53l37 -348h117c28 0 46.667 6.66699 56 20s13 31 11 53l-45 432
c-1.33301 8 0.166992 14.833 4.5 20.5s10.166 8.5 17.499 8.5h53l53 -503c6.66699 -6 15.334 -11.333 26.001 -16c9.33301 -4 20.666 -7.5 33.999 -10.5s29.666 -4.5 48.999 -4.5h19l8 -75h-19c-8.66699 0 -18.667 1 -30 3s-22.666 5 -33.999 9s-22.5 9.16699 -33.5 15.5
s-20.833 13.833 -29.5 22.5c-6.66699 -13.333 -19 -25 -37 -35s-42 -15 -72 -15h-414z" />
    <glyph glyph-name="lamalefhamzaaboveiso" unicode="&#xfedf;&#xfe84;" horiz-adv-x="656" arabic-form="isolated" 
d="M138 483l-2.99609 25.9971c-0.666992 7.33301 0.666016 12.833 3.99902 16.5s7.33301 5.5 12 5.5h8c-4 4 -7.33301 8.83301 -10 14.5s-4.33398 13.834 -5.00098 24.501c-2 14 -0.833008 26.5 3.5 37.5s10.833 19.833 19.5 26.5s18.667 11.334 30 14.001
s23.666 4 36.999 4c9.33301 0 18.333 -0.5 27 -1.5s16.667 -2.33301 24 -4s14.333 -3.16699 21 -4.5l-2 -29c-0.666992 -5.33301 -2.33398 -9.5 -5.00098 -12.5s-6 -4.16699 -10 -3.5c-1.33301 0 -7 0.833008 -17 2.5s-20.667 2.5 -32 2.5
c-21.333 0 -34.833 -3.83301 -40.5 -11.5s-8.16699 -14.834 -7.5 -21.501c0.666992 -9.33301 3.16699 -16.166 7.5 -20.499s8.83301 -7.83301 13.5 -10.5s10.334 -4.5 17.001 -5.5s12.667 -1.5 18 -1.5h51c5.33301 0 9.16602 -1.66699 11.499 -5s3.5 -6.66602 3.5 -9.99902
l4 -33h-180zM205.004 394.997c-0.666992 8 1.16797 14.667 5.50098 20s10.166 8 17.499 8h52l37 -348h83c38 0 64.833 8.16699 80.5 24.5s22.167 39.833 19.5 70.5l-43 410c-1.33301 8 0.166992 14.833 4.5 20.5s10.166 8.5 17.499 8.5h52l43 -409
c3.33301 -30.667 3.5 -58.334 0.5 -83.001s-10.5 -45.667 -22.5 -63s-29.667 -30.666 -53 -39.999s-53.666 -14 -90.999 -14h-358l-5 44c-1.33301 10 0.166992 17.667 4.5 23s10.5 8 18.5 8h171l-34 320v0z" />
    <glyph glyph-name="lamalefhamzaabovefina" unicode="&#xfee0;&#xfe84;" horiz-adv-x="696" arabic-form="final" 
d="M128 483l-2.99609 25.9971c-0.666992 7.33301 0.666016 12.833 3.99902 16.5s7.33301 5.5 12 5.5h8c-4 4 -7.33301 8.83301 -10 14.5s-4.33398 13.834 -5.00098 24.501c-2 14 -0.833008 26.5 3.5 37.5s10.833 19.833 19.5 26.5s18.667 11.334 30 14.001
s23.666 4 36.999 4c9.33301 0 18.333 -0.5 27 -1.5s16.667 -2.33301 24 -4s14.333 -3.16699 21 -4.5l-2 -29c-0.666992 -5.33301 -2.33398 -9.5 -5.00098 -12.5s-6 -4.16699 -10 -3.5c-1.33301 0 -7 0.833008 -17 2.5s-20.667 2.5 -32 2.5
c-21.333 0 -34.833 -3.83301 -40.5 -11.5s-8.16699 -14.834 -7.5 -21.501c0.666992 -9.33301 3.16699 -16.166 7.5 -20.499s8.83301 -7.83301 13.5 -10.5s10.334 -4.5 17.001 -5.5s12.667 -1.5 18 -1.5h51c5.33301 0 9.16602 -1.66699 11.499 -5s3.5 -6.66602 3.5 -9.99902
l4 -33h-180zM34.0039 43.9971c-0.666992 7.33301 0.335938 14.333 3.00293 21s8 10 16 10h173l-34 320c-0.666992 8 1.16602 14.667 5.49902 20s10.166 8 17.499 8h53l37 -348h117c28 0 46.667 6.66699 56 20s13 31 11 53l-45 432c-1.33301 8 0.166992 14.833 4.5 20.5
s10.166 8.5 17.499 8.5h53l53 -503c6.66699 -6 15.334 -11.333 26.001 -16c9.33301 -4 20.666 -7.5 33.999 -10.5s29.666 -4.5 48.999 -4.5h19l8 -75h-19c-8.66699 0 -18.667 1 -30 3s-22.666 5 -33.999 9s-22.5 9.16699 -33.5 15.5s-20.833 13.833 -29.5 22.5
c-6.66699 -13.333 -19 -25 -37 -35s-42 -15 -72 -15h-414z" />
    <glyph glyph-name="lamalefhamzabelowiso" unicode="&#xfedf;&#xfe88;" horiz-adv-x="656" arabic-form="isolated" 
d="M205 395c-0.666992 8 1.16797 14.667 5.50098 20s10.166 8 17.499 8h52l37 -348h83c38 0 64.833 8.16699 80.5 24.5s22.167 39.833 19.5 70.5l-43 410c-1.33301 8 0.166992 14.833 4.5 20.5s10.166 8.5 17.499 8.5h52l43 -409c3.33301 -30.667 3.5 -58.334 0.5 -83.001
s-10.5 -45.667 -22.5 -63s-29.667 -30.666 -53 -39.999s-53.666 -14 -90.999 -14h-358l-5 44c-1.33301 10 0.166992 17.667 4.5 23s10.5 8 18.5 8h171l-34 320v0zM212.002 -221l-2.99609 25.9971c-0.666992 7.33301 0.666016 12.833 3.99902 16.5s7.33301 5.5 12 5.5h8
c-4 4 -7.33301 8.83301 -10 14.5s-4.33398 13.834 -5.00098 24.501c-2 14 -0.833008 26.5 3.5 37.5s10.833 19.833 19.5 26.5s18.667 11.334 30 14.001s23.666 4 36.999 4c9.33301 0 18.333 -0.5 27 -1.5s16.667 -2.33301 24 -4s14.333 -3.16699 21 -4.5l-2 -29
c-0.666992 -5.33301 -2.33398 -9.5 -5.00098 -12.5s-6 -4.16699 -10 -3.5c-1.33301 0 -7 0.833008 -17 2.5s-20.667 2.5 -32 2.5c-21.333 0 -34.833 -3.83301 -40.5 -11.5s-8.16699 -14.834 -7.5 -21.501c0.666992 -9.33301 3.16699 -16.166 7.5 -20.499
s8.83301 -7.83301 13.5 -10.5s10.334 -4.5 17.001 -5.5s12.667 -1.5 18 -1.5h51c5.33301 0 9.16602 -1.66699 11.499 -5s3.5 -6.66602 3.5 -9.99902l4 -33h-180z" />
    <glyph glyph-name="lamalefhamzabelowfina" unicode="&#xfee0;&#xfe88;" horiz-adv-x="696" arabic-form="final" 
d="M34 44c-0.666992 7.33301 0.335938 14.333 3.00293 21s8 10 16 10h173l-34 320c-0.666992 8 1.16602 14.667 5.49902 20s10.166 8 17.499 8h53l37 -348h117c28 0 46.667 6.66699 56 20s13 31 11 53l-45 432c-1.33301 8 0.166992 14.833 4.5 20.5s10.166 8.5 17.499 8.5
h53l53 -503c6.66699 -6 15.334 -11.333 26.001 -16c9.33301 -4 20.666 -7.5 33.999 -10.5s29.666 -4.5 48.999 -4.5h19l8 -75h-19c-8.66699 0 -18.667 1 -30 3s-22.666 5 -33.999 9s-22.5 9.16699 -33.5 15.5s-20.833 13.833 -29.5 22.5c-6.66699 -13.333 -19 -25 -37 -35
s-42 -15 -72 -15h-414zM201.003 -221l-2.99609 25.9971c-0.666992 7.33301 0.666016 12.833 3.99902 16.5s7.33301 5.5 12 5.5h8c-4 4 -7.33301 8.83301 -10 14.5s-4.33398 13.834 -5.00098 24.501c-2 14 -0.833008 26.5 3.5 37.5s10.833 19.833 19.5 26.5
s18.667 11.334 30 14.001s23.666 4 36.999 4c9.33301 0 18.333 -0.5 27 -1.5s16.667 -2.33301 24 -4s14.333 -3.16699 21 -4.5l-2 -29c-0.666992 -5.33301 -2.33398 -9.5 -5.00098 -12.5s-6 -4.16699 -10 -3.5c-1.33301 0 -7 0.833008 -17 2.5s-20.667 2.5 -32 2.5
c-21.333 0 -34.833 -3.83301 -40.5 -11.5s-8.16699 -14.834 -7.5 -21.501c0.666992 -9.33301 3.16699 -16.166 7.5 -20.499s8.83301 -7.83301 13.5 -10.5s10.334 -4.5 17.001 -5.5s12.667 -1.5 18 -1.5h51c5.33301 0 9.16602 -1.66699 11.499 -5s3.5 -6.66602 3.5 -9.99902
l4 -33h-180z" />
    <glyph glyph-name="lamalefiso" unicode="&#xfedf;&#xfe8e;" horiz-adv-x="656" arabic-form="isolated" 
d="M205 395c-0.666992 8 1.16797 14.667 5.50098 20s10.166 8 17.499 8h52l37 -348h83c38 0 64.833 8.16699 80.5 24.5s22.167 39.833 19.5 70.5l-43 410c-1.33301 8 0.166992 14.833 4.5 20.5s10.166 8.5 17.499 8.5h52l43 -409c3.33301 -30.667 3.5 -58.334 0.5 -83.001
s-10.5 -45.667 -22.5 -63s-29.667 -30.666 -53 -39.999s-53.666 -14 -90.999 -14h-358l-5 44c-1.33301 10 0.166992 17.667 4.5 23s10.5 8 18.5 8h171l-34 320v0z" />
    <glyph glyph-name="lamaleffina" unicode="&#xfee0;&#xfe8e;" horiz-adv-x="696" arabic-form="final" 
d="M34 44c-0.666992 7.33301 0.335938 14.333 3.00293 21s8 10 16 10h173l-34 320c-0.666992 8 1.16602 14.667 5.49902 20s10.166 8 17.499 8h53l37 -348h117c28 0 46.667 6.66699 56 20s13 31 11 53l-45 432c-1.33301 8 0.166992 14.833 4.5 20.5s10.166 8.5 17.499 8.5
h53l53 -503c6.66699 -6 15.334 -11.333 26.001 -16c9.33301 -4 20.666 -7.5 33.999 -10.5s29.666 -4.5 48.999 -4.5h19l8 -75h-19c-8.66699 0 -18.667 1 -30 3s-22.666 5 -33.999 9s-22.5 9.16699 -33.5 15.5s-20.833 13.833 -29.5 22.5c-6.66699 -13.333 -19 -25 -37 -35
s-42 -15 -72 -15h-414z" />
    <glyph glyph-name="shaddahfathatan" unicode="&#x651;&#x64b;" horiz-adv-x="312" 
d="M52 615c13.333 0 21.1689 3.33398 23.502 10.001s2.83301 15.334 1.5 26.001l-5 51c-1.33301 8.66699 2 13 10 13h26l9 -84c3.33301 -2.66699 6.66602 -5.16699 9.99902 -7.5s7.33301 -4.33301 12 -6s10 -2.5 16 -2.5c9.33301 0.666992 16.666 2.5 21.999 5.5
s7.33301 11.5 6 25.5l-6 56c-1.33301 8.66699 2 13 10 13h26l9 -80c2 -18.667 -2.66699 -32.667 -14 -42s-24.666 -14 -39.999 -14c-8 0 -17 1.66699 -27 5s-19.667 9.66602 -29 18.999c-3.33301 -6.66699 -9.33301 -12.334 -18 -17.001s-20.334 -7 -35.001 -7h-7
c-24 0 -42.5 5.33301 -55.5 16s-20.167 24 -21.5 40l-9 80h26c8 0 12.667 -4.33301 14 -13l5 -56c1.33301 -14 6 -22.667 14 -26s17 -5 27 -5zM-24.9971 799.001c-6 -1.33301 -10.832 -0.500977 -14.499 2.49902s-5.83398 6.5 -6.50098 10.5l-3 25l247 46
c4 0.666992 7.5 -0.166016 10.5 -2.49902s4.83301 -5.83301 5.5 -10.5l2 -26zM-24.9961 730c-6 -1.33301 -10.832 -0.500977 -14.499 2.49902s-5.83398 6.5 -6.50098 10.5l-3 25l247 46c4 0.666992 7.5 -0.166016 10.5 -2.49902s4.83301 -5.83301 5.5 -10.5l2 -26z" />
    <glyph glyph-name="faya" unicode="&#xfed3;&#xfef2;" horiz-adv-x="1053" 
d="M484 -164c11.333 0 23.498 1.67188 36.498 5.00488s24.5 8.66602 34.5 15.999s18.167 16.333 24.5 27s8.83301 23.667 7.5 39c-2 17.333 -8 33.166 -18 47.499s-22.333 27.333 -37 39s-31.167 21.834 -49.5 30.501s-36.833 16 -55.5 22l12 50
c1.33301 7.33301 4.16602 13.666 8.49902 18.999s12.5 5.66602 24.5 0.999023l41 -17.5c14.667 -6.33301 30.334 -12.5 47.001 -18.5s34.667 -11 54 -15s40 -6 62 -6h127c33.333 0 60.166 4.83301 80.499 14.5s28.833 28.167 25.5 55.5
c-10.667 -6 -25.334 -11.167 -44.001 -15.5s-38.667 -6.5 -60 -6.5c-33.333 0 -61.833 3.83301 -85.5 11.5s-43.167 18.667 -58.5 33s-27.166 31.833 -35.499 52.5s-13.833 44 -16.5 70s-1.5 49.167 3.5 69.5s14.333 37.666 28 51.999s32.5 25.333 56.5 33s54 11.5 90 11.5
c18.667 0 37.834 -2 57.501 -6s38.5 -8.83301 56.5 -14.5s36 -11.834 54 -18.501l26 -254c2.66699 -21.333 2.16699 -41.833 -1.5 -61.5s-11.667 -37 -24 -52s-30 -27 -53 -36s-52.833 -13.5 -89.5 -13.5h-178c4 -6 7.83301 -12.833 11.5 -20.5
s7.16699 -16.834 10.5 -27.501s6 -23.667 8 -39c0.666992 -11.333 -0.833008 -25.666 -4.5 -42.999s-12.334 -34 -26.001 -50s-33 -29.667 -58 -41s-57.833 -17 -98.5 -17h-149c-32 0 -63.333 3.83301 -94 11.5s-58.167 20.667 -82.5 39s-44.666 43 -60.999 74
s-27.166 69.833 -32.499 116.5c-1.33301 15.333 -1.66602 31.333 -0.999023 48s1.66699 33 3 49s3.5 31 6.5 45s5.5 26.667 7.5 38l45 -11c7.33301 -2 12.333 -5.16699 15 -9.5s3.33398 -10.833 2.00098 -19.5l-6 -53.5c-2.66699 -24.333 -2.33398 -53.166 0.999023 -86.499
c4 -36.667 13.167 -66 27.5 -88s31.5 -38.833 51.5 -50.5s41.5 -19.334 64.5 -23.001s45.167 -5.5 66.5 -5.5h142zM795.998 193.005c18.667 0 34.499 0.833008 47.499 2.5s24 3.83398 33 6.50098s16.167 5.66699 21.5 9l-16 155
c-17.333 5.33301 -33.166 9.66602 -47.499 12.999s-31.5 5 -51.5 5c-34 0 -59.833 -7.16699 -77.5 -21.5s-24.5 -40.5 -20.5 -78.5c1.33301 -18 5.33301 -32.833 12 -44.5s15 -21 25 -28s21.333 -11.833 34 -14.5s26 -4 40 -4zM263.997 -347.995
c-1.33301 14 2.33398 25.833 11.001 35.5s20 14.5 34 14.5s26.333 -4.83301 37 -14.5s16.667 -21.5 18 -35.5s-2.33398 -25.833 -11.001 -35.5s-20 -14.5 -34 -14.5s-26.333 4.83301 -37 14.5s-16.667 21.5 -18 35.5zM391.997 -347.995
c-1.33301 14 2.33398 25.833 11.001 35.5s20 14.5 34 14.5s26.333 -4.83301 37 -14.5s16.667 -21.5 18 -35.5s-2.33398 -25.833 -11.001 -35.5s-20 -14.5 -34 -14.5s-26.333 4.83301 -37 14.5s-16.667 21.5 -18 35.5zM723.997 588.005c-1.33301 14 2.33301 25.833 11 35.5
s20 14.5 34 14.5s26.333 -4.83301 37 -14.5s16.667 -21.5 18 -35.5c2 -14 -1.33301 -25.833 -10 -35.5s-20 -14.5 -34 -14.5s-26.333 4.83301 -37 14.5s-17 21.5 -19 35.5z" />
    <glyph glyph-name="ala" unicode="&#xfecb;&#xfee0;&#xfbfd;" horiz-adv-x="1379" 
d="M691 581c-0.666992 8 0.999023 14.668 4.99902 20.001s9.66699 8 17 8h53l53 -502c6.66699 -6 15 -11.167 25 -15.5s21.667 -8.16602 35 -11.499s29.666 -5 48.999 -5h64c-8 6.66699 -15.833 15.334 -23.5 26.001s-13.667 24 -18 40s-7.83301 35.667 -10.5 59
c-2.66699 29.333 -1.83398 55.666 2.49902 78.999s13.833 43.166 28.5 59.499s34.834 28.833 60.501 37.5s57.834 13 96.501 13c19.333 0 38 -1 56 -3s35.333 -4.33301 52 -7s33.334 -6 50.001 -10c-4.66699 -23.333 -7.33398 -37 -8.00098 -41
c-2.66699 -9.33301 -6.66699 -16 -12 -20s-15.333 -4.66699 -30 -2l-44 5c-18 2 -40.333 3 -67 3c-24 0 -43 -3 -57 -9s-24.667 -14.167 -32 -24.5s-11.833 -22.666 -13.5 -36.999s-1.5 -29.5 0.5 -45.5c2.66699 -26 8.16699 -47.167 16.5 -63.5s17.5 -28.833 27.5 -37.5
s20 -14.5 30 -17.5s18 -4.5 24 -4.5h160c7.33301 0 14 -2.83301 20 -8.5s9.66699 -12.167 11 -19.5l5 -47h-381c-17.333 0 -38.5 4 -63.5 12s-46.167 21 -63.5 39c-6.66699 -13.333 -19 -25.166 -37 -35.499s-42 -15.5 -72 -15.5h-65c4 -6 7.83301 -12.833 11.5 -20.5
s7.16699 -16.834 10.5 -27.501s6 -23.667 8 -39c0.666992 -11.333 -0.833008 -25.666 -4.5 -42.999s-12.334 -34 -26.001 -50s-33 -29.667 -58 -41s-57.833 -17 -98.5 -17h-149c-32 0 -63.333 3.83301 -94 11.5s-58.167 20.667 -82.5 39s-44.666 43 -60.999 74
s-27.166 69.833 -32.499 116.5c-1.33301 15.333 -1.66602 31.333 -0.999023 48s1.66699 33 3 49s3.5 31 6.5 45s5.5 26.667 7.5 38l45 -11c7.33301 -2 12.333 -5.16699 15 -9.5s3.33398 -10.833 2.00098 -19.5l-6 -53.5c-2.66699 -24.333 -2.33398 -53.166 0.999023 -86.499
c4 -36.667 13.167 -66 27.5 -88s31.5 -38.833 51.5 -50.5s41.5 -19.334 64.5 -23.001s45.167 -5.5 66.5 -5.5h142c11.333 0 23.5 1.66699 36.5 5s24.5 8.66602 34.5 15.999s18.167 16.333 24.5 27s8.83301 23.667 7.5 39c-2 17.333 -8 33.166 -18 47.499
s-22.333 27.333 -37 39s-31.167 21.834 -49.5 30.501s-36.833 16 -55.5 22l12 50c1.33301 7.33301 4.16602 13.666 8.49902 18.999s12.5 5.66602 24.5 0.999023l41 -17.5c14.667 -6.33301 30.334 -12.5 47.001 -18.5s34.667 -11 54 -15c17.333 -4 35.666 -6 54.999 -6
c28 0 46.833 6.66699 56.5 20s13.5 31 11.5 53z" />
    <glyph glyph-name="hamza" unicode="&#x621;" horiz-adv-x="434" arabic-form="isolated" 
d="M77 0l-5.00098 40c-1.33301 13.333 1.33398 22.666 8.00098 27.999s13 7.66602 19 6.99902h11c-6 6.66699 -11 14.5 -15 23.5s-7 21.5 -9 37.5c-2 22 0.333008 41.667 7 59s16.5 30.833 29.5 40.5s29 16.834 48 21.501s38.5 7 58.5 7
c15.333 0 29.666 -0.833008 42.999 -2.5s25.666 -3.66699 36.999 -6s22 -4.83301 32 -7.5v-20c0 -7.33301 -0.666992 -15.666 -2 -24.999c-0.666992 -8 -3.16699 -14.5 -7.5 -19.5s-10.166 -7.16699 -17.499 -6.5c-2 0 -10.5 1.5 -25.5 4.5s-31.167 4.5 -48.5 4.5
s-31.166 -1.83301 -41.499 -5.5s-18.333 -8.16699 -24 -13.5s-9.33398 -11 -11.001 -17s-2.16699 -11.667 -1.5 -17c1.33301 -14 5.5 -24.333 12.5 -31s14.333 -12 22 -16s16.5 -6.83301 26.5 -8.5s19.667 -2.5 29 -2.5h79c8 0 13.833 -2 17.5 -6s5.83398 -10 6.50098 -18
l6 -51h-284z" />
    <glyph glyph-name="alefmaddaaboveiso" unicode="&#x622;" horiz-adv-x="212" arabic-form="isolated" 
d="M179 675c-3.33301 -4 -7.50098 -5.49902 -12.501 -4.49902s-10.833 4.16699 -17.5 9.5c-16.667 13.333 -31.334 21.833 -44.001 25.5s-25.5 -0.5 -38.5 -12.5s-29.167 -19.667 -48.5 -23s-36.5 -0.833008 -51.5 7.5s-26.167 15.166 -33.5 20.499s-14 10.833 -20 16.5
l-18 17.5l18 18c4.66699 4.66699 9.33398 6.66699 14.001 6s11.334 -4.33398 20.001 -11.001l19.5 -12.5c7 -4.33301 14.167 -7.5 21.5 -9.5s14.333 -2.33301 21 -1s13.667 5.83301 21 13.5s16.166 13.334 26.499 17.001s23.5 5.5 39.5 5.5s33.333 -6 52 -18
s35.334 -25.667 50.001 -41zM153.999 28.001c0.666992 -8 -1.16699 -14.667 -5.5 -20s-10.833 -8 -19.5 -8h-51l-62 581c-0.666992 8 1.5 14.667 6.5 20s11.167 8 18.5 8h51z" />
    <glyph glyph-name="alefhamzaaboveiso" unicode="&#x623;" horiz-adv-x="212" arabic-form="isolated" 
d="M-52 663l-2.99609 25.9971c-0.666992 7.33301 0.666016 12.833 3.99902 16.5s7.33301 5.5 12 5.5h8c-4 4 -7.33301 8.83301 -10 14.5s-4.33398 13.834 -5.00098 24.501c-2 14 -0.833008 26.5 3.5 37.5s10.833 19.833 19.5 26.5s18.667 11.334 30 14.001
s23.666 4 36.999 4c9.33301 0 18.333 -0.5 27 -1.5s16.667 -2.33301 24 -4s14.333 -3.16699 21 -4.5l-2 -29c-0.666992 -5.33301 -2.33398 -9.5 -5.00098 -12.5s-6 -4.16699 -10 -3.5c-1.33301 0 -7 0.833008 -17 2.5s-20.667 2.5 -32 2.5
c-21.333 0 -34.833 -3.83301 -40.5 -11.5s-8.16699 -14.834 -7.5 -21.501c0.666992 -9.33301 3.16699 -16.166 7.5 -20.499s8.83301 -7.83301 13.5 -10.5s10.334 -4.5 17.001 -5.5s12.667 -1.5 18 -1.5h51c5.33301 0 9.16602 -1.66699 11.499 -5s3.5 -6.66602 3.5 -9.99902
l4 -33h-180zM154.004 27.9971c0.666992 -8 -1.16699 -14.667 -5.5 -20s-10.833 -8 -19.5 -8h-51l-62 581c-0.666992 8 1.5 14.667 6.5 20s11.167 8 18.5 8h51z" />
    <glyph glyph-name="wawhamzaiso" unicode="&#x624;" horiz-adv-x="485" arabic-form="isolated" 
d="M236 389c21.333 0 41.668 -1.50098 61.001 -4.50098s37.166 -6.33301 53.499 -10s31.833 -7.83398 46.5 -12.501l39 -366c4.66699 -43.333 4.83398 -79.333 0.500977 -108s-13.166 -51.5 -26.499 -68.5s-31 -29 -53 -36s-48 -10.5 -78 -10.5c-6 0 -13.667 0.333008 -23 1
s-19 1.5 -29 2.5s-19.833 2.5 -29.5 4.5s-17.5 4 -23.5 6c-8 2.66699 -14 6.5 -18 11.5s-5.33301 12.5 -4 22.5l6 42c12 -2.66699 24 -5.16699 36 -7.5s24.667 -4.33301 38 -6s26.333 -2.5 39 -2.5c24 0 42.667 4 56 12s22.833 18.5 28.5 31.5s8.83398 27.833 9.50098 44.5
s-1.33301 42 -6 76c-6 -2.66699 -13 -5 -21 -7s-17.333 -3.66699 -28 -5s-22.667 -2 -36 -2c-22.667 0 -46.834 2.33301 -72.501 7s-49.834 13.834 -72.501 27.501s-42.334 33 -59.001 58s-27 57.833 -31 98.5c-4 36.667 -1.33301 67.834 8 93.501s23.166 46.5 41.499 62.5
s40.333 27.5 66 34.5s52.834 10.5 81.501 10.5zM325.002 308.999c-10 3.33301 -23.002 6 -39.002 8s-31.667 3 -47 3c-38 0 -68.5 -10.167 -91.5 -30.5s-32.167 -53.166 -27.5 -98.499c2.66699 -23.333 8.5 -42.833 17.5 -58.5s20.167 -28.167 33.5 -37.5s28.333 -16 45 -20
s33.667 -6 51 -6c15.333 0 28.333 0.666992 39 2s19.334 3.16602 26.001 5.49902s12.334 4.83301 17.001 7.5zM115 451.999l-2.99609 25.9971c-0.666992 7.33301 0.666016 12.833 3.99902 16.5s7.33301 5.5 12 5.5h8c-4 4 -7.33301 8.83301 -10 14.5
s-4.33398 13.834 -5.00098 24.501c-2 14 -0.833008 26.5 3.5 37.5s10.833 19.833 19.5 26.5s18.667 11.334 30 14.001s23.666 4 36.999 4c9.33301 0 18.333 -0.5 27 -1.5s16.667 -2.33301 24 -4s14.333 -3.16699 21 -4.5l-2 -29
c-0.666992 -5.33301 -2.33398 -9.5 -5.00098 -12.5s-6 -4.16699 -10 -3.5c-1.33301 0 -7 0.833008 -17 2.5s-20.667 2.5 -32 2.5c-21.333 0 -34.833 -3.83301 -40.5 -11.5s-8.16699 -14.834 -7.5 -21.501c0.666992 -9.33301 3.16699 -16.166 7.5 -20.499
s8.83301 -7.83301 13.5 -10.5s10.334 -4.5 17.001 -5.5s12.667 -1.5 18 -1.5h51c5.33301 0 9.16602 -1.66699 11.499 -5s3.5 -6.66602 3.5 -9.99902l4 -33h-180z" />
    <glyph glyph-name="alefhamzabelowiso" unicode="&#x625;" horiz-adv-x="212" arabic-form="isolated" 
d="M154 28c0.666992 -8 -1.16699 -14.667 -5.5 -20s-10.833 -8 -19.5 -8h-51l-62 581c-0.666992 8 1.5 14.667 6.5 20s11.167 8 18.5 8h51zM35.999 -213l-2.99609 25.9971c-0.666992 7.33301 0.666016 12.833 3.99902 16.5s7.33301 5.5 12 5.5h8
c-4 4 -7.33301 8.83301 -10 14.5s-4.33398 13.834 -5.00098 24.501c-2 14 -0.833008 26.5 3.5 37.5s10.833 19.833 19.5 26.5s18.667 11.334 30 14.001s23.666 4 36.999 4c9.33301 0 18.333 -0.5 27 -1.5s16.667 -2.33301 24 -4s14.333 -3.16699 21 -4.5l-2 -29
c-0.666992 -5.33301 -2.33398 -9.5 -5.00098 -12.5s-6 -4.16699 -10 -3.5c-1.33301 0 -7 0.833008 -17 2.5s-20.667 2.5 -32 2.5c-21.333 0 -34.833 -3.83301 -40.5 -11.5s-8.16699 -14.834 -7.5 -21.501c0.666992 -9.33301 3.16699 -16.166 7.5 -20.499
s8.83301 -7.83301 13.5 -10.5s10.334 -4.5 17.001 -5.5s12.667 -1.5 18 -1.5h51c5.33301 0 9.16602 -1.66699 11.499 -5s3.5 -6.66602 3.5 -9.99902l4 -33h-180z" />
    <glyph glyph-name="hamzakirsehiso" unicode="&#x626;" horiz-adv-x="764" arabic-form="isolated" 
d="M654 349l0.00195312 -23.999v-24c0 -6.66699 -1.33301 -11.667 -4 -15s-6.66699 -5 -12 -5c-4 0 -10.667 0.666992 -20 2s-20.5 2.83301 -33.5 4.5s-26.667 3.16699 -41 4.5s-27.833 2 -40.5 2c-48 0 -81.667 -5.33301 -101 -16s-27.333 -32.334 -24 -65.001
c2 -15.333 7.33301 -27.666 16 -36.999s19.334 -16.833 32.001 -22.5s26.5 -10.167 41.5 -13.5s42.667 -8.66602 83 -15.999s69.666 -14.666 87.999 -21.999s33.5 -17 45.5 -29s21.167 -26.833 27.5 -44.5s10.833 -39.167 13.5 -64.5c6.66699 -60 -2.5 -105.5 -27.5 -136.5
s-72.167 -46.5 -141.5 -46.5h-228c-32.667 0 -64.5 3.66699 -95.5 11s-58.667 20.333 -83 39s-44.833 43.667 -61.5 75s-27.334 70.333 -32.001 117c-1.33301 15.333 -1.66602 31.333 -0.999023 48s2 33 4 49s4.33301 31 7 45s5.33398 26.667 8.00098 38l53 -12
c7.33301 -2 12 -5 14 -9s2.33301 -10.333 1 -19c-0.666992 -3.33301 -2.33398 -14.833 -5.00098 -34.5s-4.5 -37.834 -5.5 -54.501s-0.5 -33.667 1.5 -51c4 -36.667 13.333 -66 28 -88s31.667 -39 51 -51s40.166 -19.833 62.499 -23.5s44.166 -5.5 65.499 -5.5h223
c18.667 0 34 3 46 9s21.333 13.833 28 23.5s11 20.667 13 33s2.33301 24.833 1 37.5c-2 18 -6 32.667 -12 44s-13.833 20.166 -23.5 26.499s-21 11.166 -34 14.499s-28.833 6.83301 -47.5 10.5s-41.334 7.5 -68.001 11.5s-52 11 -76 21s-44.833 24.833 -62.5 44.5
s-28.5 47.167 -32.5 82.5c-2.66699 25.333 -1.33398 47.833 3.99902 67.5s15.5 36 30.5 49s35.5 22.833 61.5 29.5s58.333 10 97 10c21.333 0 41.833 -1 61.5 -3s37.834 -4.33301 54.501 -7s33.334 -6 50.001 -10zM32.002 272.001l-2.99609 25.9971
c-0.666992 7.33301 0.666016 12.833 3.99902 16.5s7.33301 5.5 12 5.5h8c-4 4 -7.33301 8.83301 -10 14.5s-4.33398 13.834 -5.00098 24.501c-2 14 -0.833008 26.5 3.5 37.5s10.833 19.833 19.5 26.5s18.667 11.334 30 14.001s23.666 4 36.999 4
c9.33301 0 18.333 -0.5 27 -1.5s16.667 -2.33301 24 -4s14.333 -3.16699 21 -4.5l-2 -29c-0.666992 -5.33301 -2.33398 -9.5 -5.00098 -12.5s-6 -4.16699 -10 -3.5c-1.33301 0 -7 0.833008 -17 2.5s-20.667 2.5 -32 2.5c-21.333 0 -34.833 -3.83301 -40.5 -11.5
s-8.16699 -14.834 -7.5 -21.501c0.666992 -9.33301 3.16699 -16.166 7.5 -20.499s8.83301 -7.83301 13.5 -10.5s10.334 -4.5 17.001 -5.5s12.667 -1.5 18 -1.5h51c5.33301 0 9.16602 -1.66699 11.499 -5s3.5 -6.66602 3.5 -9.99902l4 -33h-180z" />
    <glyph glyph-name="alefiso" unicode="&#x627;" horiz-adv-x="212" arabic-form="isolated" 
d="M154 28c0.666992 -8 -1.16699 -14.667 -5.5 -20s-10.833 -8 -19.5 -8h-51l-62 581c-0.666992 8 1.5 14.667 6.5 20s11.167 8 18.5 8h51z" />
    <glyph glyph-name="behiso" unicode="&#x628;" horiz-adv-x="786" arabic-form="isolated" 
d="M702 365l19.001 -183c3.33301 -27.333 3.5 -52.166 0.5 -74.499s-10.667 -41.5 -23 -57.5s-30 -28.333 -53 -37s-53.167 -13 -90.5 -13h-311c-38 0 -71 4.66699 -99 14s-51.167 22.333 -69.5 39s-32.5 36.334 -42.5 59.001s-16.333 46 -19 70
c-2 18.667 -2.5 35.834 -1.5 51.501s2.5 29.5 4.5 41.5s4.33301 23.333 7 34c28.667 -8 44.667 -12.667 48 -14c7.33301 -2.66699 12.333 -6.33398 15 -11.001s3.66699 -12.334 3 -23.001l-2 -33c-0.666992 -10.667 -0.333984 -23.334 0.999023 -38.001
c2 -22.667 8.5 -41.5 19.5 -56.5s24.5 -26.833 40.5 -35.5s34 -14.667 54 -18s40.333 -5 61 -5h288c40 0 66 8.83301 78 26.5s16.333 43.5 13 77.5l-17 158c-0.666992 7.33301 1.5 13.833 6.5 19.5s11.167 8.5 18.5 8.5h51zM349.001 -107
c-1.33301 14 2.33301 25.833 11 35.5s20 14.5 34 14.5s26.333 -4.83301 37 -14.5s16.667 -21.5 18 -35.5c2 -14 -1.33301 -25.833 -10 -35.5s-20 -14.5 -34 -14.5s-26.333 4.83301 -37 14.5s-17 21.5 -19 35.5z" />
    <glyph glyph-name="tehmarboutaiso" unicode="&#x629;" horiz-adv-x="470" arabic-form="isolated" 
d="M83 517c-1.33301 14 2.33398 25.833 11.001 35.5s20 14.5 34 14.5s26.333 -4.83301 37 -14.5s16.667 -21.5 18 -35.5s-2.33398 -25.833 -11.001 -35.5s-20 -14.5 -34 -14.5s-26.333 4.83301 -37 14.5s-16.667 21.5 -18 35.5zM211 517
c-1.33301 14 2.33398 25.833 11.001 35.5s20 14.5 34 14.5s26.333 -4.83301 37 -14.5s16.667 -21.5 18 -35.5s-2.33398 -25.833 -11.001 -35.5s-20 -14.5 -34 -14.5s-26.333 4.83301 -37 14.5s-16.667 21.5 -18 35.5zM237 -7c-32.667 0 -61.5 5.16895 -86.5 15.502
s-46.5 24.5 -64.5 42.5s-32.167 39.167 -42.5 63.5s-17.166 50.166 -20.499 77.499c-6.66699 63.333 5.83301 114 37.5 152s80.834 57 147.501 57c26 0 46.833 -1.16699 62.5 -3.5s33 -5.33301 52 -9s39.167 -7.83398 60.5 -12.501l22 -212c2 -16.667 2.66699 -35 2 -55
s-5.83398 -38.5 -15.501 -55.5s-25.834 -31.333 -48.501 -43s-54.667 -17.5 -96 -17.5h-10zM312 315.002c-9.33301 2 -21.334 4.16602 -36.001 6.49902s-34 3.5 -58 3.5s-43.5 -3.5 -58.5 -10.5s-27 -16.5 -36 -28.5s-14.833 -26.167 -17.5 -42.5
s-2.66699 -34.166 0 -53.499c2 -22 7 -40.667 15 -56s17.833 -27.833 29.5 -37.5s24.834 -16.5 39.501 -20.5s30 -6 46 -6h12c18 0 32.5 2.66699 43.5 8s19.333 11.833 25 19.5s9.5 15.5 11.5 23.5s2.66699 15 2 21z" />
    <glyph glyph-name="taiso" unicode="&#x62a;" horiz-adv-x="786" arabic-form="isolated" 
d="M702 365l19.001 -183c3.33301 -27.333 3.5 -52.166 0.5 -74.499s-10.667 -41.5 -23 -57.5s-30 -28.333 -53 -37s-53.167 -13 -90.5 -13h-311c-38 0 -71 4.66699 -99 14s-51.167 22.333 -69.5 39s-32.5 36.334 -42.5 59.001s-16.333 46 -19 70
c-2 18.667 -2.5 35.834 -1.5 51.501s2.5 29.5 4.5 41.5s4.33301 23.333 7 34c28.667 -8 44.667 -12.667 48 -14c7.33301 -2.66699 12.333 -6.33398 15 -11.001s3.66699 -12.334 3 -23.001l-2 -33c-0.666992 -10.667 -0.333984 -23.334 0.999023 -38.001
c2 -22.667 8.5 -41.5 19.5 -56.5s24.5 -26.833 40.5 -35.5s34 -14.667 54 -18s40.333 -5 61 -5h288c40 0 66 8.83301 78 26.5s16.333 43.5 13 77.5l-17 158c-0.666992 7.33301 1.5 13.833 6.5 19.5s11.167 8.5 18.5 8.5h51zM228.001 443
c-1.33301 14 2.33398 25.833 11.001 35.5s20 14.5 34 14.5s26.333 -4.83301 37 -14.5s16.667 -21.5 18 -35.5s-2.33398 -25.833 -11.001 -35.5s-20 -14.5 -34 -14.5s-26.333 4.83301 -37 14.5s-16.667 21.5 -18 35.5zM356.001 443c-1.33301 14 2.33398 25.833 11.001 35.5
s20 14.5 34 14.5s26.333 -4.83301 37 -14.5s16.667 -21.5 18 -35.5s-2.33398 -25.833 -11.001 -35.5s-20 -14.5 -34 -14.5s-26.333 4.83301 -37 14.5s-16.667 21.5 -18 35.5z" />
    <glyph glyph-name="thaiso" unicode="&#x62b;" horiz-adv-x="786" arabic-form="isolated" 
d="M702 365l19.001 -183c3.33301 -27.333 3.5 -52.166 0.5 -74.499s-10.667 -41.5 -23 -57.5s-30 -28.333 -53 -37s-53.167 -13 -90.5 -13h-311c-38 0 -71 4.66699 -99 14s-51.167 22.333 -69.5 39s-32.5 36.334 -42.5 59.001s-16.333 46 -19 70
c-2 18.667 -2.5 35.834 -1.5 51.501s2.5 29.5 4.5 41.5s4.33301 23.333 7 34c28.667 -8 44.667 -12.667 48 -14c7.33301 -2.66699 12.333 -6.33398 15 -11.001s3.66699 -12.334 3 -23.001l-2 -33c-0.666992 -10.667 -0.333984 -23.334 0.999023 -38.001
c2 -22.667 8.5 -41.5 19.5 -56.5s24.5 -26.833 40.5 -35.5s34 -14.667 54 -18s40.333 -5 61 -5h288c40 0 66 8.83301 78 26.5s16.333 43.5 13 77.5l-17 158c-0.666992 7.33301 1.5 13.833 6.5 19.5s11.167 8.5 18.5 8.5h51zM229.001 445
c-1.33301 14 2.16699 25.833 10.5 35.5s19.5 14.5 33.5 14.5s26.333 -4.83301 37 -14.5s16.667 -21.5 18 -35.5c2 -14 -1.33301 -25.833 -10 -35.5s-20 -14.5 -34 -14.5s-26.167 4.83301 -36.5 14.5s-16.5 21.5 -18.5 35.5zM355.001 445c-1.33301 14 2.33301 25.833 11 35.5
s20 14.5 34 14.5s26.333 -4.83301 37 -14.5s16.667 -21.5 18 -35.5c2 -14 -1.33301 -25.833 -10 -35.5s-20 -14.5 -34 -14.5s-26.333 4.83301 -37 14.5s-17 21.5 -19 35.5zM278 568c-1.33301 14 2.33301 25.833 11 35.5s20 14.5 34 14.5s26.333 -4.83301 37 -14.5
s16.667 -21.5 18 -35.5c2 -14 -1.33301 -25.833 -10 -35.5s-20 -14.5 -34 -14.5s-26.333 4.83301 -37 14.5s-17 21.5 -19 35.5z" />
    <glyph glyph-name="jeemiso" unicode="&#x62c;" horiz-adv-x="597" arabic-form="isolated" 
d="M305 -124c-1.33301 14 2.33301 25.833 11 35.5s20 14.5 34 14.5s26.333 -4.83301 37 -14.5s16.667 -21.5 18 -35.5c2 -14 -1.33301 -25.833 -10 -35.5s-20 -14.5 -34 -14.5s-26.333 4.83301 -37 14.5s-17 21.5 -19 35.5zM300.999 317
c-15.333 0 -30.5039 -0.665039 -45.5039 -1.99805s-29.333 -2.83301 -43 -4.5s-26 -3.66699 -37 -6s-20.5 -4.5 -28.5 -6.5c-16 -4.66699 -26 -0.666992 -30 12c-2 4 -7.66699 21 -17 51c17.333 4.66699 36 8.83398 56 12.501s42 7 66 10s49.667 4.5 77 4.5
c38.667 0 72.167 -3.83301 100.5 -11.5s51.833 -20 70.5 -37s33.5 -38.833 44.5 -65.5s18.5 -58.667 22.5 -96l9 -88c3.33301 -30.667 -0.333984 -53.334 -11.001 -68.001s-32.667 -22 -66 -22h-239c-15.333 0 -29.666 -1 -42.999 -3s-24.666 -6.16699 -33.999 -12.5
s-16.166 -15.333 -20.499 -27s-5.5 -26.834 -3.5 -45.501c2.66699 -26 10.667 -48.667 24 -68s28.5 -36 45.5 -50s34.5 -26 52.5 -36l45 -25c6.66699 -4.66699 10.334 -9.83398 11.001 -15.501s-0.333008 -11.167 -3 -16.5
c-1.33301 -2.66699 -8.66602 -16.334 -21.999 -41.001c-40 17.333 -70.667 33.666 -92 48.999s-39.833 30.666 -55.5 45.999s-29 30.833 -40 46.5s-20 33.334 -27 53.001s-11.833 40.167 -14.5 61.5c-3.33301 36.667 0.166992 65.5 10.5 86.5s24.166 36.833 41.499 47.5
s35.833 17.5 55.5 20.5s36.834 4.5 51.501 4.5h259l-9 83c-2.66699 24.667 -6 46.834 -10 66.501s-11.5 36.334 -22.5 50.001s-26.5 24.167 -46.5 31.5s-47.333 11 -82 11z" />
    <glyph glyph-name="haaiso" unicode="&#x62d;" horiz-adv-x="597" arabic-form="isolated" 
d="M301 317c-15.333 0 -30.5039 -0.665039 -45.5039 -1.99805s-29.333 -2.83301 -43 -4.5s-26 -3.66699 -37 -6s-20.5 -4.5 -28.5 -6.5c-16 -4.66699 -26 -0.666992 -30 12c-2 4 -7.66699 21 -17 51c17.333 4.66699 36 8.83398 56 12.501s42 7 66 10s49.667 4.5 77 4.5
c38.667 0 72.167 -3.83301 100.5 -11.5s51.833 -20 70.5 -37s33.5 -38.833 44.5 -65.5s18.5 -58.667 22.5 -96l9 -88c3.33301 -30.667 -0.333984 -53.334 -11.001 -68.001s-32.667 -22 -66 -22h-239c-15.333 0 -29.666 -1 -42.999 -3s-24.666 -6.16699 -33.999 -12.5
s-16.166 -15.333 -20.499 -27s-5.5 -26.834 -3.5 -45.501c2.66699 -26 10.667 -48.667 24 -68s28.5 -36 45.5 -50s34.5 -26 52.5 -36l45 -25c6.66699 -4.66699 10.334 -9.83398 11.001 -15.501s-0.333008 -11.167 -3 -16.5
c-1.33301 -2.66699 -8.66602 -16.334 -21.999 -41.001c-40 17.333 -70.667 33.666 -92 48.999s-39.833 30.666 -55.5 45.999s-29 30.833 -40 46.5s-20 33.334 -27 53.001s-11.833 40.167 -14.5 61.5c-3.33301 36.667 0.166992 65.5 10.5 86.5s24.166 36.833 41.499 47.5
s35.833 17.5 55.5 20.5s36.834 4.5 51.501 4.5h259l-9 83c-2.66699 24.667 -6 46.834 -10 66.501s-11.5 36.334 -22.5 50.001s-26.5 24.167 -46.5 31.5s-47.333 11 -82 11z" />
    <glyph glyph-name="khaiso" unicode="&#x62e;" horiz-adv-x="597" arabic-form="isolated" 
d="M225 522c-1.33301 14 2.33301 25.833 11 35.5s20 14.5 34 14.5s26.333 -4.83301 37 -14.5s16.667 -21.5 18 -35.5c2 -14 -1.33301 -25.833 -10 -35.5s-20 -14.5 -34 -14.5s-26.333 4.83301 -37 14.5s-17 21.5 -19 35.5zM300.999 317
c-15.333 0 -30.5039 -0.665039 -45.5039 -1.99805s-29.333 -2.83301 -43 -4.5s-26 -3.66699 -37 -6s-20.5 -4.5 -28.5 -6.5c-16 -4.66699 -26 -0.666992 -30 12c-2 4 -7.66699 21 -17 51c17.333 4.66699 36 8.83398 56 12.501s42 7 66 10s49.667 4.5 77 4.5
c38.667 0 72.167 -3.83301 100.5 -11.5s51.833 -20 70.5 -37s33.5 -38.833 44.5 -65.5s18.5 -58.667 22.5 -96l9 -88c3.33301 -30.667 -0.333984 -53.334 -11.001 -68.001s-32.667 -22 -66 -22h-239c-15.333 0 -29.666 -1 -42.999 -3s-24.666 -6.16699 -33.999 -12.5
s-16.166 -15.333 -20.499 -27s-5.5 -26.834 -3.5 -45.501c2.66699 -26 10.667 -48.667 24 -68s28.5 -36 45.5 -50s34.5 -26 52.5 -36l45 -25c6.66699 -4.66699 10.334 -9.83398 11.001 -15.501s-0.333008 -11.167 -3 -16.5
c-1.33301 -2.66699 -8.66602 -16.334 -21.999 -41.001c-40 17.333 -70.667 33.666 -92 48.999s-39.833 30.666 -55.5 45.999s-29 30.833 -40 46.5s-20 33.334 -27 53.001s-11.833 40.167 -14.5 61.5c-3.33301 36.667 0.166992 65.5 10.5 86.5s24.166 36.833 41.499 47.5
s35.833 17.5 55.5 20.5s36.834 4.5 51.501 4.5h259l-9 83c-2.66699 24.667 -6 46.834 -10 66.501s-11.5 36.334 -22.5 50.001s-26.5 24.167 -46.5 31.5s-47.333 11 -82 11z" />
    <glyph glyph-name="daliso" unicode="&#x62f;" horiz-adv-x="502" arabic-form="isolated" 
d="M39 55c-1.33301 13.333 4.33594 20.0039 17.0029 20.0039h312l-8 75c-2.66699 26.667 -7.66699 48.667 -15 66s-17.5 31.666 -30.5 42.999s-29.333 20.666 -49 27.999s-40.334 13.333 -62.001 18l-58 12.5c-17 3.66699 -32.5 6.83398 -46.5 9.50098
c-25.333 4.66699 -36.666 16 -33.999 34l7 51l64.5 -12.5c19 -3.66699 43.167 -9.16699 72.5 -16.5s59 -17.833 89 -31.5s54.5 -29.834 73.5 -48.501s32.667 -39.5 41 -62.5s14.166 -47.5 17.499 -73.5l8 -65c1.33301 -16 1.66602 -30.333 0.999023 -43
s-3.83398 -23.334 -9.50098 -32.001s-14.667 -15.334 -27 -20.001s-29.833 -7 -52.5 -7h-305z" />
    <glyph glyph-name="zaliso" unicode="&#x630;" horiz-adv-x="502" arabic-form="isolated" 
d="M79 515c-1.33301 14 2.33301 25.833 11 35.5s20 14.5 34 14.5s26.333 -4.83301 37 -14.5s16.667 -21.5 18 -35.5c2 -14 -1.33301 -25.833 -10 -35.5s-20 -14.5 -34 -14.5s-26.333 4.83301 -37 14.5s-17 21.5 -19 35.5zM38.999 55
c-1.33301 13.333 4.33594 20.0039 17.0029 20.0039h312l-8 75c-2.66699 26.667 -7.66699 48.667 -15 66s-17.5 31.666 -30.5 42.999s-29.333 20.666 -49 27.999s-40.334 13.333 -62.001 18l-58 12.5c-17 3.66699 -32.5 6.83398 -46.5 9.50098
c-25.333 4.66699 -36.666 16 -33.999 34l7 51l64.5 -12.5c19 -3.66699 43.167 -9.16699 72.5 -16.5s59 -17.833 89 -31.5s54.5 -29.834 73.5 -48.501s32.667 -39.5 41 -62.5s14.166 -47.5 17.499 -73.5l8 -65c1.33301 -16 1.66602 -30.333 0.999023 -43
s-3.83398 -23.334 -9.50098 -32.001s-14.667 -15.334 -27 -20.001s-29.833 -7 -52.5 -7h-305z" />
    <glyph glyph-name="raiso" unicode="&#x631;" horiz-adv-x="267" arabic-form="isolated" 
d="M113 336c-0.666992 8 1.5 14.832 6.5 20.499s11.167 8.5 18.5 8.5h50l48 -454c3.33301 -31.333 1.33301 -57 -6 -77s-19.166 -35.5 -35.499 -46.5s-37.333 -17.5 -63 -19.5s-52.167 0 -79.5 6c-11.333 2.66699 -19.833 6.83398 -25.5 12.501s-7.83398 13.5 -6.50098 23.5
l7 48c14 -4 28 -7.33301 42 -10s24.667 -4 32 -4c24 0 40 6 48 18s10.667 31 8 57z" />
    <glyph glyph-name="zaiso" unicode="&#x632;" horiz-adv-x="267" arabic-form="isolated" 
d="M89 495c-1.33301 14 2.33301 25.833 11 35.5s20 14.5 34 14.5s26.333 -4.83301 37 -14.5s16.667 -21.5 18 -35.5c2 -14 -1.33301 -25.833 -10 -35.5s-20 -14.5 -34 -14.5s-26.333 4.83301 -37 14.5s-17 21.5 -19 35.5zM112.999 336c-0.666992 8 1.5 14.832 6.5 20.499
s11.167 8.5 18.5 8.5h50l48 -454c3.33301 -31.333 1.33301 -57 -6 -77s-19.166 -35.5 -35.499 -46.5s-37.333 -17.5 -63 -19.5s-52.167 0 -79.5 6c-11.333 2.66699 -19.833 6.83398 -25.5 12.501s-7.83398 13.5 -6.50098 23.5l7 48c14 -4 28 -7.33301 42 -10
s24.667 -4 32 -4c24 0 40 6 48 18s10.667 31 8 57z" />
    <glyph glyph-name="seeniso" unicode="&#x633;" horiz-adv-x="1140" arabic-form="isolated" 
d="M541 32l3.99707 -35.001c2.66699 -24 2 -49.167 -2 -75.5s-13.5 -50.5 -28.5 -72.5s-36.833 -40.167 -65.5 -54.5s-66.667 -21.5 -114 -21.5c-31.333 0 -64.333 3.5 -99 10.5s-66.167 20 -94.5 39s-52.166 45.667 -71.499 80s-31.666 79.166 -36.999 134.499
c-2 15.333 -2.83301 32.333 -2.5 51s1.33301 37.5 3 56.5s3.83398 37.333 6.50098 55s5.66699 33.5 9 47.5c31.333 -9.33301 48.666 -14.666 51.999 -15.999c8 -2 13.333 -5.5 16 -10.5s3.33398 -12.833 2.00098 -23.5c-3.33301 -16 -5.83301 -39 -7.5 -69
s-0.833984 -60.333 2.49902 -91c4 -42.667 13.5 -76.167 28.5 -100.5s33 -42.5 54 -54.5s43.5 -19.333 67.5 -22s47.333 -4 70 -4c30 0 54 4 72 12s31.667 18.667 41 32s15 29 17 47s2 37 0 57l-28 265c-0.666992 7.33301 1.5 13.833 6.5 19.5s11.167 8.5 18.5 8.5h50
l20 -191c6.66699 -6 15 -11.167 25 -15.5s21.667 -8 35 -11s29.666 -4.5 48.999 -4.5c9.33301 0 19 0.666992 29 2s19.333 4.16602 28 8.49902s15.5 10.666 20.5 18.999s6.83301 19.5 5.5 33.5l-14 131c-0.666992 7.33301 1.5 13.833 6.5 19.5s11.167 8.5 18.5 8.5h51
l19 -182c16.667 -17.333 34.334 -28.333 53.001 -33s36 -7 52 -7c40 0 66 8.83301 78 26.5s16.333 43.834 13 78.501l-17 157c-0.666992 7.33301 1.5 13.833 6.5 19.5s11.167 8.5 18.5 8.5h51l19 -183c3.33301 -27.333 3.5 -52.166 0.5 -74.499s-10.333 -41.5 -22 -57.5
s-28.834 -28.333 -51.501 -37s-52 -13 -88 -13c-18.667 0 -35.667 2.5 -51 7.5s-28.666 10.833 -39.999 17.5s-20.5 13.167 -27.5 19.5s-11.833 10.833 -14.5 13.5c-1.33301 -2.66699 -4.16602 -6.83398 -8.49902 -12.501s-11 -11.667 -20 -18
s-20.833 -12.166 -35.5 -17.499s-32 -8.66602 -52 -9.99902h-21c-13.333 0 -30 2.5 -50 7.5s-38.667 13.167 -56 24.5z" />
    <glyph glyph-name="sheeniso" unicode="&#x634;" horiz-adv-x="1140" arabic-form="isolated" 
d="M616 463c-1.33301 14 2.16699 25.833 10.5 35.5s19.5 14.5 33.5 14.5s26.333 -4.83301 37 -14.5s16.667 -21.5 18 -35.5c2 -14 -1.33301 -25.833 -10 -35.5s-20 -14.5 -34 -14.5s-26.167 4.83301 -36.5 14.5s-16.5 21.5 -18.5 35.5zM742 463
c-1.33301 14 2.33301 25.833 11 35.5s20 14.5 34 14.5s26.333 -4.83301 37 -14.5s16.667 -21.5 18 -35.5c2 -14 -1.33301 -25.833 -10 -35.5s-20 -14.5 -34 -14.5s-26.333 4.83301 -37 14.5s-17 21.5 -19 35.5zM664.999 586c-1.33301 14 2.33301 25.833 11 35.5
s20 14.5 34 14.5s26.333 -4.83301 37 -14.5s16.667 -21.5 18 -35.5c2 -14 -1.33301 -25.833 -10 -35.5s-20 -14.5 -34 -14.5s-26.333 4.83301 -37 14.5s-17 21.5 -19 35.5zM540.998 32l3.99707 -35.001c2.66699 -24 2 -49.167 -2 -75.5s-13.5 -50.5 -28.5 -72.5
s-36.833 -40.167 -65.5 -54.5s-66.667 -21.5 -114 -21.5c-31.333 0 -64.333 3.5 -99 10.5s-66.167 20 -94.5 39s-52.166 45.667 -71.499 80s-31.666 79.166 -36.999 134.499c-2 15.333 -2.83301 32.333 -2.5 51s1.33301 37.5 3 56.5s3.83398 37.333 6.50098 55
s5.66699 33.5 9 47.5c31.333 -9.33301 48.666 -14.666 51.999 -15.999c8 -2 13.333 -5.5 16 -10.5s3.33398 -12.833 2.00098 -23.5c-3.33301 -16 -5.83301 -39 -7.5 -69s-0.833984 -60.333 2.49902 -91c4 -42.667 13.5 -76.167 28.5 -100.5s33 -42.5 54 -54.5
s43.5 -19.333 67.5 -22s47.333 -4 70 -4c30 0 54 4 72 12s31.667 18.667 41 32s15 29 17 47s2 37 0 57l-28 265c-0.666992 7.33301 1.5 13.833 6.5 19.5s11.167 8.5 18.5 8.5h50l20 -191c6.66699 -6 15 -11.167 25 -15.5s21.667 -8 35 -11s29.666 -4.5 48.999 -4.5
c9.33301 0 19 0.666992 29 2s19.333 4.16602 28 8.49902s15.5 10.666 20.5 18.999s6.83301 19.5 5.5 33.5l-14 131c-0.666992 7.33301 1.5 13.833 6.5 19.5s11.167 8.5 18.5 8.5h51l19 -182c16.667 -17.333 34.334 -28.333 53.001 -33s36 -7 52 -7c40 0 66 8.83301 78 26.5
s16.333 43.834 13 78.501l-17 157c-0.666992 7.33301 1.5 13.833 6.5 19.5s11.167 8.5 18.5 8.5h51l19 -183c3.33301 -27.333 3.5 -52.166 0.5 -74.499s-10.333 -41.5 -22 -57.5s-28.834 -28.333 -51.501 -37s-52 -13 -88 -13c-18.667 0 -35.667 2.5 -51 7.5
s-28.666 10.833 -39.999 17.5s-20.5 13.167 -27.5 19.5s-11.833 10.833 -14.5 13.5c-1.33301 -2.66699 -4.16602 -6.83398 -8.49902 -12.501s-11 -11.667 -20 -18s-20.833 -12.166 -35.5 -17.499s-32 -8.66602 -52 -9.99902h-21c-13.333 0 -30 2.5 -50 7.5
s-38.667 13.167 -56 24.5z" />
    <glyph glyph-name="sadiso" unicode="&#x635;" horiz-adv-x="1148" arabic-form="isolated" 
d="M446 361c-1.33301 7.33301 0.663086 13.835 5.99609 19.502s11.666 8.5 18.999 8.5h50l6 -56l349 56c11.333 1.33301 24.333 0.833008 39 -1.5s30.334 -7.33301 47.001 -15s31 -16.167 43 -25.5s22.833 -21 32.5 -35s18.167 -30.5 25.5 -49.5s12.333 -41.167 15 -66.5
s2.5 -49.833 -0.5 -73.5s-10.167 -44.5 -21.5 -62.5s-27.333 -32.5 -48 -43.5s-48 -16.5 -82 -16.5h-364c3.33301 -32.667 3.33301 -62.667 0 -90s-12.333 -51.166 -27 -71.499s-36.5 -36.333 -65.5 -48s-67.5 -17.5 -115.5 -17.5c-31.333 0 -64.166 3 -98.499 9
s-66.5 18.5 -96.5 37.5s-56.167 46.167 -78.5 81.5s-36.166 80.666 -41.499 135.999c-2 15.333 -2.83301 32.333 -2.5 51s1.33301 37.5 3 56.5s3.83398 37.333 6.50098 55s5.66699 33.5 9 47.5l52 -16c8 -2 13.333 -5.5 16 -10.5s3.33398 -12.833 2.00098 -23.5
c-3.33301 -16 -5.66602 -39 -6.99902 -69s-0.333008 -60.333 3 -91c4 -42.667 14.167 -76.167 30.5 -100.5s35.666 -42.5 57.999 -54.5s46.333 -19.333 72 -22s49.834 -4 72.501 -4c30 0 54.167 3.16699 72.5 9.5s32.166 15.666 41.499 27.999s14.833 27.666 16.5 45.999
s1.16699 39.833 -1.5 64.5zM902.996 75.002c34 0 57.5 5.33203 70.5 15.999s22 23.834 27 39.501s6.5 35.5 4.5 59.5c-3.33301 28 -10 50.333 -20 67s-21.333 29.5 -34 38.5s-25.5 15 -38.5 18s-23.833 4.5 -32.5 4.5l-346 -60l20 -183h349z" />
    <glyph glyph-name="dadiso" unicode="&#x636;" horiz-adv-x="1148" arabic-form="isolated" 
d="M545 494c-1.33301 14 2.33301 25.833 11 35.5s20 14.5 34 14.5s26.333 -4.83301 37 -14.5s16.667 -21.5 18 -35.5c2 -14 -1.33301 -25.833 -10 -35.5s-20 -14.5 -34 -14.5s-26.333 4.83301 -37 14.5s-17 21.5 -19 35.5zM445.999 361
c-1.33301 7.33301 0.663086 13.835 5.99609 19.502s11.666 8.5 18.999 8.5h50l6 -56l349 56c11.333 1.33301 24.333 0.833008 39 -1.5s30.334 -7.33301 47.001 -15s31 -16.167 43 -25.5s22.833 -21 32.5 -35s18.167 -30.5 25.5 -49.5s12.333 -41.167 15 -66.5
s2.5 -49.833 -0.5 -73.5s-10.167 -44.5 -21.5 -62.5s-27.333 -32.5 -48 -43.5s-48 -16.5 -82 -16.5h-364c3.33301 -32.667 3.33301 -62.667 0 -90s-12.333 -51.166 -27 -71.499s-36.5 -36.333 -65.5 -48s-67.5 -17.5 -115.5 -17.5c-31.333 0 -64.166 3 -98.499 9
s-66.5 18.5 -96.5 37.5s-56.167 46.167 -78.5 81.5s-36.166 80.666 -41.499 135.999c-2 15.333 -2.83301 32.333 -2.5 51s1.33301 37.5 3 56.5s3.83398 37.333 6.50098 55s5.66699 33.5 9 47.5l52 -16c8 -2 13.333 -5.5 16 -10.5s3.33398 -12.833 2.00098 -23.5
c-3.33301 -16 -5.66602 -39 -6.99902 -69s-0.333008 -60.333 3 -91c4 -42.667 14.167 -76.167 30.5 -100.5s35.666 -42.5 57.999 -54.5s46.333 -19.333 72 -22s49.834 -4 72.501 -4c30 0 54.167 3.16699 72.5 9.5s32.166 15.666 41.499 27.999s14.833 27.666 16.5 45.999
s1.16699 39.833 -1.5 64.5zM902.995 75.002c34 0 57.5 5.33203 70.5 15.999s22 23.834 27 39.501s6.5 35.5 4.5 59.5c-3.33301 28 -10 50.333 -20 67s-21.333 29.5 -34 38.5s-25.5 15 -38.5 18s-23.833 4.5 -32.5 4.5l-346 -60l20 -183h349z" />
    <glyph glyph-name="tahiso" unicode="&#x637;" horiz-adv-x="772" arabic-form="isolated" 
d="M48 523c-1.33301 7.33301 0.666992 13.834 6 19.501s11.666 8.5 18.999 8.5h50l23 -219l352 57c10.667 2 24.334 1.66699 41.001 -1s32.5 -7.83398 47.5 -15.501s28.5 -16.167 40.5 -25.5s22.833 -21 32.5 -35s18.167 -30.5 25.5 -49.5s12.333 -41.167 15 -66.5
s2.5 -49.833 -0.5 -73.5s-10 -44.5 -21 -62.5s-27 -32.5 -48 -43.5s-48.5 -16.5 -82.5 -16.5h-502l-5 44c-1.33301 10 0 17.667 4 23s10.333 8 19 8h31zM525 75.001c34 0.666992 57.333 5.83301 70 15.5s21.667 22.5 27 38.5s7 36 5 60c-3.33301 28 -10 50.5 -20 67.5
s-21.333 30 -34 39s-25.5 15 -38.5 18s-23.833 4.5 -32.5 4.5l-349 -60l20 -183h352z" />
    <glyph glyph-name="zadiso" unicode="&#x638;" horiz-adv-x="772" arabic-form="isolated" 
d="M224 495c-1.33301 14 2.33301 25.833 11 35.5s20 14.5 34 14.5s26.333 -4.83301 37 -14.5s16.667 -21.5 18 -35.5c2 -14 -1.33301 -25.833 -10 -35.5s-20 -14.5 -34 -14.5s-26.333 4.83301 -37 14.5s-17 21.5 -19 35.5zM47.999 523
c-1.33301 7.33301 0.666992 13.834 6 19.501s11.666 8.5 18.999 8.5h50l23 -219l352 57c10.667 2 24.334 1.66699 41.001 -1s32.5 -7.83398 47.5 -15.501s28.5 -16.167 40.5 -25.5s22.833 -21 32.5 -35s18.167 -30.5 25.5 -49.5s12.333 -41.167 15 -66.5
s2.5 -49.833 -0.5 -73.5s-10 -44.5 -21 -62.5s-27 -32.5 -48 -43.5s-48.5 -16.5 -82.5 -16.5h-502l-5 44c-1.33301 10 0 17.667 4 23s10.333 8 19 8h31zM524.999 75.001c34 0.666992 57.333 5.83301 70 15.5s21.667 22.5 27 38.5s7 36 5 60c-3.33301 28 -10 50.5 -20 67.5
s-21.333 30 -34 39s-25.5 15 -38.5 18s-23.833 4.5 -32.5 4.5l-349 -60l20 -183h352z" />
    <glyph glyph-name="ayniso" unicode="&#x639;" horiz-adv-x="581" arabic-form="isolated" 
d="M488 75c8.66699 0 15.6729 -2.66797 21.0059 -8.00098s8.66602 -12 9.99902 -20l5 -47h-327c-8.66699 0 -18.334 -0.333008 -29.001 -1s-20.334 -3.16699 -29.001 -7.5s-15.5 -11.166 -20.5 -20.499s-6.5 -22.333 -4.5 -39c2 -24 9.66699 -46.833 23 -68.5
s28.833 -41.334 46.5 -59.001s35.5 -33.167 53.5 -46.5s33.333 -23.333 46 -30c6.66699 -4 10.667 -9.16699 12 -15.5s0.666016 -12.166 -2.00098 -17.499c-1.33301 -2 -8.66602 -15.333 -21.999 -40c-40.667 20.667 -72.834 40.667 -96.501 60
s-42.334 36.166 -56.001 50.499s-26 29.833 -37 46.5s-20.5 34.334 -28.5 53.001s-13.333 38.667 -16 60c-2.66699 30.667 0 55.834 8 75.501s19.333 35 34 46s30.667 18.5 48 22.5s33.333 6 48 6h23c-8 6.66699 -15.333 15.5 -22 26.5s-12.5 24.333 -17.5 40
s-8.83301 35.167 -11.5 58.5c-2.66699 29.333 -1.83398 55.666 2.49902 78.999s13.833 43.166 28.5 59.499s34.834 28.833 60.501 37.5s57.834 13 96.501 13c18.667 0 37.167 -1 55.5 -3s35.833 -4.33301 52.5 -7s33.334 -6 50.001 -10
c-4.66699 -23.333 -7.33398 -37 -8.00098 -41c-2.66699 -9.33301 -6.66699 -16 -12 -20s-15.333 -4.66699 -30 -2l-44.5 5c-18.333 2 -40.5 3 -66.5 3c-24 0 -43 -3 -57 -9s-24.667 -14.167 -32 -24.5s-11.833 -22.666 -13.5 -36.999s-1.33398 -32 0.999023 -53
s7.66602 -39.667 15.999 -56s17.5 -28.833 27.5 -37.5s19.833 -14.5 29.5 -17.5s17.5 -4.5 23.5 -4.5h161z" />
    <glyph glyph-name="ghaiso" unicode="&#x63a;" horiz-adv-x="581" arabic-form="isolated" 
d="M272 501c-1.33301 14 2.33301 25.833 11 35.5s20 14.5 34 14.5s26.333 -4.83301 37 -14.5s16.667 -21.5 18 -35.5c2 -14 -1.33301 -25.833 -10 -35.5s-20 -14.5 -34 -14.5s-26.333 4.83301 -37 14.5s-17 21.5 -19 35.5zM487.999 75
c8.66699 0 15.6729 -2.66797 21.0059 -8.00098s8.66602 -12 9.99902 -20l5 -47h-327c-8.66699 0 -18.334 -0.333008 -29.001 -1s-20.334 -3.16699 -29.001 -7.5s-15.5 -11.166 -20.5 -20.499s-6.5 -22.333 -4.5 -39c2 -24 9.66699 -46.833 23 -68.5
s28.833 -41.334 46.5 -59.001s35.5 -33.167 53.5 -46.5s33.333 -23.333 46 -30c6.66699 -4 10.667 -9.16699 12 -15.5s0.666016 -12.166 -2.00098 -17.499c-1.33301 -2 -8.66602 -15.333 -21.999 -40c-40.667 20.667 -72.834 40.667 -96.501 60
s-42.334 36.166 -56.001 50.499s-26 29.833 -37 46.5s-20.5 34.334 -28.5 53.001s-13.333 38.667 -16 60c-2.66699 30.667 0 55.834 8 75.501s19.333 35 34 46s30.667 18.5 48 22.5s33.333 6 48 6h23c-8 6.66699 -15.333 15.5 -22 26.5s-12.5 24.333 -17.5 40
s-8.83301 35.167 -11.5 58.5c-2.66699 29.333 -1.83398 55.666 2.49902 78.999s13.833 43.166 28.5 59.499s34.834 28.833 60.501 37.5s57.834 13 96.501 13c18.667 0 37.167 -1 55.5 -3s35.833 -4.33301 52.5 -7s33.334 -6 50.001 -10
c-4.66699 -23.333 -7.33398 -37 -8.00098 -41c-2.66699 -9.33301 -6.66699 -16 -12 -20s-15.333 -4.66699 -30 -2l-44.5 5c-18.333 2 -40.5 3 -66.5 3c-24 0 -43 -3 -57 -9s-24.667 -14.167 -32 -24.5s-11.833 -22.666 -13.5 -36.999s-1.33398 -32 0.999023 -53
s7.66602 -39.667 15.999 -56s17.5 -28.833 27.5 -37.5s19.833 -14.5 29.5 -17.5s17.5 -4.5 23.5 -4.5h161z" />
    <glyph glyph-name="faiso" unicode="&#x641;" horiz-adv-x="938" arabic-form="isolated" 
d="M267 0c-39.333 0 -73.8301 5.16797 -103.497 15.501s-54.834 24.5 -75.501 42.5s-36.834 38.833 -48.501 62.5s-18.834 49.167 -21.501 76.5c-2.66699 24.667 -3.33398 46.5 -2.00098 65.5s3 34.167 5 45.5c1.33301 6.66699 4.5 10.834 9.5 12.501
s10.167 1.83398 15.5 0.500977l53 -17c-2 -11.333 -3.33301 -26.833 -4 -46.5s-0.333984 -37.5 0.999023 -53.5c2.66699 -26.667 9.16699 -48.334 19.5 -65.001s23 -29.834 38 -39.501s31.667 -16.167 50 -19.5s36.833 -5 55.5 -5h446c32 0 56.833 6.16699 74.5 18.5
s25.167 31.833 22.5 58.5c-6 -2 -11.5 -4 -16.5 -6s-11 -3.66699 -18 -5s-15.167 -2.5 -24.5 -3.5s-21 -1.5 -35 -1.5c-132 0 -204 58.667 -216 176c-3.33301 30 -2.66602 56.833 2.00098 80.5s14 43.667 28 60s33.333 28.666 58 36.999s55.667 12.5 93 12.5
c30 0 59.667 -3.66699 89 -11s58 -15.666 86 -24.999l30 -292c6.66699 -60.667 -5.16602 -104.834 -35.499 -132.501s-77.833 -41.5 -142.5 -41.5h-433zM703.003 205.001c9.33301 0 17.833 0.166016 25.5 0.499023s14.167 0.833008 19.5 1.5c11.333 2 26.666 7 45.999 15
l-20 190c-30 10.667 -64 16 -102 16c-36.667 0 -63.667 -9 -81 -27s-23.666 -48 -18.999 -90c2 -20 6.83301 -36.833 14.5 -50.5s17.5 -24.667 29.5 -33s25.5 -14.166 40.5 -17.499s30.5 -5 46.5 -5zM617.003 631c-1.33301 14 2.33301 25.833 11 35.5s20 14.5 34 14.5
s26.333 -4.83301 37 -14.5s16.667 -21.5 18 -35.5c2 -14 -1.33301 -25.833 -10 -35.5s-20 -14.5 -34 -14.5s-26.333 4.83301 -37 14.5s-17 21.5 -19 35.5z" />
    <glyph glyph-name="kaafiso" unicode="&#x642;" horiz-adv-x="654" arabic-form="isolated" 
d="M266 492c-1.33301 14 2.33398 25.833 11.001 35.5s20 14.5 34 14.5s26.333 -4.83301 37 -14.5s16.667 -21.5 18 -35.5s-2.33398 -25.833 -11.001 -35.5s-20 -14.5 -34 -14.5s-26.333 4.83301 -37 14.5s-16.667 21.5 -18 35.5zM394 492
c-1.33301 14 2.33398 25.833 11.001 35.5s20 14.5 34 14.5s26.333 -4.83301 37 -14.5s16.667 -21.5 18 -35.5s-2.33398 -25.833 -11.001 -35.5s-20 -14.5 -34 -14.5s-26.333 4.83301 -37 14.5s-16.667 21.5 -18 35.5zM592 -35c2.66699 -30 3.16797 -59.168 1.50098 -87.501
s-10 -53.333 -25 -75s-39.167 -39 -72.5 -52s-80.333 -19.5 -141 -19.5c-45.333 0 -86.833 3.83301 -124.5 11.5s-70.334 20.667 -98.001 39s-50.167 42.333 -67.5 72s-28.333 65.5 -33 107.5c-2.66699 24.667 -3.16699 46.5 -1.5 65.5s3.5 34.167 5.5 45.5
c1.33301 6 4.33301 10.167 9 12.5s9.66699 2.83301 15 1.5l54 -17c-2 -10.667 -3.5 -21.5 -4.5 -32.5s-1.33301 -22.333 -1 -34s0.833008 -23.167 1.5 -34.5c4 -37.333 13.5 -66.666 28.5 -87.999s33.167 -37.5 54.5 -48.5s45.333 -18 72 -21s54 -4.5 82 -4.5
c41.333 0 73.833 4 97.5 12s41 18.833 52 32.5s17.333 29 19 46s1.5 34.5 -0.5 52.5l-6 63c-12.667 -3.33301 -28.167 -6.5 -46.5 -9.5s-34.166 -4.5 -47.499 -4.5c-39.333 0 -72.333 4.83301 -99 14.5s-48.5 23 -65.5 40s-29.833 37.5 -38.5 61.5s-13.667 50.333 -15 79
c-2.66699 51.333 11.666 92.5 42.999 123.5s82 46.5 152 46.5c18.667 0 37.5 -2 56.5 -6s37 -8.5 54 -13.5s34.167 -10.833 51.5 -17.5zM400.001 66.999c18.667 0 34.5 0.833008 47.5 2.5s23.833 3.66699 32.5 6s15.667 5.16602 21 8.49902l-20 189
c-25.333 8 -50.833 13 -76.5 15s-48.5 -0.166992 -68.5 -6.5s-35.5 -18 -46.5 -35s-14.833 -40.833 -11.5 -71.5c4 -39.333 16.5 -67.166 37.5 -83.499s49.167 -24.5 84.5 -24.5z" />
    <glyph glyph-name="kafiso" unicode="&#x643;" horiz-adv-x="756" arabic-form="isolated" 
d="M676 201c3.33301 -31.333 3.50098 -59.332 0.500977 -83.999s-10.5 -45.667 -22.5 -63s-29.667 -30.666 -53 -39.999s-53.666 -14 -90.999 -14h-235c-39.333 0 -74 5.16699 -104 15.5s-55.167 24.5 -75.5 42.5s-36.5 39 -48.5 63s-19.333 49.333 -22 76
c-1.33301 19.333 -1.83301 37 -1.5 53s1.5 30.167 3.5 42.5s4.66699 24.166 8 35.499c29.333 -8.66699 46.333 -14 51 -16c7.33301 -2.66699 12.833 -6.33398 16.5 -11.001s4.5 -12.334 2.5 -23.001c-1.33301 -11.333 -2.5 -22.166 -3.5 -32.499s-0.5 -23.833 1.5 -40.5
c2.66699 -26.667 9.5 -48.5 20.5 -65.5s23.833 -30.167 38.5 -39.5s31.167 -15.833 49.5 -19.5s36.833 -5.5 55.5 -5.5h235c38 0 64.833 8.16699 80.5 24.5s22.167 39.833 19.5 70.5l-44 411c-0.666992 8 1.16602 14.667 5.49902 20s10.166 8 17.499 8h52zM245.001 303.001
l-2.99609 25.9971c-0.666992 7.33301 0.666016 12.833 3.99902 16.5s7.33301 5.5 12 5.5h8c-4 4 -7.33301 8.83301 -10 14.5s-4.33398 13.834 -5.00098 24.501c-2 14 -0.833008 26.5 3.5 37.5s10.833 19.833 19.5 26.5s18.667 11.334 30 14.001s23.666 4 36.999 4
c9.33301 0 18.333 -0.5 27 -1.5s16.667 -2.33301 24 -4s14.333 -3.16699 21 -4.5l-2 -29c-0.666992 -5.33301 -2.33398 -9.5 -5.00098 -12.5s-6 -4.16699 -10 -3.5c-1.33301 0 -7 0.833008 -17 2.5s-20.667 2.5 -32 2.5c-21.333 0 -34.833 -3.83301 -40.5 -11.5
s-8.16699 -14.834 -7.5 -21.501c0.666992 -9.33301 3.16699 -16.166 7.5 -20.499s8.83301 -7.83301 13.5 -10.5s10.334 -4.5 17.001 -5.5s12.667 -1.5 18 -1.5h51c5.33301 0 9.16602 -1.66699 11.499 -5s3.5 -6.66602 3.5 -9.99902l4 -33h-180z" />
    <glyph glyph-name="lamiso" unicode="&#x644;" horiz-adv-x="654" arabic-form="isolated" 
d="M602 -3c2.66699 -24 2.33203 -49.165 -1.00098 -75.498s-13 -50.5 -29 -72.5s-40.167 -40.167 -72.5 -54.5s-75.833 -21.5 -130.5 -21.5c-32 0 -65.833 3.33301 -101.5 10s-69.167 19.667 -100.5 39s-58.333 46 -81 80s-36.667 78.667 -42 134
c-2 15.333 -3.16699 32.333 -3.5 51s0.166992 37.5 1.5 56.5s3.33301 37.5 6 55.5s6 33.667 10 47l51 -16c8 -2.66699 13.667 -6.83398 17 -12.501s4 -12.5 2 -20.5c-4 -16 -6.66699 -39 -8 -69s-0.333008 -60.667 3 -92c4 -42.667 14.833 -76 32.5 -100s38.5 -42 62.5 -54
s49.333 -19.5 76 -22.5s51 -4.5 73 -4.5c36.667 0 65.834 4 87.501 12s38 18.667 49 32s17.5 29.166 19.5 47.499s2 37.5 0 57.5l-61 577c-0.666992 8 1 14.667 5 20s9.66699 8 17 8h53z" />
    <glyph glyph-name="meemiso" unicode="&#x645;" horiz-adv-x="593" arabic-form="isolated" 
d="M415 313c-10 4 -21.167 7.5 -33.5 10.5s-27.833 4.5 -46.5 4.5c-50 0 -85 -11.333 -105 -34s-27.667 -57 -23 -103c2.66699 -23.333 9 -43.666 19 -60.999s22.667 -32 38 -44s33 -21 53 -27s41.333 -9 64 -9c17.333 0 31.5 4.16699 42.5 12.5s15.167 23.166 12.5 44.499z
M173 81c-7.33301 7.33301 -14.0029 16.1719 -20.0029 26.5049s-11.5 23 -16.5 38s-8.5 32.5 -10.5 52.5c-3.33301 29.333 -1.16602 56.333 6.50098 81s20.167 45.834 37.5 63.501s39.166 31.5 65.499 41.5s56.833 15 91.5 15c17.333 0 35.333 -1.5 54 -4.5
s36.5 -6.33301 53.5 -10s34.5 -7.83398 52.5 -12.501l28 -259c1.33301 -17.333 1.33301 -34.166 0 -50.499s-6 -30.833 -14 -43.5s-20.167 -22.834 -36.5 -30.501s-38.166 -11.5 -65.499 -11.5c-14 0 -29.167 1 -45.5 3s-32 4.66699 -47 8s-28.833 7.16602 -41.5 11.499
s-23.334 9.16602 -32.001 14.499c-12 -1.33301 -24.167 -4.33301 -36.5 -9s-23.666 -11.334 -33.999 -20.001s-18.5 -19.167 -24.5 -31.5s-8 -26.833 -6 -43.5c1.33301 -12.667 3.5 -26.334 6.5 -41.001s6.16699 -28.834 9.5 -42.501s6.83301 -26.5 10.5 -38.5l9.5 -30
c2 -5.33301 2.33301 -10.5 1 -15.5s-5.66602 -8.5 -12.999 -10.5c-6 -1.33301 -24.667 -5 -56 -11c-10.667 28.667 -18.334 52 -23.001 70s-9.5 37.667 -14.5 59s-8.5 42 -10.5 62c-3.33301 31.333 -0.666016 57.5 8.00098 78.5s19.834 38 33.501 51s28 22.5 43 28.5
s27.167 9.66699 36.5 11z" />
    <glyph glyph-name="nouniso" unicode="&#x646;" horiz-adv-x="658" arabic-form="isolated" 
d="M610 0c2 -24 1.33789 -49.166 -1.99512 -75.499s-13.333 -50.333 -30 -72s-41.167 -39.667 -73.5 -54s-75.833 -21.5 -130.5 -21.5c-31.333 0 -65 3.33301 -101 10s-69.833 19.667 -101.5 39s-59.167 46 -82.5 80s-38 78.667 -44 134c-1.33301 15.333 -2 32.333 -2 51
s0.666992 37.5 2 56.5s3.16602 37.5 5.49902 55.5s5.16602 33.667 8.49902 47c26.667 -7.33301 44.334 -12.666 53.001 -15.999c8 -2.66699 13.333 -6.33398 16 -11.001s3 -12 1 -22c-0.666992 -8 -1.83398 -18 -3.50098 -30s-2.83398 -25.167 -3.50098 -39.5
s-0.833984 -29.333 -0.500977 -45s1.16602 -31.167 2.49902 -46.5c4.66699 -42.667 16 -76 34 -100s39 -42 63 -54s49.5 -19.5 76.5 -22.5s51.833 -4.5 74.5 -4.5c36.667 0 66.167 4 88.5 12s39 18.667 50 32s17.667 29.166 20 47.499s2.5 37.5 0.5 57.5l-35 330
c-0.666992 8 1 14.667 5 20s9.66699 8 17 8h53zM241.005 368.001c-1.33301 14 2.33301 25.833 11 35.5s20 14.5 34 14.5s26.333 -4.83301 37 -14.5s16.667 -21.5 18 -35.5c2 -14 -1.33301 -25.833 -10 -35.5s-20 -14.5 -34 -14.5s-26.333 4.83301 -37 14.5
s-17 21.5 -19 35.5z" />
    <glyph glyph-name="haini" unicode="&#x647;" horiz-adv-x="635" arabic-form="initial" 
d="M249 408c48.667 0 91.8311 -4.16797 129.498 -12.501s70.5 -22 98.5 -41s50 -44.333 66 -76s26.333 -70.5 31 -116.5l8 -69c0.666992 -10.667 0.833984 -21.5 0.500977 -32.5s-3.16602 -21 -8.49902 -30s-14 -16.333 -26 -22s-27.667 -8.5 -47 -8.5
c-18.667 0 -35.5 0.833008 -50.5 2.5s-29 4.16699 -42 7.5s-24.667 7.5 -35 12.5s-18.166 10.833 -23.499 17.5c-6.66699 -17.333 -19.5 -28.333 -38.5 -33s-39.833 -7 -62.5 -7h-269l-7 75h131c-8 6.66699 -15.333 15.167 -22 25.5s-12.334 22.833 -17.001 37.5
s-8 32 -10 52c-2.66699 34.667 0.833008 64 10.5 88s23.167 42 40.5 54l-41 -11c-8 -2 -14.5 -1.33301 -19.5 2s-8.83301 8.66602 -11.5 15.999l-15 39c14 4 30.5 7.83301 49.5 11.5s38.667 6.83398 59 9.50098s41 4.83398 62 6.50098s40.833 2.5 59.5 2.5zM267.997 332.999
c-20 0.666992 -39.001 -1.16797 -57.001 -5.50098s-34 -12.166 -48 -23.499s-24 -26.833 -30 -46.5s-7.66699 -44.167 -5 -73.5c2 -17.333 5.83301 -32.833 11.5 -46.5s12.5 -25.167 20.5 -34.5s16.833 -16.333 26.5 -21s18.834 -7 27.501 -7h34
c21.333 0 33.833 5.33301 37.5 16s4.5 25 2.5 43zM497.996 172.997c-4.66699 49.333 -21.6699 86.168 -51.0029 110.501s-65.666 40.166 -108.999 47.499l24 -233c4.66699 -4 14.834 -8.83301 30.501 -14.5s38.834 -8.5 69.501 -8.5h47z" />
    <glyph glyph-name="wawiso" unicode="&#x648;" horiz-adv-x="485" arabic-form="isolated" 
d="M236 389c21.333 0 41.668 -1.50098 61.001 -4.50098s37.166 -6.33301 53.499 -10s31.833 -7.83398 46.5 -12.501l39 -366c4.66699 -43.333 4.83398 -79.333 0.500977 -108s-13.166 -51.5 -26.499 -68.5s-31 -29 -53 -36s-48 -10.5 -78 -10.5c-6 0 -13.667 0.333008 -23 1
s-19 1.5 -29 2.5s-19.833 2.5 -29.5 4.5s-17.5 4 -23.5 6c-8 2.66699 -14 6.5 -18 11.5s-5.33301 12.5 -4 22.5l6 42c12 -2.66699 24 -5.16699 36 -7.5s24.667 -4.33301 38 -6s26.333 -2.5 39 -2.5c24 0 42.667 4 56 12s22.833 18.5 28.5 31.5s8.83398 27.833 9.50098 44.5
s-1.33301 42 -6 76c-6 -2.66699 -13 -5 -21 -7s-17.333 -3.66699 -28 -5s-22.667 -2 -36 -2c-22.667 0 -46.834 2.33301 -72.501 7s-49.834 13.834 -72.501 27.501s-42.334 33 -59.001 58s-27 57.833 -31 98.5c-4 36.667 -1.33301 67.834 8 93.501s23.166 46.5 41.499 62.5
s40.333 27.5 66 34.5s52.834 10.5 81.501 10.5zM325.002 308.999c-10 3.33301 -23.002 6 -39.002 8s-31.667 3 -47 3c-38 0 -68.5 -10.167 -91.5 -30.5s-32.167 -53.166 -27.5 -98.499c2.66699 -23.333 8.5 -42.833 17.5 -58.5s20.167 -28.167 33.5 -37.5s28.333 -16 45 -20
s33.667 -6 51 -6c15.333 0 28.333 0.666992 39 2s19.334 3.16602 26.001 5.49902s12.334 4.83301 17.001 7.5z" />
    <glyph glyph-name="alefma2souraiso" unicode="&#x649;" horiz-adv-x="764" arabic-form="isolated" 
d="M654 397l0.00195312 -23.999v-24c0 -6.66699 -1.33301 -11.667 -4 -15s-6.66699 -5 -12 -5c-4 0 -10.667 0.666992 -20 2s-20.5 2.83301 -33.5 4.5s-26.667 3.16699 -41 4.5s-27.833 2 -40.5 2c-48 0 -81.667 -5.33301 -101 -16s-27.333 -32.334 -24 -65.001
c2 -15.333 7.33301 -27.666 16 -36.999s19.334 -16.833 32.001 -22.5s26.5 -10.167 41.5 -13.5s42.667 -8.66602 83 -15.999s69.666 -14.666 87.999 -21.999s33.5 -17 45.5 -29s21.167 -26.833 27.5 -44.5s10.833 -39.167 13.5 -64.5c6.66699 -60 -2.5 -105.5 -27.5 -136.5
s-72.167 -46.5 -141.5 -46.5h-228c-32.667 0 -64.5 3.66699 -95.5 11s-58.667 20.333 -83 39s-44.833 43.667 -61.5 75s-27.334 70.333 -32.001 117c-1.33301 15.333 -1.66602 31.333 -0.999023 48s2 33 4 49s4.33301 31 7 45s5.33398 26.667 8.00098 38l53 -12
c7.33301 -2 12 -5 14 -9s2.33301 -10.333 1 -19c-0.666992 -3.33301 -2.33398 -14.833 -5.00098 -34.5s-4.5 -37.834 -5.5 -54.501s-0.5 -33.667 1.5 -51c4 -36.667 13.333 -66 28 -88s31.667 -39 51 -51s40.166 -19.833 62.499 -23.5s44.166 -5.5 65.499 -5.5h223
c18.667 0 34 3 46 9s21.333 13.833 28 23.5s11 20.667 13 33s2.33301 24.833 1 37.5c-2 18 -6 32.667 -12 44s-13.833 20.166 -23.5 26.499s-21 11.166 -34 14.499s-28.833 6.83301 -47.5 10.5s-41.334 7.5 -68.001 11.5s-52 11 -76 21s-44.833 24.833 -62.5 44.5
s-28.5 47.167 -32.5 82.5c-2.66699 25.333 -1.33398 47.833 3.99902 67.5s15.5 36 30.5 49s35.5 22.833 61.5 29.5s58.333 10 97 10c21.333 0 41.833 -1 61.5 -3s37.834 -4.33301 54.501 -7s33.334 -6 50.001 -10z" />
    <glyph glyph-name="yaiso" unicode="&#x64a;" horiz-adv-x="764" arabic-form="isolated" 
d="M293 -277c-1.33301 14 2.33398 25.833 11.001 35.5s20 14.5 34 14.5s26.333 -4.83301 37 -14.5s16.667 -21.5 18 -35.5s-2.33398 -25.833 -11.001 -35.5s-20 -14.5 -34 -14.5s-26.333 4.83301 -37 14.5s-16.667 21.5 -18 35.5zM421 -277
c-1.33301 14 2.33398 25.833 11.001 35.5s20 14.5 34 14.5s26.333 -4.83301 37 -14.5s16.667 -21.5 18 -35.5s-2.33398 -25.833 -11.001 -35.5s-20 -14.5 -34 -14.5s-26.333 4.83301 -37 14.5s-16.667 21.5 -18 35.5zM654 397l0.00195312 -23.999v-24
c0 -6.66699 -1.33301 -11.667 -4 -15s-6.66699 -5 -12 -5c-4 0 -10.667 0.666992 -20 2s-20.5 2.83301 -33.5 4.5s-26.667 3.16699 -41 4.5s-27.833 2 -40.5 2c-48 0 -81.667 -5.33301 -101 -16s-27.333 -32.334 -24 -65.001c2 -15.333 7.33301 -27.666 16 -36.999
s19.334 -16.833 32.001 -22.5s26.5 -10.167 41.5 -13.5s42.667 -8.66602 83 -15.999s69.666 -14.666 87.999 -21.999s33.5 -17 45.5 -29s21.167 -26.833 27.5 -44.5s10.833 -39.167 13.5 -64.5c6.66699 -60 -2.5 -105.5 -27.5 -136.5s-72.167 -46.5 -141.5 -46.5h-228
c-32.667 0 -64.5 3.66699 -95.5 11s-58.667 20.333 -83 39s-44.833 43.667 -61.5 75s-27.334 70.333 -32.001 117c-1.33301 15.333 -1.66602 31.333 -0.999023 48s2 33 4 49s4.33301 31 7 45s5.33398 26.667 8.00098 38l53 -12c7.33301 -2 12 -5 14 -9
s2.33301 -10.333 1 -19c-0.666992 -3.33301 -2.33398 -14.833 -5.00098 -34.5s-4.5 -37.834 -5.5 -54.501s-0.5 -33.667 1.5 -51c4 -36.667 13.333 -66 28 -88s31.667 -39 51 -51s40.166 -19.833 62.499 -23.5s44.166 -5.5 65.499 -5.5h223c18.667 0 34 3 46 9
s21.333 13.833 28 23.5s11 20.667 13 33s2.33301 24.833 1 37.5c-2 18 -6 32.667 -12 44s-13.833 20.166 -23.5 26.499s-21 11.166 -34 14.499s-28.833 6.83301 -47.5 10.5s-41.334 7.5 -68.001 11.5s-52 11 -76 21s-44.833 24.833 -62.5 44.5s-28.5 47.167 -32.5 82.5
c-2.66699 25.333 -1.33398 47.833 3.99902 67.5s15.5 36 30.5 49s35.5 22.833 61.5 29.5s58.333 10 97 10c21.333 0 41.833 -1 61.5 -3s37.834 -4.33301 54.501 -7s33.334 -6 50.001 -10z" />
    <glyph glyph-name="alefwaslaiso" unicode="&#x671;" horiz-adv-x="230" arabic-form="isolated" 
 />
    <glyph glyph-name="piso.001" unicode="&#x67e;" horiz-adv-x="659" arabic-form="isolated" 
 />
    <glyph glyph-name="giso" unicode="&#x686;" horiz-adv-x="499" arabic-form="isolated" 
 />
    <glyph glyph-name="jehiso" unicode="&#x698;" horiz-adv-x="268" arabic-form="isolated" 
 />
    <glyph glyph-name="vehiso" unicode="&#x6a4;" horiz-adv-x="937" arabic-form="isolated" 
d="M267 0c-39.333 0 -74.0049 5.16895 -104.005 15.502s-55.167 24.5 -75.5 42.5s-36.166 38.833 -47.499 62.5s-18.333 49.167 -21 76.5c-2.66699 24.667 -3.5 46.5 -2.5 65.5s2.5 34.167 4.5 45.5c1.33301 6.66699 4.5 10.834 9.5 12.501s10.167 1.83398 15.5 0.500977
c2.66699 -1.33301 20.334 -7 53.001 -17c-2 -11.333 -3.16699 -22.333 -3.5 -33l-1 -33c-0.333008 -11.333 0.166992 -22.666 1.5 -33.999c2.66699 -26.667 9.16699 -48.334 19.5 -65.001s23 -29.834 38 -39.501s31.667 -16.167 50 -19.5s36.833 -5 55.5 -5h446
c31.333 0 56 6.16699 74 18.5s25.667 31.833 23 58.5l-17 -5.5c-5.33301 -1.66699 -11.333 -3.33398 -18 -5.00098s-14.667 -3 -24 -4s-21 -1.5 -35 -1.5c-132 0 -204 58.667 -216 176c-3.33301 30 -2.66602 56.833 2.00098 80.5s14 43.667 28 60s33.333 28.666 58 36.999
s55.667 12.5 93 12.5c18.667 0 38.334 -1.83301 59.001 -5.5s40.167 -8 58.5 -13s37.5 -10.833 57.5 -17.5l30 -292c6.66699 -60.667 -5.16602 -104.834 -35.499 -132.501s-77.833 -41.5 -142.5 -41.5h-433zM702.995 205.002c18.667 0 33.666 0.832031 44.999 2.49902
s26.666 6.5 45.999 14.5l-20 190c-16 5.33301 -31.667 9.33301 -47 12s-30.666 4 -45.999 4c-42.667 0 -72.667 -9 -90 -27s-23.666 -48 -18.999 -90c2 -20 6.83301 -36.833 14.5 -50.5s17.5 -24.667 29.5 -33s25.5 -14.166 40.5 -17.499s30.5 -5 46.5 -5zM556.994 631.001
c-1.33301 14 2.16699 25.833 10.5 35.5s19.5 14.5 33.5 14.5s26.333 -4.83301 37 -14.5s16.667 -21.5 18 -35.5c2 -14 -1.33301 -25.833 -10 -35.5s-20 -14.5 -34 -14.5s-26.167 4.83301 -36.5 14.5s-16.5 21.5 -18.5 35.5zM682.994 631.001
c-1.33301 14 2.33301 25.833 11 35.5s20 14.5 34 14.5s26.333 -4.83301 37 -14.5s16.667 -21.5 18 -35.5c2 -14 -1.33301 -25.833 -10 -35.5s-20 -14.5 -34 -14.5s-26.333 4.83301 -37 14.5s-17 21.5 -19 35.5zM605.993 754.001c-1.33301 14 2.33301 25.833 11 35.5
s20 14.5 34 14.5s26.333 -4.83301 37 -14.5s16.667 -21.5 18 -35.5c2 -14 -1.33301 -25.833 -10 -35.5s-20 -14.5 -34 -14.5s-26.333 4.83301 -37 14.5s-17 21.5 -19 35.5z" />
    <glyph glyph-name="kehehiso" unicode="&#x6a9;" horiz-adv-x="645" arabic-form="isolated" 
 />
    <glyph glyph-name="gafiso" unicode="&#x6af;" horiz-adv-x="645" arabic-form="isolated" 
 />
    <glyph glyph-name="farsiyaiso" unicode="&#x6cc;" horiz-adv-x="764" arabic-form="isolated" 
 />
    <glyph glyph-name="alefwaslafina" unicode="&#x671;" horiz-adv-x="244" arabic-form="final" 
 />
    <glyph glyph-name="pfina" unicode="&#x67e;" horiz-adv-x="714" arabic-form="final" 
 />
    <glyph glyph-name="pini" unicode="&#x67e;" horiz-adv-x="249" arabic-form="initial" 
 />
    <glyph glyph-name="pmedi" unicode="&#x67e;" horiz-adv-x="279" arabic-form="medial" 
 />
    <glyph glyph-name="vehfina" unicode="&#x6a4;" horiz-adv-x="1021" arabic-form="final" 
d="M797 297c-8 2 -16.499 4.00195 -25.499 6.00195s-18.667 3.83301 -29 5.5s-21.166 2.5 -32.499 2.5c-25.333 0 -45.833 -3.33301 -61.5 -10s-27.5 -15.334 -35.5 -26.001s-12.833 -22.834 -14.5 -36.501s-1.83398 -27.5 -0.500977 -41.5
c2 -23.333 6.83301 -42.833 14.5 -58.5s16.167 -28.167 25.5 -37.5s18.666 -16 27.999 -20s16.666 -6 21.999 -6h82c18.667 0 31.334 4.5 38.001 13.5s9 21.833 7 38.5zM896.001 106.002c6.66699 -6 15.0049 -11.166 25.0049 -15.499s21.667 -8 35 -11
s29.666 -4.5 48.999 -4.5h19l8 -75h-19c-17.333 0 -38.5 4 -63.5 12s-46.167 20.667 -63.5 38c-6.66699 -13.333 -19 -25 -37 -35s-41.333 -15 -70 -15h-524c-33.333 0 -63.333 5.16699 -90 15.5s-49.334 24.5 -68.001 42.5s-33.834 38.833 -45.501 62.5
s-18.834 49.167 -21.501 76.5c-2 19.333 -2.66699 37 -2 53s1.83398 30.167 3.50098 42.5s4.16699 24.166 7.5 35.499l53 -17c6.66699 -2 11.5 -5.66699 14.5 -11s3.83301 -13 2.5 -23c-1.33301 -11.333 -2.33301 -22.166 -3 -32.499s-0.333984 -23.833 0.999023 -40.5
c3.33301 -26.667 10.333 -48.334 21 -65.001s23.5 -29.834 38.5 -39.501s31.5 -16.167 49.5 -19.5s36.333 -5 55 -5h298c-0.666992 0 -3.33398 2.33301 -8.00098 7s-9.66699 12 -15 22s-10.666 22.833 -15.999 38.5s-9.33301 34.834 -12 57.501
c-2.66699 28.667 -1 54.5 5 77.5s16.667 42.833 32 59.5s36.166 29.5 62.499 38.5s58.166 13.5 95.499 13.5c18.667 0 37.334 -2 56.001 -6s36.167 -8.5 52.5 -13.5s32.833 -10.833 49.5 -17.5zM567.006 531.003c-1.33301 14 2.16699 25.833 10.5 35.5s19.5 14.5 33.5 14.5
s26.333 -4.83301 37 -14.5s16.667 -21.5 18 -35.5c2 -14 -1.33301 -25.833 -10 -35.5s-20 -14.5 -34 -14.5s-26.167 4.83301 -36.5 14.5s-16.5 21.5 -18.5 35.5zM693.006 531.003c-1.33301 14 2.33301 25.833 11 35.5s20 14.5 34 14.5s26.333 -4.83301 37 -14.5
s16.667 -21.5 18 -35.5c2 -14 -1.33301 -25.833 -10 -35.5s-20 -14.5 -34 -14.5s-26.333 4.83301 -37 14.5s-17 21.5 -19 35.5zM616.005 654.003c-1.33301 14 2.33301 25.833 11 35.5s20 14.5 34 14.5s26.333 -4.83301 37 -14.5s16.667 -21.5 18 -35.5
c2 -14 -1.33301 -25.833 -10 -35.5s-20 -14.5 -34 -14.5s-26.333 4.83301 -37 14.5s-17 21.5 -19 35.5z" />
    <glyph glyph-name="vehini" unicode="&#x6a4;" horiz-adv-x="485" arabic-form="initial" 
d="M-20 0l-7 75.002h267c33.333 0 60.166 4.83301 80.499 14.5s28.833 28.167 25.5 55.5c-10.667 -6 -25.334 -11.167 -44.001 -15.5s-38.667 -6.5 -60 -6.5c-33.333 0 -61.833 3.83301 -85.5 11.5s-43.167 18.667 -58.5 33s-27.166 31.833 -35.499 52.5
s-13.833 44 -16.5 70s-1.5 49.167 3.5 69.5s14.333 37.666 28 51.999s32.5 25.333 56.5 33s54 11.5 90 11.5c18.667 0 37.834 -2 57.501 -6s38.5 -8.83301 56.5 -14.5s36 -11.834 54 -18.501l26 -254c2.66699 -21.333 2.16699 -41.833 -1.5 -61.5s-11.667 -37 -24 -52
s-30 -27 -53 -36s-52.833 -13.5 -89.5 -13.5h-270zM233 193.002c18.667 0 34.499 0.833008 47.499 2.5s24 3.83398 33 6.50098s16.167 5.66699 21.5 9l-16 155c-17.333 5.33301 -33.166 9.66602 -47.499 12.999s-31.5 5 -51.5 5c-34 0 -59.833 -7.16699 -77.5 -21.5
s-24.5 -40.5 -20.5 -78.5c1.33301 -18 5.33301 -32.833 12 -44.5s15 -21 25 -28s21.333 -11.833 34 -14.5s26 -4 40 -4zM94.999 576.002c-1.33301 14 2.16699 25.833 10.5 35.5s19.5 14.5 33.5 14.5s26.333 -4.83301 37 -14.5s16.667 -21.5 18 -35.5
c2 -14 -1.33301 -25.833 -10 -35.5s-20 -14.5 -34 -14.5s-26.167 4.83301 -36.5 14.5s-16.5 21.5 -18.5 35.5zM220.999 576.002c-1.33301 14 2.33301 25.833 11 35.5s20 14.5 34 14.5s26.333 -4.83301 37 -14.5s16.667 -21.5 18 -35.5c2 -14 -1.33301 -25.833 -10 -35.5
s-20 -14.5 -34 -14.5s-26.333 4.83301 -37 14.5s-17 21.5 -19 35.5zM143.998 699.002c-1.33301 14 2.33301 25.833 11 35.5s20 14.5 34 14.5s26.333 -4.83301 37 -14.5s16.667 -21.5 18 -35.5c2 -14 -1.33301 -25.833 -10 -35.5s-20 -14.5 -34 -14.5
s-26.333 4.83301 -37 14.5s-17 21.5 -19 35.5z" />
    <glyph glyph-name="vehmedi" unicode="&#x6a4;" horiz-adv-x="492" arabic-form="medial" 
d="M502 75l8.00195 -75h-530l-7 75h146l-12.5 9.5c-8.33301 6.33301 -17.833 15.333 -28.5 27s-20.834 26.167 -30.501 43.5s-15.5 37 -17.5 59c-2.66699 27.333 -1.5 52.166 3.5 74.499s14.333 41.666 28 57.999s32.167 29.333 55.5 39s51 14.5 83 14.5
c25.333 0 50 -3 74 -9s45.667 -16 65 -30s35.5 -33 48.5 -57s21.5 -54 25.5 -90c2.66699 -23.333 0.666992 -43.666 -6 -60.999s-14.834 -32.166 -24.501 -44.499s-21.167 -23.5 -34.5 -33.5h154zM339.002 216c-2 14.667 -5.33691 28.9961 -10.0039 42.9961
s-13 26.333 -25 37s-26.333 19.167 -43 25.5s-34 9.5 -52 9.5c-21.333 0 -39.166 -3.16699 -53.499 -9.5s-25.666 -14.833 -33.999 -25.5s-14 -23 -17 -37s-3.5 -28.333 -1.5 -43c1.33301 -15.333 5.33301 -29.166 12 -41.499s15.834 -24 27.501 -35
s25.334 -21.667 41.001 -32s33.167 -21.166 52.5 -32.499l36.5 26c13 9.33301 24.667 19.833 35 31.5s18.5 24.334 24.5 38.001s8.33301 28.834 7 45.501zM78.998 530.996c-1.33301 14 2.16699 25.833 10.5 35.5s19.5 14.5 33.5 14.5s26.333 -4.83301 37 -14.5
s16.667 -21.5 18 -35.5c2 -14 -1.33301 -25.833 -10 -35.5s-20 -14.5 -34 -14.5s-26.167 4.83301 -36.5 14.5s-16.5 21.5 -18.5 35.5zM204.998 530.996c-1.33301 14 2.33301 25.833 11 35.5s20 14.5 34 14.5s26.333 -4.83301 37 -14.5s16.667 -21.5 18 -35.5
c2 -14 -1.33301 -25.833 -10 -35.5s-20 -14.5 -34 -14.5s-26.333 4.83301 -37 14.5s-17 21.5 -19 35.5zM127.997 653.996c-1.33301 14 2.33301 25.833 11 35.5s20 14.5 34 14.5s26.333 -4.83301 37 -14.5s16.667 -21.5 18 -35.5c2 -14 -1.33301 -25.833 -10 -35.5
s-20 -14.5 -34 -14.5s-26.333 4.83301 -37 14.5s-17 21.5 -19 35.5z" />
    <glyph glyph-name="gfina" unicode="&#x686;" horiz-adv-x="532" arabic-form="final" 
 />
    <glyph glyph-name="gini" unicode="&#x686;" horiz-adv-x="510" arabic-form="initial" 
 />
    <glyph glyph-name="gmedi" unicode="&#x686;" horiz-adv-x="472" arabic-form="medial" 
 />
    <glyph glyph-name="jehfina" unicode="&#x698;" horiz-adv-x="294" arabic-form="final" 
 />
    <glyph glyph-name="kehehfina" unicode="&#x6a9;" horiz-adv-x="698" arabic-form="final" 
 />
    <glyph glyph-name="kafini" unicode="&#x6a9;" horiz-adv-x="546" arabic-form="initial" 
d="M-20 0l-7.00195 75.002h439l-5 45c-2 20.667 -6.33301 40.834 -13 60.501s-16.834 37 -30.501 52s-32.5 27 -56.5 36s-55 13.5 -93 13.5h-131c-7.33301 0 -13.166 1.16699 -17.499 3.5s-9.16602 6.16602 -14.499 11.499l-29 45l307 260l39 -37
c4 -4 6.16699 -8.83301 6.5 -14.5s-1.83398 -10.5 -6.50098 -14.5c-0.666992 -0.666992 -74.667 -62 -222 -184h88c40.667 0 75.834 -5.5 105.501 -16.5s54.334 -26.833 74.001 -47.5s35.167 -45.834 46.5 -75.501s19 -62.834 23 -99.501l8 -82
c1.33301 -9.33301 0.333008 -16.833 -3 -22.5s-8.33301 -8.5 -15 -8.5h-493z" />
    <glyph glyph-name="kafmedi" unicode="&#x6a9;" horiz-adv-x="608" arabic-form="medial" 
d="M484 108c6.66699 -6.66699 14.998 -12.1699 24.998 -16.5029s21.667 -8.16602 35 -11.499s29.666 -5 48.999 -5h20l8 -75h-20c-16 0 -35.333 3.33301 -58 10s-42.334 17.334 -59.001 32.001c-4 -13.333 -12.5 -23.666 -25.5 -30.999s-33.5 -11 -61.5 -11h-417l-7 75h440
l-5 45c-2 20.667 -6.33301 40.834 -13 60.501s-16.834 37 -30.501 52s-32.5 27 -56.5 36s-55 13.5 -93 13.5h-133c-7.33301 0 -13.166 1.16699 -17.499 3.5s-9.16602 6.16602 -14.499 11.499c-4 5.33301 -13.333 20 -28 44l309 260
c20.667 -19.333 33.334 -31.333 38.001 -36c5.33301 -5.33301 7.83301 -10.666 7.5 -15.999s-2.83301 -9.66602 -7.5 -12.999c-0.666992 -0.666992 -74.667 -62 -222 -184h88c40.667 0 75.834 -5.5 105.501 -16.5s54.334 -26.833 74.001 -47.5s35.167 -45.834 46.5 -75.501
s19 -62.834 23 -99.501v-5z" />
    <glyph glyph-name="gaffina" unicode="&#x6af;" horiz-adv-x="708" arabic-form="final" 
 />
    <glyph glyph-name="gafini" unicode="&#x6af;" horiz-adv-x="431" arabic-form="initial" 
 />
    <glyph glyph-name="gafmedi" unicode="&#x6af;" horiz-adv-x="492" arabic-form="medial" 
 />
    <glyph glyph-name="kirsehini" unicode="&#x649;" horiz-adv-x="293" arabic-form="initial" 
d="M119 337c-0.666992 8 1.49902 14.666 6.49902 19.999s11.167 8 18.5 8h50l22 -209c6 -53.333 -5 -92.666 -33 -117.999s-72.667 -38 -134 -38h-69l-7 75h65c34 0 59.833 8 77.5 24s24.834 39.667 21.501 71l-18 167v0z" />
    <glyph glyph-name="kirsehmedi" unicode="&#x649;" arabic-form="medial" 
d="M68 337c-0.666992 8 1.33105 14.667 5.99805 20s11 8 19 8h50l27 -259c6.66699 -6 15 -11.167 25 -15.5s21.833 -8 35.5 -11s30.167 -4.5 49.5 -4.5h19l8 -75h-19c-8 -0 -17.667 0.833008 -29 2.5s-22.666 4.5 -33.999 8.5s-22.666 9 -33.999 15s-21.333 13.667 -30 23
c-6.66699 -13.333 -19.167 -24.833 -37.5 -34.5s-41.833 -14.5 -70.5 -14.5h-73l-7 75h47c28 0 46.833 6.83301 56.5 20.5s13.5 31.167 11.5 52.5l-20 189v0z" />
    <glyph glyph-name="alefma2sourafina" unicode="&#x6cc;" horiz-adv-x="716" arabic-form="final" 
d="M484 -164c11.333 0 23.4951 1.6709 36.4951 5.00391s24.5 8.66602 34.5 15.999s18.167 16.333 24.5 27s8.83301 23.667 7.5 39c-2 17.333 -8 33.166 -18 47.499s-22.333 27.333 -37 39s-31.167 21.834 -49.5 30.501s-36.833 16 -55.5 22l12 50
c1.33301 7.33301 4.16602 13.666 8.49902 18.999s12.5 5.66602 24.5 0.999023l41 -17.5c14.667 -6.33301 30.334 -12.5 47.001 -18.5s34.667 -11 54 -15s40 -6 62 -6h54l8 -75h-103c4 -6 7.83301 -12.833 11.5 -20.5s7.16699 -16.834 10.5 -27.501s6 -23.667 8 -39
c0.666992 -11.333 -0.833008 -25.666 -4.5 -42.999s-12.334 -34 -26.001 -50s-33 -29.667 -58 -41s-57.833 -17 -98.5 -17h-149c-32 0 -63.333 3.83301 -94 11.5s-58.167 20.667 -82.5 39s-44.833 43 -61.5 74s-27.667 69.833 -33 116.5
c-1.33301 15.333 -1.66602 31.333 -0.999023 48s1.83398 33 3.50098 49s3.83398 31 6.50098 45s5.33398 26.667 8.00098 38l47 -12c7.33301 -2 12.333 -5.16699 15 -9.5s3.33398 -10.833 2.00098 -19.5c-1.33301 -11.333 -3.66602 -29 -6.99902 -53s-3.33301 -52.667 0 -86
c4 -36.667 13.167 -66 27.5 -88s31.5 -38.833 51.5 -50.5s41.5 -19.334 64.5 -23.001s45.167 -5.5 66.5 -5.5h142z" />
    <glyph glyph-name="yaini" unicode="&#x6cc;" horiz-adv-x="293" arabic-form="initial" 
d="M20 -109c-1.33301 14 2.33398 25.833 11.001 35.5s20 14.5 34 14.5s26.333 -4.83301 37 -14.5s16.667 -21.5 18 -35.5s-2.33398 -25.833 -11.001 -35.5s-20 -14.5 -34 -14.5s-26.333 4.83301 -37 14.5s-16.667 21.5 -18 35.5zM148 -109
c-1.33301 14 2.33398 25.833 11.001 35.5s20 14.5 34 14.5s26.333 -4.83301 37 -14.5s16.667 -21.5 18 -35.5s-2.33398 -25.833 -11.001 -35.5s-20 -14.5 -34 -14.5s-26.333 4.83301 -37 14.5s-16.667 21.5 -18 35.5zM119 337c-0.666992 8 1.49902 14.666 6.49902 19.999
s11.167 8 18.5 8h50l22 -209c6 -53.333 -5 -92.666 -33 -117.999s-72.667 -38 -134 -38h-69l-7 75h65c34 0 59.833 8 77.5 24s24.834 39.667 21.501 71l-18 167v0z" />
    <glyph glyph-name="yamedi" unicode="&#x6cc;" arabic-form="medial" 
d="M68 337c-0.666992 8 1.33105 14.667 5.99805 20s11 8 19 8h50l27 -259c6.66699 -6 15 -11.167 25 -15.5s21.833 -8 35.5 -11s30.167 -4.5 49.5 -4.5h19l8 -75h-19c-8 -0 -17.667 0.833008 -29 2.5s-22.666 4.5 -33.999 8.5s-22.666 9 -33.999 15s-21.333 13.667 -30 23
c-6.66699 -13.333 -19.167 -24.833 -37.5 -34.5s-41.833 -14.5 -70.5 -14.5h-73l-7 75h47c28 0 46.833 6.83301 56.5 20.5s13.5 31.167 11.5 52.5l-20 189v0zM41.998 -109c-1.33301 14 2.33398 25.833 11.001 35.5s20 14.5 34 14.5s26.333 -4.83301 37 -14.5
s16.667 -21.5 18 -35.5s-2.33398 -25.833 -11.001 -35.5s-20 -14.5 -34 -14.5s-26.333 4.83301 -37 14.5s-16.667 21.5 -18 35.5zM169.998 -109c-1.33301 14 2.33398 25.833 11.001 35.5s20 14.5 34 14.5s26.333 -4.83301 37 -14.5s16.667 -21.5 18 -35.5
s-2.33398 -25.833 -11.001 -35.5s-20 -14.5 -34 -14.5s-26.333 4.83301 -37 14.5s-16.667 21.5 -18 35.5z" />
    <glyph glyph-name="alefmaddaabovefina" unicode="&#x622;" horiz-adv-x="261" arabic-form="final" 
d="M180 675c-3.33301 -4 -7.50098 -5.49902 -12.501 -4.49902s-10.833 4.16699 -17.5 9.5c-16.667 13.333 -31.334 21.833 -44.001 25.5s-25.5 -0.5 -38.5 -12.5s-29.167 -19.667 -48.5 -23s-36.5 -0.833008 -51.5 7.5s-26.167 15.166 -33.5 20.499s-14 10.833 -20 16.5
l-18 17.5l18 18c4.66699 4.66699 9.33398 6.66699 14.001 6s11.334 -4.33398 20.001 -11.001l19.5 -12.5c7 -4.33301 14.167 -7.5 21.5 -9.5s14.333 -2.33301 21 -1s13.667 5.83301 21 13.5s16.166 13.334 26.499 17.001s23.5 5.5 39.5 5.5s33.333 -6 52 -18
s35.334 -25.667 50.001 -41zM1.99902 609.001h50c7.33301 0 14.166 -2.66699 20.499 -8s9.83301 -12 10.5 -20l44 -412c3.33301 -30.667 14.666 -54 33.999 -70s48 -24 86 -24h22l8 -75h-22c-37.333 0 -68.666 4.66699 -93.999 14s-46 22.666 -62 39.999
s-28.167 38.333 -36.5 63s-14.166 52.334 -17.499 83.001z" />
    <glyph glyph-name="alefhamzaabovefina" unicode="&#x623;" horiz-adv-x="261" arabic-form="final" 
d="M2 609h50c7.33301 0 14.166 -2.66699 20.499 -8s9.83301 -12 10.5 -20l44 -412c3.33301 -30.667 14.666 -54 33.999 -70s48 -24 86 -24h22l8 -75h-22c-37.333 0 -68.666 4.66699 -93.999 14s-46 22.666 -62 39.999s-28.167 38.333 -36.5 63
s-14.166 52.334 -17.499 83.001zM-62 663l-2.99609 25.9971c-0.666992 7.33301 0.666016 12.833 3.99902 16.5s7.33301 5.5 12 5.5h8c-4 4 -7.33301 8.83301 -10 14.5s-4.33398 13.834 -5.00098 24.501c-2 14 -0.833008 26.5 3.5 37.5s10.833 19.833 19.5 26.5
s18.667 11.334 30 14.001s23.666 4 36.999 4c9.33301 0 18.333 -0.5 27 -1.5s16.667 -2.33301 24 -4s14.333 -3.16699 21 -4.5l-2 -29c-0.666992 -5.33301 -2.33398 -9.5 -5.00098 -12.5s-6 -4.16699 -10 -3.5c-1.33301 0 -7 0.833008 -17 2.5s-20.667 2.5 -32 2.5
c-21.333 0 -34.833 -3.83301 -40.5 -11.5s-8.16699 -14.834 -7.5 -21.501c0.666992 -9.33301 3.16699 -16.166 7.5 -20.499s8.83301 -7.83301 13.5 -10.5s10.334 -4.5 17.001 -5.5s12.667 -1.5 18 -1.5h51c5.33301 0 9.16602 -1.66699 11.499 -5s3.5 -6.66602 3.5 -9.99902
l4 -33h-180z" />
    <glyph glyph-name="wawhamzafina" unicode="&#x624;" horiz-adv-x="506" arabic-form="final" 
d="M518 0l-82.001 0.000976562c5.33301 -48 5.33301 -86.333 0 -115s-15.166 -51.334 -29.499 -68.001s-32.833 -28.167 -55.5 -34.5s-49 -9.5 -79 -9.5c-12 0 -26.167 1.16699 -42.5 3.5s-34.166 5.83301 -53.499 10.5c-18 5.33301 -26 15.666 -24 30.999l6 45
c10 -2.66699 20.667 -5.16699 32 -7.5s23.333 -4.33301 36 -6s25.334 -2.5 38.001 -2.5c30 0 52.333 4.83301 67 14.5s24.334 21.834 29.001 36.501s6.66699 31 6 49s-2.33398 35.667 -5.00098 53h-113c-18.667 -0 -39 2.33301 -61 7s-43.167 13.5 -63.5 26.5
s-38.5 31.667 -54.5 56s-26 56.833 -30 97.5c-3.33301 32.667 -1.16602 61.834 6.50098 87.501s20.167 47 37.5 64s39.166 29.667 65.499 38s55.5 12.5 87.5 12.5c21.333 0 41.666 -1.5 60.999 -4.5s37.166 -6.33301 53.499 -10s31.833 -7.83398 46.5 -12.501l31 -287h82z
M324.999 309.001c-29.333 7.33301 -54.667 11.001 -76 11.001c-17.333 0.666992 -34.333 -1 -51 -5s-31.5 -10.833 -44.5 -20.5s-22.667 -23 -29 -40s-8.16602 -37.833 -5.49902 -62.5c4.66699 -40.667 18.667 -70.334 42 -89.001s51.666 -28 84.999 -28h104z
M114.998 452.002l-2.99609 25.9971c-0.666992 7.33301 0.666016 12.833 3.99902 16.5s7.33301 5.5 12 5.5h8c-4 4 -7.33301 8.83301 -10 14.5s-4.33398 13.834 -5.00098 24.501c-2 14 -0.833008 26.5 3.5 37.5s10.833 19.833 19.5 26.5s18.667 11.334 30 14.001
s23.666 4 36.999 4c9.33301 0 18.333 -0.5 27 -1.5s16.667 -2.33301 24 -4s14.333 -3.16699 21 -4.5l-2 -29c-0.666992 -5.33301 -2.33398 -9.5 -5.00098 -12.5s-6 -4.16699 -10 -3.5c-1.33301 0 -7 0.833008 -17 2.5s-20.667 2.5 -32 2.5
c-21.333 0 -34.833 -3.83301 -40.5 -11.5s-8.16699 -14.834 -7.5 -21.501c0.666992 -9.33301 3.16699 -16.166 7.5 -20.499s8.83301 -7.83301 13.5 -10.5s10.334 -4.5 17.001 -5.5s12.667 -1.5 18 -1.5h51c5.33301 0 9.16602 -1.66699 11.499 -5s3.5 -6.66602 3.5 -9.99902
l4 -33h-180z" />
    <glyph glyph-name="alefhamzabelowfina" unicode="&#x625;" horiz-adv-x="261" arabic-form="final" 
d="M2 609h50c7.33301 0 14.166 -2.66699 20.499 -8s9.83301 -12 10.5 -20l44 -412c3.33301 -30.667 14.666 -54 33.999 -70s48 -24 86 -24h22l8 -75h-22c-37.333 0 -68.666 4.66699 -93.999 14s-46 22.666 -62 39.999s-28.167 38.333 -36.5 63
s-14.166 52.334 -17.499 83.001zM25 -213l-2.99609 25.9971c-0.666992 7.33301 0.666016 12.833 3.99902 16.5s7.33301 5.5 12 5.5h8c-4 4 -7.33301 8.83301 -10 14.5s-4.33398 13.834 -5.00098 24.501c-2 14 -0.833008 26.5 3.5 37.5s10.833 19.833 19.5 26.5
s18.667 11.334 30 14.001s23.666 4 36.999 4c9.33301 0 18.333 -0.5 27 -1.5s16.667 -2.33301 24 -4s14.333 -3.16699 21 -4.5l-2 -29c-0.666992 -5.33301 -2.33398 -9.5 -5.00098 -12.5s-6 -4.16699 -10 -3.5c-1.33301 0 -7 0.833008 -17 2.5s-20.667 2.5 -32 2.5
c-21.333 0 -34.833 -3.83301 -40.5 -11.5s-8.16699 -14.834 -7.5 -21.501c0.666992 -9.33301 3.16699 -16.166 7.5 -20.499s8.83301 -7.83301 13.5 -10.5s10.334 -4.5 17.001 -5.5s12.667 -1.5 18 -1.5h51c5.33301 0 9.16602 -1.66699 11.499 -5s3.5 -6.66602 3.5 -9.99902
l4 -33h-180z" />
    <glyph glyph-name="hamzakirsehfina" unicode="&#x626;" horiz-adv-x="716" arabic-form="final" 
d="M484 -164c11.333 0 23.4951 1.6709 36.4951 5.00391s24.5 8.66602 34.5 15.999s18.167 16.333 24.5 27s8.83301 23.667 7.5 39c-2 17.333 -8 33.166 -18 47.499s-22.333 27.333 -37 39s-31.167 21.834 -49.5 30.501s-36.833 16 -55.5 22l12 50
c1.33301 7.33301 4.16602 13.666 8.49902 18.999s12.5 5.66602 24.5 0.999023l41 -17.5c14.667 -6.33301 30.334 -12.5 47.001 -18.5s34.667 -11 54 -15s40 -6 62 -6h54l8 -75h-103c4 -6 7.83301 -12.833 11.5 -20.5s7.16699 -16.834 10.5 -27.501s6 -23.667 8 -39
c0.666992 -11.333 -0.833008 -25.666 -4.5 -42.999s-12.334 -34 -26.001 -50s-33 -29.667 -58 -41s-57.833 -17 -98.5 -17h-149c-32 0 -63.333 3.83301 -94 11.5s-58.167 20.667 -82.5 39s-44.833 43 -61.5 74s-27.667 69.833 -33 116.5
c-1.33301 15.333 -1.66602 31.333 -0.999023 48s1.83398 33 3.50098 49s3.83398 31 6.50098 45s5.33398 26.667 8.00098 38l47 -12c7.33301 -2 12.333 -5.16699 15 -9.5s3.33398 -10.833 2.00098 -19.5c-1.33301 -11.333 -3.66602 -29 -6.99902 -53s-3.33301 -52.667 0 -86
c4 -36.667 13.167 -66 27.5 -88s31.5 -38.833 51.5 -50.5s41.5 -19.334 64.5 -23.001s45.167 -5.5 66.5 -5.5h142zM34.9951 224.004l-2.99609 25.9971c-0.666992 7.33301 0.666016 12.833 3.99902 16.5s7.33301 5.5 12 5.5h8c-4 4 -7.33301 8.83301 -10 14.5
s-4.33398 13.834 -5.00098 24.501c-2 14 -0.833008 26.5 3.5 37.5s10.833 19.833 19.5 26.5s18.667 11.334 30 14.001s23.666 4 36.999 4c9.33301 0 18.333 -0.5 27 -1.5s16.667 -2.33301 24 -4s14.333 -3.16699 21 -4.5l-2 -29
c-0.666992 -5.33301 -2.33398 -9.5 -5.00098 -12.5s-6 -4.16699 -10 -3.5c-1.33301 0 -7 0.833008 -17 2.5s-20.667 2.5 -32 2.5c-21.333 0 -34.833 -3.83301 -40.5 -11.5s-8.16699 -14.834 -7.5 -21.501c0.666992 -9.33301 3.16699 -16.166 7.5 -20.499
s8.83301 -7.83301 13.5 -10.5s10.334 -4.5 17.001 -5.5s12.667 -1.5 18 -1.5h51c5.33301 0 9.16602 -1.66699 11.499 -5s3.5 -6.66602 3.5 -9.99902l4 -33h-180z" />
    <glyph glyph-name="hamzakirsehini" unicode="&#x626;" horiz-adv-x="293" arabic-form="initial" 
d="M119 337c-0.666992 8 1.49902 14.666 6.49902 19.999s11.167 8 18.5 8h50l22 -209c6 -53.333 -5 -92.666 -33 -117.999s-72.667 -38 -134 -38h-69l-7 75h65c34 0 59.833 8 77.5 24s24.834 39.667 21.501 71l-18 167v0zM31.999 442.999l-2.99609 25.9971
c-0.666992 7.33301 0.666016 12.833 3.99902 16.5s7.33301 5.5 12 5.5h8c-4 4 -7.33301 8.83301 -10 14.5s-4.33398 13.834 -5.00098 24.501c-2 14 -0.833008 26.5 3.5 37.5s10.833 19.833 19.5 26.5s18.667 11.334 30 14.001s23.666 4 36.999 4
c9.33301 0 18.333 -0.5 27 -1.5s16.667 -2.33301 24 -4s14.333 -3.16699 21 -4.5l-2 -29c-0.666992 -5.33301 -2.33398 -9.5 -5.00098 -12.5s-6 -4.16699 -10 -3.5c-1.33301 0 -7 0.833008 -17 2.5s-20.667 2.5 -32 2.5c-21.333 0 -34.833 -3.83301 -40.5 -11.5
s-8.16699 -14.834 -7.5 -21.501c0.666992 -9.33301 3.16699 -16.166 7.5 -20.499s8.83301 -7.83301 13.5 -10.5s10.334 -4.5 17.001 -5.5s12.667 -1.5 18 -1.5h51c5.33301 0 9.16602 -1.66699 11.499 -5s3.5 -6.66602 3.5 -9.99902l4 -33h-180z" />
    <glyph glyph-name="hamzakirsehmedi" unicode="&#x626;" arabic-form="medial" 
d="M68 337c-0.666992 8 1.33105 14.667 5.99805 20s11 8 19 8h50l27 -259c6.66699 -6 15 -11.167 25 -15.5s21.833 -8 35.5 -11s30.167 -4.5 49.5 -4.5h19l8 -75h-19c-8 -0 -17.667 0.833008 -29 2.5s-22.666 4.5 -33.999 8.5s-22.666 9 -33.999 15s-21.333 13.667 -30 23
c-6.66699 -13.333 -19.167 -24.833 -37.5 -34.5s-41.833 -14.5 -70.5 -14.5h-73l-7 75h47c28 0 46.833 6.83301 56.5 20.5s13.5 31.167 11.5 52.5l-20 189v0zM-2.00195 442l-2.99609 25.9971c-0.666992 7.33301 0.666016 12.833 3.99902 16.5s7.33301 5.5 12 5.5h8
c-4 4 -7.33301 8.83301 -10 14.5s-4.33398 13.834 -5.00098 24.501c-2 14 -0.833008 26.5 3.5 37.5s10.833 19.833 19.5 26.5s18.667 11.334 30 14.001s23.666 4 36.999 4c9.33301 0 18.333 -0.5 27 -1.5s16.667 -2.33301 24 -4s14.333 -3.16699 21 -4.5l-2 -29
c-0.666992 -5.33301 -2.33398 -9.5 -5.00098 -12.5s-6 -4.16699 -10 -3.5c-1.33301 0 -7 0.833008 -17 2.5s-20.667 2.5 -32 2.5c-21.333 0 -34.833 -3.83301 -40.5 -11.5s-8.16699 -14.834 -7.5 -21.501c0.666992 -9.33301 3.16699 -16.166 7.5 -20.499
s8.83301 -7.83301 13.5 -10.5s10.334 -4.5 17.001 -5.5s12.667 -1.5 18 -1.5h51c5.33301 0 9.16602 -1.66699 11.499 -5s3.5 -6.66602 3.5 -9.99902l4 -33h-180z" />
    <glyph glyph-name="aleffina" unicode="&#x627;" horiz-adv-x="261" arabic-form="final" 
d="M2 609h50c7.33301 0 14.166 -2.66699 20.499 -8s9.83301 -12 10.5 -20l44 -412c3.33301 -30.667 14.666 -54 33.999 -70s48 -24 86 -24h22l8 -75h-22c-37.333 0 -68.666 4.66699 -93.999 14s-46 22.666 -62 39.999s-28.167 38.333 -36.5 63
s-14.166 52.334 -17.499 83.001z" />
    <glyph glyph-name="behfina" unicode="&#x628;" horiz-adv-x="854" arabic-form="final" 
d="M626 337c-0.666992 7.33301 1.50098 13.833 6.50098 19.5s11.167 8.5 18.5 8.5h50l27 -258c6.66699 -6 15 -11.167 25 -15.5s21.667 -8.16602 35 -11.499s29.666 -5 48.999 -5h20l8 -75h-20c-8 0 -17.667 0.833008 -29 2.5s-22.666 4.5 -33.999 8.5
s-22.5 9.16699 -33.5 15.5s-21.167 14.166 -30.5 23.499c-6.66699 -13.333 -19 -25 -37 -35s-41.333 -15 -70 -15h-368c-38 -0 -71.333 4.83301 -100 14.5s-52 22.834 -70 39.501s-32 36.167 -42 58.5s-16.333 45.5 -19 69.5c-2 18.667 -2.5 35.834 -1.5 51.501
s2.5 29.5 4.5 41.5s4.66699 23.333 8 34c28 -8 43.667 -12.667 47 -14c8 -2.66699 13.333 -6.33398 16 -11.001s3.66699 -12.334 3 -23.001c-1.33301 -11.333 -2.33301 -22.5 -3 -33.5s-0.333984 -23.5 0.999023 -37.5c2 -22.667 8.5 -41.5 19.5 -56.5
s24.667 -26.833 41 -35.5s34.5 -14.667 54.5 -18s40.333 -5 61 -5h315c28 0 47 6.5 57 19.5s13.667 30.5 11 52.5l-20 190v0zM349.001 -107c-1.33301 14 2.33301 25.833 11 35.5s20 14.5 34 14.5s26.333 -4.83301 37 -14.5s16.667 -21.5 18 -35.5
c2 -14 -1.33301 -25.833 -10 -35.5s-20 -14.5 -34 -14.5s-26.333 4.83301 -37 14.5s-17 21.5 -19 35.5z" />
    <glyph glyph-name="behini" unicode="&#x628;" horiz-adv-x="293" arabic-form="initial" 
d="M119 337c-0.666992 8 1.49902 14.666 6.49902 19.999s11.167 8 18.5 8h50l22 -209c6 -53.333 -5 -92.666 -33 -117.999s-72.667 -38 -134 -38h-69l-7 75h65c34 0 59.833 8 77.5 24s24.834 39.667 21.501 71l-18 167v0zM86.999 -107.001
c-1.33301 14 2.33301 25.833 11 35.5s20 14.5 34 14.5s26.333 -4.83301 37 -14.5s16.667 -21.5 18 -35.5c2 -14 -1.33301 -25.833 -10 -35.5s-20 -14.5 -34 -14.5s-26.333 4.83301 -37 14.5s-17 21.5 -19 35.5z" />
    <glyph glyph-name="behmedi" unicode="&#x628;" arabic-form="medial" 
d="M68 337c-0.666992 8 1.33105 14.667 5.99805 20s11 8 19 8h50l27 -259c6.66699 -6 15 -11.167 25 -15.5s21.833 -8 35.5 -11s30.167 -4.5 49.5 -4.5h19l8 -75h-19c-8 -0 -17.667 0.833008 -29 2.5s-22.666 4.5 -33.999 8.5s-22.666 9 -33.999 15s-21.333 13.667 -30 23
c-6.66699 -13.333 -19.167 -24.833 -37.5 -34.5s-41.833 -14.5 -70.5 -14.5h-73l-7 75h47c28 0 46.833 6.83301 56.5 20.5s13.5 31.167 11.5 52.5l-20 189v0zM106.998 -107c-1.33301 14 2.33301 25.833 11 35.5s20 14.5 34 14.5s26.333 -4.83301 37 -14.5
s16.667 -21.5 18 -35.5c2 -14 -1.33301 -25.833 -10 -35.5s-20 -14.5 -34 -14.5s-26.333 4.83301 -37 14.5s-17 21.5 -19 35.5z" />
    <glyph glyph-name="tehmarboutafina" unicode="&#x629;" horiz-adv-x="509" arabic-form="final" 
d="M100 531c-1.33301 14 2.33398 25.833 11.001 35.5s20 14.5 34 14.5s26.333 -4.83301 37 -14.5s16.667 -21.5 18 -35.5s-2.33398 -25.833 -11.001 -35.5s-20 -14.5 -34 -14.5s-26.333 4.83301 -37 14.5s-16.667 21.5 -18 35.5zM228 531
c-1.33301 14 2.33398 25.833 11.001 35.5s20 14.5 34 14.5s26.333 -4.83301 37 -14.5s16.667 -21.5 18 -35.5s-2.33398 -25.833 -11.001 -35.5s-20 -14.5 -34 -14.5s-26.333 4.83301 -37 14.5s-16.667 21.5 -18 35.5zM513 75l7.99805 -75.002h-66
c-10.667 0 -20.667 1.83301 -30 5.5s-17.666 8 -24.999 13s-13.666 10.167 -18.999 15.5s-9.33301 10 -12 14c-3.33301 -4 -8.16602 -9.16699 -14.499 -15.5s-14.666 -12.333 -24.999 -18s-22.833 -10.667 -37.5 -15s-31.667 -6.5 -51 -6.5
c-20.667 0 -41.834 2.66699 -63.501 8s-42.167 15.666 -61.5 30.999s-36.166 36.833 -50.499 64.5s-23.833 63.834 -28.5 108.501c-2.66699 27.333 -2 52.833 2 76.5s12.667 44.334 26 62.001s31.166 31.5 53.499 41.5s50.833 15 85.5 15
c23.333 0 46.166 -1.33301 68.499 -4s43 -5.66699 62 -9s37.5 -7.33301 55.5 -12l28 -261c1.33301 -13.333 6.5 -23.166 15.5 -29.499s19.167 -9.5 30.5 -9.5h49zM317.998 314.998c-18 4.66699 -35.832 7.66699 -53.499 9s-32.167 2 -43.5 2c-14 0 -28.5 -2 -43.5 -6
s-27.333 -10.667 -37 -20s-16.834 -21.333 -21.501 -36s-5.66699 -35 -3 -61c5.33301 -48.667 18.833 -83.667 40.5 -105s50.167 -32 85.5 -32c18.667 0 34 2 46 6s22.333 8.83301 31 14.5s15.667 12.167 21 19.5z" />
    <glyph glyph-name="tafina" unicode="&#x62a;" horiz-adv-x="854" arabic-form="final" 
d="M626 337c-0.666992 7.33301 1.50098 13.833 6.50098 19.5s11.167 8.5 18.5 8.5h50l27 -258c6.66699 -6 15 -11.167 25 -15.5s21.667 -8.16602 35 -11.499s29.666 -5 48.999 -5h20l8 -75h-20c-8 0 -17.667 0.833008 -29 2.5s-22.666 4.5 -33.999 8.5
s-22.5 9.16699 -33.5 15.5s-21.167 14.166 -30.5 23.499c-6.66699 -13.333 -19 -25 -37 -35s-41.333 -15 -70 -15h-368c-38 -0 -71.333 4.83301 -100 14.5s-52 22.834 -70 39.501s-32 36.167 -42 58.5s-16.333 45.5 -19 69.5c-2 18.667 -2.5 35.834 -1.5 51.501
s2.5 29.5 4.5 41.5s4.66699 23.333 8 34c28 -8 43.667 -12.667 47 -14c8 -2.66699 13.333 -6.33398 16 -11.001s3.66699 -12.334 3 -23.001c-1.33301 -11.333 -2.33301 -22.5 -3 -33.5s-0.333984 -23.5 0.999023 -37.5c2 -22.667 8.5 -41.5 19.5 -56.5
s24.667 -26.833 41 -35.5s34.5 -14.667 54.5 -18s40.333 -5 61 -5h315c28 0 47 6.5 57 19.5s13.667 30.5 11 52.5l-20 190v0zM228.001 443c-1.33301 14 2.33398 25.833 11.001 35.5s20 14.5 34 14.5s26.333 -4.83301 37 -14.5s16.667 -21.5 18 -35.5
s-2.33398 -25.833 -11.001 -35.5s-20 -14.5 -34 -14.5s-26.333 4.83301 -37 14.5s-16.667 21.5 -18 35.5zM356.001 443c-1.33301 14 2.33398 25.833 11.001 35.5s20 14.5 34 14.5s26.333 -4.83301 37 -14.5s16.667 -21.5 18 -35.5s-2.33398 -25.833 -11.001 -35.5
s-20 -14.5 -34 -14.5s-26.333 4.83301 -37 14.5s-16.667 21.5 -18 35.5z" />
    <glyph glyph-name="taini" unicode="&#x62a;" horiz-adv-x="298" arabic-form="initial" 
d="M119 337c-0.666992 8 1.49902 14.666 6.49902 19.999s11.167 8 18.5 8h50l22 -209c6 -53.333 -5 -92.666 -33 -117.999s-72.667 -38 -134 -38h-69l-7 75h65c34 0 59.833 8 77.5 24s24.834 39.667 21.501 71l-18 167v0zM23.999 495.999
c-1.33301 14 2.33398 25.833 11.001 35.5s20 14.5 34 14.5s26.333 -4.83301 37 -14.5s16.667 -21.5 18 -35.5s-2.33398 -25.833 -11.001 -35.5s-20 -14.5 -34 -14.5s-26.333 4.83301 -37 14.5s-16.667 21.5 -18 35.5zM151.999 495.999
c-1.33301 14 2.33398 25.833 11.001 35.5s20 14.5 34 14.5s26.333 -4.83301 37 -14.5s16.667 -21.5 18 -35.5s-2.33398 -25.833 -11.001 -35.5s-20 -14.5 -34 -14.5s-26.333 4.83301 -37 14.5s-16.667 21.5 -18 35.5z" />
    <glyph glyph-name="tamedi" unicode="&#x62a;" arabic-form="medial" 
d="M68 337c-0.666992 8 1.33105 14.667 5.99805 20s11 8 19 8h50l27 -259c6.66699 -6 15 -11.167 25 -15.5s21.833 -8 35.5 -11s30.167 -4.5 49.5 -4.5h19l8 -75h-19c-8 -0 -17.667 0.833008 -29 2.5s-22.666 4.5 -33.999 8.5s-22.666 9 -33.999 15s-21.333 13.667 -30 23
c-6.66699 -13.333 -19.167 -24.833 -37.5 -34.5s-41.833 -14.5 -70.5 -14.5h-73l-7 75h47c28 0 46.833 6.83301 56.5 20.5s13.5 31.167 11.5 52.5l-20 189v0zM-18.002 495c-1.33301 14 2.33398 25.833 11.001 35.5s20 14.5 34 14.5s26.333 -4.83301 37 -14.5
s16.667 -21.5 18 -35.5s-2.33398 -25.833 -11.001 -35.5s-20 -14.5 -34 -14.5s-26.333 4.83301 -37 14.5s-16.667 21.5 -18 35.5zM109.998 495c-1.33301 14 2.33398 25.833 11.001 35.5s20 14.5 34 14.5s26.333 -4.83301 37 -14.5s16.667 -21.5 18 -35.5
s-2.33398 -25.833 -11.001 -35.5s-20 -14.5 -34 -14.5s-26.333 4.83301 -37 14.5s-16.667 21.5 -18 35.5z" />
    <glyph glyph-name="thafina" unicode="&#x62b;" horiz-adv-x="854" arabic-form="final" 
d="M626 337c-0.666992 7.33301 1.50098 13.833 6.50098 19.5s11.167 8.5 18.5 8.5h50l27 -258c6.66699 -6 15 -11.167 25 -15.5s21.667 -8.16602 35 -11.499s29.666 -5 48.999 -5h20l8 -75h-20c-8 0 -17.667 0.833008 -29 2.5s-22.666 4.5 -33.999 8.5
s-22.5 9.16699 -33.5 15.5s-21.167 14.166 -30.5 23.499c-6.66699 -13.333 -19 -25 -37 -35s-41.333 -15 -70 -15h-368c-38 -0 -71.333 4.83301 -100 14.5s-52 22.834 -70 39.501s-32 36.167 -42 58.5s-16.333 45.5 -19 69.5c-2 18.667 -2.5 35.834 -1.5 51.501
s2.5 29.5 4.5 41.5s4.66699 23.333 8 34c28 -8 43.667 -12.667 47 -14c8 -2.66699 13.333 -6.33398 16 -11.001s3.66699 -12.334 3 -23.001c-1.33301 -11.333 -2.33301 -22.5 -3 -33.5s-0.333984 -23.5 0.999023 -37.5c2 -22.667 8.5 -41.5 19.5 -56.5
s24.667 -26.833 41 -35.5s34.5 -14.667 54.5 -18s40.333 -5 61 -5h315c28 0 47 6.5 57 19.5s13.667 30.5 11 52.5l-20 190v0zM229.001 445c-1.33301 14 2.16699 25.833 10.5 35.5s19.5 14.5 33.5 14.5s26.333 -4.83301 37 -14.5s16.667 -21.5 18 -35.5
c2 -14 -1.33301 -25.833 -10 -35.5s-20 -14.5 -34 -14.5s-26.167 4.83301 -36.5 14.5s-16.5 21.5 -18.5 35.5zM355.001 445c-1.33301 14 2.33301 25.833 11 35.5s20 14.5 34 14.5s26.333 -4.83301 37 -14.5s16.667 -21.5 18 -35.5c2 -14 -1.33301 -25.833 -10 -35.5
s-20 -14.5 -34 -14.5s-26.333 4.83301 -37 14.5s-17 21.5 -19 35.5zM278 568c-1.33301 14 2.33301 25.833 11 35.5s20 14.5 34 14.5s26.333 -4.83301 37 -14.5s16.667 -21.5 18 -35.5c2 -14 -1.33301 -25.833 -10 -35.5s-20 -14.5 -34 -14.5s-26.333 4.83301 -37 14.5
s-17 21.5 -19 35.5z" />
    <glyph glyph-name="thaini" unicode="&#x62b;" horiz-adv-x="301" arabic-form="initial" 
d="M119 337c-0.666992 8 1.49902 14.666 6.49902 19.999s11.167 8 18.5 8h50l22 -209c6 -53.333 -5 -92.666 -33 -117.999s-72.667 -38 -134 -38h-69l-7 75h65c34 0 59.833 8 77.5 24s24.834 39.667 21.501 71l-18 167v0zM21.999 495.999
c-1.33301 14 2.16699 25.833 10.5 35.5s19.5 14.5 33.5 14.5s26.333 -4.83301 37 -14.5s16.667 -21.5 18 -35.5c2 -14 -1.33301 -25.833 -10 -35.5s-20 -14.5 -34 -14.5s-26.167 4.83301 -36.5 14.5s-16.5 21.5 -18.5 35.5zM147.999 495.999
c-1.33301 14 2.33301 25.833 11 35.5s20 14.5 34 14.5s26.333 -4.83301 37 -14.5s16.667 -21.5 18 -35.5c2 -14 -1.33301 -25.833 -10 -35.5s-20 -14.5 -34 -14.5s-26.333 4.83301 -37 14.5s-17 21.5 -19 35.5zM70.998 618.999c-1.33301 14 2.33301 25.833 11 35.5
s20 14.5 34 14.5s26.333 -4.83301 37 -14.5s16.667 -21.5 18 -35.5c2 -14 -1.33301 -25.833 -10 -35.5s-20 -14.5 -34 -14.5s-26.333 4.83301 -37 14.5s-17 21.5 -19 35.5z" />
    <glyph glyph-name="thamedi" unicode="&#x62b;" arabic-form="medial" 
d="M68 337c-0.666992 8 1.33105 14.667 5.99805 20s11 8 19 8h50l27 -259c6.66699 -6 15 -11.167 25 -15.5s21.833 -8 35.5 -11s30.167 -4.5 49.5 -4.5h19l8 -75h-19c-8 -0 -17.667 0.833008 -29 2.5s-22.666 4.5 -33.999 8.5s-22.666 9 -33.999 15s-21.333 13.667 -30 23
c-6.66699 -13.333 -19.167 -24.833 -37.5 -34.5s-41.833 -14.5 -70.5 -14.5h-73l-7 75h47c28 0 46.833 6.83301 56.5 20.5s13.5 31.167 11.5 52.5l-20 189v0zM-21.002 496c-1.33301 14 2.16699 25.833 10.5 35.5s19.5 14.5 33.5 14.5s26.333 -4.83301 37 -14.5
s16.667 -21.5 18 -35.5c2 -14 -1.33301 -25.833 -10 -35.5s-20 -14.5 -34 -14.5s-26.167 4.83301 -36.5 14.5s-16.5 21.5 -18.5 35.5zM104.998 496c-1.33301 14 2.33301 25.833 11 35.5s20 14.5 34 14.5s26.333 -4.83301 37 -14.5s16.667 -21.5 18 -35.5
c2 -14 -1.33301 -25.833 -10 -35.5s-20 -14.5 -34 -14.5s-26.333 4.83301 -37 14.5s-17 21.5 -19 35.5zM27.9971 619c-1.33301 14 2.33301 25.833 11 35.5s20 14.5 34 14.5s26.333 -4.83301 37 -14.5s16.667 -21.5 18 -35.5c2 -14 -1.33301 -25.833 -10 -35.5
s-20 -14.5 -34 -14.5s-26.333 4.83301 -37 14.5s-17 21.5 -19 35.5z" />
    <glyph glyph-name="jeemfina" unicode="&#x62c;" horiz-adv-x="668" arabic-form="final" 
d="M543 41c-4 -14 -11.835 -24.334 -23.502 -31.001s-28.5 -10 -50.5 -10h-240c-15.333 0 -29.666 -1 -42.999 -3s-24.666 -6.16699 -33.999 -12.5s-16.166 -15.333 -20.499 -27s-5.5 -26.834 -3.5 -45.501c2.66699 -26 10.667 -48.667 24 -68s28.5 -36 45.5 -50
s34.5 -26 52.5 -36l45 -25c7.33301 -5.33301 11 -10.833 11 -16.5s-1 -10.834 -3 -15.501l-21 -41c-39.333 17.333 -69.5 33.333 -90.5 48s-39.5 29.667 -55.5 45s-29.833 31.333 -41.5 48s-20.834 34.667 -27.501 54s-11.334 39.666 -14.001 60.999
c-3.33301 36.667 0.166992 65.5 10.5 86.5s24 36.833 41 47.5s35.333 17.5 55 20.5s36.834 4.5 51.501 4.5h259l-9 83c-2.66699 24.667 -6 46.834 -10 66.501s-11.333 36.334 -22 50.001s-26.167 24.167 -46.5 31.5s-47.833 11 -82.5 11c-30.667 0 -60 -2.16699 -88 -6.5
s-50 -8.5 -66 -12.5c-16 -4.66699 -25.667 -0.666992 -29 12c-2 4 -8 21 -18 51c18 4.66699 37 8.83398 57 12.501s41.833 7 65.5 10s49.167 4.5 76.5 4.5c38.667 0 72.167 -3.83301 100.5 -11.5s51.833 -20 70.5 -37s33.5 -38.833 44.5 -65.5s18.5 -58.667 22.5 -96l7 -71
c6.66699 -6 15 -11.167 25 -15.5s21.667 -8.16602 35 -11.499s29.666 -5 48.999 -5h20l8 -75h-20c-15.333 0 -34.166 3.16699 -56.499 9.5s-42.5 16.833 -60.5 31.5zM304.998 -124.001c-1.33301 14 2.33301 25.833 11 35.5s20 14.5 34 14.5s26.333 -4.83301 37 -14.5
s16.667 -21.5 18 -35.5c2 -14 -1.33301 -25.833 -10 -35.5s-20 -14.5 -34 -14.5s-26.333 4.83301 -37 14.5s-17 21.5 -19 35.5z" />
    <glyph glyph-name="jeemini" unicode="&#x62c;" horiz-adv-x="514" arabic-form="initial" 
d="M-27 75l416.001 -0.00195312l-9 83c-2.66699 24.667 -6 46.834 -10 66.501s-11.5 36.334 -22.5 50.001s-26.5 24.167 -46.5 31.5s-47.333 11 -82 11c-15.333 0 -30.5 -0.666992 -45.5 -2s-29.333 -2.83301 -43 -4.5s-26 -3.66699 -37 -6s-20.5 -4.5 -28.5 -6.5
c-16 -4.66699 -26 -0.666992 -30 12c-2 4 -7.66699 21 -17 51c17.333 4.66699 36 8.83398 56 12.501s42 7 66 10s49.667 4.5 77 4.5c38.667 0 72.167 -3.83301 100.5 -11.5s51.833 -20 70.5 -37s33.5 -38.833 44.5 -65.5s18.5 -58.667 22.5 -96l9 -88
c3.33301 -30.667 -0.333984 -53.334 -11.001 -68.001s-32.667 -22 -66 -22h-407zM199.001 -107.002c-1.33301 14 2.33301 25.833 11 35.5s20 14.5 34 14.5s26.333 -4.83301 37 -14.5s16.667 -21.5 18 -35.5c2 -14 -1.33301 -25.833 -10 -35.5s-20 -14.5 -34 -14.5
s-26.333 4.83301 -37 14.5s-17 21.5 -19 35.5z" />
    <glyph glyph-name="jeemmedi" unicode="&#x62c;" horiz-adv-x="610" arabic-form="medial" 
d="M482 41c-4 -14 -11.667 -24.3369 -23 -31.0039s-28.333 -10 -51 -10h-428l-7 75h435l-8 83c-2.66699 24.667 -6 46.834 -10 66.501s-11.333 36.334 -22 50.001s-26.167 24.167 -46.5 31.5s-47.833 11 -82.5 11c-30.667 0 -60 -2.16699 -88 -6.5s-50 -8.5 -66 -12.5
c-16 -4.66699 -25.667 -0.666992 -29 12l-17 51c17.333 4.66699 36 8.83398 56 12.501s41.833 7 65.5 10s49.167 4.5 76.5 4.5c39.333 0 73 -3.83301 101 -11.5s51.5 -20 70.5 -37s33.833 -38.833 44.5 -65.5s18 -58.667 22 -96l7 -71c6.66699 -6 15 -11.167 25 -15.5
s21.833 -8.16602 35.5 -11.499s30.167 -5 49.5 -5h19l8 -75h-19c-16 0 -35.167 3.16699 -57.5 9.5s-42.5 16.833 -60.5 31.5zM211 -107.004c-1.33301 14 2.33301 25.833 11 35.5s20 14.5 34 14.5s26.333 -4.83301 37 -14.5s16.667 -21.5 18 -35.5
c2 -14 -1.33301 -25.833 -10 -35.5s-20 -14.5 -34 -14.5s-26.333 4.83301 -37 14.5s-17 21.5 -19 35.5z" />
    <glyph glyph-name="haafina" unicode="&#x62d;" horiz-adv-x="668" arabic-form="final" 
d="M543 41c-4 -14 -11.835 -24.334 -23.502 -31.001s-28.5 -10 -50.5 -10h-240c-15.333 0 -29.666 -1 -42.999 -3s-24.666 -6.16699 -33.999 -12.5s-16.166 -15.333 -20.499 -27s-5.5 -26.834 -3.5 -45.501c2.66699 -26 10.667 -48.667 24 -68s28.5 -36 45.5 -50
s34.5 -26 52.5 -36l45 -25c7.33301 -5.33301 11 -10.833 11 -16.5s-1 -10.834 -3 -15.501l-21 -41c-39.333 17.333 -69.5 33.333 -90.5 48s-39.5 29.667 -55.5 45s-29.833 31.333 -41.5 48s-20.834 34.667 -27.501 54s-11.334 39.666 -14.001 60.999
c-3.33301 36.667 0.166992 65.5 10.5 86.5s24 36.833 41 47.5s35.333 17.5 55 20.5s36.834 4.5 51.501 4.5h259l-9 83c-2.66699 24.667 -6 46.834 -10 66.501s-11.333 36.334 -22 50.001s-26.167 24.167 -46.5 31.5s-47.833 11 -82.5 11c-30.667 0 -60 -2.16699 -88 -6.5
s-50 -8.5 -66 -12.5c-16 -4.66699 -25.667 -0.666992 -29 12c-2 4 -8 21 -18 51c18 4.66699 37 8.83398 57 12.501s41.833 7 65.5 10s49.167 4.5 76.5 4.5c38.667 0 72.167 -3.83301 100.5 -11.5s51.833 -20 70.5 -37s33.5 -38.833 44.5 -65.5s18.5 -58.667 22.5 -96l7 -71
c6.66699 -6 15 -11.167 25 -15.5s21.667 -8.16602 35 -11.499s29.666 -5 48.999 -5h20l8 -75h-20c-15.333 0 -34.166 3.16699 -56.499 9.5s-42.5 16.833 -60.5 31.5z" />
    <glyph glyph-name="haaini" unicode="&#x62d;" horiz-adv-x="514" arabic-form="initial" 
d="M-27 75l416.001 -0.00195312l-9 83c-2.66699 24.667 -6 46.834 -10 66.501s-11.5 36.334 -22.5 50.001s-26.5 24.167 -46.5 31.5s-47.333 11 -82 11c-15.333 0 -30.5 -0.666992 -45.5 -2s-29.333 -2.83301 -43 -4.5s-26 -3.66699 -37 -6s-20.5 -4.5 -28.5 -6.5
c-16 -4.66699 -26 -0.666992 -30 12c-2 4 -7.66699 21 -17 51c17.333 4.66699 36 8.83398 56 12.501s42 7 66 10s49.667 4.5 77 4.5c38.667 0 72.167 -3.83301 100.5 -11.5s51.833 -20 70.5 -37s33.5 -38.833 44.5 -65.5s18.5 -58.667 22.5 -96l9 -88
c3.33301 -30.667 -0.333984 -53.334 -11.001 -68.001s-32.667 -22 -66 -22h-407z" />
    <glyph glyph-name="haamedi" unicode="&#x62d;" horiz-adv-x="610" arabic-form="medial" 
d="M482 41c-4 -14 -11.667 -24.3369 -23 -31.0039s-28.333 -10 -51 -10h-428l-7 75h435l-8 83c-2.66699 24.667 -6 46.834 -10 66.501s-11.333 36.334 -22 50.001s-26.167 24.167 -46.5 31.5s-47.833 11 -82.5 11c-30.667 0 -60 -2.16699 -88 -6.5s-50 -8.5 -66 -12.5
c-16 -4.66699 -25.667 -0.666992 -29 12l-17 51c17.333 4.66699 36 8.83398 56 12.501s41.833 7 65.5 10s49.167 4.5 76.5 4.5c39.333 0 73 -3.83301 101 -11.5s51.5 -20 70.5 -37s33.833 -38.833 44.5 -65.5s18 -58.667 22 -96l7 -71c6.66699 -6 15 -11.167 25 -15.5
s21.833 -8.16602 35.5 -11.499s30.167 -5 49.5 -5h19l8 -75h-19c-16 0 -35.167 3.16699 -57.5 9.5s-42.5 16.833 -60.5 31.5z" />
    <glyph glyph-name="khafina" unicode="&#x62e;" horiz-adv-x="668" arabic-form="final" 
d="M543 41c-4 -14 -11.835 -24.334 -23.502 -31.001s-28.5 -10 -50.5 -10h-240c-15.333 0 -29.666 -1 -42.999 -3s-24.666 -6.16699 -33.999 -12.5s-16.166 -15.333 -20.499 -27s-5.5 -26.834 -3.5 -45.501c2.66699 -26 10.667 -48.667 24 -68s28.5 -36 45.5 -50
s34.5 -26 52.5 -36l45 -25c7.33301 -5.33301 11 -10.833 11 -16.5s-1 -10.834 -3 -15.501l-21 -41c-39.333 17.333 -69.5 33.333 -90.5 48s-39.5 29.667 -55.5 45s-29.833 31.333 -41.5 48s-20.834 34.667 -27.501 54s-11.334 39.666 -14.001 60.999
c-3.33301 36.667 0.166992 65.5 10.5 86.5s24 36.833 41 47.5s35.333 17.5 55 20.5s36.834 4.5 51.501 4.5h259l-9 83c-2.66699 24.667 -6 46.834 -10 66.501s-11.333 36.334 -22 50.001s-26.167 24.167 -46.5 31.5s-47.833 11 -82.5 11c-30.667 0 -60 -2.16699 -88 -6.5
s-50 -8.5 -66 -12.5c-16 -4.66699 -25.667 -0.666992 -29 12c-2 4 -8 21 -18 51c18 4.66699 37 8.83398 57 12.501s41.833 7 65.5 10s49.167 4.5 76.5 4.5c38.667 0 72.167 -3.83301 100.5 -11.5s51.833 -20 70.5 -37s33.5 -38.833 44.5 -65.5s18.5 -58.667 22.5 -96l7 -71
c6.66699 -6 15 -11.167 25 -15.5s21.667 -8.16602 35 -11.499s29.666 -5 48.999 -5h20l8 -75h-20c-15.333 0 -34.166 3.16699 -56.499 9.5s-42.5 16.833 -60.5 31.5zM224.998 521.999c-1.33301 14 2.33301 25.833 11 35.5s20 14.5 34 14.5s26.333 -4.83301 37 -14.5
s16.667 -21.5 18 -35.5c2 -14 -1.33301 -25.833 -10 -35.5s-20 -14.5 -34 -14.5s-26.333 4.83301 -37 14.5s-17 21.5 -19 35.5z" />
    <glyph glyph-name="khaini" unicode="&#x62e;" horiz-adv-x="514" arabic-form="initial" 
d="M-27 75l416.001 -0.00195312l-9 83c-2.66699 24.667 -6 46.834 -10 66.501s-11.5 36.334 -22.5 50.001s-26.5 24.167 -46.5 31.5s-47.333 11 -82 11c-15.333 0 -30.5 -0.666992 -45.5 -2s-29.333 -2.83301 -43 -4.5s-26 -3.66699 -37 -6s-20.5 -4.5 -28.5 -6.5
c-16 -4.66699 -26 -0.666992 -30 12c-2 4 -7.66699 21 -17 51c17.333 4.66699 36 8.83398 56 12.501s42 7 66 10s49.667 4.5 77 4.5c38.667 0 72.167 -3.83301 100.5 -11.5s51.833 -20 70.5 -37s33.5 -38.833 44.5 -65.5s18.5 -58.667 22.5 -96l9 -88
c3.33301 -30.667 -0.333984 -53.334 -11.001 -68.001s-32.667 -22 -66 -22h-407zM142.001 521.998c-1.33301 14 2.33301 25.833 11 35.5s20 14.5 34 14.5s26.333 -4.83301 37 -14.5s16.667 -21.5 18 -35.5c2 -14 -1.33301 -25.833 -10 -35.5s-20 -14.5 -34 -14.5
s-26.333 4.83301 -37 14.5s-17 21.5 -19 35.5z" />
    <glyph glyph-name="khamedi" unicode="&#x62e;" horiz-adv-x="610" arabic-form="medial" 
d="M482 41c-4 -14 -11.667 -24.3369 -23 -31.0039s-28.333 -10 -51 -10h-428l-7 75h435l-8 83c-2.66699 24.667 -6 46.834 -10 66.501s-11.333 36.334 -22 50.001s-26.167 24.167 -46.5 31.5s-47.833 11 -82.5 11c-30.667 0 -60 -2.16699 -88 -6.5s-50 -8.5 -66 -12.5
c-16 -4.66699 -25.667 -0.666992 -29 12l-17 51c17.333 4.66699 36 8.83398 56 12.501s41.833 7 65.5 10s49.167 4.5 76.5 4.5c39.333 0 73 -3.83301 101 -11.5s51.5 -20 70.5 -37s33.833 -38.833 44.5 -65.5s18 -58.667 22 -96l7 -71c6.66699 -6 15 -11.167 25 -15.5
s21.833 -8.16602 35.5 -11.499s30.167 -5 49.5 -5h19l8 -75h-19c-16 0 -35.167 3.16699 -57.5 9.5s-42.5 16.833 -60.5 31.5zM164 521.996c-1.33301 14 2.33301 25.833 11 35.5s20 14.5 34 14.5s26.333 -4.83301 37 -14.5s16.667 -21.5 18 -35.5
c2 -14 -1.33301 -25.833 -10 -35.5s-20 -14.5 -34 -14.5s-26.333 4.83301 -37 14.5s-17 21.5 -19 35.5z" />
    <glyph glyph-name="dalfina" unicode="&#x62f;" horiz-adv-x="563" arabic-form="final" 
d="M39 55c-1.33301 13.333 4.33301 20 17 20h312l-8 75c-2.66699 26.667 -7.66699 48.667 -15 66s-17.5 31.666 -30.5 42.999s-29.333 20.666 -49 27.999s-40.334 13.333 -62.001 18l-58 12.5c-17 3.66699 -32.5 6.83398 -46.5 9.50098
c-25.333 4.66699 -36.666 16 -33.999 34l7 51l64 -12.5c18.667 -3.66699 42.5 -9 71.5 -16s58.5 -17.333 88.5 -31s54.5 -29.667 73.5 -48s33 -38.5 42 -60.5s14.833 -45.333 17.5 -70l8 -66c6.66699 -6.66699 15 -12.167 25 -16.5s21.667 -8.16602 35 -11.499
s29.666 -5 48.999 -5h20l8 -75h-20c-15.333 0 -34.166 3.16699 -56.499 9.5s-42.5 17.166 -60.5 32.499c-4 -13.333 -12.5 -23.666 -25.5 -30.999s-33.5 -11 -61.5 -11h-305z" />
    <glyph glyph-name="zalfina" unicode="&#x630;" horiz-adv-x="563" arabic-form="final" 
d="M80 515c-1.33301 14 2.33301 25.833 11 35.5s20 14.5 34 14.5s26.333 -4.83301 37 -14.5s16.667 -21.5 18 -35.5c2 -14 -1.33301 -25.833 -10 -35.5s-20 -14.5 -34 -14.5s-26.333 4.83301 -37 14.5s-17 21.5 -19 35.5zM38.999 55c-1.33301 13.333 4.33301 20 17 20h312
l-8 75c-2.66699 26.667 -7.66699 48.667 -15 66s-17.5 31.666 -30.5 42.999s-29.333 20.666 -49 27.999s-40.334 13.333 -62.001 18l-58 12.5c-17 3.66699 -32.5 6.83398 -46.5 9.50098c-25.333 4.66699 -36.666 16 -33.999 34l7 51l64 -12.5
c18.667 -3.66699 42.5 -9 71.5 -16s58.5 -17.333 88.5 -31s54.5 -29.667 73.5 -48s33 -38.5 42 -60.5s14.833 -45.333 17.5 -70l8 -66c6.66699 -6.66699 15 -12.167 25 -16.5s21.667 -8.16602 35 -11.499s29.666 -5 48.999 -5h20l8 -75h-20
c-15.333 0 -34.166 3.16699 -56.499 9.5s-42.5 17.166 -60.5 32.499c-4 -13.333 -12.5 -23.666 -25.5 -30.999s-33.5 -11 -61.5 -11h-305z" />
    <glyph glyph-name="rafina" unicode="&#x631;" horiz-adv-x="341" arabic-form="final" 
d="M113 336c-0.666992 8 1.5 14.832 6.5 20.499s11.167 8.5 18.5 8.5h50l27 -259c2 -1.33301 5.5 -3.83301 10.5 -7.5s12 -7.16699 21 -10.5s19.833 -6.33301 32.5 -9s27.334 -4 44.001 -4h20l8 -75h-20c-14 0 -31.333 2.66699 -52 8s-39.334 14 -56.001 26l13 -123
c3.33301 -31.333 1.33301 -57 -6 -77s-19.166 -35.5 -35.499 -46.5s-37.333 -17.5 -63 -19.5s-52.167 0 -79.5 6c-11.333 2.66699 -19.833 6.83398 -25.5 12.501s-7.83398 13.5 -6.50098 23.5l7 48c14 -4 28 -7.33301 42 -10s24.667 -4 32 -4c24 0 40 6 48 18
s10.667 31 8 57z" />
    <glyph glyph-name="zafina" unicode="&#x632;" horiz-adv-x="341" arabic-form="final" 
d="M88 494c-1.33301 14 2.33301 25.833 11 35.5s20 14.5 34 14.5s26.333 -4.83301 37 -14.5s16.667 -21.5 18 -35.5c2 -14 -1.33301 -25.833 -10 -35.5s-20 -14.5 -34 -14.5s-26.333 4.83301 -37 14.5s-17 21.5 -19 35.5zM112.999 336c-0.666992 8 1.5 14.832 6.5 20.499
s11.167 8.5 18.5 8.5h50l27 -259c2 -1.33301 5.5 -3.83301 10.5 -7.5s12 -7.16699 21 -10.5s19.833 -6.33301 32.5 -9s27.334 -4 44.001 -4h20l8 -75h-20c-14 0 -31.333 2.66699 -52 8s-39.334 14 -56.001 26l13 -123c3.33301 -31.333 1.33301 -57 -6 -77
s-19.166 -35.5 -35.499 -46.5s-37.333 -17.5 -63 -19.5s-52.167 0 -79.5 6c-11.333 2.66699 -19.833 6.83398 -25.5 12.501s-7.83398 13.5 -6.50098 23.5l7 48c14 -4 28 -7.33301 42 -10s24.667 -4 32 -4c24 0 40 6 48 18s10.667 31 8 57z" />
    <glyph glyph-name="seenfina" unicode="&#x633;" horiz-adv-x="1206" arabic-form="final" 
d="M649 0c-13.333 0 -29.8359 2.49805 -49.5029 7.49805s-38.167 13.167 -55.5 24.5l4 -35c2.66699 -24 2 -49.167 -2 -75.5s-13.5 -50.5 -28.5 -72.5s-37 -40.167 -66 -54.5s-67.167 -21.5 -114.5 -21.5c-31.333 0 -64.333 3 -99 9s-66 18.5 -94 37.5
s-51.667 46.167 -71 81.5s-31.666 80.666 -36.999 135.999c-2 15.333 -2.83301 32.333 -2.5 51s1.33301 37.5 3 56.5s3.66699 37.333 6 55s5.16602 33.5 8.49902 47.5c31.333 -9.33301 49 -14.666 53 -15.999c8 -2 13.333 -5.66699 16 -11s3 -13 1 -23
c-1.33301 -8 -2.66602 -18 -3.99902 -30s-2.33301 -25 -3 -39s-1 -28.833 -1 -44.5s1 -31.167 3 -46.5c4 -42.667 13.667 -76.167 29 -100.5s33.333 -42.5 54 -54.5s43.167 -19.333 67.5 -22s47.833 -4 70.5 -4c30 0 53.833 4 71.5 12s31.167 18.667 40.5 32s15 29 17 47
s2 37 0 57l-28 265c-0.666992 7.33301 1.5 13.833 6.5 19.5s11.167 8.5 18.5 8.5h50l20 -191c6.66699 -6 15 -11.167 25 -15.5s21.667 -8 35 -11s29.666 -4.5 48.999 -4.5c9.33301 0 19.333 0.666992 30 2s20.334 4 29.001 8s15.5 10.167 20.5 18.5s6.83301 19.5 5.5 33.5
l-14 132c-0.666992 7.33301 1.5 13.833 6.5 19.5s11.167 8.5 18.5 8.5h50l19 -182c10 -10 20.5 -17.833 31.5 -23.5s21.667 -9.66699 32 -12s20.333 -3.66602 30 -3.99902s18.834 -0.5 27.501 -0.5h4c28 0 46.833 6.66699 56.5 20s13.5 31 11.5 53l-20 188
c-0.666992 8 1.5 14.833 6.5 20.5s11.167 8.5 18.5 8.5h50l27 -259c6.66699 -6 15 -11.167 25 -15.5s21.667 -8 35 -11s29.666 -4.5 48.999 -4.5h20l8 -75h-20c-8 0 -17.667 1 -29 3s-22.666 5 -33.999 9s-22.5 9.16699 -33.5 15.5s-21.167 13.833 -30.5 22.5
c-6.66699 -13.333 -19 -25 -37 -35s-41.667 -15 -71 -15h-28c-22.667 0 -42.667 2.5 -60 7.5s-32 10.833 -44 17.5s-21.5 13.167 -28.5 19.5s-11.833 10.833 -14.5 13.5c-1.33301 -2.66699 -4.33301 -6.83398 -9 -12.501s-11.667 -11.667 -21 -18
s-21.166 -12.166 -35.499 -17.499s-31.833 -8.66602 -52.5 -9.99902h-22z" />
    <glyph glyph-name="seenini" unicode="&#x633;" horiz-adv-x="784" arabic-form="initial" 
d="M552 0c-18.667 0 -35.667 2.49902 -51 7.49902s-28.666 10.833 -39.999 17.5s-20.5 13.167 -27.5 19.5s-11.833 10.833 -14.5 13.5c-1.33301 -2.66699 -4.16602 -6.83398 -8.49902 -12.501s-11 -11.667 -20 -18s-20.833 -12.166 -35.5 -17.499s-32 -8.66602 -52 -9.99902
h-21c-8 -0 -17.5 0.833008 -28.5 2.5s-22.167 4.5 -33.5 8.5s-22.5 9.16699 -33.5 15.5s-21.167 13.833 -30.5 22.5c-6.66699 -13.333 -19 -24.833 -37 -34.5s-42 -14.5 -72 -14.5h-67l-7 75h43c28 0 46.833 6.83301 56.5 20.5s13.5 31.167 11.5 52.5l-13 121
c-0.666992 7.33301 1.5 13.833 6.5 19.5s11.167 8.5 18.5 8.5h50l20 -191c6.66699 -6 15 -11.167 25 -15.5s21.667 -8 35 -11s29.666 -4.5 48.999 -4.5c9.33301 0 19 0.666992 29 2s19.333 4.16602 28 8.49902s15.5 10.666 20.5 18.999s6.83301 19.5 5.5 33.5l-14 131
c-0.666992 7.33301 1.5 13.833 6.5 19.5s11.167 8.5 18.5 8.5h51l19 -182c16.667 -17.333 34.334 -28.333 53.001 -33s36 -7 52 -7c43.333 0 70.166 8.83301 80.499 26.5s13.833 43.834 10.5 78.501l-17 156c-0.666992 8 1.5 14.833 6.5 20.5s11.167 8.5 18.5 8.5h51
l19 -183c3.33301 -27.333 3.5 -52.166 0.5 -74.499s-10.333 -41.5 -22 -57.5s-28.834 -28.333 -51.501 -37s-52 -13 -88 -13z" />
    <glyph glyph-name="seenmedi" unicode="&#x633;" horiz-adv-x="839" arabic-form="medial" 
d="M565 0c-22.667 0 -42.6729 2.49902 -60.0059 7.49902s-32.166 10.833 -44.499 17.5s-22 13.167 -29 19.5s-11.833 10.833 -14.5 13.5c-1.33301 -2.66699 -4.33301 -6.83398 -9 -12.501s-11.5 -11.667 -20.5 -18s-20.833 -12.166 -35.5 -17.499s-32 -8.66602 -52 -9.99902
h-20c-8.66699 -0 -18.5 0.833008 -29.5 2.5s-22.167 4.5 -33.5 8.5s-22.5 9.16699 -33.5 15.5s-21.167 13.833 -30.5 22.5c-6.66699 -13.333 -19 -24.833 -37 -34.5s-41.333 -14.5 -70 -14.5h-66l-7 75h44c27.333 0 45.333 7.16699 54 21.5s12 32.166 10 53.499l-13 119
c-0.666992 7.33301 1.5 13.833 6.5 19.5s11.167 8.5 18.5 8.5h50l20 -191c6.66699 -6 15 -11.167 25 -15.5s21.5 -8 34.5 -11s29.167 -4.5 48.5 -4.5c9.33301 0 19.333 0.666992 30 2s20.334 4 29.001 8s15.5 10.167 20.5 18.5s6.83301 19.5 5.5 33.5l-14 132
c-0.666992 7.33301 1.5 13.833 6.5 19.5s11.167 8.5 18.5 8.5h50l19 -182c10 -10 20.333 -17.833 31 -23.5s21.334 -9.66699 32.001 -12s20.834 -3.66602 30.501 -3.99902s18.834 -0.5 27.501 -0.5h4c28 0 46.667 6.66699 56 20s13 31 11 53l-20 188
c-0.666992 8 1.5 14.833 6.5 20.5s11.167 8.5 18.5 8.5h51l27 -259c6.66699 -6 15 -11.167 25 -15.5s21.667 -8 35 -11s29.666 -4.5 48.999 -4.5h19l8 -75h-19c-8 0 -17.667 1 -29 3s-22.666 5 -33.999 9s-22.666 9.16699 -33.999 15.5s-21.333 13.833 -30 22.5
c-6.66699 -13.333 -19 -25 -37 -35s-41.667 -15 -71 -15h-28z" />
    <glyph glyph-name="sheenfina" unicode="&#x634;" horiz-adv-x="1206" arabic-form="final" 
d="M622 462c-1.33301 14 2.16699 25.833 10.5 35.5s19.5 14.5 33.5 14.5s26.333 -4.83301 37 -14.5s16.667 -21.5 18 -35.5c2 -14 -1.33301 -25.833 -10 -35.5s-20 -14.5 -34 -14.5s-26.167 4.83301 -36.5 14.5s-16.5 21.5 -18.5 35.5zM748 462
c-1.33301 14 2.33301 25.833 11 35.5s20 14.5 34 14.5s26.333 -4.83301 37 -14.5s16.667 -21.5 18 -35.5c2 -14 -1.33301 -25.833 -10 -35.5s-20 -14.5 -34 -14.5s-26.333 4.83301 -37 14.5s-17 21.5 -19 35.5zM670.999 585c-1.33301 14 2.33301 25.833 11 35.5
s20 14.5 34 14.5s26.333 -4.83301 37 -14.5s16.667 -21.5 18 -35.5c2 -14 -1.33301 -25.833 -10 -35.5s-20 -14.5 -34 -14.5s-26.333 4.83301 -37 14.5s-17 21.5 -19 35.5zM648.998 0c-13.333 0 -29.8359 2.49805 -49.5029 7.49805s-38.167 13.167 -55.5 24.5l4 -35
c2.66699 -24 2 -49.167 -2 -75.5s-13.5 -50.5 -28.5 -72.5s-37 -40.167 -66 -54.5s-67.167 -21.5 -114.5 -21.5c-31.333 0 -64.333 3 -99 9s-66 18.5 -94 37.5s-51.667 46.167 -71 81.5s-31.666 80.666 -36.999 135.999c-2 15.333 -2.83301 32.333 -2.5 51
s1.33301 37.5 3 56.5s3.66699 37.333 6 55s5.16602 33.5 8.49902 47.5c31.333 -9.33301 49 -14.666 53 -15.999c8 -2 13.333 -5.66699 16 -11s3 -13 1 -23c-1.33301 -8 -2.66602 -18 -3.99902 -30s-2.33301 -25 -3 -39s-1 -28.833 -1 -44.5s1 -31.167 3 -46.5
c4 -42.667 13.667 -76.167 29 -100.5s33.333 -42.5 54 -54.5s43.167 -19.333 67.5 -22s47.833 -4 70.5 -4c30 0 53.833 4 71.5 12s31.167 18.667 40.5 32s15 29 17 47s2 37 0 57l-28 265c-0.666992 7.33301 1.5 13.833 6.5 19.5s11.167 8.5 18.5 8.5h50l20 -191
c6.66699 -6 15 -11.167 25 -15.5s21.667 -8 35 -11s29.666 -4.5 48.999 -4.5c9.33301 0 19.333 0.666992 30 2s20.334 4 29.001 8s15.5 10.167 20.5 18.5s6.83301 19.5 5.5 33.5l-14 132c-0.666992 7.33301 1.5 13.833 6.5 19.5s11.167 8.5 18.5 8.5h50l19 -182
c10 -10 20.5 -17.833 31.5 -23.5s21.667 -9.66699 32 -12s20.333 -3.66602 30 -3.99902s18.834 -0.5 27.501 -0.5h4c28 0 46.833 6.66699 56.5 20s13.5 31 11.5 53l-20 188c-0.666992 8 1.5 14.833 6.5 20.5s11.167 8.5 18.5 8.5h50l27 -259c6.66699 -6 15 -11.167 25 -15.5
s21.667 -8 35 -11s29.666 -4.5 48.999 -4.5h20l8 -75h-20c-8 0 -17.667 1 -29 3s-22.666 5 -33.999 9s-22.5 9.16699 -33.5 15.5s-21.167 13.833 -30.5 22.5c-6.66699 -13.333 -19 -25 -37 -35s-41.667 -15 -71 -15h-28c-22.667 0 -42.667 2.5 -60 7.5s-32 10.833 -44 17.5
s-21.5 13.167 -28.5 19.5s-11.833 10.833 -14.5 13.5c-1.33301 -2.66699 -4.33301 -6.83398 -9 -12.501s-11.667 -11.667 -21 -18s-21.166 -12.166 -35.499 -17.499s-31.833 -8.66602 -52.5 -9.99902h-22z" />
    <glyph glyph-name="sheenini" unicode="&#x634;" horiz-adv-x="784" arabic-form="initial" 
d="M552 0c-18.667 0 -35.667 2.49902 -51 7.49902s-28.666 10.833 -39.999 17.5s-20.5 13.167 -27.5 19.5s-11.833 10.833 -14.5 13.5c-1.33301 -2.66699 -4.16602 -6.83398 -8.49902 -12.501s-11 -11.667 -20 -18s-20.833 -12.166 -35.5 -17.499s-32 -8.66602 -52 -9.99902
h-21c-8 -0 -17.5 0.833008 -28.5 2.5s-22.167 4.5 -33.5 8.5s-22.5 9.16699 -33.5 15.5s-21.167 13.833 -30.5 22.5c-6.66699 -13.333 -19 -24.833 -37 -34.5s-42 -14.5 -72 -14.5h-67l-7 75h43c28 0 46.833 6.83301 56.5 20.5s13.5 31.167 11.5 52.5l-13 121
c-0.666992 7.33301 1.5 13.833 6.5 19.5s11.167 8.5 18.5 8.5h50l20 -191c6.66699 -6 15 -11.167 25 -15.5s21.667 -8 35 -11s29.666 -4.5 48.999 -4.5c9.33301 0 19 0.666992 29 2s19.333 4.16602 28 8.49902s15.5 10.666 20.5 18.999s6.83301 19.5 5.5 33.5l-14 131
c-0.666992 7.33301 1.5 13.833 6.5 19.5s11.167 8.5 18.5 8.5h51l19 -182c16.667 -17.333 34.334 -28.333 53.001 -33s36 -7 52 -7c43.333 0 70.166 8.83301 80.499 26.5s13.833 43.834 10.5 78.501l-17 156c-0.666992 8 1.5 14.833 6.5 20.5s11.167 8.5 18.5 8.5h51
l19 -183c3.33301 -27.333 3.5 -52.166 0.5 -74.499s-10.333 -41.5 -22 -57.5s-28.834 -28.333 -51.501 -37s-52 -13 -88 -13zM254 462.999c-1.33301 14 2.16699 25.833 10.5 35.5s19.5 14.5 33.5 14.5s26.333 -4.83301 37 -14.5s16.667 -21.5 18 -35.5
c2 -14 -1.33301 -25.833 -10 -35.5s-20 -14.5 -34 -14.5s-26.167 4.83301 -36.5 14.5s-16.5 21.5 -18.5 35.5zM380 462.999c-1.33301 14 2.33301 25.833 11 35.5s20 14.5 34 14.5s26.333 -4.83301 37 -14.5s16.667 -21.5 18 -35.5c2 -14 -1.33301 -25.833 -10 -35.5
s-20 -14.5 -34 -14.5s-26.333 4.83301 -37 14.5s-17 21.5 -19 35.5zM302.999 585.999c-1.33301 14 2.33301 25.833 11 35.5s20 14.5 34 14.5s26.333 -4.83301 37 -14.5s16.667 -21.5 18 -35.5c2 -14 -1.33301 -25.833 -10 -35.5s-20 -14.5 -34 -14.5
s-26.333 4.83301 -37 14.5s-17 21.5 -19 35.5z" />
    <glyph glyph-name="sheenmedi" unicode="&#x634;" horiz-adv-x="839" arabic-form="medial" 
d="M251 463c-1.33301 14 2.16699 25.833 10.5 35.5s19.5 14.5 33.5 14.5s26.333 -4.83301 37 -14.5s16.667 -21.5 18 -35.5c2 -14 -1.33301 -25.833 -10 -35.5s-20 -14.5 -34 -14.5s-26.167 4.83301 -36.5 14.5s-16.5 21.5 -18.5 35.5zM377 463
c-1.33301 14 2.33301 25.833 11 35.5s20 14.5 34 14.5s26.333 -4.83301 37 -14.5s16.667 -21.5 18 -35.5c2 -14 -1.33301 -25.833 -10 -35.5s-20 -14.5 -34 -14.5s-26.333 4.83301 -37 14.5s-17 21.5 -19 35.5zM299.999 586c-1.33301 14 2.33301 25.833 11 35.5
s20 14.5 34 14.5s26.333 -4.83301 37 -14.5s16.667 -21.5 18 -35.5c2 -14 -1.33301 -25.833 -10 -35.5s-20 -14.5 -34 -14.5s-26.333 4.83301 -37 14.5s-17 21.5 -19 35.5zM564.998 0c-22.667 0 -42.6729 2.49902 -60.0059 7.49902s-32.166 10.833 -44.499 17.5
s-22 13.167 -29 19.5s-11.833 10.833 -14.5 13.5c-1.33301 -2.66699 -4.33301 -6.83398 -9 -12.501s-11.5 -11.667 -20.5 -18s-20.833 -12.166 -35.5 -17.499s-32 -8.66602 -52 -9.99902h-20c-8.66699 -0 -18.5 0.833008 -29.5 2.5s-22.167 4.5 -33.5 8.5
s-22.5 9.16699 -33.5 15.5s-21.167 13.833 -30.5 22.5c-6.66699 -13.333 -19 -24.833 -37 -34.5s-41.333 -14.5 -70 -14.5h-66l-7 75h44c27.333 0 45.333 7.16699 54 21.5s12 32.166 10 53.499l-13 119c-0.666992 7.33301 1.5 13.833 6.5 19.5s11.167 8.5 18.5 8.5h50
l20 -191c6.66699 -6 15 -11.167 25 -15.5s21.5 -8 34.5 -11s29.167 -4.5 48.5 -4.5c9.33301 0 19.333 0.666992 30 2s20.334 4 29.001 8s15.5 10.167 20.5 18.5s6.83301 19.5 5.5 33.5l-14 132c-0.666992 7.33301 1.5 13.833 6.5 19.5s11.167 8.5 18.5 8.5h50l19 -182
c10 -10 20.333 -17.833 31 -23.5s21.334 -9.66699 32.001 -12s20.834 -3.66602 30.501 -3.99902s18.834 -0.5 27.501 -0.5h4c28 0 46.667 6.66699 56 20s13 31 11 53l-20 188c-0.666992 8 1.5 14.833 6.5 20.5s11.167 8.5 18.5 8.5h51l27 -259
c6.66699 -6 15 -11.167 25 -15.5s21.667 -8 35 -11s29.666 -4.5 48.999 -4.5h19l8 -75h-19c-8 0 -17.667 1 -29 3s-22.666 5 -33.999 9s-22.666 9.16699 -33.999 15.5s-21.333 13.833 -30 22.5c-6.66699 -13.333 -19 -25 -37 -35s-41.667 -15 -71 -15h-28z" />
    <glyph glyph-name="sadfina" unicode="&#x635;" horiz-adv-x="1162" arabic-form="final" 
d="M445 361c-1.33301 7.33301 0.667969 13.8369 6.00098 19.5039s11.666 8.5 18.999 8.5h50l6 -56l348 56c12.667 2 26.667 1.66699 42 -1s30.5 -7.66699 45.5 -15s28.667 -15.833 41 -25.5s23.333 -21.5 33 -35.5s18.167 -30.5 25.5 -49.5s12.333 -41.167 15 -66.5
c2 -19.333 2.5 -38 1.5 -56s-4.16699 -35 -9.5 -51c9.33301 -3.33301 20.333 -6.5 33 -9.5s27.667 -4.5 45 -4.5h19l8 -75h-19c-15.333 0 -34.166 3 -56.499 9s-42.166 16 -59.499 30c-12 -12 -27.167 -21.5 -45.5 -28.5s-41.166 -10.5 -68.499 -10.5h-363
c3.33301 -32.667 3.33301 -62.667 0 -90s-12.333 -51.166 -27 -71.499s-36.5 -36.333 -65.5 -48s-67.167 -17.5 -114.5 -17.5c-31.333 0 -64.833 3 -100.5 9s-68.5 18.5 -98.5 37.5s-55.333 46.167 -76 81.5s-33.667 80.666 -39 135.999c-2 15.333 -2.83301 32.333 -2.5 51
s1.16602 37.5 2.49902 56.5s3.16602 37.333 5.49902 55s5.16602 33.5 8.49902 47.5l52 -16c9.33301 -2.66699 15 -6.33398 17 -11.001s2.33301 -12.334 1 -23.001c-3.33301 -16 -5.66602 -39 -6.99902 -69s-0.333008 -60.333 3 -91c4 -42.667 14.167 -76.167 30.5 -100.5
s35.666 -42.5 57.999 -54.5s46.333 -19.333 72 -22s49.834 -4 72.501 -4c30 0 54.167 3.16699 72.5 9.5s32.166 15.666 41.499 27.999s14.833 27.666 16.5 45.999s1.16699 39.833 -1.5 64.5zM901.001 75.0039c34 0 57.333 5.16699 70 15.5s21.667 23.5 27 39.5s7 36 5 60
c-3.33301 28 -10 50.333 -20 67s-21.333 29.5 -34 38.5s-25.5 15 -38.5 18s-23.833 4.5 -32.5 4.5l-345 -60l20 -183h348z" />
    <glyph glyph-name="sadini" unicode="&#x635;" horiz-adv-x="704" arabic-form="initial" 
d="M8 361c-1.33301 7.33301 0.666992 13.833 6 19.5s11.666 8.5 18.999 8.5h51l6 -56l348 56c12.667 1.33301 26.834 0.5 42.501 -2.5s31 -8 46 -15s28.5 -15.167 40.5 -24.5s22.833 -21 32.5 -35s18.167 -30.5 25.5 -49.5s12.333 -41.167 15 -66.5s2.5 -49.833 -0.5 -73.5
s-10.167 -44.5 -21.5 -62.5s-27.5 -32.5 -48.5 -43.5s-48.5 -16.5 -82.5 -16.5h-507l-7 75h65zM464 75c34 0 57.833 5.33203 71.5 15.999s22.667 23.834 27 39.501s5.5 35.5 3.5 59.5c-3.33301 28 -10 50.333 -20 67s-21.333 29.5 -34 38.5s-25.5 15 -38.5 18
s-23.833 4.5 -32.5 4.5l-344 -60l20 -183h347z" />
    <glyph glyph-name="sadmedi" unicode="&#x635;" horiz-adv-x="748" arabic-form="medial" 
d="M32 361c-1.33301 7.33301 0.668945 13.835 6.00195 19.502s11.666 8.5 18.999 8.5h50l6 -56l349 56c14.667 1.33301 29.5 0.666016 44.5 -2.00098s29.5 -7.33398 43.5 -14.001s27.333 -15 40 -25s23.834 -22 33.501 -36s18.167 -30.5 25.5 -49.5s12.333 -41.167 15 -66.5
c2 -19.333 2.5 -38 1.5 -56s-4.16699 -35 -9.5 -51c9.33301 -3.33301 20.166 -6.5 32.499 -9.5s27.166 -4.5 44.499 -4.5h20l8 -75h-20c-15.333 0 -34 3 -56 9s-42 16 -60 30c-12 -12 -27.167 -21.5 -45.5 -28.5s-40.833 -10.5 -67.5 -10.5h-532l-7 75h89zM489.002 75.002
c34 0 57.667 5.5 71 16.5s22.333 24.167 27 39.5s6 35 4 59c-3.33301 28 -10 50.333 -20 67s-21.5 29.5 -34.5 38.5s-26 15 -39 18s-23.833 4.5 -32.5 4.5l-345 -60l20 -183h349z" />
    <glyph glyph-name="dadfina" unicode="&#x636;" horiz-adv-x="1162" arabic-form="final" 
d="M543 494c-1.33301 14 2.33301 25.833 11 35.5s20 14.5 34 14.5s26.333 -4.83301 37 -14.5s16.667 -21.5 18 -35.5c2 -14 -1.33301 -25.833 -10 -35.5s-20 -14.5 -34 -14.5s-26.333 4.83301 -37 14.5s-17 21.5 -19 35.5zM444.999 361
c-1.33301 7.33301 0.667969 13.8369 6.00098 19.5039s11.666 8.5 18.999 8.5h50l6 -56l348 56c12.667 2 26.667 1.66699 42 -1s30.5 -7.66699 45.5 -15s28.667 -15.833 41 -25.5s23.333 -21.5 33 -35.5s18.167 -30.5 25.5 -49.5s12.333 -41.167 15 -66.5
c2 -19.333 2.5 -38 1.5 -56s-4.16699 -35 -9.5 -51c9.33301 -3.33301 20.333 -6.5 33 -9.5s27.667 -4.5 45 -4.5h19l8 -75h-19c-15.333 0 -34.166 3 -56.499 9s-42.166 16 -59.499 30c-12 -12 -27.167 -21.5 -45.5 -28.5s-41.166 -10.5 -68.499 -10.5h-363
c3.33301 -32.667 3.33301 -62.667 0 -90s-12.333 -51.166 -27 -71.499s-36.5 -36.333 -65.5 -48s-67.167 -17.5 -114.5 -17.5c-31.333 0 -64.833 3 -100.5 9s-68.5 18.5 -98.5 37.5s-55.333 46.167 -76 81.5s-33.667 80.666 -39 135.999c-2 15.333 -2.83301 32.333 -2.5 51
s1.16602 37.5 2.49902 56.5s3.16602 37.333 5.49902 55s5.16602 33.5 8.49902 47.5l52 -16c9.33301 -2.66699 15 -6.33398 17 -11.001s2.33301 -12.334 1 -23.001c-3.33301 -16 -5.66602 -39 -6.99902 -69s-0.333008 -60.333 3 -91c4 -42.667 14.167 -76.167 30.5 -100.5
s35.666 -42.5 57.999 -54.5s46.333 -19.333 72 -22s49.834 -4 72.501 -4c30 0 54.167 3.16699 72.5 9.5s32.166 15.666 41.499 27.999s14.833 27.666 16.5 45.999s1.16699 39.833 -1.5 64.5zM901 75.0039c34 0 57.333 5.16699 70 15.5s21.667 23.5 27 39.5s7 36 5 60
c-3.33301 28 -10 50.333 -20 67s-21.333 29.5 -34 38.5s-25.5 15 -38.5 18s-23.833 4.5 -32.5 4.5l-345 -60l20 -183h348z" />
    <glyph glyph-name="dadini" unicode="&#x636;" horiz-adv-x="704" arabic-form="initial" 
d="M110 496c-1.33301 14 2.33301 25.833 11 35.5s20 14.5 34 14.5s26.333 -4.83301 37 -14.5s16.667 -21.5 18 -35.5c2 -14 -1.33301 -25.833 -10 -35.5s-20 -14.5 -34 -14.5s-26.333 4.83301 -37 14.5s-17 21.5 -19 35.5zM7.99902 361
c-1.33301 7.33301 0.666992 13.833 6 19.5s11.666 8.5 18.999 8.5h51l6 -56l348 56c12.667 1.33301 26.834 0.5 42.501 -2.5s31 -8 46 -15s28.5 -15.167 40.5 -24.5s22.833 -21 32.5 -35s18.167 -30.5 25.5 -49.5s12.333 -41.167 15 -66.5s2.5 -49.833 -0.5 -73.5
s-10.167 -44.5 -21.5 -62.5s-27.5 -32.5 -48.5 -43.5s-48.5 -16.5 -82.5 -16.5h-507l-7 75h65zM463.999 75c34 0 57.833 5.33203 71.5 15.999s22.667 23.834 27 39.501s5.5 35.5 3.5 59.5c-3.33301 28 -10 50.333 -20 67s-21.333 29.5 -34 38.5s-25.5 15 -38.5 18
s-23.833 4.5 -32.5 4.5l-344 -60l20 -183h347z" />
    <glyph glyph-name="dadmedi" unicode="&#x636;" horiz-adv-x="748" arabic-form="medial" 
d="M132 495c-1.33301 14 2.33301 25.833 11 35.5s20 14.5 34 14.5s26.333 -4.83301 37 -14.5s16.667 -21.5 18 -35.5c2 -14 -1.33301 -25.833 -10 -35.5s-20 -14.5 -34 -14.5s-26.333 4.83301 -37 14.5s-17 21.5 -19 35.5zM31.999 361
c-1.33301 7.33301 0.668945 13.835 6.00195 19.502s11.666 8.5 18.999 8.5h50l6 -56l349 56c14.667 1.33301 29.5 0.666016 44.5 -2.00098s29.5 -7.33398 43.5 -14.001s27.333 -15 40 -25s23.834 -22 33.501 -36s18.167 -30.5 25.5 -49.5s12.333 -41.167 15 -66.5
c2 -19.333 2.5 -38 1.5 -56s-4.16699 -35 -9.5 -51c9.33301 -3.33301 20.166 -6.5 32.499 -9.5s27.166 -4.5 44.499 -4.5h20l8 -75h-20c-15.333 0 -34 3 -56 9s-42 16 -60 30c-12 -12 -27.167 -21.5 -45.5 -28.5s-40.833 -10.5 -67.5 -10.5h-532l-7 75h89zM489.001 75.002
c34 0 57.667 5.5 71 16.5s22.333 24.167 27 39.5s6 35 4 59c-3.33301 28 -10 50.333 -20 67s-21.5 29.5 -34.5 38.5s-26 15 -39 18s-23.833 4.5 -32.5 4.5l-345 -60l20 -183h349z" />
    <glyph glyph-name="tahfina" unicode="&#x637;" horiz-adv-x="785" arabic-form="final" 
d="M49 523c-1.33301 7.33301 0.666992 13.834 6 19.501s11.666 8.5 18.999 8.5h50l23 -219l352 57c10 1.33301 23.833 0.5 41.5 -2.5s33.667 -7.83301 48 -14.5s27.5 -14.834 39.5 -24.501s22.833 -21.5 32.5 -35.5s18.167 -30.5 25.5 -49.5s12.333 -41.167 15 -66.5
c2 -19.333 2.5 -38 1.5 -56s-4.5 -35 -10.5 -51c9.33301 -3.33301 20.333 -6.5 33 -9.5s27.667 -4.5 45 -4.5h20l8 -75h-20c-15.333 0 -34 3 -56 9s-42 16 -60 30c-12 -12 -27.167 -21.5 -45.5 -28.5s-41.166 -10.5 -68.499 -10.5h-502l-5 44
c-1.33301 11.333 0.166992 19.333 4.5 24s10.5 7 18.5 7h32zM526 75.001c33.333 0 56.833 5.33301 70.5 16s22.667 23.667 27 39s5.5 35 3.5 59c-3.33301 28 -10 50.5 -20 67.5s-21.333 30 -34 39s-25.5 15 -38.5 18s-23.833 4.5 -32.5 4.5l-348 -60l20 -183h352z" />
    <glyph glyph-name="tahini" unicode="&#x637;" horiz-adv-x="731" arabic-form="initial" 
d="M13 523c-1.33301 7.33301 0.666992 13.834 6 19.501s11.666 8.5 18.999 8.5h51l23 -219l351 57c11.333 1.33301 25.333 0.666016 42 -2.00098s32.334 -7.5 47.001 -14.5s28 -15.333 40 -25s22.833 -21.5 32.5 -35.5s18.167 -30.5 25.5 -49.5s12.333 -41.167 15 -66.5
s2.5 -49.833 -0.5 -73.5s-10.167 -44.5 -21.5 -62.5s-27.5 -32.5 -48.5 -43.5s-48.5 -16.5 -82.5 -16.5h-532l-7 75h87zM489 75.001c28 0 49.833 4.33301 65.5 13s26.167 21.667 31.5 39s7 38 5 62c-3.33301 28 -10 50.5 -20 67.5s-21.333 30 -34 39s-25.5 15 -38.5 18
s-23.833 4.5 -32.5 4.5l-347 -60l20 -183h350z" />
    <glyph glyph-name="tahmedi" unicode="&#x637;" horiz-adv-x="748" arabic-form="medial" 
d="M13 523c-1.33301 7.33301 0.666016 13.833 5.99902 19.5s11.666 8.5 18.999 8.5h50l23 -219l351 57c8 1.33301 21.167 0.5 39.5 -2.5s35 -8 50 -15s28.333 -15.167 40 -24.5s22.334 -21 32.001 -35s18.167 -30.5 25.5 -49.5s12.333 -41.167 15 -66.5
c2 -19.333 2.5 -38 1.5 -56s-4.16699 -35 -9.5 -51c9.33301 -3.33301 20.333 -6.5 33 -9.5s27.667 -4.5 45 -4.5h19l8 -75h-19c-15.333 0 -34.166 3 -56.499 9s-42.5 16 -60.5 30c-12 -12 -27 -21.5 -45 -28.5s-40.667 -10.5 -68 -10.5h-532l-7 75h87zM488.999 75
c33.333 0 56.832 5.33301 70.499 16s22.834 23.667 27.501 39s6 35 4 59c-3.33301 28 -10 50.5 -20 67.5s-21.333 30 -34 39s-25.5 15 -38.5 18s-23.833 4.5 -32.5 4.5l-348 -60l20 -183h351z" />
    <glyph glyph-name="zadfina" unicode="&#x638;" horiz-adv-x="785" arabic-form="final" 
d="M223 495c-1.33301 14 2.33301 25.833 11 35.5s20 14.5 34 14.5s26.333 -4.83301 37 -14.5s16.667 -21.5 18 -35.5c2 -14 -1.33301 -25.833 -10 -35.5s-20 -14.5 -34 -14.5s-26.333 4.83301 -37 14.5s-17 21.5 -19 35.5zM48.999 523
c-1.33301 7.33301 0.666992 13.834 6 19.501s11.666 8.5 18.999 8.5h50l23 -219l352 57c10 1.33301 23.833 0.5 41.5 -2.5s33.667 -7.83301 48 -14.5s27.5 -14.834 39.5 -24.501s22.833 -21.5 32.5 -35.5s18.167 -30.5 25.5 -49.5s12.333 -41.167 15 -66.5
c2 -19.333 2.5 -38 1.5 -56s-4.5 -35 -10.5 -51c9.33301 -3.33301 20.333 -6.5 33 -9.5s27.667 -4.5 45 -4.5h20l8 -75h-20c-15.333 0 -34 3 -56 9s-42 16 -60 30c-12 -12 -27.167 -21.5 -45.5 -28.5s-41.166 -10.5 -68.499 -10.5h-502l-5 44
c-1.33301 11.333 0.166992 19.333 4.5 24s10.5 7 18.5 7h32zM525.999 75.001c33.333 0 56.833 5.33301 70.5 16s22.667 23.667 27 39s5.5 35 3.5 59c-3.33301 28 -10 50.5 -20 67.5s-21.333 30 -34 39s-25.5 15 -38.5 18s-23.833 4.5 -32.5 4.5l-348 -60l20 -183h352z" />
    <glyph glyph-name="zadini" unicode="&#x638;" horiz-adv-x="731" arabic-form="initial" 
d="M188 494c-1.33301 14 2.33301 25.833 11 35.5s20 14.5 34 14.5s26.333 -4.83301 37 -14.5s16.667 -21.5 18 -35.5c2 -14 -1.33301 -25.833 -10 -35.5s-20 -14.5 -34 -14.5s-26.333 4.83301 -37 14.5s-17 21.5 -19 35.5zM12.999 523
c-1.33301 7.33301 0.666992 13.834 6 19.501s11.666 8.5 18.999 8.5h51l23 -219l351 57c11.333 1.33301 25.333 0.666016 42 -2.00098s32.334 -7.5 47.001 -14.5s28 -15.333 40 -25s22.833 -21.5 32.5 -35.5s18.167 -30.5 25.5 -49.5s12.333 -41.167 15 -66.5
s2.5 -49.833 -0.5 -73.5s-10.167 -44.5 -21.5 -62.5s-27.5 -32.5 -48.5 -43.5s-48.5 -16.5 -82.5 -16.5h-532l-7 75h87zM488.999 75.001c28 0 49.833 4.33301 65.5 13s26.167 21.667 31.5 39s7 38 5 62c-3.33301 28 -10 50.5 -20 67.5s-21.333 30 -34 39s-25.5 15 -38.5 18
s-23.833 4.5 -32.5 4.5l-347 -60l20 -183h350z" />
    <glyph glyph-name="zadmedi" unicode="&#x638;" horiz-adv-x="748" arabic-form="medial" 
d="M189 494c-1.33301 14 2.33301 25.833 11 35.5s20 14.5 34 14.5s26.333 -4.83301 37 -14.5s16.667 -21.5 18 -35.5c2 -14 -1.33301 -25.833 -10 -35.5s-20 -14.5 -34 -14.5s-26.333 4.83301 -37 14.5s-17 21.5 -19 35.5zM12.999 523
c-1.33301 7.33301 0.666016 13.833 5.99902 19.5s11.666 8.5 18.999 8.5h50l23 -219l351 57c8 1.33301 21.167 0.5 39.5 -2.5s35 -8 50 -15s28.333 -15.167 40 -24.5s22.334 -21 32.001 -35s18.167 -30.5 25.5 -49.5s12.333 -41.167 15 -66.5c2 -19.333 2.5 -38 1.5 -56
s-4.16699 -35 -9.5 -51c9.33301 -3.33301 20.333 -6.5 33 -9.5s27.667 -4.5 45 -4.5h19l8 -75h-19c-15.333 0 -34.166 3 -56.499 9s-42.5 16 -60.5 30c-12 -12 -27 -21.5 -45 -28.5s-40.667 -10.5 -68 -10.5h-532l-7 75h87zM488.998 75c33.333 0 56.832 5.33301 70.499 16
s22.834 23.667 27.501 39s6 35 4 59c-3.33301 28 -10 50.5 -20 67.5s-21.333 30 -34 39s-25.5 15 -38.5 18s-23.833 4.5 -32.5 4.5l-348 -60l20 -183h351z" />
    <glyph glyph-name="aynfina" unicode="&#x639;" horiz-adv-x="634" arabic-form="final" 
d="M196 0c-8.66699 0 -18.166 -0.498047 -28.499 -1.49805s-19.833 -3.66699 -28.5 -8s-15.667 -11.333 -21 -21s-7 -23.167 -5 -40.5c2.66699 -24 10.5 -46.667 23.5 -68s28.333 -40.833 46 -58.5s35.667 -33 54 -46s33.833 -23.167 46.5 -30.5c6 -4 10 -8.66699 12 -14
s1.33301 -11.666 -2 -18.999l-22 -39c-40.667 20.667 -72.667 40.5 -96 59.5s-42 35.667 -56 50s-26.5 29.833 -37.5 46.5s-20.5 34.5 -28.5 53.5s-13.333 39.167 -16 60.5c-2.66699 30.667 0 55.667 8 75s19 34.666 33 45.999s29.667 19.166 47 23.499s33.333 6.5 48 6.5
h82l-135 139c-1.33301 32 3.5 59.5 14.5 82.5s25.833 42.167 44.5 57.5s40.5 27 65.5 35s51.5 12 79.5 12s55.5 -3.5 82.5 -10.5s51 -18.167 72 -33.5s38.667 -34.833 53 -58.5s23.166 -51.834 26.499 -84.501l-104 -139h184l8 -75h-228c-18 0 -32 3.66699 -42 11
s-16 16 -18 26c-1.33301 -10 -5.5 -18.667 -12.5 -26s-17.833 -11 -32.5 -11h-117zM367.001 81.002l112.998 149c-0.666992 10.667 -4.66699 22.167 -12 34.5s-17.333 23.833 -30 34.5s-28 19.334 -46 26.001s-38.333 10 -61 10s-42.5 -3.66699 -59.5 -11
s-31.167 -16.333 -42.5 -27s-19.666 -22 -24.999 -34s-7.66602 -23 -6.99902 -33l146 -149c7.33301 -8.66699 12 -17.334 14 -26.001c0.666992 10 4 18.667 10 26z" />
    <glyph glyph-name="aynini" unicode="&#x639;" horiz-adv-x="454" arabic-form="initial" 
d="M358 75c7.33301 0 13.999 -2.83301 19.999 -8.5s9.66699 -12.167 11 -19.5l5 -47h-414l-7 75h96c-8 6.66699 -15.833 15.334 -23.5 26.001s-13.834 24 -18.501 40s-8.33398 35.667 -11.001 59c-2.66699 29.333 -1.66699 55.666 3 78.999s14.334 43.166 29.001 59.499
s34.834 28.833 60.501 37.5s57.834 13 96.501 13c19.333 0 38 -1 56 -3s35.333 -4.33301 52 -7s33.334 -6 50.001 -10c-4.66699 -23.333 -7.33398 -37 -8.00098 -41c-2.66699 -9.33301 -6.66699 -16 -12 -20s-15.333 -4.66699 -30 -2l-44 5c-18 2 -40.333 3 -67 3
c-24 0 -43 -3 -57 -9s-24.667 -14.167 -32 -24.5s-11.833 -22.666 -13.5 -36.999s-1.5 -29.5 0.5 -45.5c2.66699 -26 8.16699 -47.167 16.5 -63.5s17.5 -28.833 27.5 -37.5s20 -14.5 30 -17.5s18 -4.5 24 -4.5h160z" />
    <glyph glyph-name="aynmidi" unicode="&#x639;" horiz-adv-x="529" arabic-form="medial" 
d="M-27 75l183.002 0.000976562l-135 139c-2 32 2.66699 59.5 14 82.5s26.333 42.167 45 57.5s40.5 27 65.5 35s51.5 12 79.5 12s55.333 -3.5 82 -10.5s50.667 -18.167 72 -33.5s39.166 -34.833 53.499 -58.5s23.166 -51.834 26.499 -84.501l-104 -139h184l8 -75h-228
c-18 0 -32 3.66699 -42 11s-16 16 -18 26c-1.33301 -10 -5.5 -18.667 -12.5 -26s-17.833 -11 -32.5 -11h-234zM268.002 81.001l112.999 149c-0.666992 10.667 -4.66699 22.167 -12 34.5s-17.5 23.833 -30.5 34.5s-28.333 19.334 -46 26.001s-37.834 10 -60.501 10
s-42.5 -3.66699 -59.5 -11s-31.167 -16.333 -42.5 -27s-19.666 -22 -24.999 -34s-7.66602 -23 -6.99902 -33l146 -149c7.33301 -8.66699 12 -17.334 14 -26.001c0.666992 10 4 18.667 10 26z" />
    <glyph glyph-name="ghafina" unicode="&#x63a;" horiz-adv-x="634" arabic-form="final" 
d="M257 503c-1.33301 14 2.33301 25.833 11 35.5s20 14.5 34 14.5s26.333 -4.83301 37 -14.5s16.667 -21.5 18 -35.5c2 -14 -1.33301 -25.833 -10 -35.5s-20 -14.5 -34 -14.5s-26.333 4.83301 -37 14.5s-17 21.5 -19 35.5zM195.999 0
c-8.66699 0 -18.166 -0.498047 -28.499 -1.49805s-19.833 -3.66699 -28.5 -8s-15.667 -11.333 -21 -21s-7 -23.167 -5 -40.5c2.66699 -24 10.5 -46.667 23.5 -68s28.333 -40.833 46 -58.5s35.667 -33 54 -46s33.833 -23.167 46.5 -30.5c6 -4 10 -8.66699 12 -14
s1.33301 -11.666 -2 -18.999l-22 -39c-40.667 20.667 -72.667 40.5 -96 59.5s-42 35.667 -56 50s-26.5 29.833 -37.5 46.5s-20.5 34.5 -28.5 53.5s-13.333 39.167 -16 60.5c-2.66699 30.667 0 55.667 8 75s19 34.666 33 45.999s29.667 19.166 47 23.499s33.333 6.5 48 6.5
h82l-135 139c-1.33301 32 3.5 59.5 14.5 82.5s25.833 42.167 44.5 57.5s40.5 27 65.5 35s51.5 12 79.5 12s55.5 -3.5 82.5 -10.5s51 -18.167 72 -33.5s38.667 -34.833 53 -58.5s23.166 -51.834 26.499 -84.501l-104 -139h184l8 -75h-228c-18 0 -32 3.66699 -42 11
s-16 16 -18 26c-1.33301 -10 -5.5 -18.667 -12.5 -26s-17.833 -11 -32.5 -11h-117zM367 81.002l112.998 149c-0.666992 10.667 -4.66699 22.167 -12 34.5s-17.333 23.833 -30 34.5s-28 19.334 -46 26.001s-38.333 10 -61 10s-42.5 -3.66699 -59.5 -11
s-31.167 -16.333 -42.5 -27s-19.666 -22 -24.999 -34s-7.66602 -23 -6.99902 -33l146 -149c7.33301 -8.66699 12 -17.334 14 -26.001c0.666992 10 4 18.667 10 26z" />
    <glyph glyph-name="ghaini" unicode="&#x63a;" horiz-adv-x="454" arabic-form="initial" 
d="M133 503c-1.33301 14 2.33301 25.833 11 35.5s20 14.5 34 14.5s26.333 -4.83301 37 -14.5s16.667 -21.5 18 -35.5c2 -14 -1.33301 -25.833 -10 -35.5s-20 -14.5 -34 -14.5s-26.333 4.83301 -37 14.5s-17 21.5 -19 35.5zM357.999 75
c7.33301 0 13.999 -2.83301 19.999 -8.5s9.66699 -12.167 11 -19.5l5 -47h-414l-7 75h96c-8 6.66699 -15.833 15.334 -23.5 26.001s-13.834 24 -18.501 40s-8.33398 35.667 -11.001 59c-2.66699 29.333 -1.66699 55.666 3 78.999s14.334 43.166 29.001 59.499
s34.834 28.833 60.501 37.5s57.834 13 96.501 13c19.333 0 38 -1 56 -3s35.333 -4.33301 52 -7s33.334 -6 50.001 -10c-4.66699 -23.333 -7.33398 -37 -8.00098 -41c-2.66699 -9.33301 -6.66699 -16 -12 -20s-15.333 -4.66699 -30 -2l-44 5c-18 2 -40.333 3 -67 3
c-24 0 -43 -3 -57 -9s-24.667 -14.167 -32 -24.5s-11.833 -22.666 -13.5 -36.999s-1.5 -29.5 0.5 -45.5c2.66699 -26 8.16699 -47.167 16.5 -63.5s17.5 -28.833 27.5 -37.5s20 -14.5 30 -17.5s18 -4.5 24 -4.5h160z" />
    <glyph glyph-name="ghamedi" unicode="&#x63a;" horiz-adv-x="529" arabic-form="medial" 
d="M160 503c-1.33301 14 2.33301 25.833 11 35.5s20 14.5 34 14.5s26.333 -4.83301 37 -14.5s16.667 -21.5 18 -35.5c2 -14 -1.33301 -25.833 -10 -35.5s-20 -14.5 -34 -14.5s-26.333 4.83301 -37 14.5s-17 21.5 -19 35.5zM-27.001 75l183.002 0.000976562l-135 139
c-2 32 2.66699 59.5 14 82.5s26.333 42.167 45 57.5s40.5 27 65.5 35s51.5 12 79.5 12s55.333 -3.5 82 -10.5s50.667 -18.167 72 -33.5s39.166 -34.833 53.499 -58.5s23.166 -51.834 26.499 -84.501l-104 -139h184l8 -75h-228c-18 0 -32 3.66699 -42 11s-16 16 -18 26
c-1.33301 -10 -5.5 -18.667 -12.5 -26s-17.833 -11 -32.5 -11h-234zM268.001 81.001l112.999 149c-0.666992 10.667 -4.66699 22.167 -12 34.5s-17.5 23.833 -30.5 34.5s-28.333 19.334 -46 26.001s-37.834 10 -60.501 10s-42.5 -3.66699 -59.5 -11
s-31.167 -16.333 -42.5 -27s-19.666 -22 -24.999 -34s-7.66602 -23 -6.99902 -33l146 -149c7.33301 -8.66699 12 -17.334 14 -26.001c0.666992 10 4 18.667 10 26z" />
    <glyph glyph-name="fafina" unicode="&#x641;" horiz-adv-x="1022" arabic-form="final" 
d="M797 297c-8 2 -16.498 4.00195 -25.498 6.00195s-18.667 3.83301 -29 5.5s-21.166 2.5 -32.499 2.5c-25.333 0 -45.833 -3.33301 -61.5 -10s-27.5 -15.334 -35.5 -26.001s-12.833 -22.834 -14.5 -36.501s-1.83398 -27.5 -0.500977 -41.5
c2.66699 -23.333 7.66699 -42.833 15 -58.5s15.666 -28.167 24.999 -37.5s18.666 -16 27.999 -20s16.666 -6 21.999 -6h82c18.667 0 31.334 4.5 38.001 13.5s9 21.833 7 38.5zM896.002 106.002c6.66699 -6 15.0068 -11.166 25.0068 -15.499s21.667 -8 35 -11
s29.666 -4.5 48.999 -4.5h19l8 -75h-19c-17.333 0 -38.5 4 -63.5 12s-46.167 20.667 -63.5 38c-6.66699 -13.333 -19 -25 -37 -35s-41.333 -15 -70 -15h-524c-33.333 0 -63.333 5.16699 -90 15.5s-49.334 24.5 -68.001 42.5s-33.834 38.833 -45.501 62.5
s-18.834 49.167 -21.501 76.5c-2 19.333 -2.66699 37 -2 53s1.83398 30.167 3.50098 42.5s4.16699 24.166 7.5 35.499l53 -17c6.66699 -2 11.5 -5.66699 14.5 -11s3.83301 -13 2.5 -23c-1.33301 -11.333 -2.33301 -22.166 -3 -32.499s-0.333984 -23.833 0.999023 -40.5
c3.33301 -26.667 10.333 -48.334 21 -65.001s23.5 -29.834 38.5 -39.501s31.5 -16.167 49.5 -19.5s36.333 -5 55 -5h298c-0.666992 0 -3.33398 2.33301 -8.00098 7s-10 12.334 -16 23.001s-11.333 23.5 -16 38.5s-8.33398 33.833 -11.001 56.5
c-2.66699 28.667 -1 54.5 5 77.5s16.667 42.833 32 59.5s36.166 29.5 62.499 38.5s58.166 13.5 95.499 13.5c18.667 0 37.334 -2 56.001 -6s36.167 -8.5 52.5 -13.5s32.833 -10.833 49.5 -17.5zM657.009 518.003c-1.33301 14 2.33301 25.833 11 35.5s20 14.5 34 14.5
s26.333 -4.83301 37 -14.5s16.667 -21.5 18 -35.5c2 -14 -1.33301 -25.833 -10 -35.5s-20 -14.5 -34 -14.5s-26.333 4.83301 -37 14.5s-17 21.5 -19 35.5z" />
    <glyph glyph-name="faini" unicode="&#x641;" horiz-adv-x="485" arabic-form="initial" 
d="M-20 0l-7 75.002h267c33.333 0 60.166 4.83301 80.499 14.5s28.833 28.167 25.5 55.5c-10.667 -6 -25.334 -11.167 -44.001 -15.5s-38.667 -6.5 -60 -6.5c-33.333 0 -61.833 3.83301 -85.5 11.5s-43.167 18.667 -58.5 33s-27.166 31.833 -35.499 52.5
s-13.833 44 -16.5 70s-1.5 49.167 3.5 69.5s14.333 37.666 28 51.999s32.5 25.333 56.5 33s54 11.5 90 11.5c18.667 0 37.834 -2 57.501 -6s38.5 -8.83301 56.5 -14.5s36 -11.834 54 -18.501l26 -254c2.66699 -21.333 2.16699 -41.833 -1.5 -61.5s-11.667 -37 -24 -52
s-30 -27 -53 -36s-52.833 -13.5 -89.5 -13.5h-270zM233 193.002c18.667 0 34.499 0.833008 47.499 2.5s24 3.83398 33 6.50098s16.167 5.66699 21.5 9l-16 155c-17.333 5.33301 -33.166 9.66602 -47.499 12.999s-31.5 5 -51.5 5c-34 0 -59.833 -7.16699 -77.5 -21.5
s-24.5 -40.5 -20.5 -78.5c1.33301 -18 5.33301 -32.833 12 -44.5s15 -21 25 -28s21.333 -11.833 34 -14.5s26 -4 40 -4zM160.999 588.002c-1.33301 14 2.33301 25.833 11 35.5s20 14.5 34 14.5s26.333 -4.83301 37 -14.5s16.667 -21.5 18 -35.5
c2 -14 -1.33301 -25.833 -10 -35.5s-20 -14.5 -34 -14.5s-26.333 4.83301 -37 14.5s-17 21.5 -19 35.5z" />
    <glyph glyph-name="famedi" unicode="&#x641;" horiz-adv-x="492" arabic-form="medial" 
d="M502 75l8.00195 -75h-530l-7 75h146l-12.5 9.5c-8.33301 6.33301 -17.833 15.333 -28.5 27s-20.834 26.167 -30.501 43.5s-15.5 37 -17.5 59c-2.66699 27.333 -1.5 52.166 3.5 74.499s14.333 41.666 28 57.999s32.167 29.333 55.5 39s51 14.5 83 14.5
c25.333 0 50 -3 74 -9s45.667 -16 65 -30s35.5 -33 48.5 -57s21.5 -54 25.5 -90c2.66699 -23.333 0.666992 -43.666 -6 -60.999s-14.834 -32.166 -24.501 -44.499s-21.167 -23.5 -34.5 -33.5h154zM339.002 216c-2 14.667 -5.33691 28.9961 -10.0039 42.9961
s-13 26.333 -25 37s-26.333 19.167 -43 25.5s-34 9.5 -52 9.5c-21.333 0 -39.166 -3.16699 -53.499 -9.5s-25.666 -14.833 -33.999 -25.5s-14 -23 -17 -37s-3.5 -28.333 -1.5 -43c1.33301 -15.333 5.33301 -29.166 12 -41.499s15.834 -24 27.501 -35
s25.334 -21.667 41.001 -32s33.167 -21.166 52.5 -32.499l36.5 26c13 9.33301 24.667 19.833 35 31.5s18.5 24.334 24.5 38.001s8.33301 28.834 7 45.501zM138.998 529.996c-1.33301 14 2.33301 25.833 11 35.5s20 14.5 34 14.5s26.333 -4.83301 37 -14.5
s16.667 -21.5 18 -35.5c2 -14 -1.33301 -25.833 -10 -35.5s-20 -14.5 -34 -14.5s-26.333 4.83301 -37 14.5s-17 21.5 -19 35.5z" />
    <glyph glyph-name="kaaffina" unicode="&#x642;" horiz-adv-x="717" arabic-form="final" 
d="M280 492c-1.33301 14 2.33398 25.833 11.001 35.5s20 14.5 34 14.5s26.333 -4.83301 37 -14.5s16.667 -21.5 18 -35.5s-2.33398 -25.833 -11.001 -35.5s-20 -14.5 -34 -14.5s-26.333 4.83301 -37 14.5s-16.667 21.5 -18 35.5zM408 492
c-1.33301 14 2.33398 25.833 11.001 35.5s20 14.5 34 14.5s26.333 -4.83301 37 -14.5s16.667 -21.5 18 -35.5s-2.33398 -25.833 -11.001 -35.5s-20 -14.5 -34 -14.5s-26.333 4.83301 -37 14.5s-16.667 21.5 -18 35.5zM606 -36
c3.33301 -30 4.16406 -59.1699 2.49707 -87.5029s-10 -53.333 -25 -75s-39.167 -39 -72.5 -52s-80.333 -19.5 -141 -19.5c-45.333 0 -86.833 3.83301 -124.5 11.5s-70.5 20.5 -98.5 38.5s-50.667 41.667 -68 71s-28 65.666 -32 108.999
c-2.66699 24.667 -3.16699 46.5 -1.5 65.5s3.5 34.167 5.5 45.5c3.33301 12.667 11.333 17.334 24 14.001l53 -17c-2 -16 -3.5 -32.5 -4.5 -49.5s-0.5 -34.167 1.5 -51.5c4 -37.333 13.333 -66.666 28 -87.999s32.834 -37.5 54.501 -48.5s45.834 -18 72.501 -21
s54 -4.5 82 -4.5c40.667 0 72.834 4 96.501 12s41 18.833 52 32.5s17.5 29 19.5 46s2 34.5 0 52.5l-5 52h-101c-39.333 0 -72.166 4.66699 -98.499 14s-47.666 22.333 -63.999 39s-28.333 36.834 -36 60.501s-12.5 49.834 -14.5 78.501
c-2.66699 51.333 11.666 92.5 42.999 123.5s82 46.5 152 46.5c29.333 0 57.666 -3.83301 84.999 -11.5s53 -16.167 77 -25.5l27 -250h124l8 -75h-124zM406.998 74.9971l110.001 0.000976562l-21 197c-25.333 8 -50.833 13.167 -76.5 15.5s-48.5 0.166016 -68.5 -6.50098
s-35.667 -18.5 -47 -35.5s-15.333 -40.833 -12 -71.5c2 -19.333 5.66699 -35.5 11 -48.5s12.666 -23.167 21.999 -30.5s20.833 -12.5 34.5 -15.5s29.5 -4.5 47.5 -4.5z" />
    <glyph glyph-name="kaafini" unicode="&#x642;" horiz-adv-x="485" arabic-form="initial" 
d="M100 587c-1.33301 14 2.33398 25.833 11.001 35.5s20 14.5 34 14.5s26.333 -4.83301 37 -14.5s16.667 -21.5 18 -35.5s-2.33398 -25.833 -11.001 -35.5s-20 -14.5 -34 -14.5s-26.333 4.83301 -37 14.5s-16.667 21.5 -18 35.5zM228 587
c-1.33301 14 2.33398 25.833 11.001 35.5s20 14.5 34 14.5s26.333 -4.83301 37 -14.5s16.667 -21.5 18 -35.5s-2.33398 -25.833 -11.001 -35.5s-20 -14.5 -34 -14.5s-26.333 4.83301 -37 14.5s-16.667 21.5 -18 35.5zM-20 0l-7 75.002h267
c33.333 0 60.166 4.83301 80.499 14.5s28.833 28.167 25.5 55.5c-10.667 -6 -25.334 -11.167 -44.001 -15.5s-38.667 -6.5 -60 -6.5c-33.333 0 -61.833 3.83301 -85.5 11.5s-43.167 18.667 -58.5 33s-27.166 31.833 -35.499 52.5s-13.833 44 -16.5 70s-1.5 49.167 3.5 69.5
s14.333 37.666 28 51.999s32.5 25.333 56.5 33s54 11.5 90 11.5c18.667 0 37.834 -2 57.501 -6s38.5 -8.83301 56.5 -14.5s36 -11.834 54 -18.501l26 -254c2.66699 -21.333 2.16699 -41.833 -1.5 -61.5s-11.667 -37 -24 -52s-30 -27 -53 -36s-52.833 -13.5 -89.5 -13.5h-270
zM233 193.002c18.667 0 34.499 0.833008 47.499 2.5s24 3.83398 33 6.50098s16.167 5.66699 21.5 9l-16 155c-17.333 5.33301 -33.166 9.66602 -47.499 12.999s-31.5 5 -51.5 5c-34 0 -59.833 -7.16699 -77.5 -21.5s-24.5 -40.5 -20.5 -78.5
c1.33301 -18 5.33301 -32.833 12 -44.5s15 -21 25 -28s21.333 -11.833 34 -14.5s26 -4 40 -4z" />
    <glyph glyph-name="kaafmedi" unicode="&#x642;" horiz-adv-x="492" arabic-form="medial" 
d="M73 530c-1.33301 14 2.33398 25.833 11.001 35.5s20 14.5 34 14.5s26.333 -4.83301 37 -14.5s16.667 -21.5 18 -35.5s-2.33398 -25.833 -11.001 -35.5s-20 -14.5 -34 -14.5s-26.333 4.83301 -37 14.5s-16.667 21.5 -18 35.5zM201 530
c-1.33301 14 2.33398 25.833 11.001 35.5s20 14.5 34 14.5s26.333 -4.83301 37 -14.5s16.667 -21.5 18 -35.5s-2.33398 -25.833 -11.001 -35.5s-20 -14.5 -34 -14.5s-26.333 4.83301 -37 14.5s-16.667 21.5 -18 35.5zM502 75l8.00195 -75h-530l-7 75h146l-12.5 9.5
c-8.33301 6.33301 -17.833 15.333 -28.5 27s-20.834 26.167 -30.501 43.5s-15.5 37 -17.5 59c-2.66699 27.333 -1.5 52.166 3.5 74.499s14.333 41.666 28 57.999s32.167 29.333 55.5 39s51 14.5 83 14.5c25.333 0 50 -3 74 -9s45.667 -16 65 -30s35.5 -33 48.5 -57
s21.5 -54 25.5 -90c2.66699 -23.333 0.666992 -43.666 -6 -60.999s-14.834 -32.166 -24.501 -44.499s-21.167 -23.5 -34.5 -33.5h154zM339.002 216c-2 14.667 -5.33691 28.9961 -10.0039 42.9961s-13 26.333 -25 37s-26.333 19.167 -43 25.5s-34 9.5 -52 9.5
c-21.333 0 -39.166 -3.16699 -53.499 -9.5s-25.666 -14.833 -33.999 -25.5s-14 -23 -17 -37s-3.5 -28.333 -1.5 -43c1.33301 -15.333 5.33301 -29.166 12 -41.499s15.834 -24 27.501 -35s25.334 -21.667 41.001 -32s33.167 -21.166 52.5 -32.499l36.5 26
c13 9.33301 24.667 19.833 35 31.5s18.5 24.334 24.5 38.001s8.33301 28.834 7 45.501z" />
    <glyph glyph-name="kaffina" unicode="&#x643;" horiz-adv-x="817" arabic-form="final" 
d="M690 107c6.66699 -6 14.999 -11.1699 24.999 -15.5029s21.667 -8.16602 35 -11.499s29.666 -5 48.999 -5h20l8 -75h-20c-8.66699 0 -18.5 1 -29.5 3s-22.167 5 -33.5 9s-22.5 9.16699 -33.5 15.5s-21.167 14.166 -30.5 23.499c-6 -13.333 -18.167 -25.166 -36.5 -35.499
s-42.166 -15.5 -71.499 -15.5h-292c-39.333 0 -74.166 5.16699 -104.499 15.5s-55.666 24.5 -75.999 42.5s-36.333 39 -48 63s-18.834 49.333 -21.501 76c-2 19.333 -2.83301 37 -2.5 53s1.5 30.167 3.5 42.5s4.66699 24.166 8 35.499
c29.333 -9.33301 46.333 -14.666 51 -15.999c7.33301 -2.66699 12.5 -6.16699 15.5 -10.5s4.16699 -12.166 3.5 -23.499c-1.33301 -11.333 -2.33301 -22.166 -3 -32.499s-0.333984 -23.833 0.999023 -40.5c3.33301 -26.667 10.333 -48.5 21 -65.5
s23.334 -30.167 38.001 -39.5s31.334 -15.833 50.001 -19.5s37.334 -5.5 56.001 -5.5h268c28 0 46.833 6.66699 56.5 20s13.5 31 11.5 53l-46 433c-0.666992 8 1.16602 14.667 5.49902 20s10.166 8 17.499 8h52zM253.999 302.997l-2.99609 25.9971
c-0.666992 7.33301 0.666016 12.833 3.99902 16.5s7.33301 5.5 12 5.5h8c-4 4 -7.33301 8.83301 -10 14.5s-4.33398 13.834 -5.00098 24.501c-2 14 -0.833008 26.5 3.5 37.5s10.833 19.833 19.5 26.5s18.667 11.334 30 14.001s23.666 4 36.999 4
c9.33301 0 18.333 -0.5 27 -1.5s16.667 -2.33301 24 -4s14.333 -3.16699 21 -4.5l-2 -29c-0.666992 -5.33301 -2.33398 -9.5 -5.00098 -12.5s-6 -4.16699 -10 -3.5c-1.33301 0 -7 0.833008 -17 2.5s-20.667 2.5 -32 2.5c-21.333 0 -34.833 -3.83301 -40.5 -11.5
s-8.16699 -14.834 -7.5 -21.501c0.666992 -9.33301 3.16699 -16.166 7.5 -20.499s8.83301 -7.83301 13.5 -10.5s10.334 -4.5 17.001 -5.5s12.667 -1.5 18 -1.5h51c5.33301 0 9.16602 -1.66699 11.499 -5s3.5 -6.66602 3.5 -9.99902l4 -33h-180z" />
    <glyph glyph-name="lamfina" unicode="&#x644;" horiz-adv-x="714" arabic-form="final" 
d="M591 107c1.33301 -1.33301 4.66211 -3.83105 9.99512 -7.49805s12.5 -7.33398 21.5 -11.001s19.833 -6.83398 32.5 -9.50098s27.334 -4 44.001 -4h19l8 -75h-19c-14 0 -31.333 2.66699 -52 8s-39.334 14.333 -56.001 27l4 -38
c2.66699 -24 2.33398 -49.167 -0.999023 -75.5s-13 -50.5 -29 -72.5s-40.167 -40.167 -72.5 -54.5s-75.833 -21.5 -130.5 -21.5c-32 0 -66 3 -102 9s-70 18.5 -102 37.5s-58.833 46 -80.5 81s-35.167 80.167 -40.5 135.5c-2 15.333 -3 32.333 -3 51s0.666992 37.5 2 56.5
s3.16602 37.5 5.49902 55.5s5.5 33.667 9.5 47c26 -7.33301 43 -12.666 51 -15.999c8.66699 -2.66699 14.334 -6.5 17.001 -11.5s3.33398 -12.167 2.00098 -21.5c-4 -16 -6.66699 -39 -8 -69s-0.666016 -60.667 2.00098 -92c4.66699 -42.667 15.834 -76 33.501 -100
s38.5 -42 62.5 -54s49.333 -19.5 76 -22.5s51 -4.5 73 -4.5c36.667 0 65.834 4 87.501 12s38 18.667 49 32s17.5 29.166 19.5 47.499s2 37.5 0 57.5l-61 577c-0.666992 8 1 14.667 5 20s9.66699 8 17 8h53l53 -502v0z" />
    <glyph glyph-name="lamini" unicode="&#x644;" horiz-adv-x="273" arabic-form="initial" 
d="M187 201c3.33301 -31.333 3.50098 -59.334 0.500977 -84.001s-10.5 -45.667 -22.5 -63s-29.667 -30.666 -53 -39.999s-53.666 -14 -90.999 -14h-41l-7 75h40c38 0 64.833 8.16699 80.5 24.5s22.167 39.833 19.5 70.5l-44 411c-0.666992 8 1.16602 14.667 5.49902 20
s10.166 8 17.499 8h52z" />
    <glyph glyph-name="lammedi" unicode="&#x644;" horiz-adv-x="291" arabic-form="medial" 
d="M47 581c-0.666992 8 1.00098 14.665 5.00098 19.998s9.66699 8 17 8h53l53 -502c6.66699 -6 15 -11.167 25 -15.5s21.667 -8.16602 35 -11.499s29.666 -5 48.999 -5h19l8 -75h-19c-17.333 0 -38.5 4 -63.5 12s-46.167 21 -63.5 39
c-6.66699 -13.333 -19 -25.166 -37 -35.499s-42 -15.5 -72 -15.5h-76l-7 75h52c28 0 46.833 6.66699 56.5 20s13.5 31 11.5 53l-46 433v0z" />
    <glyph glyph-name="meemfina" unicode="&#x645;" horiz-adv-x="642" arabic-form="final" 
d="M236 14c-6 -0.666992 -13.666 -2.49805 -22.999 -5.49805s-19 -7.16699 -29 -12.5s-18.833 -12 -26.5 -20s-13.5 -17.5 -17.5 -28.5s-5.33301 -23.5 -4 -37.5c1.33301 -12.667 3.5 -26.334 6.5 -41.001s6.16699 -28.834 9.5 -42.501s6.66602 -26.5 9.99902 -38.5
s6.33301 -22 9 -30c2 -5.33301 2.33301 -10.5 1 -15.5s-5.33301 -8.5 -12 -10.5c-6 -2 -15 -4 -27 -6l-30 -5c-2 2.66699 -5.16699 10.5 -9.5 23.5s-8.83301 28.5 -13.5 46.5s-9.5 37.667 -14.5 59s-8.5 42 -10.5 62c-3.33301 31.333 -0.666016 57.5 8.00098 78.5
s20 38 34 51s28.333 22.5 43 28.5s26.667 9.66699 36 11c-7.33301 7.33301 -13.666 16.166 -18.999 26.499s-10.5 23 -15.5 38s-8.5 32.5 -10.5 52.5c-3.33301 29.333 -1.33301 56.333 6 81s19.666 45.834 36.999 63.501s39 31.5 65 41.5s56.333 15 91 15
c17.333 0 35.5 -1.5 54.5 -4.5s37 -6.33301 54 -10s34.167 -7.83398 51.5 -12.501l28 -265c0.666992 -1.33301 3.66699 -3.66602 9 -6.99902s12.333 -6.83301 21 -10.5s19.5 -7 32.5 -10s28.167 -4.5 45.5 -4.5h19l8 -75h-19c-7.33301 -0 -16.166 0.833008 -26.499 2.5
s-20.833 4.33398 -31.5 8.00098s-21.334 8.16699 -32.001 13.5s-20.334 11.666 -29.001 18.999c-5.33301 -20.667 -16.5 -37 -33.5 -49s-43.5 -18 -79.5 -18c-14 0 -29 1 -45 3s-31.5 4.66699 -46.5 8s-29 7.33301 -42 12s-23.833 9.66699 -32.5 15zM419.001 312.002
c-10 2.66699 -21.332 5 -33.999 7s-28.334 3 -47.001 3c-50 0 -84.833 -10.333 -104.5 -31s-27.167 -54 -22.5 -100c2.66699 -23.333 9 -43.833 19 -61.5s22.667 -32.5 38 -44.5s33 -21 53 -27s41.333 -9 64 -9c17.333 0 31.5 4.16699 42.5 12.5s15.167 23.5 12.5 45.5z" />
    <glyph glyph-name="meemini" unicode="&#x645;" horiz-adv-x="500" arabic-form="initial" 
d="M242 389c17.333 0 35.3291 -1.49512 53.9961 -4.49512s36.5 -6.33301 53.5 -10s34.5 -7.83398 52.5 -12.501l27 -249c1.33301 -17.333 1.33301 -34.333 0 -51s-6 -31.667 -14 -45s-20.167 -24.166 -36.5 -32.499s-38.166 -12.5 -65.499 -12.5
c-12 0 -27.167 1.16699 -45.5 3.5s-37.166 5.66602 -56.499 9.99902s-39.666 9.16602 -60.999 14.499h-170l-7 75h96c-4.66699 9.33301 -10 24.5 -16 45.5s-10.667 44.833 -14 71.5c-2.66699 29.333 -0.166992 56.166 7.5 80.499s20.334 45.166 38.001 62.499
s39.667 30.666 66 39.999s56.833 14 91.5 14zM331.996 302.005l-34.002 6.49805c-12.667 2.33301 -28.334 3.5 -47.001 3.5c-25.333 0 -46.666 -3.66699 -63.999 -11s-31.333 -16.833 -42 -28.5s-18 -25.167 -22 -40.5s-5.33301 -31 -4 -47c2 -17.333 4.5 -32.833 7.5 -46.5
s6.33301 -25.667 10 -36s7.83398 -19.166 12.501 -26.499c14.667 -4.66699 29 -8.66699 43 -12l41.5 -10c13.667 -3.33301 26.167 -5.66602 37.5 -6.99902c28 -5.33301 49.333 -3.5 64 5.5s20.334 27.167 17.001 54.5z" />
    <glyph glyph-name="meemmedi" unicode="&#x645;" horiz-adv-x="548" arabic-form="medial" 
d="M330 302c-10 2 -21.502 4.16797 -34.502 6.50098s-28.833 3.5 -47.5 3.5c-27.333 0 -50.166 -2.83301 -68.499 -8.5s-32.833 -14.334 -43.5 -26.001s-17.167 -25.334 -19.5 -41.001s-2.5 -32.834 -0.5 -51.501c2 -17.333 4.5 -32.833 7.5 -46.5s6.33301 -25.667 10 -36
s7.83398 -19.166 12.501 -26.499c14.667 -4.66699 29 -8.66699 43 -12l42 -10c14 -3.33301 26.333 -5.66602 37 -6.99902c28 -5.33301 49.5 -3.5 64.5 5.5s20.833 27.167 17.5 54.5zM310.998 -29.999c-12 0 -27.168 1.50293 -45.501 4.50293s-37.166 6.5 -56.499 10.5
s-40 9 -62 15h-168l-7 75h95c-5.33301 9.33301 -11 24.5 -17 45.5s-10.667 44.833 -14 71.5c-2.66699 29.333 -0.166992 56.166 7.5 80.499s20.334 45.166 38.001 62.499s39.667 30.666 66 39.999s56.833 14 91.5 14c17.333 0 35.5 -1.5 54.5 -4.5s37 -6.33301 54 -10
s34.167 -7.83398 51.5 -12.501l27 -255c0.666992 -1.33301 3.66699 -3.66602 9 -6.99902s12.333 -6.83301 21 -10.5s19.5 -7 32.5 -10s28.167 -4.5 45.5 -4.5h19l8 -75h-19c-7.33301 0 -16.166 0.833008 -26.499 2.5s-20.833 4.33398 -31.5 8.00098
s-21.334 8.16699 -32.001 13.5s-20.334 11.666 -29.001 18.999c-5.33301 -20.667 -16.333 -38 -33 -52s-43 -21 -79 -21z" />
    <glyph glyph-name="nounfina" unicode="&#x646;" horiz-adv-x="724" arabic-form="final" 
d="M613 0c2 -24 1.33789 -49.1611 -1.99512 -75.4941s-13.333 -50.333 -30 -72s-41.167 -39.667 -73.5 -54s-75.833 -21.5 -130.5 -21.5c-31.333 0 -66.166 3.16699 -104.499 9.5s-73.333 19.166 -105 38.499s-58 46.166 -79 80.499s-34.5 79.166 -40.5 134.499
c-1.33301 15.333 -2 32.333 -2 51s0.666992 37.5 2 56.5s3.16602 37.5 5.49902 55.5s5.16602 33.667 8.49902 47c26.667 -7.33301 44.334 -12.666 53.001 -15.999c7.33301 -2.66699 12.5 -6.33398 15.5 -11.001s3.5 -12 1.5 -22c-0.666992 -8 -1.83398 -18 -3.50098 -30
s-2.83398 -25.167 -3.50098 -39.5s-0.833984 -29.333 -0.500977 -45s1.16602 -31.167 2.49902 -46.5c4.66699 -42.667 16 -76 34 -100s39 -42 63 -54s49.5 -19.5 76.5 -22.5s51.833 -4.5 74.5 -4.5c36.667 0 66.167 4 88.5 12s39 18.667 50 32s17.667 29.166 20 47.499
s2.5 37.5 0.5 57.5l-35 330c-0.666992 8 1 14.667 5 20s9.66699 8 17 8h53l27 -259c1.33301 -1.33301 4.66602 -3.83301 9.99902 -7.5s12.333 -7.33398 21 -11.001s19.334 -6.83398 32.001 -9.50098s27.667 -4 45 -4h19l8 -75h-19c-14 0 -31.333 2.66699 -52 8
s-39.334 14.333 -56.001 27zM244.005 369.006c-1.33301 14 2.33301 25.833 11 35.5s20 14.5 34 14.5s26.333 -4.83301 37 -14.5s16.667 -21.5 18 -35.5c2 -14 -1.33301 -25.833 -10 -35.5s-20 -14.5 -34 -14.5s-26.333 4.83301 -37 14.5s-17 21.5 -19 35.5z" />
    <glyph glyph-name="nounini" unicode="&#x646;" horiz-adv-x="293" arabic-form="initial" 
d="M119 337c-0.666992 8 1.49902 14.666 6.49902 19.999s11.167 8 18.5 8h50l22 -209c6 -53.333 -5 -92.666 -33 -117.999s-72.667 -38 -134 -38h-69l-7 75h65c34 0 59.833 8 77.5 24s24.834 39.667 21.501 71l-18 167v0zM86.999 496.999
c-1.33301 14 2.33301 25.833 11 35.5s20 14.5 34 14.5s26.333 -4.83301 37 -14.5s16.667 -21.5 18 -35.5c2 -14 -1.33301 -25.833 -10 -35.5s-20 -14.5 -34 -14.5s-26.333 4.83301 -37 14.5s-17 21.5 -19 35.5z" />
    <glyph glyph-name="nounmedi" unicode="&#x646;" arabic-form="medial" 
d="M68 337c-0.666992 8 1.33105 14.667 5.99805 20s11 8 19 8h50l27 -259c6.66699 -6 15 -11.167 25 -15.5s21.833 -8 35.5 -11s30.167 -4.5 49.5 -4.5h19l8 -75h-19c-8 -0 -17.667 0.833008 -29 2.5s-22.666 4.5 -33.999 8.5s-22.666 9 -33.999 15s-21.333 13.667 -30 23
c-6.66699 -13.333 -19.167 -24.833 -37.5 -34.5s-41.833 -14.5 -70.5 -14.5h-73l-7 75h47c28 0 46.833 6.83301 56.5 20.5s13.5 31.167 11.5 52.5l-20 189v0zM38.998 497c-1.33301 14 2.33301 25.833 11 35.5s20 14.5 34 14.5s26.333 -4.83301 37 -14.5
s16.667 -21.5 18 -35.5c2 -14 -1.33301 -25.833 -10 -35.5s-20 -14.5 -34 -14.5s-26.333 4.83301 -37 14.5s-17 21.5 -19 35.5z" />
    <glyph glyph-name="haiso" unicode="&#x647;" horiz-adv-x="470" arabic-form="isolated" 
d="M237 -7c-32.667 0 -61.5 5.16895 -86.5 15.502s-46.5 24.5 -64.5 42.5s-32.167 39.167 -42.5 63.5s-17.166 50.166 -20.499 77.499c-6.66699 63.333 5.83301 114 37.5 152s80.834 57 147.501 57c26 0 46.833 -1.16699 62.5 -3.5s33 -5.33301 52 -9
s39.167 -7.83398 60.5 -12.501l22 -212c2 -16.667 2.66699 -35 2 -55s-5.83398 -38.5 -15.501 -55.5s-25.834 -31.333 -48.501 -43s-54.667 -17.5 -96 -17.5h-10zM312 315.002c-9.33301 2 -21.334 4.16602 -36.001 6.49902s-34 3.5 -58 3.5s-43.5 -3.5 -58.5 -10.5
s-27 -16.5 -36 -28.5s-14.833 -26.167 -17.5 -42.5s-2.66699 -34.166 0 -53.499c2 -22 7 -40.667 15 -56s17.833 -27.833 29.5 -37.5s24.834 -16.5 39.501 -20.5s30 -6 46 -6h12c18 0 32.5 2.66699 43.5 8s19.333 11.833 25 19.5s9.5 15.5 11.5 23.5s2.66699 15 2 21z" />
    <glyph glyph-name="hafina" unicode="&#x647;" horiz-adv-x="509" arabic-form="final" 
d="M513 75l7.99805 -75.002h-66c-10.667 0 -20.667 1.83301 -30 5.5s-17.666 8 -24.999 13s-13.666 10.167 -18.999 15.5s-9.33301 10 -12 14c-3.33301 -4 -8.16602 -9.16699 -14.499 -15.5s-14.666 -12.333 -24.999 -18s-22.833 -10.667 -37.5 -15s-31.667 -6.5 -51 -6.5
c-20.667 0 -41.834 2.66699 -63.501 8s-42.167 15.666 -61.5 30.999s-36.166 36.833 -50.499 64.5s-23.833 63.834 -28.5 108.501c-2.66699 27.333 -2 52.833 2 76.5s12.667 44.334 26 62.001s31.166 31.5 53.499 41.5s50.833 15 85.5 15
c23.333 0 46.166 -1.33301 68.499 -4s43 -5.66699 62 -9s37.5 -7.33301 55.5 -12l28 -261c1.33301 -13.333 6.5 -23.166 15.5 -29.499s19.167 -9.5 30.5 -9.5h49zM317.998 314.998c-18 4.66699 -35.832 7.66699 -53.499 9s-32.167 2 -43.5 2c-14 0 -28.5 -2 -43.5 -6
s-27.333 -10.667 -37 -20s-16.834 -21.333 -21.501 -36s-5.66699 -35 -3 -61c5.33301 -48.667 18.833 -83.667 40.5 -105s50.167 -32 85.5 -32c18.667 0 34 2 46 6s22.333 8.83301 31 14.5s15.667 12.167 21 19.5z" />
    <glyph glyph-name="hamedi" unicode="&#x647;" horiz-adv-x="555" arabic-form="medial" 
d="M572 0l-149.003 -0.000976562c16 -15.333 27.167 -31.166 33.5 -47.499s10.5 -34.5 12.5 -54.5c2.66699 -21.333 0.666992 -39.666 -6 -54.999s-16.667 -28.5 -30 -39.5s-30.166 -19.5 -50.499 -25.5s-43.166 -9 -68.499 -9c-34 0 -63.5 3.66699 -88.5 11
s-46.333 16 -64 26s-33.167 22 -46.5 36l-17 158h-118l-7 75h117l-27 255c14.667 10.667 31.5 20 50.5 28s41 15 66 21s53.5 9 85.5 9c29.333 0 54.333 -3.83301 75 -11.5s37.834 -18.667 51.501 -33s24 -31.833 31 -52.5s11.833 -44 14.5 -70l4 -36
c3.33301 -30.667 1.83301 -54.834 -4.5 -72.501s-14.5 -30.167 -24.5 -37.5h152zM168.997 74.999l113.999 0.000976562c10.667 0 21.334 2.16699 32.001 6.5s20.167 10.666 28.5 18.999s14.666 18.166 18.999 29.499s5.83301 24 4.5 38l-7 61
c-2 18.667 -5.5 33.5 -10.5 44.5s-11.667 19.333 -20 25s-17.666 9.33398 -27.999 11.001s-21.833 2.5 -34.5 2.5c-19.333 0 -36.5 -1.5 -51.5 -4.5s-28.167 -6.33301 -39.5 -10s-21 -8.16699 -29 -13.5zM300.996 -156c68 0 99.666 22.333 94.999 67
c-1.33301 14.667 -4.33301 27.167 -9 37.5s-9.66699 19 -15 26s-10.666 12.5 -15.999 16.5l-12 9h-167l13 -119c6 -7.33301 14 -13.5 24 -18.5s22 -9.33301 36 -13s31 -5.5 51 -5.5z" />
    <glyph glyph-name="wawfina" unicode="&#x648;" horiz-adv-x="506" arabic-form="final" 
d="M518 0l-82.001 0.000976562c5.33301 -48 5.33301 -86.333 0 -115s-15.166 -51.334 -29.499 -68.001s-32.833 -28.167 -55.5 -34.5s-49 -9.5 -79 -9.5c-12 0 -26.167 1.16699 -42.5 3.5s-34.166 5.83301 -53.499 10.5c-18 5.33301 -26 15.666 -24 30.999l6 45
c10 -2.66699 20.667 -5.16699 32 -7.5s23.333 -4.33301 36 -6s25.334 -2.5 38.001 -2.5c30 0 52.333 4.83301 67 14.5s24.334 21.834 29.001 36.501s6.66699 31 6 49s-2.33398 35.667 -5.00098 53h-113c-18.667 -0 -39 2.33301 -61 7s-43.167 13.5 -63.5 26.5
s-38.5 31.667 -54.5 56s-26 56.833 -30 97.5c-3.33301 32.667 -1.16602 61.834 6.50098 87.501s20.167 47 37.5 64s39.166 29.667 65.499 38s55.5 12.5 87.5 12.5c21.333 0 41.666 -1.5 60.999 -4.5s37.166 -6.33301 53.499 -10s31.833 -7.83398 46.5 -12.501l31 -287h82z
M324.999 309.001c-29.333 7.33301 -54.667 11.001 -76 11.001c-17.333 0.666992 -34.333 -1 -51 -5s-31.5 -10.833 -44.5 -20.5s-22.667 -23 -29 -40s-8.16602 -37.833 -5.49902 -62.5c4.66699 -40.667 18.667 -70.334 42 -89.001s51.666 -28 84.999 -28h104z" />
    <glyph glyph-name="yafina" unicode="&#x64a;" horiz-adv-x="716" arabic-form="final" 
d="M264 -347c-1.33301 14 2.33398 25.833 11.001 35.5s20 14.5 34 14.5s26.333 -4.83301 37 -14.5s16.667 -21.5 18 -35.5s-2.33398 -25.833 -11.001 -35.5s-20 -14.5 -34 -14.5s-26.333 4.83301 -37 14.5s-16.667 21.5 -18 35.5zM392 -347
c-1.33301 14 2.33398 25.833 11.001 35.5s20 14.5 34 14.5s26.333 -4.83301 37 -14.5s16.667 -21.5 18 -35.5s-2.33398 -25.833 -11.001 -35.5s-20 -14.5 -34 -14.5s-26.333 4.83301 -37 14.5s-16.667 21.5 -18 35.5zM484 -164c11.333 0 23.4951 1.6709 36.4951 5.00391
s24.5 8.66602 34.5 15.999s18.167 16.333 24.5 27s8.83301 23.667 7.5 39c-2 17.333 -8 33.166 -18 47.499s-22.333 27.333 -37 39s-31.167 21.834 -49.5 30.501s-36.833 16 -55.5 22l12 50c1.33301 7.33301 4.16602 13.666 8.49902 18.999s12.5 5.66602 24.5 0.999023
l41 -17.5c14.667 -6.33301 30.334 -12.5 47.001 -18.5s34.667 -11 54 -15s40 -6 62 -6h54l8 -75h-103c4 -6 7.83301 -12.833 11.5 -20.5s7.16699 -16.834 10.5 -27.501s6 -23.667 8 -39c0.666992 -11.333 -0.833008 -25.666 -4.5 -42.999s-12.334 -34 -26.001 -50
s-33 -29.667 -58 -41s-57.833 -17 -98.5 -17h-149c-32 0 -63.333 3.83301 -94 11.5s-58.167 20.667 -82.5 39s-44.833 43 -61.5 74s-27.667 69.833 -33 116.5c-1.33301 15.333 -1.66602 31.333 -0.999023 48s1.83398 33 3.50098 49s3.83398 31 6.50098 45
s5.33398 26.667 8.00098 38l47 -12c7.33301 -2 12.333 -5.16699 15 -9.5s3.33398 -10.833 2.00098 -19.5c-1.33301 -11.333 -3.66602 -29 -6.99902 -53s-3.33301 -52.667 0 -86c4 -36.667 13.167 -66 27.5 -88s31.5 -38.833 51.5 -50.5s41.5 -19.334 64.5 -23.001
s45.167 -5.5 66.5 -5.5h142z" />
    <glyph glyph-name=".notdef" horiz-adv-x="500" 
d="M62 0v562h375v-562h-375zM125 62h250v438h-250v-438z" />
    <glyph glyph-name="space" unicode=" " horiz-adv-x="256" 
 />
    <glyph glyph-name="space" unicode="&#xa0;" horiz-adv-x="256" 
 />
    <glyph glyph-name="exclam" unicode="!" horiz-adv-x="219" 
d="M171 175c-1.33301 -8 -4.50098 -14.667 -9.50098 -20s-11.167 -8 -18.5 -8h-53l46 434c0.666992 8 3.83398 14.667 9.50098 20s12.167 8 19.5 8h52zM66.999 51c1.33301 14 7.33301 25.833 18 35.5s23 14.5 37 14.5s25.333 -4.83301 34 -14.5s12.334 -21.5 11.001 -35.5
c-1.33301 -14.667 -7.33301 -26.834 -18 -36.501s-23 -14.5 -37 -14.5s-25.333 4.83301 -34 14.5s-12.334 21.834 -11.001 36.501z" />
    <glyph glyph-name="quotedbl" unicode="&#x22;" horiz-adv-x="305" 
d="M233 440c0.666992 -9.33301 -2.16992 -17 -8.50293 -23s-13.166 -9 -20.499 -9h-29c-1.33301 34 -2.66602 66.167 -3.99902 96.5s-2.66602 62.5 -3.99902 96.5c0 9.33301 2.83301 17 8.5 23s13.167 9 22.5 9h43zM113.996 440
c0.666992 -9.33301 -2.16992 -17 -8.50293 -23s-13.166 -9 -20.499 -9h-29c-1.33301 34 -2.66602 66.167 -3.99902 96.5s-2.66602 62.5 -3.99902 96.5c0 9.33301 2.83301 17 8.5 23s13.167 9 22.5 9h43z" />
    <glyph glyph-name="numbersign" unicode="#" horiz-adv-x="595" 
d="M327 0c-8 0 -14.5 2.5 -19.5 7.5s-6.5 13.5 -4.5 25.5l32 153h-140l-22.5 -105c-7 -32 -13.167 -59 -18.5 -81h-37c-8 0 -14.5 2.5 -19.5 7.5s-6.5 13.5 -4.5 25.5l32 153h-44c-8 -0.666992 -14.667 1.5 -20 6.5s-8 10.833 -8 17.5v37h85l40 186h-46
c-8 -0.666992 -14.667 1.5 -20 6.5s-8 10.833 -8 17.5v37h87l41 186h37c8 0 14.5 -2.5 19.5 -7.5s6.5 -13.5 4.5 -25.5c-1.33301 -3.33301 -4.83301 -19 -10.5 -47l-22.5 -106h141l41 186h37c8 0 14.5 -2.5 19.5 -7.5s6.5 -13.5 4.5 -25.5
c-1.33301 -3.33301 -4.83301 -19 -10.5 -47l-22.5 -106h45c8 0 14.5 -2.33301 19.5 -7s7.5 -11 7.5 -19v-35h-84l-40 -186h46c8 0 14.5 -2.33301 19.5 -7s7.5 -11 7.5 -19v-35h-86l-22.5 -105c-7 -32 -13.167 -59 -18.5 -81h-37zM208 247h140l40 186h-140z" />
    <glyph glyph-name="dollar" unicode="$" horiz-adv-x="590" 
d="M256 778l60.998 -0.00195312v-143c22.667 -2 43.334 -4.83301 62.001 -8.5s34.667 -7.5 48 -11.5c16 -4.66699 30 -9.33398 42 -14.001v-36c0 -7.33301 -1.5 -12.833 -4.5 -16.5s-10.167 -4.83398 -21.5 -3.50098c-5.33301 1.33301 -13.5 3.5 -24.5 6.5
s-23.833 6.16699 -38.5 9.5s-30.667 6.33301 -48 9s-35 4 -53 4c-31.333 0 -56.166 -2.33301 -74.499 -7s-32.333 -11.334 -42 -20.001s-16 -19.167 -19 -31.5s-4.5 -25.833 -4.5 -40.5c0 -22 4.66699 -39.167 14 -51.5s21.166 -21.5 35.499 -27.5
s29.833 -10.167 46.5 -12.5s31 -4.16602 43 -5.49902s25 -2.66602 39 -3.99902s29 -3.83301 45 -7.5s32 -8.83398 48 -15.501s30.5 -16.167 43.5 -28.5s23.667 -27.666 32 -45.999s12.5 -40.5 12.5 -66.5c0 -23.333 -2.83301 -45.166 -8.5 -65.499s-15.667 -38.5 -30 -54.5
s-33.5 -29.167 -57.5 -39.5s-54.333 -16.833 -91 -19.5v-129h-61v128c-14.667 0.666992 -30 2 -46 4s-31.667 4.5 -47 7.5s-29.666 6.16699 -42.999 9.5s-25 7 -35 11v49c0 6 1.66699 10.167 5 12.5s7.66602 2.5 12.999 0.5c10.667 -4 31 -9.66699 61 -17s65 -11 105 -11
c58.667 0 100.334 9.16699 125.001 27.5s37 45.833 37 82.5c0 26.667 -6.66699 47.167 -20 61.5s-29.5 25 -48.5 32s-38.5 11.5 -58.5 13.5l-54.5 5.5c-16.333 1.66699 -35 4.83398 -56 9.50098s-40.167 12.334 -57.5 23.001s-31.833 25.5 -43.5 44.5
s-17.5 44.167 -17.5 75.5c0 30.667 5 56.5 15 77.5s23.5 37.667 40.5 50s36.833 21.333 59.5 27s46.667 9.16699 72 10.5v142z" />
    <glyph glyph-name="percent" unicode="%" horiz-adv-x="568" 
d="M430 625c-2.66699 -4 -18.666 -29.502 -47.999 -76.502l-319 -508.5l44 -27c4 -2.66699 7.83301 -4.33398 11.5 -5.00098s7.83398 -0.166992 12.501 1.5s9 5.83398 13 12.501c2 2.66699 125.667 200 371 592l-35 22c-6 3.33301 -11.833 5.33301 -17.5 6
s-11.334 -0.166016 -17.001 -2.49902s-10.834 -7.16602 -15.501 -14.499zM423.001 21.998c-20.667 0 -37.5 2.66699 -50.5 8s-23.333 13 -31 23s-12.834 22 -15.501 36s-4 29.333 -4 46s1.33301 32 4 46s7.83398 26 15.501 36s18 17.833 31 23.5s29.833 8.5 50.5 8.5
s37.5 -2.83301 50.5 -8.5s23.167 -13.5 30.5 -23.5s12.5 -22 15.5 -36s4.5 -29.333 4.5 -46s-1.5 -32 -4.5 -46s-8.16699 -26 -15.5 -36s-17.5 -17.667 -30.5 -23s-29.833 -8 -50.5 -8zM423.001 198.998c-23.333 0 -37.5 -6.00098 -42.5 -18.001s-7.5 -27.333 -7.5 -46
c0 -9.33301 0.333008 -17.833 1 -25.5s2.66699 -14.167 6 -19.5s8.33301 -9.66602 15 -12.999s16 -5 28 -5s21.167 1.66699 27.5 5s11.166 7.66602 14.499 12.999s5.33301 11.833 6 19.5s1 16.167 1 25.5s-0.333008 17.833 -1 25.5s-2.66699 14.334 -6 20.001
s-8.16602 10.167 -14.499 13.5s-15.5 5 -27.5 5zM151.001 440.997c-20.667 0 -37.5 2.66699 -50.5 8s-23.333 13 -31 23s-13 22 -16 36s-4.5 29.333 -4.5 46s1.5 32 4.5 46s8.33301 26 16 36s18 17.667 31 23s29.833 8 50.5 8s37.5 -2.66699 50.5 -8s23.333 -13 31 -23
s12.834 -22 15.501 -36s4 -29.333 4 -46s-1.33301 -32 -4 -46s-7.83398 -26 -15.501 -36s-18 -17.667 -31 -23s-29.833 -8 -50.5 -8zM151.001 617.997c-23.333 0 -37.5 -6 -42.5 -18s-7.5 -27.333 -7.5 -46c0 -9.33301 0.333008 -17.833 1 -25.5s2.66699 -14.167 6 -19.5
s8.33301 -9.66602 15 -12.999s16 -5 28 -5c11.333 0 20.333 1.66699 27 5s11.667 7.66602 15 12.999s5.5 11.833 6.5 19.5s1.5 16.167 1.5 25.5c0 18.667 -2.66699 34 -8 46s-19.333 18 -42 18z" />
    <glyph glyph-name="ampersand" unicode="&#x26;" horiz-adv-x="633" 
d="M598 349c-4 -21.333 -9.50098 -43.002 -16.501 -65.002s-14.833 -43.167 -23.5 -63.5s-17.667 -39.333 -27 -57s-18.666 -32.834 -27.999 -45.501l48 -60.5c12 -15 19 -23.5 21 -25.5c5.33301 -6.66699 7.83301 -12 7.5 -16s-1.66602 -7.16699 -3.99902 -9.5s-5 -4 -8 -5
s-4.83301 -1.5 -5.5 -1.5h-62l-24.5 30.5c-9 11 -18.167 23.167 -27.5 36.5c-20.667 -20.667 -47.667 -39 -81 -55s-73.666 -24 -120.999 -24c-70 0 -120.167 16.333 -150.5 49s-42.5 79.334 -36.5 140.001c2.66699 26 8.66699 48.667 18 68s21 36.5 35 51.5
s29.667 28.333 47 40s35 22.5 53 32.5c-8 11.333 -16.167 24 -24.5 38s-15.5 28.333 -21.5 43s-10.667 29.667 -14 45s-4.33301 30 -3 44c5.33301 48 23.5 85.5 54.5 112.5s76.833 40.5 137.5 40.5c39.333 0 71.333 -3.5 96 -10.5s42 -13.167 52 -18.5l-4 -37
c-0.666992 -6.66699 -2 -11.167 -4 -13.5s-4.5 -3.66602 -7.5 -3.99902s-6 0.166992 -9 1.5s-5.5 2.33301 -7.5 3c-15.333 6 -32.833 11.333 -52.5 16s-40.167 7 -61.5 7c-19.333 0 -36 -2.5 -50 -7.5s-25.833 -11.833 -35.5 -20.5s-17.167 -19 -22.5 -31
s-8.66602 -24.667 -9.99902 -38c-0.666992 -10 0.666016 -21.333 3.99902 -34s7.66602 -25.5 12.999 -38.5s11.5 -25.167 18.5 -36.5s13.833 -20.666 20.5 -27.999l181 -235c17.333 31.333 32.5 65 45.5 101s21.833 73.667 26.5 113h42c9.33301 0 15.666 -3 18.999 -9
s4.33301 -13.667 3 -23zM249.999 324.998c-35.333 -18 -62.498 -38.167 -81.498 -60.5s-30.5 -50.5 -34.5 -84.5c-4 -41.333 4.5 -74.5 25.5 -99.5s52.5 -37.5 94.5 -37.5c35.333 0 66.166 6.83301 92.499 20.5s47.166 29.5 62.499 47.5z" />
    <glyph glyph-name="quotesingle" unicode="'" horiz-adv-x="172" 
d="M111 440c0.666992 -9.33301 -2.16992 -17 -8.50293 -23s-13.166 -9 -20.499 -9h-29c-1.33301 34 -2.66602 66.167 -3.99902 96.5s-2.66602 62.5 -3.99902 96.5c0 9.33301 2.83301 17 8.5 23s13.167 9 22.5 9h43z" />
    <glyph glyph-name="parenleft" unicode="(" horiz-adv-x="300" 
d="M306 662l-44.501 -71.998c-13.667 -22.667 -26.167 -46.167 -37.5 -70.5s-21 -50.833 -29 -79.5s-14 -61.334 -18 -98.001c-3.33301 -32 -3.5 -63.167 -0.5 -93.5s7.66699 -59.333 14 -87s14 -53.334 23 -77.001s17.833 -44.834 26.5 -63.501
c2.66699 -5.33301 1.83398 -10.166 -2.49902 -14.499s-9.83301 -6.5 -16.5 -6.5h-49c-0.666992 0 -5.83398 9.5 -15.501 28.5s-19.5 44 -29.5 75s-18.333 66.667 -25 107s-7.66699 81.5 -3 123.5c5.33301 50.667 15.833 97.167 31.5 139.5s31.834 78.833 48.501 109.5
s31.667 54.667 45 72l20 26h51c5.33301 0 9.5 -1.66699 12.5 -5s2.5 -8 -1.5 -14z" />
    <glyph glyph-name="parenright" unicode=")" horiz-adv-x="300" 
d="M133 662c-2.66699 6 -2.16602 10.666 1.50098 13.999s8.16699 5 13.5 5h51c20 -34.667 35 -67.334 45 -98.001s18.5 -67.167 25.5 -109.5s7.83301 -88.833 2.5 -139.5c-4.66699 -42 -14.667 -83.167 -30 -123.5s-31.333 -76 -48 -107s-38.334 -65.5 -65.001 -103.5h-49
c-6.66699 0 -11.834 2.16699 -15.501 6.5s-3.5 9.16602 0.5 14.499c12.667 18.667 25.834 39.834 39.501 63.501s26.667 49.334 39 77.001s23 56.667 32 87s15.167 61.5 18.5 93.5c4 36.667 5 69.334 3 98.001s-6 55.167 -12 79.5s-13.667 47.833 -23 70.5z" />
    <glyph glyph-name="asterisk" unicode="*" horiz-adv-x="377" 
d="M95 643c-4.66699 6.66699 -6.1709 13.6689 -4.50391 21.002s5.16699 12.666 10.5 15.999l24 15l63 -101l49 78c10 15.333 22.333 18.333 37 9l23 -14l-61 -97h88c8 0 14.5 -2.33301 19.5 -7s7.5 -11 7.5 -19v-27h-115l47 -75
c4.66699 -6.66699 6.33398 -13.334 5.00098 -20.001s-5.66602 -12 -12.999 -16l-22 -15l-65 103l-49 -79c-3.33301 -7.33301 -8.66602 -11.833 -15.999 -13.5s-13.666 -0.833984 -18.999 2.49902l-25 16l61 97h-86c-8 0 -14.667 2.33301 -20 7s-8 10.334 -8 17.001v29h115z
" />
    <glyph glyph-name="plus" unicode="+" horiz-adv-x="375" 
d="M150 368c0 8 2.16699 14.499 6.5 19.499s10.5 7.5 18.5 7.5h52v-106h79c8 0 14.5 -2.33301 19.5 -7s7.5 -11 7.5 -19v-51h-106v-78c0 -8.66699 -2.33301 -15.5 -7 -20.5s-10.667 -7.5 -18 -7.5h-52v106h-79c-8 0 -14.667 2.33301 -20 7s-8 10.334 -8 17.001v53h107v79z
" />
    <glyph glyph-name="comma" unicode="," horiz-adv-x="199" 
d="M107 104c17.333 0 31.166 -5.99902 41.499 -17.999s14.5 -27.333 12.5 -46c-1.33301 -12.667 -4.66602 -25.5 -9.99902 -38.5s-11.5 -25.5 -18.5 -37.5s-13.833 -23.167 -20.5 -33.5l-16 -25.5l-38 13c-12.667 5.33301 -15 16 -7 32l23 41
c-10.667 4.66699 -19 11.667 -25 21s-8.33301 20.666 -7 33.999c2 16.667 9.16699 30.5 21.5 41.5s26.833 16.5 43.5 16.5z" />
    <glyph glyph-name="hyphen" unicode="-" horiz-adv-x="373" 
d="M68 212c-8 0 -14.667 2.33203 -20 6.99902s-8 10.334 -8 17.001v53h262c8 0 14.5 -2.33301 19.5 -7s7.5 -11 7.5 -19v-51h-261z" />
    <glyph glyph-name="period" unicode="." horiz-adv-x="184" 
d="M47 51c0 14 4.83301 25.833 14.5 35.5s21.5 14.5 35.5 14.5c14.667 0 26.834 -4.83301 36.501 -14.5s14.5 -21.5 14.5 -35.5c0 -14.667 -4.83301 -26.834 -14.5 -36.501s-21.834 -14.5 -36.501 -14.5c-14 0 -25.833 4.83301 -35.5 14.5s-14.5 21.834 -14.5 36.501z" />
    <glyph glyph-name="slash" unicode="/" horiz-adv-x="395" 
d="M109 -61l-62 0.000976562c-8 0 -14.333 2.66699 -19 8s-4.66699 13.666 0 24.999l256 692h62c8 0 14 -2.5 18 -7.5s4.33301 -13.5 1 -25.5z" />
    <glyph glyph-name="zero" unicode="0" horiz-adv-x="542" 
d="M272 -6c-50 0 -88.833 9.16699 -116.5 27.5s-47.834 43.166 -60.501 74.499s-19.167 68.166 -19.5 110.499s1.83398 87.166 6.50098 134.499c5.33301 47.333 13.333 91.166 24 131.499s26 75.166 46 104.499s45.333 52.333 76 69s69 25 115 25
c48.667 0 87 -8.33301 115 -25s48.5 -39.667 61.5 -69s20 -64.166 21 -104.499s-1.16699 -84.166 -6.5 -131.499c-4.66699 -47.333 -10.667 -92.166 -18 -134.499s-20 -79.166 -38 -110.499s-43.167 -56.166 -75.5 -74.499s-75.833 -27.5 -130.5 -27.5zM336 605
c-32 0 -58.334 -5.66895 -79.001 -17.002s-37.5 -28.166 -50.5 -50.499s-22.833 -50 -29.5 -83s-12.334 -70.833 -17.001 -113.5c-4.66699 -46.667 -7.16699 -87.167 -7.5 -121.5s3.5 -62.666 11.5 -84.999s21.333 -39 40 -50s44 -16.5 76 -16.5s58.333 5.16699 79 15.5
s37.334 26.5 50.001 48.5s22.667 50.333 30 85s13.333 76 18 124c4.66699 42 6.83398 79.5 6.50098 112.5s-4.5 60.667 -12.5 83s-21.167 39.333 -39.5 51s-43.5 17.5 -75.5 17.5z" />
    <glyph glyph-name="one" unicode="1" horiz-adv-x="309" 
d="M276 666c16.667 0 24 -9 22 -27l-65 -616c-2 -15.333 -11 -23 -27 -23h-52l62 592h-85c-7.33301 0 -12.5 2.16699 -15.5 6.5s-4.16699 10.833 -3.5 19.5l5 48h159v0z" />
    <glyph glyph-name="two" unicode="2" horiz-adv-x="513" 
d="M139 625c20 8 41.332 15.6699 63.999 23.0029c18 5.33301 38.833 10.5 62.5 15.5s47.167 7.5 70.5 7.5c36 0 66.167 -3.83301 90.5 -11.5s44 -18.5 59 -32.5s25 -30.5 30 -49.5s6.5 -39.833 4.5 -62.5c-2.66699 -21.333 -9 -41.833 -19 -61.5
s-23.5 -39.834 -40.5 -60.501s-37.167 -42.334 -60.5 -65.001l-78 -75l-180 -179h322c6 0 11.167 -0.833008 15.5 -2.5s5.83301 -7.16699 4.5 -16.5l-5 -55h-367c-16.667 0 -30 4.16699 -40 12.5s-16.167 18.833 -18.5 31.5s-1 26.167 4 40.5s13.5 27.166 25.5 38.499
l198 188c46.667 42.667 84.834 80 114.501 112s45.834 61.667 48.501 89c3.33301 32 -3.83398 55.5 -21.501 70.5s-50.5 22.5 -98.5 22.5c-31.333 0 -59 -3.83301 -83 -11.5s-44 -14.834 -60 -21.501c-8.66699 -4 -14.667 -5.66699 -18 -5s-6 4.33398 -8 11.001l-16 47v0z
" />
    <glyph glyph-name="three" unicode="3" horiz-adv-x="484" 
d="M388 350c16 -4 29.3291 -9.66602 39.9961 -16.999s19.167 -17.166 25.5 -29.499s10.5 -27.833 12.5 -46.5s1.33301 -41 -2 -67c-2.66699 -26.667 -7.5 -51.5 -14.5 -74.5s-18.833 -43 -35.5 -60s-39.667 -30.5 -69 -40.5s-67.333 -15 -114 -15
c-21.333 0 -43.166 1.83301 -65.499 5.5s-42.833 8.16699 -61.5 13.5c-21.333 6 -41.333 12.667 -60 20l23 54c4 10.667 12 13.667 24 9c11.333 -4 30 -9.66699 56 -17s56 -11 90 -11c22 0 41.5 1.5 58.5 4.5s31.5 8.83301 43.5 17.5s21.667 20.667 29 36
s12.333 35.333 15 60c2 18.667 2.33301 35.334 1 50.001s-5.16602 27 -11.499 37s-16.166 17.5 -29.499 22.5s-31 7.5 -53 7.5h-137l6 55c0.666992 8.66699 3.66699 14.5 9 17.5s11.666 4.5 18.999 4.5h85c23.333 0 42.666 1.66699 57.999 5s28 9.5 38 18.5
s17.667 21.167 23 36.5s9 34.666 11 57.999c4.66699 38.667 -3.66602 65.167 -24.999 79.5s-50.666 21.5 -87.999 21.5c-27.333 0 -53.166 -3.33301 -77.499 -10l-63.5 -17c-8 -2 -13.833 -2.66699 -17.5 -2s-6.16699 4.33398 -7.5 11.001l-5 51
c16.667 6 33.834 11.167 51.501 15.5s37.167 8.33301 58.5 12s44.333 5.5 69 5.5c44 0 78.833 -5 104.5 -15s44.667 -23 57 -39s19.666 -34.167 21.999 -54.5s2.5 -40.833 0.5 -61.5c-1.33301 -16 -3.83301 -31.833 -7.5 -47.5s-9 -30.334 -16 -44.001
s-16.167 -25.834 -27.5 -36.501s-25.333 -18.334 -42 -23.001z" />
    <glyph glyph-name="four" unicode="4" horiz-adv-x="517" 
d="M488 244c10 0 16.501 -2.33398 19.501 -7.00098s4.16699 -10.334 3.5 -17.001l-6 -50h-80l-16 -156c-1.33301 -8.66699 -4.33301 -14.5 -9 -17.5s-10.334 -4.5 -17.001 -4.5h-54l18 178h-242c-8 0 -16.667 2.5 -26 7.5s-16.833 12.333 -22.5 22s-8 22 -7 37
s6.83301 28.833 17.5 41.5l274 342c14 16.667 28 29.334 42 38.001s29.667 11.834 47 9.50098s29 -9 35 -20s8 -25.167 6 -42.5l-38 -361h55zM391.001 580.999l-265 -338h229z" />
    <glyph glyph-name="five" unicode="5" horiz-adv-x="501" 
d="M512 618c-0.666992 -6.66699 -2.16699 -12.3359 -4.5 -17.0029s-8.5 -7 -18.5 -7h-237l-77 -206h129c32 0 59.667 -3 83 -9s42.333 -16.333 57 -31s24.667 -34.167 30 -58.5s6 -54.5 2 -90.5c-3.33301 -34 -11.333 -64 -24 -90s-29.167 -47.667 -49.5 -65
s-43.5 -30.333 -69.5 -39s-54 -13 -84 -13c-27.333 0 -52.5 2.33301 -75.5 7s-43.667 10.334 -62 17.001s-35.166 14.334 -50.499 23.001l24 54c2.66699 6.66699 6.33398 10 11.001 10s9.33398 -1 14.001 -3c2.66699 -1.33301 8 -3.66602 16 -6.99902
s18.167 -6.83301 30.5 -10.5s26.166 -7 41.499 -10s31.666 -4.5 48.999 -4.5c33.333 0 59.833 4 79.5 12s34.834 18.333 45.501 31s18 26.667 22 42s6.66699 30.666 8 45.999c2.66699 22.667 2.16699 41.667 -1.5 57s-10 27.5 -19 36.5s-20.167 15.333 -33.5 19
s-28 5.5 -44 5.5h-160c-24 0 -39.167 6.66699 -45.5 20s-7.5 27.333 -3.5 42l84 222c5.33301 16.667 12.166 29.334 20.499 38.001s16.833 15 25.5 19s17.167 6.33301 25.5 7s16.166 1 23.499 1h243z" />
    <glyph glyph-name="six" unicode="6" horiz-adv-x="517" 
d="M318 403c26 0 50.999 -1.83008 74.999 -5.49707s44.5 -12.334 61.5 -26.001s29.833 -33.834 38.5 -60.501s10.667 -62.667 6 -108c-3.33301 -30 -10.166 -58 -20.499 -84s-24.833 -48.333 -43.5 -67s-41.834 -33.334 -69.501 -44.001s-60.5 -16 -98.5 -16
c-40.667 0 -74.167 6.83301 -100.5 20.5s-46.666 31.334 -60.999 53.001s-23.666 46.167 -27.999 73.5s-4.83301 55 -1.5 83l24 226c4 42 15 77.333 33 106s40.167 51.667 66.5 69s55 29.666 86 36.999s61.833 11 92.5 11c19.333 0 36.5 -1 51.5 -3s28 -4.33301 39 -7
s20.167 -5.66699 27.5 -9c-11.333 -26 -18 -41.667 -20 -47c-5.33301 -10.667 -14 -14 -26 -10c-5.33301 1.33301 -15.333 3 -30 5s-31.667 3.66699 -51 5c-57.333 0 -102.333 -12.667 -135 -38s-51.334 -61 -56.001 -107l-10 -90c16 6 32.167 11.167 48.5 15.5
s33.333 8.33301 51 12s34.5 5.5 50.5 5.5zM274.999 67.0029c31.333 0 56.499 3.99902 75.499 11.999s33.667 18.5 44 31.5s17.5 27.667 21.5 44s7 32.5 9 48.5c2 20.667 1.83301 39.167 -0.5 55.5s-7.66602 29.833 -15.999 40.5s-20.5 18.834 -36.5 24.501
s-36.667 8.5 -62 8.5c-22 0 -42.167 -1.5 -60.5 -4.5s-34.5 -6.33301 -48.5 -10s-26.667 -7.83398 -38 -12.501l-9 -79c-2.66699 -27.333 -3 -50.833 -1 -70.5s7.66699 -36.167 17 -49.5s22.333 -23.166 39 -29.499s38.667 -9.5 66 -9.5z" />
    <glyph glyph-name="seven" unicode="7" horiz-adv-x="457" 
d="M431 666c32.667 0 53.166 -10.5 61.499 -31.5s1.83301 -51.5 -19.5 -91.5l-315 -543h-63c-7.33301 0 -11.666 2.5 -12.999 7.5s-1 10.167 1 15.5c0.666992 0.666992 112 190.334 334 569.001h-308c-9.33301 0 -15.333 2.16699 -18 6.5s-3.66699 10.166 -3 17.499l5 50
h338z" />
    <glyph glyph-name="eight" unicode="8" horiz-adv-x="520" 
d="M423 357c20.667 -8.66699 37.167 -19.334 49.5 -32.001s21.666 -26.5 27.999 -41.5s10.166 -31 11.499 -48s1 -34.167 -1 -51.5c-2.66699 -25.333 -9.5 -49.5 -20.5 -72.5s-26.667 -43.333 -47 -61s-45.833 -31.834 -76.5 -42.501s-67 -16 -109 -16
c-37.333 0 -69.666 4.83301 -96.999 14.5s-49.666 23.167 -66.999 40.5s-29.5 37.833 -36.5 61.5s-9.16699 49.834 -6.5 78.501c4 40 17.333 74.667 40 104s54.667 51.333 96 66c-14 7.33301 -26.333 17.333 -37 30c-8.66699 11.333 -16.167 26 -22.5 44
s-8.16602 40.667 -5.49902 68c3.33301 31.333 11.166 58 23.499 80s27.833 39.833 46.5 53.5s40 23.5 64 29.5s49.333 9 76 9c62.667 0 109.5 -14 140.5 -42s43.5 -69.667 37.5 -125c-2.66699 -28 -11 -55.167 -25 -81.5s-34.667 -48.166 -62 -65.499zM325 602
c-40 0 -70.498 -8.33496 -91.498 -25.002s-33.167 -40 -36.5 -70c-2.66699 -25.333 1 -46.166 11 -62.499s21.667 -29.166 35 -38.499c16 -11.333 34.333 -20 55 -26c23.333 4 44.333 11.333 63 22c16 9.33301 31.167 22.333 45.5 39s23.166 39 26.499 67
c3.33301 30 -3.33398 53.167 -20.001 69.5s-46 24.5 -88 24.5zM266.002 66.998c22 0 42.499 2.5 61.499 7.5s35.833 12.833 50.5 23.5s27 24 37 40s16 34.667 18 56c3.33301 34 -7.5 62.333 -32.5 85s-60.833 38 -107.5 46c-17.333 -4.66699 -35 -10.5 -53 -17.5
s-34.5 -15.5 -49.5 -25.5s-27.667 -22.167 -38 -36.5s-16.5 -31.5 -18.5 -51.5c-2.66699 -24.667 0 -45.167 8 -61.5s18.667 -29.333 32 -39s28.333 -16.5 45 -20.5s32.334 -6 47.001 -6z" />
    <glyph glyph-name="nine" unicode="9" horiz-adv-x="491" 
d="M271 245c-27.333 0 -53.168 3.17578 -77.501 9.50879s-45.333 17 -63 32s-31 35.333 -40 61s-11.5 58.167 -7.5 97.5c4 35.333 11.667 67.5 23 96.5s27 53.167 47 72.5s43.5 33.666 70.5 42.999s55.167 14 84.5 14c48 0 85.333 -6.66699 112 -20s46 -33 58 -59
s18 -58.333 18 -97s-2.66699 -83.334 -8 -134.001c-2 -22 -4.5 -46.5 -7.5 -73.5s-6.83301 -54.167 -11.5 -81.5s-12.334 -53.833 -23.001 -79.5s-25.834 -48.5 -45.501 -68.5s-44.334 -36 -74.001 -48s-66.5 -18 -110.5 -18c-15.333 0 -30.666 1.16699 -45.999 3.5
s-29.333 5.16602 -42 8.49902s-25 7.66602 -37 12.999c2 5.33301 4.83301 13.5 8.5 24.5s6.16699 19.167 7.5 24.5c4 9.33301 8.5 14.666 13.5 15.999s10.5 1.33301 16.5 0c2.66699 -0.666992 7 -1.83398 13 -3.50098s13.167 -3.33398 21.5 -5.00098
s17.333 -3.16699 27 -4.5s19.167 -2 28.5 -2c28.667 0 52.334 3.33301 71.001 10s34 15.167 46 25.5s21.5 21.666 28.5 33.999s12.667 24.166 17 35.499s7.83301 23.333 10.5 36s4.83398 25 6.50098 37s2.83398 24.333 3.50098 37c-10.667 -7.33301 -22.5 -13.5 -35.5 -18.5
s-28 -9.33301 -45 -13s-36.5 -5.5 -58.5 -5.5zM304.998 605.009c-46 0 -80.168 -12.665 -102.501 -37.998s-35.833 -62 -40.5 -110c-2 -16 -3 -32.5 -3 -49.5s3.5 -32.333 10.5 -46s18.833 -24.834 35.5 -33.501s40.667 -13 72 -13c21.333 0 40.5 1.66699 57.5 5
s31.667 7.16602 44 11.499s23.833 9.5 34.5 15.5l12 117c2 18 1.83301 35.333 -0.5 52s-7.66602 31.667 -15.999 45s-21 24 -38 32s-38.833 12 -65.5 12z" />
    <glyph glyph-name="colon" unicode=":" horiz-adv-x="196" 
d="M54 51c1.33301 14 7.33301 25.833 18 35.5s23 14.5 37 14.5c14.667 0 26.334 -4.83301 35.001 -14.5s12.334 -21.5 11.001 -35.5c-1.33301 -14.667 -7.33301 -26.834 -18 -36.501s-23.334 -14.5 -38.001 -14.5c-14 0 -25.333 4.83301 -34 14.5
s-12.334 21.834 -11.001 36.501zM89 386c1.33301 14 7.33203 25.833 17.999 35.5s23 14.5 37 14.5c14.667 0 26.334 -4.83301 35.001 -14.5s12.334 -21.5 11.001 -35.5c-2 -14 -8.33301 -25.833 -19 -35.5s-23.334 -14.5 -38.001 -14.5c-14 0 -25.333 4.83301 -34 14.5
s-12 21.5 -10 35.5z" />
    <glyph glyph-name="semicolon" unicode=";" horiz-adv-x="184" 
d="M148 62c2.66699 -12 2.49902 -24.666 -0.500977 -37.999s-7.16699 -26.833 -12.5 -40.5s-11.833 -27.167 -19.5 -40.5l-21.5 -38l-35 11c-6.66699 2.66699 -10.834 6.16699 -12.501 10.5s-0.166992 11.5 4.5 21.5c4.66699 9.33301 8.33398 17.166 11.001 23.499
s6.33398 15.833 11.001 28.5c-9.33301 4.66699 -16 11 -20 19s-5.66699 17 -5 27c2 14 8.33301 25.833 19 35.5s23 14.5 37 14.5c12 0 21.833 -3.16699 29.5 -9.5s12.5 -14.5 14.5 -24.5zM84.999 386.001c1.33301 14 7.33203 25.833 17.999 35.5s23 14.5 37 14.5
c14.667 0 26.334 -4.83301 35.001 -14.5s12.334 -21.5 11.001 -35.5c-2 -14 -8.33301 -25.833 -19 -35.5s-23.334 -14.5 -38.001 -14.5c-14 0 -25.333 4.83301 -34 14.5s-12 21.5 -10 35.5z" />
    <glyph glyph-name="less" unicode="&#x3c;" horiz-adv-x="595" 
d="M49 215v81l480 216v-80l-392 -175l392 -177v-80z" />
    <glyph glyph-name="equal" unicode="=" horiz-adv-x="409" 
d="M87 145c-8 0 -14.5 2.33203 -19.5 6.99902s-7.5 10.334 -7.5 17.001v53h263c8 0 14.5 -2.33301 19.5 -7s7.5 -11 7.5 -19v-51h-263zM87 277.999c-8 0 -14.5 2.33203 -19.5 6.99902s-7.5 10.334 -7.5 17.001v53h263c8 0 14.5 -2.33301 19.5 -7s7.5 -11 7.5 -19v-51h-263z
" />
    <glyph glyph-name="greater" unicode="&#x3e;" horiz-adv-x="595" 
d="M49 0v80l392 177l-392 175v80l480 -216v-81z" />
    <glyph glyph-name="question" unicode="?" horiz-adv-x="435" 
d="M201 51c1.33301 14 -2.33398 25.833 -11.001 35.5s-20 14.5 -34 14.5s-26.333 -4.83301 -37 -14.5s-16.667 -21.5 -18 -35.5c-1.33301 -14.667 2.33398 -26.834 11.001 -36.501s20 -14.5 34 -14.5s26.333 4.83301 37 14.5s16.667 21.834 18 36.501zM139 305
c0.666992 8 3.5 14.6709 8.5 20.0039s11.167 8 18.5 8h68c44 0 75.667 7.83301 95 23.5s31 40.5 35 74.5c4 40.667 -1.33301 69.667 -16 87s-38.334 26 -71.001 26c-33.333 0 -62 -2.66699 -86 -8c-11.333 -2 -19.333 -1.66699 -24 1s-7.66699 7.66699 -9 15
c-1.33301 3.33301 -4.66602 19.333 -9.99902 48c12.667 4.66699 27 8.66699 43 12c13.333 3.33301 28.666 6.16602 45.999 8.49902s35.666 3.5 54.999 3.5c23.333 0 44.666 -4.33301 63.999 -13s35.5 -21.334 48.5 -38.001s22.5 -36.834 28.5 -60.501
s7.33301 -50.834 4 -81.501c-3.33301 -28 -9.66602 -53.167 -18.999 -75.5s-22.666 -41 -39.999 -56s-39.666 -25.5 -66.999 -31.5s-60.333 -9 -99 -9l-12 -112h-53c-7.33301 0 -13 2.66699 -17 8s-5.66699 12 -5 20z" />
    <glyph glyph-name="at" unicode="@" horiz-adv-x="943" 
d="M917 334c-5.33301 -51.333 -15.833 -97.5 -31.5 -138.5s-34.5 -76 -56.5 -105s-46.5 -51.333 -73.5 -67s-54.833 -23.5 -83.5 -23.5c-20 0 -34 4.16699 -42 12.5s-14.333 16.5 -19 24.5c-14 -9.33301 -35.333 -17.833 -64 -25.5s-63 -11.5 -103 -11.5
c-37.333 0 -68.333 5.16699 -93 15.5s-44.167 24.5 -58.5 42.5s-24 39 -29 63s-6.16699 49.667 -3.5 77c3.33301 33.333 11.666 66.833 24.999 100.5s32 64.167 56 91.5s53.167 49.666 87.5 66.999s74.5 26 120.5 26c20 0 39.167 -1.5 57.5 -4.5s35.333 -6.5 51 -10.5
s29.5 -8.16699 41.5 -12.5l30 -10.5l-74 -350v-4c-1.33301 -9.33301 1.66699 -17.833 9 -25.5s16 -11.5 26 -11.5c18 0 36 7.33301 54 22s34.833 34.5 50.5 59.5s29 54.5 40 88.5s18.5 70.333 22.5 109c4.66699 45.333 1.16699 86.833 -10.5 124.5
s-30.167 70.167 -55.5 97.5s-56.5 48.5 -93.5 63.5s-78.167 22.5 -123.5 22.5c-59.333 0 -114 -10.833 -164 -32.5s-93.667 -51.167 -131 -88.5s-67.666 -81 -90.999 -131s-38 -103.333 -44 -160c-6.66699 -62 -4 -117.833 8 -167.5s32 -91.667 60 -126
s63.667 -60.833 107 -79.5s93 -28 149 -28c26 0 54 2 84 6s59.333 9.5 88 16.5s55.5 15.167 80.5 24.5s45.833 19 62.5 29l-6 -63c-13.333 -7.33301 -31 -14.833 -53 -22.5s-46.833 -14.5 -74.5 -20.5s-57.5 -11 -89.5 -15s-64.333 -6 -97 -6
c-75.333 0 -138.5 12.5 -189.5 37.5s-91.5 58.5 -121.5 100.5s-50.167 90.167 -60.5 144.5s-12.5 110.833 -6.5 169.5c6.66699 67.333 23.834 129.333 51.501 186s63.334 105.5 107.001 146.5s94 73 151 96s118.5 34.5 184.5 34.5c61.333 0 114.333 -9.66699 159 -29
s81.167 -45.5 109.5 -78.5s48.166 -71.167 59.499 -114.5s14.666 -88.666 9.99902 -135.999zM653 407c-8.66699 3.33301 -22.832 8 -42.499 14s-41.167 9 -64.5 9c-32 0 -60.5 -7.5 -85.5 -22.5s-46.5 -33.833 -64.5 -56.5s-32.333 -47.5 -43 -74.5
s-17.334 -52.833 -20.001 -77.5c-4 -42 4.83301 -76.667 26.5 -104s56.5 -41 104.5 -41c9.33301 0 20 0.5 32 1.5s23.667 2.5 35 4.5s21.833 4.5 31.5 7.5s17.167 6.16699 22.5 9.5z" />
    <glyph glyph-name="A" unicode="A" horiz-adv-x="629" 
d="M597 22c1.33301 -5.33301 0.829102 -10.333 -1.50391 -15s-8.16602 -7 -17.499 -7h-61l-44 170h-279l-78 -170h-64c-9.33301 -0 -14.333 2.33301 -15 7s0.333008 9.66699 3 15l294 610c4.66699 10 8.83398 18 12.501 24s9.16699 11.167 16.5 15.5s15.333 6.5 24 6.5
s15.834 -2.16699 21.501 -6.5s10.334 -9.5 14.001 -15.5s6.5 -14 8.5 -24zM452.996 246l-78 320l-146 -320h224z" />
    <glyph glyph-name="B" unicode="B" horiz-adv-x="585" 
d="M434 352c22.667 -6.66699 41.6631 -15.835 56.9961 -27.502s27.166 -24.667 35.499 -39s13.833 -29.666 16.5 -45.999s3.33398 -32.5 2.00098 -48.5c-2 -19.333 -6.66699 -40.166 -14 -62.499s-19.166 -43 -35.499 -62s-37.833 -34.833 -64.5 -47.5s-60.667 -19 -102 -19
h-200c-22 0 -39.5 5.66699 -52.5 17s-18.167 31 -15.5 59l59 558c16.667 8 41.334 17.333 74.001 28s73.334 16 122.001 16c32 0 61.5 -3.66699 88.5 -11s49.667 -18.5 68 -33.5s31.833 -34 40.5 -57s11.667 -49.833 9 -80.5c-1.33301 -10 -4 -21.167 -8 -33.5
s-9.33301 -25 -16 -38s-15.167 -25.833 -25.5 -38.5s-23.166 -24 -38.499 -34zM168.996 380.999l124.002 -0.00195312c24.667 0 46 3.16699 64 9.5s33 14.833 45 25.5s21.333 22.834 28 36.501s11 27.834 13 42.501c3.33301 34 -4.83398 61.5 -24.501 82.5
s-53.834 31.5 -102.501 31.5c-18 0 -34.5 -1 -49.5 -3s-28.167 -4 -39.5 -6l-36 -8zM326.998 74.9971c28 0 50.667 3.66797 68 11.001s30.833 16.666 40.5 27.999s16.5 23.5 20.5 36.5s6.66699 25.5 8 37.5c2 14.667 1 29 -3 43s-11.167 26.5 -21.5 37.5
s-24 19.833 -41 26.5s-38.167 10 -63.5 10h-174l-25 -230h191z" />
    <glyph glyph-name="C" unicode="C" horiz-adv-x="566" 
d="M392 601c-34 0 -63.834 -6.66602 -89.501 -19.999s-47.5 -31 -65.5 -53s-32.333 -48.667 -43 -80s-18.334 -66.666 -23.001 -105.999c-9.33301 -89.333 0.833984 -157.5 30.501 -204.5s81.834 -70.5 156.501 -70.5c22.667 0 41.834 1.16699 57.501 3.5
s29.334 5.16602 41.001 8.49902s22 6.83301 31 10.5s18.5 6.5 28.5 8.5c14 3.33301 20.333 -2.33398 19 -17.001l-6 -53c-12.667 -7.33301 -28 -13.666 -46 -18.999c-15.333 -4.66699 -34.666 -8.83398 -57.999 -12.501s-52 -5.5 -86 -5.5
c-54.667 0 -98.834 8.83301 -132.501 26.5s-60 42.334 -79 74.001s-30.667 68.167 -35 109.5s-3.83301 85.666 1.5 132.999c4.66699 46 13.5 89.667 26.5 131s32.333 77.833 58 109.5s57 56.334 94 74.001s82.833 26.5 137.5 26.5c32 0 59.5 -1.83301 82.5 -5.5
s42.667 -7.83398 59 -12.501s30.5 -10 42.5 -16l-7 -61c-1.33301 -12.667 -8 -17 -20 -13c-14.667 5.33301 -35.334 12.333 -62.001 21s-64.334 13 -113.001 13z" />
    <glyph glyph-name="D" unicode="D" horiz-adv-x="619" 
d="M345 666c58.667 0 105.833 -8 141.5 -24s62.5 -38.5 80.5 -67.5s28.667 -64 32 -105s2.66602 -86.167 -2.00098 -135.5c-6.66699 -58.667 -17.167 -109.167 -31.5 -151.5s-34.333 -77 -60 -104s-57.167 -46.833 -94.5 -59.5s-82.333 -19 -135 -19h-144
c-15.333 0 -27.666 2.16699 -36.999 6.5s-16.333 10.166 -21 17.499s-7.5 15.333 -8.5 24s-1.16699 17.667 -0.5 27l55 518c1.33301 14.667 4.5 26.834 9.5 36.501s11.333 17.167 19 22.5s16 9 25 11s18.167 3 27.5 3h144zM286.999 75
c42.667 0 77.835 6.49902 105.502 19.499s50.167 31 67.5 54s30.166 50.333 38.499 82s14.5 66.167 18.5 103.5c3.33301 36.667 4.16602 70.834 2.49902 102.501s-8.5 59 -20.5 82s-30.5 41.167 -55.5 54.5s-58.833 20 -101.5 20h-148l-55 -518h148z" />
    <glyph glyph-name="E" unicode="E" horiz-adv-x="515" 
d="M184 593l-22.001 -204.998h254l-5 -50c-2 -16.667 -11.333 -25 -28 -25h-229l-25 -238h353l-5 -48c-1.33301 -18 -11.333 -27 -30 -27h-312c-26.667 0 -47.5 6.66699 -62.5 20s-21.5 31.666 -19.5 54.999l53 503c2.66699 23.333 7.83398 41 15.501 53
s16.667 20.667 27 26s21.333 8.16602 33 8.49902s22.5 0.5 32.5 0.5h330l-5 -53c-1.33301 -13.333 -9.33301 -20 -24 -20h-331z" />
    <glyph glyph-name="F" unicode="F" horiz-adv-x="505" 
d="M188 593l-22.001 -205h243l-6 -56c-0.666992 -8.66699 -3.16699 -14 -7.5 -16s-10.166 -3 -17.499 -3h-220l-30 -291c-1.33301 -8.66699 -4 -14.5 -8 -17.5s-9.66699 -4.5 -17 -4.5h-54l58 558c3.33301 31.333 9 54 17 68s19 24.167 33 30.5s39.333 9.5 76 9.5h306
l-5 -51c-0.666992 -7.33301 -2.5 -12.833 -5.5 -16.5s-9.16699 -5.5 -18.5 -5.5h-322z" />
    <glyph glyph-name="G" unicode="G" horiz-adv-x="612" 
d="M546 370c14 0 24.8291 -2.83398 32.4961 -8.50098s10.5 -18.167 8.5 -37.5l-31 -295c-16.667 -7.33301 -35.5 -13.666 -56.5 -18.999s-45.667 -9.83301 -74 -13.5s-61.833 -5.5 -100.5 -5.5c-18 0 -37.167 1.66699 -57.5 5s-40.333 9.5 -60 18.5s-38 21.5 -55 37.5
s-31.167 36.833 -42.5 62.5s-19.5 56.334 -24.5 92.001s-4.83301 78.167 0.5 127.5c4.66699 48.667 13.334 91 26.001 127s27.5 66.667 44.5 92s35.833 45.833 56.5 61.5s41.5 28 62.5 37s42 15.167 63 18.5s40.5 5 58.5 5c34 0 63.833 -2 89.5 -6
s47.834 -8.66699 66.501 -14s34.334 -11.333 47.001 -18l-5 -55c-0.666992 -6.66699 -2.83398 -11.5 -6.50098 -14.5s-10.834 -1.83301 -21.501 3.5c-5.33301 2.66699 -14.166 6 -26.499 10s-26.666 7.66699 -42.999 11s-33.833 6.33301 -52.5 9s-37 4 -55 4
c-38.667 0 -71.667 -7.33301 -99 -22s-49.833 -34.5 -67.5 -59.5s-31.5 -53.833 -41.5 -86.5s-16.667 -67 -20 -103c-9.33301 -87.333 2 -153.5 34 -198.5s86.667 -67.5 164 -67.5c26.667 0 50.167 1.16699 70.5 3.5s39.5 7.16602 57.5 14.499l22 210h-130
c-10 0 -16.167 2.33301 -18.5 7s-3.16602 10.667 -2.49902 18l5 49h182v0z" />
    <glyph glyph-name="H" unicode="H" horiz-adv-x="578" 
d="M609 666l-67.001 -644.001c-0.666992 -6 -2.5 -11.167 -5.5 -15.5s-9.16699 -6.5 -18.5 -6.5h-55l32 313h-334l-30 -291c-1.33301 -8.66699 -4 -14.5 -8 -17.5s-9 -4.5 -15 -4.5h-54l67 640c0.666992 7.33301 2.5 13.5 5.5 18.5s9.16699 7.5 18.5 7.5h53l-29 -278h334
l27 257c0.666992 6.66699 2.83398 11.834 6.50098 15.501s8.5 5.5 14.5 5.5h58z" />
    <glyph glyph-name="I" unicode="I" horiz-adv-x="210" 
d="M151 0l-79 -0.000976562l67 645c1.33301 8.66699 3.83301 14.334 7.5 17.001s8.5 4 14.5 4h59z" />
    <glyph glyph-name="J" unicode="J" horiz-adv-x="307" 
d="M330 666l-55.9961 -539c-4.66699 -40.667 -18.834 -70.667 -42.501 -90s-46.834 -31.833 -69.501 -37.5s-49 -8.5 -79 -8.5c-10.667 0 -22.334 0.5 -35.001 1.5s-25.667 3.16699 -39 6.5l6 56c0.666992 7.33301 3 12.333 7 15s8.66699 3.66699 14 3
c8.66699 -1.33301 18.167 -2.16602 28.5 -2.49902s19.166 -0.5 26.499 -0.5c31.333 0 56 3.66699 74 11s28.333 24.333 31 51l54 513c0.666992 7.33301 3.16699 12.666 7.5 15.999s9.83301 5 16.5 5h56z" />
    <glyph glyph-name="K" unicode="K" horiz-adv-x="566" 
d="M152 0h-76.001l67 645c1.33301 8 3.83301 13.5 7.5 16.5s8.83398 4.5 15.501 4.5h55zM459.999 0l-248 286.002c-8.66699 8.66699 -15.167 16.5 -19.5 23.5s-5.83301 16.167 -4.5 27.5c1.33301 10.667 5 20.167 11 28.5s14.667 18.166 26 29.499l265 271h59
c8.66699 0 13.5 -2.33301 14.5 -7s-1.16699 -10.334 -6.5 -17.001l-288 -305c179.333 -209.333 269.333 -314.333 270 -315c4.66699 -5.33301 6.5 -10.333 5.5 -15s-6.83301 -7 -17.5 -7h-67z" />
    <glyph glyph-name="L" unicode="L" horiz-adv-x="493" 
d="M471 75l-5 -53.001c-0.666992 -5.33301 -2.33398 -10.333 -5.00098 -15s-8.66699 -7 -18 -7h-240c-26.667 0 -49 3.66699 -67 11s-32.333 17.333 -43 30s-18 27.834 -22 45.501s-4.66699 37.167 -2 58.5l52 500c1.33301 14 8.33301 21 21 21h57l-52 -500
c-3.33301 -33.333 1.33398 -56.833 14.001 -70.5s33.667 -20.5 63 -20.5h247z" />
    <glyph glyph-name="M" unicode="M" horiz-adv-x="789" 
d="M699 640c7.33301 10.667 17.167 18.1689 29.5 22.502s24 5.16602 35 2.49902s20.333 -8.83398 28 -18.501s10.5 -23.167 8.5 -40.5l-61 -584c-0.666992 -7.33301 -2.5 -12.833 -5.5 -16.5s-9.16699 -5.5 -18.5 -5.5h-52l57 548l-246 -305
c-15.333 -18 -32.5 -27 -51.5 -27s-34.167 9 -45.5 27l-182 305l-55 -528c-0.666992 -4 -2 -8.33301 -4 -13s-8.66699 -7 -20 -7h-52l63 605c2 18 7.66699 32 17 42s20 16.167 32 18.5s23.333 1.33301 34 -3s19 -11.833 25 -22.5l196 -341l268 341v0z" />
    <glyph glyph-name="N" unicode="N" horiz-adv-x="640" 
d="M654 666l-62.999 -601.998c-2 -18 -7.33301 -32.167 -16 -42.5s-18.5 -16.833 -29.5 -19.5s-22.333 -1.33398 -34 3.99902s-21.167 14.666 -28.5 27.999l-277 508l-54 -514c-1.33301 -13.333 -4.66602 -21.333 -9.99902 -24s-10.666 -4 -15.999 -4h-52l63 607
c2 15.333 7.16699 28 15.5 38s18.166 16.5 29.499 19.5s22.666 2 33.999 -3s21 -14.5 29 -28.5l278 -513l55 525c0.666992 6 2.66699 11 6 15s7.66602 6 12.999 6h57z" />
    </font>
</defs>
</svg>
