<?xml version="1.0" standalone="no"?>
<!DOCTYPE svg PUBLIC "-//W3C//DTD SVG 1.1//EN" "http://www.w3.org/Graphics/SVG/1.1/DTD/svg11.dtd" >
<svg>
<metadata>
Created by FontForge 20090914 at Wed May 16 10:17:03 2012
 By www-data
Copyright (c) 2011 by Tarek Atrissi Design. All rights reserved.
</metadata>
<defs>
<font id="STC-Light" horiz-adv-x="297" >
  <font-face 
    font-family="STC"
    font-weight="300"
    font-stretch="normal"
    units-per-em="1000"
    panose-1="1 0 5 0 0 0 0 2 0 6"
    ascent="800"
    descent="-200"
    x-height="435.999"
    cap-height="666"
    bbox="-126 -489 1283 889.994"
    underline-thickness="29"
    underline-position="-451"
    unicode-range="U+0020-U+FEFC"
  />
<missing-glyph horiz-adv-x="500" 
d="M62 0v562h375v-562h-375zM125 62h250v438h-250v-438z" />
    <glyph glyph-name="shaddehdamatan" unicode="&#x651;&#x64c;" horiz-adv-x="312" arabic-form="isolated" 
d="M106 612c18.667 0 29.832 3.83203 33.499 11.499s5.5 17.834 5.5 30.501v44c0 9.33301 4.33301 14 13 14h13v-77c7.33301 -8.66699 14.833 -14.667 22.5 -18s15.834 -5 24.501 -5c13.333 0 22 2.66699 26 8s6 15 6 29v49c0 9.33301 4.33301 14 13 14h13v-74
c0 -14 -4.66699 -25.833 -14 -35.5s-22.666 -14.5 -39.999 -14.5c-10.667 0 -19.834 1.5 -27.501 4.5s-16.834 9.16699 -27.501 18.5c-4 -6 -10.5 -11.333 -19.5 -16s-20.5 -7 -34.5 -7h-11c-19.333 0 -35.166 4.66699 -47.499 14s-18.5 21.333 -18.5 36v74h14
c8 0 12 -4.66699 12 -14v-49c0 -16.667 4.5 -27 13.5 -31s19.167 -6 30.5 -6zM175.998 784.999c-8.66699 4.66699 -15.499 9.66211 -20.499 14.9951s-8.5 11.333 -10.5 18s-2.66699 14.667 -2 24c1.33301 12 7.5 23 18.5 33s23.833 15 38.5 15s27.667 -5.66699 39 -17
c10 -11.333 15 -23.666 15 -36.999c0.666992 -11.333 -1.66602 -21.166 -6.99902 -29.499s-13.833 -16.5 -25.5 -24.5s-22.667 -14.5 -33 -19.5s-19.5 -8.66699 -27.5 -11s-16.667 -3.16602 -26 -2.49902s-22 12.334 -38 35.001c0.666992 -4.66699 0.666992 -10 0 -16
s-1.83398 -11.333 -3.50098 -16s-5.16699 -9.66699 -10.5 -15c-4 -4 -8.33301 -4 -13 0l-7 6c6.66699 6.66699 11 14.334 13 23.001s2.66699 17 2 25c-0.666992 4 0.666016 7 3.99902 9c3.33301 1.33301 8.66602 3 15.999 5c6 2.66699 11 0.666992 15 -6
c6 -10 12.833 -17.667 20.5 -23s21.834 -2.33301 42.501 9zM196.999 795.994c8.66699 4.66699 15.999 9.83398 21.999 15.501s9.5 12 10.5 19s-1.5 14.833 -7.5 23.5c-5.33301 6 -11.166 9.83301 -17.499 11.5s-12.333 1.5 -18 -0.5s-10.667 -5.33301 -15 -10
s-6.66602 -11.334 -6.99902 -20.001s3.16699 -16.167 10.5 -22.5s14.666 -11.833 21.999 -16.5z" />
    <glyph glyph-name="shaddehkasratan" unicode="&#x651;&#x64d;" horiz-adv-x="264" arabic-form="isolated" 
d="M78 765c18.667 0 29.832 3.83203 33.499 11.499s5.5 17.834 5.5 30.501v44c0 9.33301 4.33301 14 13 14h13v-77c7.33301 -8.66699 14.833 -14.667 22.5 -18s15.834 -5 24.501 -5c13.333 0 22 2.66699 26 8s6 15 6 29v49c0 9.33301 4.33301 14 13 14h13v-74
c0 -14 -4.66699 -25.833 -14 -35.5s-22.666 -14.5 -39.999 -14.5c-10.667 0 -19.834 1.5 -27.501 4.5s-16.834 9.16699 -27.501 18.5c-4 -6 -10.5 -11.333 -19.5 -16s-20.5 -7 -34.5 -7h-11c-19.333 0 -35.166 4.66699 -47.499 14s-18.5 21.333 -18.5 36v74h14
c8 0 12 -4.66699 12 -14v-49c0 -16.667 4.5 -27 13.5 -31s19.167 -6 30.5 -6zM12.998 638.999c-8.66699 -1.33301 -13 2 -13 10v17l243 44c8 1.33301 12 -1.66699 12 -9v-18zM12.998 570.999c-8.66699 -1.33301 -13 2 -13 10v17l243 44c8 1.33301 12 -1.66699 12 -9v-18z
" />
    <glyph glyph-name="shaddehfatha" unicode="&#x651;&#x64e;" horiz-adv-x="312" arabic-form="isolated" 
d="M106 611c18.667 0 29.832 3.83203 33.499 11.499s5.5 17.834 5.5 30.501v44c0 9.33301 4.33301 14 13 14h13v-77c7.33301 -8.66699 14.833 -14.667 22.5 -18s15.834 -5 24.501 -5c13.333 0 22 2.66699 26 8s6 15 6 29v49c0 9.33301 4.33301 14 13 14h13v-74
c0 -14 -4.66699 -25.833 -14 -35.5s-22.666 -14.5 -39.999 -14.5c-10.667 0 -19.834 1.5 -27.501 4.5s-16.834 9.16699 -27.501 18.5c-4 -6 -10.5 -11.333 -19.5 -16s-20.5 -7 -34.5 -7h-11c-19.333 0 -35.166 4.66699 -47.499 14s-18.5 21.333 -18.5 36v74h14
c8 0 12 -4.66699 12 -14v-49c0 -16.667 4.5 -27 13.5 -31s19.167 -6 30.5 -6zM40.998 731.999c-8.66699 -1.33301 -13 2 -13 10v17l243 44c8 1.33301 12 -1.66699 12 -9v-18z" />
    <glyph glyph-name="shaddehdamma" unicode="&#x651;&#x64f;" horiz-adv-x="312" arabic-form="isolated" 
d="M106 595c18.667 0 29.832 3.83203 33.499 11.499s5.5 17.834 5.5 30.501v44c0 9.33301 4.33301 14 13 14h13v-77c7.33301 -8.66699 14.833 -14.667 22.5 -18s15.834 -5 24.501 -5c13.333 0 22 2.66699 26 8s6 15 6 29v49c0 9.33301 4.33301 14 13 14h13v-74
c0 -14 -4.66699 -25.833 -14 -35.5s-22.666 -14.5 -39.999 -14.5c-10.667 0 -19.834 1.5 -27.501 4.5s-16.834 9.16699 -27.501 18.5c-4 -6 -10.5 -11.333 -19.5 -16s-20.5 -7 -34.5 -7h-11c-19.333 0 -35.166 4.66699 -47.499 14s-18.5 21.333 -18.5 36v74h14
c8 0 12 -4.66699 12 -14v-49c0 -16.667 4.5 -27 13.5 -31s19.167 -6 30.5 -6zM207.998 845.999c10 -11.333 15.002 -23.6689 15.002 -37.002c0.666992 -11.333 -1.5 -21.333 -6.5 -30s-13.667 -17.167 -26 -25.5s-26.333 -15.666 -42 -21.999s-30.167 -11.166 -43.5 -14.499
c-6.66699 -1.33301 -11.334 1 -14.001 7l-6 14c23.333 5.33301 42.666 12.333 57.999 21c-7.33301 4 -13.5 8.66699 -18.5 14s-8.5 11.333 -10.5 18s-2.66699 14.667 -2 24c1.33301 12 7.5 23 18.5 33s23.833 15 38.5 15s27.667 -5.66699 39 -17zM166 768.996
c8.66699 4.66699 15.999 9.83398 21.999 15.501s9.5 12 10.5 19s-1.5 14.833 -7.5 23.5c-5.33301 6 -11.166 9.83301 -17.499 11.5s-12.333 1.5 -18 -0.5s-10.667 -5.33301 -15 -10s-6.66602 -11.334 -6.99902 -20.001s3.16699 -16.167 10.5 -22.5
s14.666 -11.833 21.999 -16.5z" />
    <glyph glyph-name="shaddehkasra" unicode="&#x651;&#x650;" horiz-adv-x="286" arabic-form="isolated" 
d="M92 703c18.667 0 29.832 3.83203 33.499 11.499s5.5 17.834 5.5 30.501v44c0 9.33301 4.33301 14 13 14h13v-77c7.33301 -8.66699 14.833 -14.667 22.5 -18s15.834 -5 24.501 -5c13.333 0 22 2.66699 26 8s6 15 6 29v49c0 9.33301 4.33301 14 13 14h13v-74
c0 -14 -4.66699 -25.833 -14 -35.5s-22.666 -14.5 -39.999 -14.5c-10.667 0 -19.834 1.5 -27.501 4.5s-16.834 9.16699 -27.501 18.5c-4 -6 -10.5 -11.333 -19.5 -16s-20.5 -7 -34.5 -7h-11c-19.333 0 -35.166 4.66699 -47.499 14s-18.5 21.333 -18.5 36v74h14
c8 0 12 -4.66699 12 -14v-49c0 -16.667 4.5 -27 13.5 -31s19.167 -6 30.5 -6zM31.998 582.999c-8.66699 -1.33301 -13 2 -13 10v17l243 44c8 1.33301 12 -1.66699 12 -9v-18z" />
    <glyph glyph-name="lammeeminitial" unicode="&#xfedf;&#xfee4;" horiz-adv-x="802" arabic-form="initial" 
d="M739 200c0 -31.333 -2.83008 -59.332 -8.49707 -83.999s-15.5 -45.5 -29.5 -62.5s-33.333 -30.167 -58 -39.5c-23.333 -9.33301 -52.333 -14 -87 -14c-7.33301 0 -16.5 0.5 -27.5 1.5s-22.667 3 -35 6s-24.666 7.33301 -36.999 13s-23.5 13.167 -33.5 22.5
c-4.66699 -10 -10 -19.5 -16 -28.5s-13.5 -16.833 -22.5 -23.5s-20.167 -11.834 -33.5 -15.501s-29.333 -5.5 -48 -5.5c-10 0 -23.167 1.5 -39.5 4.5s-32.833 6.5 -49.5 10.5s-35 9 -55 15h-179v54h116c-4.66699 12 -9.66699 30.667 -15 56s-8 52 -8 80
c0 29.333 5.16699 56.166 15.5 80.499s25.166 45 44.499 62s42.666 30.167 69.999 39.5s58.333 14 93 14c31.333 0 59.166 -3.16699 83.499 -9.5s42.166 -11.166 53.499 -14.499v-265c1.33301 -1.33301 4.83301 -4.33301 10.5 -9s13.5 -9.5 23.5 -14.5s22.333 -9.5 37 -13.5
s32 -6 52 -6c41.333 0 72.5 9.66699 93.5 29s31.5 47.333 31.5 84v421c0 13.333 6.66699 20 20 20h38v-408zM375.003 322.001l-33.9961 5.00098c-14 2 -28.667 3 -44 3c-28.667 0 -53.334 -4.16699 -74.001 -12.5s-37.834 -19.333 -51.501 -33
s-23.834 -29.334 -30.501 -47.001s-10 -35.834 -10 -54.501c0 -21.333 2.66699 -44.833 8 -70.5s10.666 -44.167 15.999 -55.5c25.333 -7.33301 49.166 -15.166 71.499 -23.499s45.833 -12.5 70.5 -12.5c22.667 0 41.334 6.33301 56.001 19s22 33 22 61v221z" />
    <glyph glyph-name="aleffathatanfina" unicode="&#xfe8e;&#x64b;" horiz-adv-x="254" arabic-form="final" 
d="M66 608l37.999 -0.000976562c13.333 0 20 -6.66699 20 -20v-422c0 -36.667 10.333 -64.5 31 -83.5s53.334 -28.5 98.001 -28.5h10v-54h-11c-36.667 0 -67 4.66699 -91 14s-43 22.5 -57 39.5s-23.833 37.833 -29.5 62.5s-8.5 52.334 -8.5 83.001v409zM12.999 697.999
c-8.66699 -1.33301 -13 2 -13 10v17l243 44c8 1.33301 12 -1.66699 12 -9v-18zM12.999 628.999c-8.66699 -1.33301 -13 2 -13 10v17l243 44c8 1.33301 12 -1.66699 12 -9v-18z" />
    <glyph glyph-name="aleffathataniso" unicode="&#x627;&#x64b;" horiz-adv-x="234" arabic-form="isolated" 
d="M147 20c0 -13.333 -6.66699 -20 -20 -20h-38v588c0 13.333 6.66699 20 20 20h38v-588zM4 697c-8.66699 -1.33301 -13 2 -13 10v17l243 44c8 1.33301 12 -1.66699 12 -9v-18zM4 628c-8.66699 -1.33301 -13 2 -13 10v17l243 44c8 1.33301 12 -1.66699 12 -9v-18z" />
    <glyph glyph-name="lilah" unicode="&#xfedf;&#xfee0;&#x651;&#x670;&#xfeea;" horiz-adv-x="1025" arabic-form="isolated" 
d="M595 588c0 13.333 6.99805 19.9961 20.998 19.9961h36v-513c7.33301 -8 16.5 -14.833 27.5 -20.5s24.167 -10.5 39.5 -14.5s33.333 -6 54 -6c41.333 1.33301 72.166 11.333 92.499 30s30.5 46.334 30.5 83.001v421c0 13.333 6.66699 20 20 20h37v-408
c0 -31.333 -2.83301 -59.333 -8.5 -84s-15.5 -45.5 -29.5 -62.5s-32.667 -30 -56 -39s-51 -13.833 -83 -14.5c-9.33301 0 -19.833 0.666992 -31.5 2s-24 3.83301 -37 7.5s-25.667 8.83398 -38 15.501s-23.166 15.667 -32.499 27c-10 -16 -23.667 -28.667 -41 -38
s-40.666 -14 -69.999 -14h-92c-9.33301 0 -18.833 1.66699 -28.5 5s-18 8 -25 14s-12.667 12.167 -17 18.5s-7.5 11.833 -9.5 16.5c-4.66699 -4.66699 -11 -10.5 -19 -17.5s-17.667 -13.667 -29 -20s-24.666 -11.833 -39.999 -16.5s-32.666 -7 -51.999 -7
c-20.667 0 -41.334 2.66699 -62.001 8s-39.334 15.5 -56.001 30.5s-30.167 36.333 -40.5 64s-15.5 63.834 -15.5 108.501c0 26.667 3 51.834 9 75.501s16 44.334 30 62.001s32.5 31.834 55.5 42.501s51.5 16 85.5 16c20 0 39.333 -1 58 -3s35.834 -4.5 51.501 -7.5
s37.5 -7.83301 65.5 -14.5v-267c0 -18.667 5.66699 -32.334 17 -41.001s24.666 -13 39.999 -13h50c36.667 0 61.334 8.16699 74.001 24.5s19 38.166 19 65.499v444zM337.998 329.996c-21.333 6 -41.499 9.83203 -60.499 11.499s-35.167 2.5 -48.5 2.5
c-19.333 0 -37.333 -1.66699 -54 -5s-31 -10.166 -43 -20.499s-21.167 -24.833 -27.5 -43.5s-9.5 -43 -9.5 -73c0 -56 10.833 -95.833 32.5 -119.5s53.167 -35.5 94.5 -35.5c20 0 37.333 3.16699 52 9.5s27.167 13.5 37.5 21.5s19.166 18 26.499 30v222z" />
    <glyph glyph-name="lamalefmaddaaboveiso" unicode="&#xfedf;&#xfe82;" horiz-adv-x="643" arabic-form="isolated" 
d="M299 576c19.333 0 37 -5.16504 53 -15.498s30.333 -22.833 43 -37.5c-4 -6 -8.33301 -11 -13 -15c-8 -6.66699 -16.333 -6.33398 -25 0.999023c-12 10 -22 17.333 -30 22s-16.667 7 -26 7c-12 0 -25.5 -6.33301 -40.5 -19s-34.5 -19 -58.5 -19
c-14 0 -28 3.83301 -42 11.5s-25.5 15.667 -34.5 24s-15.5 14.833 -19.5 19.5l14 14c6.66699 6.66699 15 5 25 -5c7.33301 -6.66699 16 -12.834 26 -18.501s20.667 -8.5 32 -8.5c13.333 0 25 4.66699 35 14s20.167 15.833 30.5 19.5s20.5 5.5 30.5 5.5zM247 398.002
c0 16 7.66602 24.001 22.999 24.001h35v-368h100c44.667 0 77.334 9.66699 98.001 29s31 47.333 31 84v418c0 15.333 7 23 21 23h37v-409c0 -30.667 -2.83301 -58.334 -8.5 -83.001s-15.667 -45.5 -30 -62.5s-33.5 -30.167 -57.5 -39.5s-54.333 -14 -91 -14h-366v34
c0 13.333 5.66699 20 17 20h191v344z" />
    <glyph glyph-name="lamalefmaddaabovefina" unicode="&#xfee0;&#xfe82;" horiz-adv-x="708" arabic-form="final" 
d="M289 577c19.333 0 37 -5.16504 53 -15.498s30.333 -22.833 43 -37.5c-4 -6 -8.33301 -11 -13 -15c-8 -6.66699 -16.333 -6.33398 -25 0.999023c-12 10 -22 17.333 -30 22s-16.667 7 -26 7c-12 0 -25.5 -6.33301 -40.5 -19s-34.5 -19 -58.5 -19
c-14 0 -28 3.83301 -42 11.5s-25.5 15.667 -34.5 24s-15.5 14.833 -19.5 19.5l14 14c6.66699 6.66699 15 5 25 -5c7.33301 -6.66699 16 -12.834 26 -18.501s20.667 -8.5 32 -8.5c13.333 0 25 4.66699 35 14s20.167 15.833 30.5 19.5s20.5 5.5 30.5 5.5zM32 0.00195312
l-0.00195312 34c0 13.333 6.66699 20 20 20h187v348c0 13.333 6.66699 20 20 20h38v-368h136c38.667 0 63.667 7.16699 75 21.5s17 37.166 17 68.499v444c0 13.333 6.66699 20 20 20h39v-514c8 -7.33301 17.5 -13.833 28.5 -19.5s24.167 -10.5 39.5 -14.5
s33.666 -6 54.999 -6h8v-54h-8c-8.66699 0 -19 0.666992 -31 2s-24.5 4 -37.5 8s-25.667 9.33301 -38 16s-23.166 15.334 -32.499 26.001c-9.33301 -16 -22.666 -28.667 -39.999 -38s-40.666 -14 -69.999 -14h-426z" />
    <glyph glyph-name="lamalefhamzaaboveiso" unicode="&#xfedf;&#xfe84;" horiz-adv-x="643" arabic-form="isolated" 
d="M176 484l-0.000976562 12.998c0 13.333 6.66699 20 20 20h14c-12.667 12.667 -19 28.334 -19 47.001c0 14 2.66699 25.667 8 35s12.333 17 21 23s18.5 10.333 29.5 13s22.5 4 34.5 4c14 0 27 -1 39 -3s20.667 -3.66699 26 -5
c-0.666992 -7.33301 -1.66699 -14.666 -3 -21.999c-2 -7.33301 -6.66699 -10.333 -14 -9c-4 0.666992 -9.33301 1.5 -16 2.5s-17 1.5 -31 1.5c-25.333 0 -41.666 -4 -48.999 -12s-11 -17.667 -11 -29c0 -8.66699 1.83301 -16 5.5 -22s8.5 -10.667 14.5 -14
s12.5 -5.83301 19.5 -7.5s13.833 -2.5 20.5 -2.5h40c13.333 0 20 -6.66699 20 -20v-13h-169zM246.999 397.998c0 16 7.66602 24.001 22.999 24.001h35v-368h100c44.667 0 77.334 9.66699 98.001 29s31 47.333 31 84v418c0 15.333 7 23 21 23h37v-409
c0 -30.667 -2.83301 -58.334 -8.5 -83.001s-15.667 -45.5 -30 -62.5s-33.5 -30.167 -57.5 -39.5s-54.333 -14 -91 -14h-366v34c0 13.333 5.66699 20 17 20h191v344z" />
    <glyph glyph-name="lamalefhamzaabovefina" unicode="&#xfee0;&#xfe84;" horiz-adv-x="708" arabic-form="final" 
d="M166 483l-0.000976562 12.998c0 13.333 6.66699 20 20 20h14c-12.667 12.667 -19 28.334 -19 47.001c0 14 2.66699 25.667 8 35s12.333 17 21 23s18.5 10.333 29.5 13s22.5 4 34.5 4c14 0 27 -1 39 -3s20.667 -3.66699 26 -5
c-0.666992 -7.33301 -1.66699 -14.666 -3 -21.999c-2 -7.33301 -6.66699 -10.333 -14 -9c-4 0.666992 -9.33301 1.5 -16 2.5s-17 1.5 -31 1.5c-25.333 0 -41.666 -4 -48.999 -12s-11 -17.667 -11 -29c0 -8.66699 1.83301 -16 5.5 -22s8.5 -10.667 14.5 -14
s12.5 -5.83301 19.5 -7.5s13.833 -2.5 20.5 -2.5h40c13.333 0 20 -6.66699 20 -20v-13h-169zM31.999 -0.00195312l-0.00195312 34c0 13.333 6.66699 20 20 20h187v348c0 13.333 6.66699 20 20 20h38v-368h136c38.667 0 63.667 7.16699 75 21.5s17 37.166 17 68.499v444
c0 13.333 6.66699 20 20 20h39v-514c8 -7.33301 17.5 -13.833 28.5 -19.5s24.167 -10.5 39.5 -14.5s33.666 -6 54.999 -6h8v-54h-8c-8.66699 0 -19 0.666992 -31 2s-24.5 4 -37.5 8s-25.667 9.33301 -38 16s-23.166 15.334 -32.499 26.001
c-9.33301 -16 -22.666 -28.667 -39.999 -38s-40.666 -14 -69.999 -14h-426z" />
    <glyph glyph-name="lamalefhamzabelowiso" unicode="&#xfedf;&#xfe88;" horiz-adv-x="643" arabic-form="isolated" 
d="M247 398c0 16 7.66602 24.001 22.999 24.001h35v-368h100c44.667 0 77.334 9.66699 98.001 29s31 47.333 31 84v418c0 15.333 7 23 21 23h37v-409c0 -30.667 -2.83301 -58.334 -8.5 -83.001s-15.667 -45.5 -30 -62.5s-33.5 -30.167 -57.5 -39.5s-54.333 -14 -91 -14h-366
v34c0 13.333 5.66699 20 17 20h191v344zM165.999 -220.999l-0.000976562 12.998c0 13.333 6.66699 20 20 20h14c-12.667 12.667 -19 28.334 -19 47.001c0 14 2.66699 25.667 8 35s12.333 17 21 23s18.5 10.333 29.5 13s22.5 4 34.5 4c14 0 27 -1 39 -3
s20.667 -3.66699 26 -5c-0.666992 -7.33301 -1.66699 -14.666 -3 -21.999c-2 -7.33301 -6.66699 -10.333 -14 -9c-4 0.666992 -9.33301 1.5 -16 2.5s-17 1.5 -31 1.5c-25.333 0 -41.666 -4 -48.999 -12s-11 -17.667 -11 -29c0 -8.66699 1.83301 -16 5.5 -22
s8.5 -10.667 14.5 -14s12.5 -5.83301 19.5 -7.5s13.833 -2.5 20.5 -2.5h40c13.333 0 20 -6.66699 20 -20v-13h-169z" />
    <glyph glyph-name="lamalefhamzabelowfina" unicode="&#xfee0;&#xfe88;" horiz-adv-x="708" arabic-form="final" 
d="M32 0l-0.00195312 34c0 13.333 6.66699 20 20 20h187v348c0 13.333 6.66699 20 20 20h38v-368h136c38.667 0 63.667 7.16699 75 21.5s17 37.166 17 68.499v444c0 13.333 6.66699 20 20 20h39v-514c8 -7.33301 17.5 -13.833 28.5 -19.5s24.167 -10.5 39.5 -14.5
s33.666 -6 54.999 -6h8v-54h-8c-8.66699 0 -19 0.666992 -31 2s-24.5 4 -37.5 8s-25.667 9.33301 -38 16s-23.166 15.334 -32.499 26.001c-9.33301 -16 -22.666 -28.667 -39.999 -38s-40.666 -14 -69.999 -14h-426zM152.998 -222l-0.000976562 12.998
c0 13.333 6.66699 20 20 20h14c-12.667 12.667 -19 28.334 -19 47.001c0 14 2.66699 25.667 8 35s12.333 17 21 23s18.5 10.333 29.5 13s22.5 4 34.5 4c14 0 27 -1 39 -3s20.667 -3.66699 26 -5c-0.666992 -7.33301 -1.66699 -14.666 -3 -21.999
c-2 -7.33301 -6.66699 -10.333 -14 -9c-4 0.666992 -9.33301 1.5 -16 2.5s-17 1.5 -31 1.5c-25.333 0 -41.666 -4 -48.999 -12s-11 -17.667 -11 -29c0 -8.66699 1.83301 -16 5.5 -22s8.5 -10.667 14.5 -14s12.5 -5.83301 19.5 -7.5s13.833 -2.5 20.5 -2.5h40
c13.333 0 20 -6.66699 20 -20v-13h-169z" />
    <glyph glyph-name="lamalefiso" unicode="&#xfedf;&#xfe8e;" horiz-adv-x="643" arabic-form="isolated" 
d="M247 398c0 16 7.66602 24.001 22.999 24.001h35v-368h100c44.667 0 77.334 9.66699 98.001 29s31 47.333 31 84v418c0 15.333 7 23 21 23h37v-409c0 -30.667 -2.83301 -58.334 -8.5 -83.001s-15.667 -45.5 -30 -62.5s-33.5 -30.167 -57.5 -39.5s-54.333 -14 -91 -14h-366
v34c0 13.333 5.66699 20 17 20h191v344z" />
    <glyph glyph-name="lamaleffina" unicode="&#xfee0;&#xfe8e;" horiz-adv-x="708" arabic-form="final" 
d="M32 0l-0.00195312 34c0 13.333 6.66699 20 20 20h187v348c0 13.333 6.66699 20 20 20h38v-368h136c38.667 0 63.667 7.16699 75 21.5s17 37.166 17 68.499v444c0 13.333 6.66699 20 20 20h39v-514c8 -7.33301 17.5 -13.833 28.5 -19.5s24.167 -10.5 39.5 -14.5
s33.666 -6 54.999 -6h8v-54h-8c-8.66699 0 -19 0.666992 -31 2s-24.5 4 -37.5 8s-25.667 9.33301 -38 16s-23.166 15.334 -32.499 26.001c-9.33301 -16 -22.666 -28.667 -39.999 -38s-40.666 -14 -69.999 -14h-426z" />
    <glyph glyph-name="shaddahfathatan" unicode="&#x651;&#x64b;" horiz-adv-x="312" 
d="M114 609c18.667 0 29.832 3.83203 33.499 11.499s5.5 17.834 5.5 30.501v44c0 9.33301 4.33301 14 13 14h13v-77c7.33301 -8.66699 14.833 -14.667 22.5 -18s15.834 -5 24.501 -5c13.333 0 22 2.66699 26 8s6 15 6 29v49c0 9.33301 4.33301 14 13 14h13v-74
c0 -14 -4.66699 -25.833 -14 -35.5s-22.666 -14.5 -39.999 -14.5c-10.667 0 -19.834 1.5 -27.501 4.5s-16.834 9.16699 -27.501 18.5c-4 -6 -10.5 -11.333 -19.5 -16s-20.5 -7 -34.5 -7h-11c-19.333 0 -35.166 4.66699 -47.499 14s-18.5 21.333 -18.5 36v74h14
c8 0 12 -4.66699 12 -14v-49c0 -16.667 4.5 -27 13.5 -31s19.167 -6 30.5 -6zM45.998 795.999c-8.66699 -1.33301 -13 2 -13 10v17l243 44c8 1.33301 12 -1.66699 12 -9v-18zM45.998 726.999c-8.66699 -1.33301 -13 2 -13 10v17l243 44c8 1.33301 12 -1.66699 12 -9v-18z
" />
    <glyph glyph-name="faya" unicode="&#xfed3;&#xfef2;" horiz-adv-x="1000" 
d="M890 156c-18 -10.667 -36.3301 -17.6689 -54.9971 -21.002s-40 -5 -64 -5c-64 0 -109 13.667 -135 41s-39 68.333 -39 123c0 54 14.667 94.667 44 122s78.666 41 147.999 41c26.667 0 53.667 -3.83301 81 -11.5s53.333 -16.167 78 -25.5v-260
c0 -21.333 -2.66699 -41.5 -8 -60.5s-15 -36 -29 -51s-32.833 -26.833 -56.5 -35.5s-53.834 -13 -90.501 -13h-172c4.66699 -5.33301 8.66699 -11.5 12 -18.5s6.33301 -15.667 9 -26s4 -23.166 4 -38.499c0 -11.333 -2.66699 -24.5 -8 -39.5s-15.166 -29.5 -29.499 -43.5
s-34.333 -25.833 -60 -35.5s-58.834 -14.5 -99.501 -14.5h-93c-32.667 0 -65 2.33301 -97 7s-60.667 14.334 -86 29.001s-45.833 35.5 -61.5 62.5s-23.5 62.833 -23.5 107.5c0 32 3.5 63.667 10.5 95s14.167 58.333 21.5 81c13.333 -2.66699 25 -5.33398 35 -8.00098
c8.66699 -2 11.334 -8.66699 8.00098 -20c-4.66699 -18 -9.83398 -39.167 -15.501 -63.5s-8.5 -52.5 -8.5 -84.5c0 -39.333 8 -69.333 24 -90s35.833 -35.667 59.5 -45s49.5 -14.666 77.5 -15.999s54 -2 78 -2h86c13.333 0 27.5 1.33301 42.5 4s28.667 7.5 41 14.5
s22.5 16.333 30.5 28s12 26.5 12 44.5c0 16 -4 30.667 -12 44s-18.5 25.333 -31.5 36s-28.333 20.334 -46 29.001s-35.834 16.334 -54.501 23.001c4.66699 14.667 9 29 13 43c3.33301 12 11.666 15.333 24.999 10l28 -12l34.5 -16.5
c11.667 -5.66699 24.5 -10.834 38.5 -15.501s29.667 -8.33398 47 -11.001c12.667 -2 26.667 -3.33301 42 -4h111c19.333 0 37 1.5 53 4.5s30 8.5 42 16.5s21.333 18.5 28 31.5s10.334 29.5 11.001 49.5zM770.003 178.998c24 0 46.001 2.66797 66.001 8.00098
s38 12.666 54 21.999v174c-22 8.66699 -41.333 14.667 -58 18s-35 5 -55 5c-18.667 0 -35.834 -1.66699 -51.501 -5s-29 -9.33301 -40 -18s-19.5 -20.667 -25.5 -36s-9 -35 -9 -59c0 -22.667 3.16699 -41.167 9.5 -55.5s15 -25.5 26 -33.5s23.833 -13.333 38.5 -16
s29.667 -4 45 -4zM253.004 -348.001c0 11.333 3.83301 20.833 11.5 28.5s17.167 11.5 28.5 11.5s20.833 -3.83301 28.5 -11.5s11.5 -17.167 11.5 -28.5s-3.83301 -20.833 -11.5 -28.5s-17.167 -11.5 -28.5 -11.5s-20.833 3.83301 -28.5 11.5s-11.5 17.167 -11.5 28.5z
M361.004 -348.001c0 11.333 3.83301 20.833 11.5 28.5s17.167 11.5 28.5 11.5s20.833 -3.83301 28.5 -11.5s11.5 -17.167 11.5 -28.5s-3.83301 -20.833 -11.5 -28.5s-17.167 -11.5 -28.5 -11.5s-20.833 3.83301 -28.5 11.5s-11.5 17.167 -11.5 28.5zM741.004 577.999
c0 11.333 3.83301 20.833 11.5 28.5s17.167 11.5 28.5 11.5s20.833 -3.83301 28.5 -11.5s11.5 -17.167 11.5 -28.5s-3.83301 -20.833 -11.5 -28.5s-17.167 -11.5 -28.5 -11.5s-20.833 3.83301 -28.5 11.5s-11.5 17.167 -11.5 28.5z" />
    <glyph glyph-name="ala" unicode="&#xfecb;&#xfee0;&#xfbfd;" horiz-adv-x="1329" 
d="M727 588c0 13.333 7.00195 19.9971 21.002 19.9971h37v-513c7.33301 -8 16.5 -14.833 27.5 -20.5s24.333 -10.5 40 -14.5s34.5 -6 56.5 -6h75c-4 2.66699 -8.66699 7.5 -14 14.5s-10.666 16.333 -15.999 28s-9.83301 26 -13.5 43s-5.5 36.833 -5.5 59.5
c0 29.333 3.16699 55.5 9.5 78.5s17.166 42.5 32.499 58.5s35.666 28.333 60.999 37s57.333 13 96 13c30 0 59 -2.16699 87 -6.5s48.667 -8.16602 62 -11.499l-9 -31c-4 -14 -15 -19.333 -33 -16c-24.667 4 -44.667 6.83301 -60 8.5s-34.666 2.5 -57.999 2.5
c-28 0 -50.667 -3.5 -68 -10.5s-30.833 -16.5 -40.5 -28.5s-16.334 -26.333 -20.001 -43s-5.5 -34.334 -5.5 -53.001c0 -30.667 4 -55.334 12 -74.001s17.5 -33.167 28.5 -43.5s22.167 -17.166 33.5 -20.499s20.666 -5 27.999 -5h167c13.333 0 20 -6.66699 20 -20v-34h-369
c-8 0 -18.167 0.666992 -30.5 2s-25 3.83301 -38 7.5s-25.667 8.83398 -38 15.501s-23.166 15.667 -32.499 27c-10 -16 -23.667 -28.667 -41 -38s-40.666 -14 -69.999 -14h-67c4.66699 -5.33301 8.66699 -11.5 12 -18.5s6.33301 -15.667 9 -26s4 -23.166 4 -38.499
c0 -11.333 -2.66699 -24.5 -8 -39.5s-15.166 -29.5 -29.499 -43.5s-34.333 -25.833 -60 -35.5s-58.834 -14.5 -99.501 -14.5h-93c-32.667 0 -65 2.33301 -97 7s-60.667 14.334 -86 29.001s-45.833 35.5 -61.5 62.5s-23.5 62.833 -23.5 107.5c0 32 3.5 63.667 10.5 95
s14.167 58.333 21.5 81c13.333 -2.66699 25 -5.33398 35 -8.00098c8.66699 -2 11.334 -8.66699 8.00098 -20c-4.66699 -18 -9.83398 -39.167 -15.501 -63.5s-8.5 -52.5 -8.5 -84.5c0 -39.333 8 -69.333 24 -90s35.833 -35.667 59.5 -45s49.5 -14.666 77.5 -15.999
s54 -2 78 -2h86c13.333 0 27.5 1.33301 42.5 4s28.667 7.5 41 14.5s22.5 16.333 30.5 28s12 26.5 12 44.5c0 16 -4 30.667 -12 44s-18.5 25.333 -31.5 36s-28.333 20.334 -46 29.001s-35.834 16.334 -54.501 23.001c4.66699 14.667 9 29 13 43
c3.33301 12 11.666 15.333 24.999 10l28 -12l34.5 -16.5c11.667 -5.66699 24.5 -10.834 38.5 -15.501s29.667 -8.33398 47 -11.001c12.667 -2 26.667 -3.33301 42 -4c30.667 1.33301 51.667 9.33301 63 24c12.667 16.667 19 38.667 19 66v444z" />
    <glyph glyph-name="hamza" unicode="&#x621;" horiz-adv-x="409" arabic-form="isolated" 
d="M67 0l0.000976562 34.0029c0 13.333 6 20 18 20h31c-6.66699 7.33301 -12.334 17 -17.001 29s-7 28 -7 48c0 20.667 4.16699 38.667 12.5 54s19.5 28.166 33.5 38.499s30.167 18 48.5 23s37.833 7.5 58.5 7.5c25.333 0 47 -1.5 65 -4.5s30.667 -5.83301 38 -8.5l-6 -33
c-3.33301 -13.333 -11 -18.333 -23 -15c-8 2 -18.167 3.83301 -30.5 5.5s-25.833 2.5 -40.5 2.5c-20.667 0 -37.667 -2.5 -51 -7.5s-23.666 -11.167 -30.999 -18.5s-12.5 -15.333 -15.5 -24s-4.5 -16.334 -4.5 -23.001c0 -14 3.16699 -25.833 9.5 -35.5
s14 -17.334 23 -23.001s18.667 -9.66699 29 -12s19.166 -3.5 26.499 -3.5h88c13.333 0 20 -6.66699 20 -20v-34h-275z" />
    <glyph glyph-name="alefmaddaaboveiso" unicode="&#x622;" horiz-adv-x="241" arabic-form="isolated" 
d="M169 745c19.333 0 37 -5.16504 53 -15.498s30.333 -22.833 43 -37.5c-4 -6 -8.33301 -11 -13 -15c-8 -6.66699 -16.333 -6.33398 -25 0.999023c-12 10 -22 17.333 -30 22s-16.667 7 -26 7c-12 0 -25.5 -6.33301 -40.5 -19s-34.5 -19 -58.5 -19
c-14 0 -28 3.83301 -42 11.5s-25.5 15.667 -34.5 24s-15.5 14.833 -19.5 19.5l14 14c6.66699 6.66699 15 5 25 -5c7.33301 -6.66699 16 -12.834 26 -18.501s20.667 -8.5 32 -8.5c13.333 0 25 4.66699 35 14s20.167 15.833 30.5 19.5s20.5 5.5 30.5 5.5zM154 20.002
c0 -13.333 -6.66699 -20 -20 -20h-38v588c0 13.333 6.66699 20 20 20h38v-588z" />
    <glyph glyph-name="alefhamzaaboveiso" unicode="&#x623;" horiz-adv-x="229" arabic-form="isolated" 
d="M33 663l-0.000976562 12.998c0 13.333 6.66699 20 20 20h14c-12.667 12.667 -19 28.334 -19 47.001c0 14 2.66699 25.667 8 35s12.333 17 21 23s18.5 10.333 29.5 13s22.5 4 34.5 4c14 0 27 -1 39 -3s20.667 -3.66699 26 -5
c-0.666992 -7.33301 -1.66699 -14.666 -3 -21.999c-2 -7.33301 -6.66699 -10.333 -14 -9c-4 0.666992 -9.33301 1.5 -16 2.5s-17 1.5 -31 1.5c-25.333 0 -41.666 -4 -48.999 -12s-11 -17.667 -11 -29c0 -8.66699 1.83301 -16 5.5 -22s8.5 -10.667 14.5 -14
s12.5 -5.83301 19.5 -7.5s13.833 -2.5 20.5 -2.5h40c13.333 0 20 -6.66699 20 -20v-13h-169zM148.999 19.998c0 -13.333 -6.66699 -20 -20 -20h-38v588c0 13.333 6.66699 20 20 20h38v-588z" />
    <glyph glyph-name="wawhamzaiso" unicode="&#x624;" horiz-adv-x="471" arabic-form="isolated" 
d="M264 386c24 0 49.168 -2.33398 75.501 -7.00098s50.166 -10.334 71.499 -17.001v-365c0 -43.333 -3.66699 -79.333 -11 -108s-18.5 -51.5 -33.5 -68.5s-33.833 -29 -56.5 -36s-49.667 -10.5 -81 -10.5c-14.667 0 -30.834 0.833008 -48.501 2.5s-36.834 5.5 -57.501 11.5
c-10 2 -13.333 10 -10 24c2 8.66699 4.66699 19 8 31c16.667 -5.33301 33.667 -9.33301 51 -12s36 -4 56 -4c28.667 0 51.167 4.66699 67.5 14s28.833 21.333 37.5 36s14.167 31.167 16.5 49.5s3.5 36.833 3.5 55.5v32c-14.667 -6.66699 -29.5 -11.167 -44.5 -13.5
s-30.833 -3.5 -47.5 -3.5c-18.667 0 -39.667 2.16699 -63 6.5s-45 13.333 -65 27s-37 32.834 -51 57.501s-21 57.334 -21 98.001c0 36.667 6 67.667 18 93s27.333 46 46 62s40.334 27.5 65.001 34.5s49.334 10.5 74.001 10.5zM353.001 316.999
c-10 3.33301 -23.833 6.16504 -41.5 8.49805s-34.834 3.5 -51.501 3.5c-41.333 0 -75.333 -11.167 -102 -33.5s-40 -58.166 -40 -107.499c0 -25.333 4 -46.666 12 -63.999s18.5 -31 31.5 -41s28.333 -17.167 46 -21.5s35.834 -6.5 54.501 -6.5c18 0 33.833 1 47.5 3
s28.167 7 43.5 15v244zM150.001 451.998l-0.000976562 12.998c0 13.333 6.66699 20 20 20h14c-12.667 12.667 -19 28.334 -19 47.001c0 14 2.66699 25.667 8 35s12.333 17 21 23s18.5 10.333 29.5 13s22.5 4 34.5 4c14 0 27 -1 39 -3s20.667 -3.66699 26 -5
c-0.666992 -7.33301 -1.66699 -14.666 -3 -21.999c-2 -7.33301 -6.66699 -10.333 -14 -9c-4 0.666992 -9.33301 1.5 -16 2.5s-17 1.5 -31 1.5c-25.333 0 -41.666 -4 -48.999 -12s-11 -17.667 -11 -29c0 -8.66699 1.83301 -16 5.5 -22s8.5 -10.667 14.5 -14
s12.5 -5.83301 19.5 -7.5s13.833 -2.5 20.5 -2.5h40c13.333 0 20 -6.66699 20 -20v-13h-169z" />
    <glyph glyph-name="alefhamzabelowiso" unicode="&#x625;" horiz-adv-x="202" arabic-form="isolated" 
d="M136 20c0 -13.333 -6.66699 -20 -20 -20h-38v588c0 13.333 6.66699 20 20 20h38v-588zM18 -213l-0.000976562 12.998c0 13.333 6.66699 20 20 20h14c-12.667 12.667 -19 28.334 -19 47.001c0 14 2.66699 25.667 8 35s12.333 17 21 23s18.5 10.333 29.5 13s22.5 4 34.5 4
c14 0 27 -1 39 -3s20.667 -3.66699 26 -5c-0.666992 -7.33301 -1.66699 -14.666 -3 -21.999c-2 -7.33301 -6.66699 -10.333 -14 -9c-4 0.666992 -9.33301 1.5 -16 2.5s-17 1.5 -31 1.5c-25.333 0 -41.666 -4 -48.999 -12s-11 -17.667 -11 -29
c0 -8.66699 1.83301 -16 5.5 -22s8.5 -10.667 14.5 -14s12.5 -5.83301 19.5 -7.5s13.833 -2.5 20.5 -2.5h40c13.333 0 20 -6.66699 20 -20v-13h-169z" />
    <glyph glyph-name="hamzakirsehiso" unicode="&#x626;" horiz-adv-x="754" arabic-form="isolated" 
d="M674 345c-0.666992 -12 -1.66602 -23.668 -2.99902 -35.001c-2 -12 -9.33301 -16.667 -22 -14c-10 2 -27.333 4.5 -52 7.5s-52.667 4.5 -84 4.5c-28 0 -50.667 -1 -68 -3s-31 -6.5 -41 -13.5s-16.833 -17.333 -20.5 -31s-5.5 -31.834 -5.5 -54.501
c0 -20 4.33301 -35.667 13 -47s20 -20.166 34 -26.499s29.833 -11.166 47.5 -14.499s40.667 -6.83301 69 -10.5s53 -9 74 -16s36.667 -17.333 47 -31s16.666 -30.5 18.999 -50.5s3.5 -45 3.5 -75c0 -43.333 -13.667 -76.333 -41 -99s-72 -34 -134 -34h-171
c-32.667 0 -65.834 2.66699 -99.501 8s-64 15.5 -91 30.5s-49 36.333 -66 64s-25.5 63.5 -25.5 107.5c0 30 3.66699 60.833 11 92.5s15 59.167 23 82.5l37 -10c11.333 -2.66699 15.333 -10.334 12 -23.001l-16.5 -59.5c-6.33301 -23.667 -9.5 -51.167 -9.5 -82.5
c0 -37.333 8.33301 -66.5 25 -87.5s37.5 -36.667 62.5 -47s51.833 -16.666 80.5 -18.999s55 -3.5 79 -3.5h161c22 0 40 2.33301 54 7s25.167 11 33.5 19s14 17.333 17 28s4.5 22 4.5 34c0 26 -1 45.833 -3 59.5s-6.83301 24 -14.5 31s-18.667 12 -33 15
s-34.166 6.16699 -59.499 9.5s-49.833 7 -73.5 11s-45 11.5 -64 22.5s-34 25 -45 42s-16.5 39.167 -16.5 66.5c0 26.667 1.66699 50 5 70s11.833 36.833 25.5 50.5s34.167 24 61.5 31s65.333 10.5 114 10.5c36 0 66.667 -2.16699 92 -6.5s43.333 -7.83301 54 -10.5z
M64.001 271.999l-0.000976562 12.998c0 13.333 6.66699 20 20 20h14c-12.667 12.667 -19 28.334 -19 47.001c0 14 2.66699 25.667 8 35s12.333 17 21 23s18.5 10.333 29.5 13s22.5 4 34.5 4c14 0 27 -1 39 -3s20.667 -3.66699 26 -5
c-0.666992 -7.33301 -1.66699 -14.666 -3 -21.999c-2 -7.33301 -6.66699 -10.333 -14 -9c-4 0.666992 -9.33301 1.5 -16 2.5s-17 1.5 -31 1.5c-25.333 0 -41.666 -4 -48.999 -12s-11 -17.667 -11 -29c0 -8.66699 1.83301 -16 5.5 -22s8.5 -10.667 14.5 -14
s12.5 -5.83301 19.5 -7.5s13.833 -2.5 20.5 -2.5h40c13.333 0 20 -6.66699 20 -20v-13h-169z" />
    <glyph glyph-name="alefiso" unicode="&#x627;" horiz-adv-x="202" arabic-form="isolated" 
d="M136 20c0 -13.333 -6.66699 -20 -20 -20h-38v588c0 13.333 6.66699 20 20 20h38v-588z" />
    <glyph glyph-name="behiso" unicode="&#x628;" horiz-adv-x="742" arabic-form="isolated" 
d="M698 365l0.000976562 -185.002c0 -27.333 -2.66699 -52 -8 -74s-14.833 -40.833 -28.5 -56.5s-32.5 -27.834 -56.5 -36.501s-54.333 -13 -91 -13h-271c-38 0 -70 4.83301 -96 14.5s-47.167 22.834 -63.5 39.501s-28.333 35.834 -36 57.501s-11.5 44.5 -11.5 68.5
c0 32 2.16699 57.833 6.5 77.5s8.16602 33.167 11.499 40.5l42 -12c8.66699 -2.66699 11 -10 7 -22c-4.66699 -18.667 -7.5 -32.667 -8.5 -42s-1.5 -21.333 -1.5 -36c0 -26 5 -47.5 15 -64.5s23.5 -30.5 40.5 -40.5s36.5 -17 58.5 -21s45 -6 69 -6h243
c46.667 0 78.5 10.333 95.5 31s25.5 51.334 25.5 92.001v167c0 14 6.66699 21 20 21h38zM331.001 -117.002c0 11.333 3.83301 20.833 11.5 28.5s17.167 11.5 28.5 11.5s20.833 -3.83301 28.5 -11.5s11.5 -17.167 11.5 -28.5s-3.83301 -20.833 -11.5 -28.5
s-17.167 -11.5 -28.5 -11.5s-20.833 3.83301 -28.5 11.5s-11.5 17.167 -11.5 28.5z" />
    <glyph glyph-name="tehmarboutaiso" unicode="&#x629;" horiz-adv-x="464" arabic-form="isolated" 
d="M153 492c0 11.333 3.83301 20.833 11.5 28.5s17.167 11.5 28.5 11.5s20.833 -3.83301 28.5 -11.5s11.5 -17.167 11.5 -28.5s-3.83301 -20.833 -11.5 -28.5s-17.167 -11.5 -28.5 -11.5s-20.833 3.83301 -28.5 11.5s-11.5 17.167 -11.5 28.5zM261 492
c0 11.333 3.83301 20.833 11.5 28.5s17.167 11.5 28.5 11.5s20.833 -3.83301 28.5 -11.5s11.5 -17.167 11.5 -28.5s-3.83301 -20.833 -11.5 -28.5s-17.167 -11.5 -28.5 -11.5s-20.833 3.83301 -28.5 11.5s-11.5 17.167 -11.5 28.5zM229 -7
c-32 0 -59.6689 5.16699 -83.002 15.5s-42.5 24.333 -57.5 42s-26.167 38.5 -33.5 62.5s-11 49.667 -11 77c0 63.333 17.833 114 53.5 152s86.834 57 153.501 57c14.667 0 30.5 -0.833008 47.5 -2.5s33 -4 48 -7s28.5 -5.83301 40.5 -8.5s20.667 -4.66699 26 -6v-214
c0 -16.667 -1.33301 -34.667 -4 -54s-9.66699 -37.5 -21 -54.5s-28.666 -31.167 -51.999 -42.5s-55.333 -17 -96 -17h-11zM355.998 329c-16 5.33301 -32.666 9 -49.999 11s-35 3 -53 3c-26 0 -48.833 -4 -68.5 -12s-35.667 -18.833 -48 -32.5s-21.333 -30 -27 -49
s-8.5 -39.5 -8.5 -61.5c0 -26 3.5 -47.833 10.5 -65.5s16.833 -32 29.5 -43s27.167 -18.833 43.5 -23.5s34.166 -7 53.499 -7h11c22 0 39.833 3.33301 53.5 10s24.5 14.667 32.5 24s13.5 19 16.5 29s4.5 18.667 4.5 26v191z" />
    <glyph glyph-name="taiso" unicode="&#x62a;" horiz-adv-x="742" arabic-form="isolated" 
d="M698 365l0.000976562 -185.002c0 -27.333 -2.66699 -52 -8 -74s-14.833 -40.833 -28.5 -56.5s-32.5 -27.834 -56.5 -36.501s-54.333 -13 -91 -13h-271c-38 0 -70 4.83301 -96 14.5s-47.167 22.834 -63.5 39.501s-28.333 35.834 -36 57.501s-11.5 44.5 -11.5 68.5
c0 32 2.16699 57.833 6.5 77.5s8.16602 33.167 11.499 40.5l42 -12c8.66699 -2.66699 11 -10 7 -22c-4.66699 -18.667 -7.5 -32.667 -8.5 -42s-1.5 -21.333 -1.5 -36c0 -26 5 -47.5 15 -64.5s23.5 -30.5 40.5 -40.5s36.5 -17 58.5 -21s45 -6 69 -6h243
c46.667 0 78.5 10.333 95.5 31s25.5 51.334 25.5 92.001v167c0 14 6.66699 21 20 21h38zM277.001 442.998c0 11.333 3.83301 20.833 11.5 28.5s17.167 11.5 28.5 11.5s20.833 -3.83301 28.5 -11.5s11.5 -17.167 11.5 -28.5s-3.83301 -20.833 -11.5 -28.5
s-17.167 -11.5 -28.5 -11.5s-20.833 3.83301 -28.5 11.5s-11.5 17.167 -11.5 28.5zM385.001 442.998c0 11.333 3.83301 20.833 11.5 28.5s17.167 11.5 28.5 11.5s20.833 -3.83301 28.5 -11.5s11.5 -17.167 11.5 -28.5s-3.83301 -20.833 -11.5 -28.5
s-17.167 -11.5 -28.5 -11.5s-20.833 3.83301 -28.5 11.5s-11.5 17.167 -11.5 28.5z" />
    <glyph glyph-name="thaiso" unicode="&#x62b;" horiz-adv-x="742" arabic-form="isolated" 
d="M698 365l0.000976562 -185.002c0 -27.333 -2.66699 -52 -8 -74s-14.833 -40.833 -28.5 -56.5s-32.5 -27.834 -56.5 -36.501s-54.333 -13 -91 -13h-271c-38 0 -70 4.83301 -96 14.5s-47.167 22.834 -63.5 39.501s-28.333 35.834 -36 57.501s-11.5 44.5 -11.5 68.5
c0 32 2.16699 57.833 6.5 77.5s8.16602 33.167 11.499 40.5l42 -12c8.66699 -2.66699 11 -10 7 -22c-4.66699 -18.667 -7.5 -32.667 -8.5 -42s-1.5 -21.333 -1.5 -36c0 -26 5 -47.5 15 -64.5s23.5 -30.5 40.5 -40.5s36.5 -17 58.5 -21s45 -6 69 -6h243
c46.667 0 78.5 10.333 95.5 31s25.5 51.334 25.5 92.001v167c0 14 6.66699 21 20 21h38zM276.001 442.998c0 11.333 3.83301 20.833 11.5 28.5s17.167 11.5 28.5 11.5s20.833 -3.83301 28.5 -11.5s11.5 -17.167 11.5 -28.5s-3.83301 -20.833 -11.5 -28.5
s-17.167 -11.5 -28.5 -11.5s-20.833 3.83301 -28.5 11.5s-11.5 17.167 -11.5 28.5zM384.001 442.998c0 11.333 3.83301 20.833 11.5 28.5s17.167 11.5 28.5 11.5s20.833 -3.83301 28.5 -11.5s11.5 -17.167 11.5 -28.5s-3.83301 -20.833 -11.5 -28.5
s-17.167 -11.5 -28.5 -11.5s-20.833 3.83301 -28.5 11.5s-11.5 17.167 -11.5 28.5zM330.001 536.998c0 11.333 3.83301 20.833 11.5 28.5s17.167 11.5 28.5 11.5s20.833 -3.83301 28.5 -11.5s11.5 -17.167 11.5 -28.5s-3.83301 -20.833 -11.5 -28.5
s-17.167 -11.5 -28.5 -11.5s-20.833 3.83301 -28.5 11.5s-11.5 17.167 -11.5 28.5z" />
    <glyph glyph-name="jeemiso" unicode="&#x62c;" horiz-adv-x="597" arabic-form="isolated" 
d="M301 -134c0 11.333 3.83301 20.833 11.5 28.5s17.167 11.5 28.5 11.5s20.833 -3.83301 28.5 -11.5s11.5 -17.167 11.5 -28.5s-3.83301 -20.833 -11.5 -28.5s-17.167 -11.5 -28.5 -11.5s-20.833 3.83301 -28.5 11.5s-11.5 17.167 -11.5 28.5zM228 0
c-18 0 -34.8301 -1.3291 -50.4971 -3.99609s-29.334 -7.83398 -41.001 -15.501s-20.834 -18.334 -27.501 -32.001s-10 -31.834 -10 -54.501c0 -24.667 7.5 -47.334 22.5 -68.001s32 -38.834 51 -54.501s37.5 -28.5 55.5 -38.5s28.333 -15.667 31 -17
c8 -4 9.66699 -10.333 5 -19c-6 -11.333 -12.667 -22.333 -20 -33c-37.333 18 -66.666 35.333 -87.999 52s-37.833 31.167 -49.5 43.5s-22 25.833 -31 40.5s-16.333 30.167 -22 46.5s-8.5 33.5 -8.5 51.5c0 36 6.16699 64.333 18.5 85s27.5 36.167 45.5 46.5
s36.833 17 56.5 20s36.834 4.5 51.501 4.5h287v101c0 28 -0.833008 52.667 -2.5 74s-7.66699 39.5 -18 54.5s-26.5 26.333 -48.5 34s-53 11.5 -93 11.5c-32 0 -62.167 -1.83301 -90.5 -5.5s-52.5 -8.16699 -72.5 -13.5c-12 -3.33301 -19.333 0.666992 -22 12l-9 37
c22.667 6 44.5 11 65.5 15s43.167 6.83301 66.5 8.5s44.666 2.5 63.999 2.5c39.333 0 72.666 -3.83301 99.999 -11.5s49.666 -20 66.999 -37s29.833 -38.667 37.5 -65s11.5 -58.166 11.5 -95.499v-97c0 -26 -5.33301 -45.5 -16 -58.5s-31.667 -19.833 -63 -20.5h-253z" />
    <glyph glyph-name="haaiso" unicode="&#x62d;" horiz-adv-x="597" arabic-form="isolated" 
d="M228 0c-18 0 -34.8301 -1.3291 -50.4971 -3.99609s-29.334 -7.83398 -41.001 -15.501s-20.834 -18.334 -27.501 -32.001s-10 -31.834 -10 -54.501c0 -24.667 7.5 -47.334 22.5 -68.001s32 -38.834 51 -54.501s37.5 -28.5 55.5 -38.5s28.333 -15.667 31 -17
c8 -4 9.66699 -10.333 5 -19c-6 -11.333 -12.667 -22.333 -20 -33c-37.333 18 -66.666 35.333 -87.999 52s-37.833 31.167 -49.5 43.5s-22 25.833 -31 40.5s-16.333 30.167 -22 46.5s-8.5 33.5 -8.5 51.5c0 36 6.16699 64.333 18.5 85s27.5 36.167 45.5 46.5
s36.833 17 56.5 20s36.834 4.5 51.501 4.5h287v101c0 28 -0.833008 52.667 -2.5 74s-7.66699 39.5 -18 54.5s-26.5 26.333 -48.5 34s-53 11.5 -93 11.5c-32 0 -62.167 -1.83301 -90.5 -5.5s-52.5 -8.16699 -72.5 -13.5c-12 -3.33301 -19.333 0.666992 -22 12l-9 37
c22.667 6 44.5 11 65.5 15s43.167 6.83301 66.5 8.5s44.666 2.5 63.999 2.5c39.333 0 72.666 -3.83301 99.999 -11.5s49.666 -20 66.999 -37s29.833 -38.667 37.5 -65s11.5 -58.166 11.5 -95.499v-97c0 -26 -5.33301 -45.5 -16 -58.5s-31.667 -19.833 -63 -20.5h-253z" />
    <glyph glyph-name="khaiso" unicode="&#x62e;" horiz-adv-x="597" arabic-form="isolated" 
d="M272 512c0 11.333 3.83301 20.833 11.5 28.5s17.167 11.5 28.5 11.5s20.833 -3.83301 28.5 -11.5s11.5 -17.167 11.5 -28.5s-3.83301 -20.833 -11.5 -28.5s-17.167 -11.5 -28.5 -11.5s-20.833 3.83301 -28.5 11.5s-11.5 17.167 -11.5 28.5zM228 0
c-18 0 -34.8301 -1.3291 -50.4971 -3.99609s-29.334 -7.83398 -41.001 -15.501s-20.834 -18.334 -27.501 -32.001s-10 -31.834 -10 -54.501c0 -24.667 7.5 -47.334 22.5 -68.001s32 -38.834 51 -54.501s37.5 -28.5 55.5 -38.5s28.333 -15.667 31 -17
c8 -4 9.66699 -10.333 5 -19c-6 -11.333 -12.667 -22.333 -20 -33c-37.333 18 -66.666 35.333 -87.999 52s-37.833 31.167 -49.5 43.5s-22 25.833 -31 40.5s-16.333 30.167 -22 46.5s-8.5 33.5 -8.5 51.5c0 36 6.16699 64.333 18.5 85s27.5 36.167 45.5 46.5
s36.833 17 56.5 20s36.834 4.5 51.501 4.5h287v101c0 28 -0.833008 52.667 -2.5 74s-7.66699 39.5 -18 54.5s-26.5 26.333 -48.5 34s-53 11.5 -93 11.5c-32 0 -62.167 -1.83301 -90.5 -5.5s-52.5 -8.16699 -72.5 -13.5c-12 -3.33301 -19.333 0.666992 -22 12l-9 37
c22.667 6 44.5 11 65.5 15s43.167 6.83301 66.5 8.5s44.666 2.5 63.999 2.5c39.333 0 72.666 -3.83301 99.999 -11.5s49.666 -20 66.999 -37s29.833 -38.667 37.5 -65s11.5 -58.166 11.5 -95.499v-97c0 -26 -5.33301 -45.5 -16 -58.5s-31.667 -19.833 -63 -20.5h-253z" />
    <glyph glyph-name="daliso" unicode="&#x62f;" horiz-adv-x="502" arabic-form="isolated" 
d="M452 165l-0.000976562 -70c0 -14.667 -0.833008 -27.834 -2.5 -39.501s-5.66699 -21.667 -12 -30s-15.666 -14.666 -27.999 -18.999s-28.833 -6.5 -49.5 -6.5h-310v39c0 10 5.33301 15 16 15h332v92c0 30.667 -2.83301 55.667 -8.5 75s-15 35.333 -28 48
s-30 23.334 -51 32.001s-44.5 16 -70.5 22s-45.5 10 -58.5 12l-47.5 7c-18 3.33301 -25.667 12 -23 26c2 10 4.33301 20.333 7 31c31.333 -4.66699 56 -8.66699 74 -12s39.833 -7.83301 65.5 -13.5s53 -15.834 82 -30.501s51.833 -31.5 68.5 -50.5s28.167 -39.5 34.5 -61.5
s9.5 -44 9.5 -66z" />
    <glyph glyph-name="zaliso" unicode="&#x630;" horiz-adv-x="502" arabic-form="isolated" 
d="M142 505c0 11.333 3.83301 20.833 11.5 28.5s17.167 11.5 28.5 11.5s20.833 -3.83301 28.5 -11.5s11.5 -17.167 11.5 -28.5s-3.83301 -20.833 -11.5 -28.5s-17.167 -11.5 -28.5 -11.5s-20.833 3.83301 -28.5 11.5s-11.5 17.167 -11.5 28.5zM452 165l-0.000976562 -70
c0 -14.667 -0.833008 -27.834 -2.5 -39.501s-5.66699 -21.667 -12 -30s-15.666 -14.666 -27.999 -18.999s-28.833 -6.5 -49.5 -6.5h-310v39c0 10 5.33301 15 16 15h332v92c0 30.667 -2.83301 55.667 -8.5 75s-15 35.333 -28 48s-30 23.334 -51 32.001s-44.5 16 -70.5 22
s-45.5 10 -58.5 12l-47.5 7c-18 3.33301 -25.667 12 -23 26c2 10 4.33301 20.333 7 31c31.333 -4.66699 56 -8.66699 74 -12s39.833 -7.83301 65.5 -13.5s53 -15.834 82 -30.501s51.833 -31.5 68.5 -50.5s28.167 -39.5 34.5 -61.5s9.5 -44 9.5 -66z" />
    <glyph glyph-name="raiso" unicode="&#x631;" horiz-adv-x="274" arabic-form="isolated" 
d="M156 346c0 12.667 6.66602 19 19.999 19h38v-458c0 -46 -10.167 -79.667 -30.5 -101s-48.5 -32 -84.5 -32c-23.333 0 -49.333 4.66699 -78 14c-16.667 5.33301 -23 16.333 -19 33l8 28c9.33301 -4 21.333 -8.16699 36 -12.5s27.334 -6.5 38.001 -6.5
c30 0 49.5 5.33301 58.5 16s13.5 32 13.5 64v436z" />
    <glyph glyph-name="zaiso" unicode="&#x632;" horiz-adv-x="274" arabic-form="isolated" 
d="M147 485c0 11.333 3.83301 20.833 11.5 28.5s17.167 11.5 28.5 11.5s20.833 -3.83301 28.5 -11.5s11.5 -17.167 11.5 -28.5s-3.83301 -20.833 -11.5 -28.5s-17.167 -11.5 -28.5 -11.5s-20.833 3.83301 -28.5 11.5s-11.5 17.167 -11.5 28.5zM156 346
c0 12.667 6.66602 19 19.999 19h38v-458c0 -46 -10.167 -79.667 -30.5 -101s-48.5 -32 -84.5 -32c-23.333 0 -49.333 4.66699 -78 14c-16.667 5.33301 -23 16.333 -19 33l8 28c9.33301 -4 21.333 -8.16699 36 -12.5s27.334 -6.5 38.001 -6.5c30 0 49.5 5.33301 58.5 16
s13.5 32 13.5 64v436z" />
    <glyph glyph-name="seeniso" unicode="&#x633;" horiz-adv-x="1174" arabic-form="isolated" 
d="M546 -16c0 -24 -3.33203 -48.502 -9.99902 -73.502s-18.667 -47.667 -36 -68s-40.833 -36.666 -70.5 -48.999s-68.167 -18.5 -115.5 -18.5c-32 0 -64.333 2.5 -97 7.5s-62.334 16.333 -89.001 34s-48.5 43.167 -65.5 76.5s-25.5 77.666 -25.5 132.999
c0 14.667 0.833008 31 2.5 49s4 36.333 7 55s6.5 36.834 10.5 54.501s8.33301 33.834 13 48.501c12.667 -3.33301 26.667 -7.66602 42 -12.999c8 -2.66699 10.333 -9.66699 7 -21c-5.33301 -17.333 -10.5 -42.166 -15.5 -74.499s-7.5 -65.166 -7.5 -98.499
c0 -48 7 -85 21 -111s32 -44.833 54 -56.5s45.667 -19.167 71 -22.5s50.666 -5 75.999 -5c34.667 0 63.334 4.5 86.001 13.5s40.167 20.5 52.5 34.5s20.666 30.667 24.999 50s6.5 40.333 6.5 63v276c0 14 6.66699 21 20 21h38v-195
c7.33301 -7.33301 16.5 -13.833 27.5 -19.5s24.333 -10.5 40 -14.5s34.167 -6 55.5 -6c11.333 0 23.333 0.833008 36 2.5s24.334 5.16699 35.001 10.5s19.5 13.166 26.5 23.499s10.5 24.5 10.5 42.5v135c0 14 6.66699 21 20 21h38v-184
c18.667 -22.667 38.667 -36.834 60 -42.501s41 -8.5 59 -8.5c46.667 0 78.5 10.333 95.5 31s25.5 51.667 25.5 93v164c0 15.333 6.66699 23 20 23h38v-185c0 -26.667 -2.66699 -51 -8 -73s-14.666 -41 -27.999 -57s-31.5 -28.333 -54.5 -37s-52.5 -13 -88.5 -13
c-18.667 0 -36 2.16699 -52 6.5s-30.333 9.5 -43 15.5s-23.167 12 -31.5 18s-13.833 10.667 -16.5 14c-2 -3.33301 -5.66699 -7.5 -11 -12.5s-13 -10.333 -23 -16s-22.167 -10.834 -36.5 -15.501s-31.5 -8 -51.5 -10h-21c-13.333 0 -30.833 1.16699 -52.5 3.5
s-44.834 11.833 -69.501 28.5v-48z" />
    <glyph glyph-name="sheeniso" unicode="&#x634;" horiz-adv-x="1174" arabic-form="isolated" 
d="M698 453c0 11.333 3.83301 20.833 11.5 28.5s17.167 11.5 28.5 11.5s20.833 -3.83301 28.5 -11.5s11.5 -17.167 11.5 -28.5s-3.83301 -20.833 -11.5 -28.5s-17.167 -11.5 -28.5 -11.5s-20.833 3.83301 -28.5 11.5s-11.5 17.167 -11.5 28.5zM806 453
c0 11.333 3.83301 20.833 11.5 28.5s17.167 11.5 28.5 11.5s20.833 -3.83301 28.5 -11.5s11.5 -17.167 11.5 -28.5s-3.83301 -20.833 -11.5 -28.5s-17.167 -11.5 -28.5 -11.5s-20.833 3.83301 -28.5 11.5s-11.5 17.167 -11.5 28.5zM752 547
c0 11.333 3.83301 20.833 11.5 28.5s17.167 11.5 28.5 11.5s20.833 -3.83301 28.5 -11.5s11.5 -17.167 11.5 -28.5s-3.83301 -20.833 -11.5 -28.5s-17.167 -11.5 -28.5 -11.5s-20.833 3.83301 -28.5 11.5s-11.5 17.167 -11.5 28.5zM546 -16
c0 -24 -3.33203 -48.502 -9.99902 -73.502s-18.667 -47.667 -36 -68s-40.833 -36.666 -70.5 -48.999s-68.167 -18.5 -115.5 -18.5c-32 0 -64.333 2.5 -97 7.5s-62.334 16.333 -89.001 34s-48.5 43.167 -65.5 76.5s-25.5 77.666 -25.5 132.999c0 14.667 0.833008 31 2.5 49
s4 36.333 7 55s6.5 36.834 10.5 54.501s8.33301 33.834 13 48.501c12.667 -3.33301 26.667 -7.66602 42 -12.999c8 -2.66699 10.333 -9.66699 7 -21c-5.33301 -17.333 -10.5 -42.166 -15.5 -74.499s-7.5 -65.166 -7.5 -98.499c0 -48 7 -85 21 -111s32 -44.833 54 -56.5
s45.667 -19.167 71 -22.5s50.666 -5 75.999 -5c34.667 0 63.334 4.5 86.001 13.5s40.167 20.5 52.5 34.5s20.666 30.667 24.999 50s6.5 40.333 6.5 63v276c0 14 6.66699 21 20 21h38v-195c7.33301 -7.33301 16.5 -13.833 27.5 -19.5s24.333 -10.5 40 -14.5
s34.167 -6 55.5 -6c11.333 0 23.333 0.833008 36 2.5s24.334 5.16699 35.001 10.5s19.5 13.166 26.5 23.499s10.5 24.5 10.5 42.5v135c0 14 6.66699 21 20 21h38v-184c18.667 -22.667 38.667 -36.834 60 -42.501s41 -8.5 59 -8.5c46.667 0 78.5 10.333 95.5 31
s25.5 51.667 25.5 93v164c0 15.333 6.66699 23 20 23h38v-185c0 -26.667 -2.66699 -51 -8 -73s-14.666 -41 -27.999 -57s-31.5 -28.333 -54.5 -37s-52.5 -13 -88.5 -13c-18.667 0 -36 2.16699 -52 6.5s-30.333 9.5 -43 15.5s-23.167 12 -31.5 18s-13.833 10.667 -16.5 14
c-2 -3.33301 -5.66699 -7.5 -11 -12.5s-13 -10.333 -23 -16s-22.167 -10.834 -36.5 -15.501s-31.5 -8 -51.5 -10h-21c-13.333 0 -30.833 1.16699 -52.5 3.5s-44.834 11.833 -69.501 28.5v-48z" />
    <glyph glyph-name="sadiso" unicode="&#x635;" horiz-adv-x="1148" arabic-form="isolated" 
d="M507 369c0 13.333 6.66602 19.9971 19.999 19.9971h38v-64l351 61c18.667 2 35.834 0.5 51.501 -4.5s30.667 -11.833 45 -20.5s27.666 -20.167 39.999 -34.5s22.333 -32.166 30 -53.499s11.5 -47.333 11.5 -78c0 -25.333 -2.66699 -49.666 -8 -72.999
s-14.5 -44 -27.5 -62s-30.5 -32.5 -52.5 -43.5s-49.667 -16.5 -83 -16.5h-358c0 -33.333 -3 -64.5 -9 -93.5s-17.5 -54.333 -34.5 -76s-40.5 -38.334 -70.5 -50.001s-69 -17.5 -117 -17.5c-32 0 -65.167 3 -99.5 9s-65.5 18.667 -93.5 38s-51.167 46.333 -69.5 81
s-27.5 79.667 -27.5 135c0 14.667 0.833008 31.167 2.5 49.5s4 36.666 7 54.999s6.33301 36.5 10 54.5s7.83398 34 12.501 48c14.667 -3.33301 28.667 -7.66602 42 -12.999c8 -3.33301 10.333 -10.333 7 -21c-4.66699 -17.333 -9.5 -42.166 -14.5 -74.499
s-7.5 -65.166 -7.5 -98.499c0 -48 7.66699 -85.667 23 -113s34.666 -47.666 57.999 -60.999s49 -22 77 -26s54.667 -6 80 -6c34.667 0 62.834 3.83301 84.501 11.5s38.5 18.667 50.5 33s20.167 32.166 24.5 53.499s6.5 46 6.5 74v377zM931.999 53.9971
c12.667 0 25.332 1.66699 37.999 5s24.167 10 34.5 20s19 23.667 26 41s10.5 40 10.5 68c0 32 -5 57.833 -15 77.5s-21.333 35 -34 46s-26.667 18.5 -42 22.5s-28.666 4.66699 -39.999 2l-345 -66v-216h367z" />
    <glyph glyph-name="dadiso" unicode="&#x636;" horiz-adv-x="1148" arabic-form="isolated" 
d="M608 484c0 11.333 3.83301 20.833 11.5 28.5s17.167 11.5 28.5 11.5s20.833 -3.83301 28.5 -11.5s11.5 -17.167 11.5 -28.5s-3.83301 -20.833 -11.5 -28.5s-17.167 -11.5 -28.5 -11.5s-20.833 3.83301 -28.5 11.5s-11.5 17.167 -11.5 28.5zM507 369
c0 13.333 6.66602 19.9971 19.999 19.9971h38v-64l351 61c18.667 2 35.834 0.5 51.501 -4.5s30.667 -11.833 45 -20.5s27.666 -20.167 39.999 -34.5s22.333 -32.166 30 -53.499s11.5 -47.333 11.5 -78c0 -25.333 -2.66699 -49.666 -8 -72.999s-14.5 -44 -27.5 -62
s-30.5 -32.5 -52.5 -43.5s-49.667 -16.5 -83 -16.5h-358c0 -33.333 -3 -64.5 -9 -93.5s-17.5 -54.333 -34.5 -76s-40.5 -38.334 -70.5 -50.001s-69 -17.5 -117 -17.5c-32 0 -65.167 3 -99.5 9s-65.5 18.667 -93.5 38s-51.167 46.333 -69.5 81s-27.5 79.667 -27.5 135
c0 14.667 0.833008 31.167 2.5 49.5s4 36.666 7 54.999s6.33301 36.5 10 54.5s7.83398 34 12.501 48c14.667 -3.33301 28.667 -7.66602 42 -12.999c8 -3.33301 10.333 -10.333 7 -21c-4.66699 -17.333 -9.5 -42.166 -14.5 -74.499s-7.5 -65.166 -7.5 -98.499
c0 -48 7.66699 -85.667 23 -113s34.666 -47.666 57.999 -60.999s49 -22 77 -26s54.667 -6 80 -6c34.667 0 62.834 3.83301 84.501 11.5s38.5 18.667 50.5 33s20.167 32.166 24.5 53.499s6.5 46 6.5 74v377zM931.999 53.9971c12.667 0 25.332 1.66699 37.999 5
s24.167 10 34.5 20s19 23.667 26 41s10.5 40 10.5 68c0 32 -5 57.833 -15 77.5s-21.333 35 -34 46s-26.667 18.5 -42 22.5s-28.666 4.66699 -39.999 2l-345 -66v-216h367z" />
    <glyph glyph-name="tahiso" unicode="&#x637;" horiz-adv-x="772" arabic-form="isolated" 
d="M110 531c0 13.333 6.66797 19.9951 20.001 19.9951h38v-227l185.5 31l186.5 31c18.667 2 36 0.833008 52 -3.5s30.833 -11.166 44.5 -20.499s26.667 -21.166 39 -35.499s22.5 -32.166 30.5 -53.499s12 -47.333 12 -78c0 -25.333 -3 -49.666 -9 -72.999
s-15.667 -44.166 -29 -62.499s-30.333 -32.833 -51 -43.5s-46.334 -16 -77.001 -16h-502v34c0 13.333 6.66699 20 20 20h40v477zM552.001 53.9951c16 0 29.8291 1.66699 41.4961 5s22.834 9.83301 33.501 19.5s19.667 24 27 43s11 40.833 11 65.5
c0 32 -5.16699 58.167 -15.5 78.5s-21.666 35.5 -33.999 45.5s-25.666 16.667 -39.999 20s-27.166 4 -38.499 2l-369 -65v-214h384z" />
    <glyph glyph-name="zadiso" unicode="&#x638;" horiz-adv-x="772" arabic-form="isolated" 
d="M287 485c0 11.333 3.83301 20.833 11.5 28.5s17.167 11.5 28.5 11.5s20.833 -3.83301 28.5 -11.5s11.5 -17.167 11.5 -28.5s-3.83301 -20.833 -11.5 -28.5s-17.167 -11.5 -28.5 -11.5s-20.833 3.83301 -28.5 11.5s-11.5 17.167 -11.5 28.5zM110 531
c0 13.333 6.66797 19.9951 20.001 19.9951h38v-227l185.5 31l186.5 31c18.667 2 36 0.833008 52 -3.5s30.833 -11.166 44.5 -20.499s26.667 -21.166 39 -35.499s22.5 -32.166 30.5 -53.499s12 -47.333 12 -78c0 -25.333 -3 -49.666 -9 -72.999s-15.667 -44.166 -29 -62.499
s-30.333 -32.833 -51 -43.5s-46.334 -16 -77.001 -16h-502v34c0 13.333 6.66699 20 20 20h40v477zM552.001 53.9951c16 0 29.8291 1.66699 41.4961 5s22.834 9.83301 33.501 19.5s19.667 24 27 43s11 40.833 11 65.5c0 32 -5.16699 58.167 -15.5 78.5
s-21.666 35.5 -33.999 45.5s-25.666 16.667 -39.999 20s-27.166 4 -38.499 2l-369 -65v-214h384z" />
    <glyph glyph-name="ayniso" unicode="&#x639;" horiz-adv-x="581" arabic-form="isolated" 
d="M534 34v-33.999h-334c-10.667 0 -22.167 -0.5 -34.5 -1.5s-24 -4.16699 -35 -9.5s-20.167 -13.833 -27.5 -25.5s-11 -27.834 -11 -48.501c0 -27.333 6 -52 18 -74s26.5 -41.833 43.5 -59.5s34.833 -32.667 53.5 -45l42 -27.5c9.33301 -6 11.333 -13.333 6 -22l-20 -31
c-37.333 20.667 -66.5 39.834 -87.5 57.501s-37.333 33.5 -49 47.5s-22.167 28.667 -31.5 44s-16.833 31.666 -22.5 48.999s-8.5 35.333 -8.5 54c0 30 5.16699 54.5 15.5 73.5s23 33.833 38 44.5s31.167 18 48.5 22s33.333 6 48 6h54c-4 2.66699 -8.66699 7.5 -14 14.5
s-10.666 16.333 -15.999 28s-10 26 -14 43s-6 36.833 -6 59.5c0 29.333 3.33301 55.5 10 78.5s17.667 42.5 33 58.5s35.666 28.333 60.999 37s57.333 13 96 13c30 0 57.833 -2 83.5 -6s47.5 -8 65.5 -12c-2 -10 -5 -20.333 -9 -31
c-2.66699 -7.33301 -6.16699 -12.166 -10.5 -14.499s-11.833 -2.83301 -22.5 -1.5c-24.667 4 -44.667 6.83301 -60 8.5s-34.666 2.5 -57.999 2.5c-28 0 -50.667 -3.5 -68 -10.5s-30.833 -16.5 -40.5 -28.5s-16.5 -26.333 -20.5 -43s-6 -34.334 -6 -53.001
c0 -30.667 4.16699 -55.334 12.5 -74.001s18 -33.167 29 -43.5s22.167 -17.166 33.5 -20.499s20.666 -5 27.999 -5h172c10 -1.33301 15 -8 15 -20z" />
    <glyph glyph-name="ghaiso" unicode="&#x63a;" horiz-adv-x="581" arabic-form="isolated" 
d="M335 491c0 11.333 3.83301 20.833 11.5 28.5s17.167 11.5 28.5 11.5s20.833 -3.83301 28.5 -11.5s11.5 -17.167 11.5 -28.5s-3.83301 -20.833 -11.5 -28.5s-17.167 -11.5 -28.5 -11.5s-20.833 3.83301 -28.5 11.5s-11.5 17.167 -11.5 28.5zM534 34v-33.999h-334
c-10.667 0 -22.167 -0.5 -34.5 -1.5s-24 -4.16699 -35 -9.5s-20.167 -13.833 -27.5 -25.5s-11 -27.834 -11 -48.501c0 -27.333 6 -52 18 -74s26.5 -41.833 43.5 -59.5s34.833 -32.667 53.5 -45l42 -27.5c9.33301 -6 11.333 -13.333 6 -22l-20 -31
c-37.333 20.667 -66.5 39.834 -87.5 57.501s-37.333 33.5 -49 47.5s-22.167 28.667 -31.5 44s-16.833 31.666 -22.5 48.999s-8.5 35.333 -8.5 54c0 30 5.16699 54.5 15.5 73.5s23 33.833 38 44.5s31.167 18 48.5 22s33.333 6 48 6h54c-4 2.66699 -8.66699 7.5 -14 14.5
s-10.666 16.333 -15.999 28s-10 26 -14 43s-6 36.833 -6 59.5c0 29.333 3.33301 55.5 10 78.5s17.667 42.5 33 58.5s35.666 28.333 60.999 37s57.333 13 96 13c30 0 57.833 -2 83.5 -6s47.5 -8 65.5 -12c-2 -10 -5 -20.333 -9 -31
c-2.66699 -7.33301 -6.16699 -12.166 -10.5 -14.499s-11.833 -2.83301 -22.5 -1.5c-24.667 4 -44.667 6.83301 -60 8.5s-34.666 2.5 -57.999 2.5c-28 0 -50.667 -3.5 -68 -10.5s-30.833 -16.5 -40.5 -28.5s-16.5 -26.333 -20.5 -43s-6 -34.334 -6 -53.001
c0 -30.667 4.16699 -55.334 12.5 -74.001s18 -33.167 29 -43.5s22.167 -17.166 33.5 -20.499s20.666 -5 27.999 -5h172c10 -1.33301 15 -8 15 -20z" />
    <glyph glyph-name="faiso" unicode="&#x641;" horiz-adv-x="925" arabic-form="isolated" 
d="M269 0c-40 0 -74.3311 5.16797 -102.998 15.501s-52.167 24.5 -70.5 42.5s-32 38.833 -41 62.5s-13.5 48.834 -13.5 75.501c0 26 1.5 48.167 4.5 66.5s5.16699 30.166 6.5 35.499c3.33301 13.333 11 18 23 14l34 -11c-7.33301 -37.333 -11 -70 -11 -98
c0 -31.333 4.83301 -56.666 14.5 -75.999s22.5 -34.333 38.5 -45s34.167 -18 54.5 -22s41.5 -6 63.5 -6h423c37.333 0 67.166 8.5 89.499 25.5s33.5 46.167 33.5 87.5c-22 -10 -39.833 -16.333 -53.5 -19s-33.5 -4 -59.5 -4c-128.667 0 -193 57.667 -193 173
c0 30 3.5 56.667 10.5 80s18.167 43.166 33.5 59.499s35.333 28.666 60 36.999s55.334 12.5 92.001 12.5c28 0 56.667 -3.33301 86 -10s56.666 -14.667 81.999 -24v-301c0 -60 -16.333 -103.5 -49 -130.5s-81.334 -40.5 -146.001 -40.5h-409zM704.002 198.001
c21.333 0 38.1699 1.00098 50.5029 3.00098s23.166 4.66699 32.499 8s18.666 7.66602 27.999 12.999v207c-20.667 7.33301 -39.834 12.666 -57.501 15.999s-35.167 5 -52.5 5c-49.333 0 -85 -9.83301 -107 -29.5s-33 -54.5 -33 -104.5c0 -24 3.33301 -43.667 10 -59
s16.334 -27.166 29.001 -35.499s27.667 -14.333 45 -18s35.666 -5.5 54.999 -5.5zM688.006 616.002c0 11.333 3.83301 20.833 11.5 28.5s17.167 11.5 28.5 11.5s20.833 -3.83301 28.5 -11.5s11.5 -17.167 11.5 -28.5s-3.83301 -20.833 -11.5 -28.5
s-17.167 -11.5 -28.5 -11.5s-20.833 3.83301 -28.5 11.5s-11.5 17.167 -11.5 28.5z" />
    <glyph glyph-name="kaafiso" unicode="&#x642;" horiz-adv-x="666" arabic-form="isolated" 
d="M349 484c0 11.333 3.83301 20.833 11.5 28.5s17.167 11.5 28.5 11.5s20.833 -3.83301 28.5 -11.5s11.5 -17.167 11.5 -28.5s-3.83301 -20.833 -11.5 -28.5s-17.167 -11.5 -28.5 -11.5s-20.833 3.83301 -28.5 11.5s-11.5 17.167 -11.5 28.5zM457 484
c0 11.333 3.83301 20.833 11.5 28.5s17.167 11.5 28.5 11.5s20.833 -3.83301 28.5 -11.5s11.5 -17.167 11.5 -28.5s-3.83301 -20.833 -11.5 -28.5s-17.167 -11.5 -28.5 -11.5s-20.833 3.83301 -28.5 11.5s-11.5 17.167 -11.5 28.5zM607 -34
c0 -30 -2.16797 -59.1689 -6.50098 -87.502s-15.166 -53.5 -32.499 -75.5s-43.833 -39.5 -79.5 -52.5s-84.5 -19.5 -146.5 -19.5c-46 0 -87.5 3.66699 -124.5 11s-68.667 19.666 -95 36.999s-46.5 40.333 -60.5 69s-21 64 -21 106c0 24.667 1.33301 45.834 4 63.501
s5 30.167 7 37.5c4 14 13.333 19 28 15l30 -9l-6 -33c-2 -10.667 -3.5 -22.167 -4.5 -34.5s-1.5 -23.166 -1.5 -32.499c0 -42 7.66699 -74.5 23 -97.5s35 -40.167 59 -51.5s49.167 -18.666 75.5 -21.999s55.166 -5 86.499 -5c46.667 0 83.667 4.66699 111 14
s48.166 21.666 62.499 36.999s23.5 32.833 27.5 52.5s6 39.834 6 60.501v83c-7.33301 -3.33301 -20.166 -7.83301 -38.499 -13.5s-46.166 -8.5 -83.499 -8.5c-23.333 0 -45.5 2.5 -66.5 7.5s-39.333 13.833 -55 26.5s-28.167 30.167 -37.5 52.5s-14 50.5 -14 84.5
c0 35.333 4.66699 64.333 14 87s22.166 40.5 38.499 53.5s35.833 21.833 58.5 26.5s47.334 7 74.001 7c20.667 0 45.667 -3.33301 75 -10s60.333 -14.667 93 -24v-355zM426.999 63.998c20.667 0 38.6699 1.16699 54.0029 3.5s28.5 5.16602 39.5 8.49902
s20.5 7.33301 28.5 12v192c-20 6 -39.333 11 -58 15s-36 6 -52 6c-19.333 0 -37 -1.66699 -53 -5s-29.333 -9.5 -40 -18.5s-19.334 -21.167 -26.001 -36.5s-10 -35.333 -10 -60c0 -23.333 3.16699 -42.666 9.5 -57.999s14.666 -27.333 24.999 -36s22.666 -14.667 36.999 -18
s29.5 -5 45.5 -5z" />
    <glyph glyph-name="kafiso" unicode="&#x643;" horiz-adv-x="716" arabic-form="isolated" 
d="M657 200c0 -31.333 -2.83105 -59.335 -8.49805 -84.002s-15.5 -45.5 -29.5 -62.5s-33 -30.167 -57 -39.5s-54.333 -14 -91 -14h-196c-39.333 0 -73.333 5.16699 -102 15.5s-52.334 24.5 -71.001 42.5s-32.5 38.833 -41.5 62.5s-13.5 48.834 -13.5 75.501
c0 30 2.33301 55.833 7 77.5s8.66699 37.167 12 46.5c12.667 -4.66699 26 -9.33398 40 -14.001c8 -2.66699 10.667 -9.66699 8 -21c-2.66699 -12 -4.83398 -23.667 -6.50098 -35s-2.5 -26.666 -2.5 -45.999c0 -31.333 4.83301 -56.666 14.5 -75.999s22.5 -34.5 38.5 -45.5
s34.167 -18.5 54.5 -22.5s41.166 -6 62.499 -6h195c44.667 0 77.334 9.66699 98.001 29s31 47.333 31 84v421c0 13.333 6.66699 20 20 20h38v-408zM273.002 268.998l-0.000976562 12.998c0 13.333 6.66699 20 20 20h14c-12.667 12.667 -19 28.334 -19 47.001
c0 14 2.66699 25.667 8 35s12.333 17 21 23s18.5 10.333 29.5 13s22.5 4 34.5 4c14 0 27 -1 39 -3s20.667 -3.66699 26 -5c-0.666992 -7.33301 -1.66699 -14.666 -3 -21.999c-2 -7.33301 -6.66699 -10.333 -14 -9c-4 0.666992 -9.33301 1.5 -16 2.5s-17 1.5 -31 1.5
c-25.333 0 -41.666 -4 -48.999 -12s-11 -17.667 -11 -29c0 -8.66699 1.83301 -16 5.5 -22s8.5 -10.667 14.5 -14s12.5 -5.83301 19.5 -7.5s13.833 -2.5 20.5 -2.5h40c13.333 0 20 -6.66699 20 -20v-13h-169z" />
    <glyph glyph-name="lamiso" unicode="&#x644;" horiz-adv-x="631" arabic-form="isolated" 
d="M561 -16c0 -24 -2.16797 -48.4922 -6.50098 -73.4922s-14.666 -47.667 -30.999 -68s-40.5 -36.333 -72.5 -48s-75.667 -17.5 -131 -17.5c-32 0 -64.333 2.16699 -97 6.5s-62 15.166 -88 32.499s-47.167 42.666 -63.5 75.999s-24.5 77.666 -24.5 132.999
c0 15.333 0.833008 32.166 2.5 50.499s4 36.833 7 55.5s6.66699 36.834 11 54.501s8.83301 33.5 13.5 47.5c16 -5.33301 29.333 -10 40 -14c10 -4 13 -11.667 9 -23c-2.66699 -6.66699 -5.5 -16.5 -8.5 -29.5s-5.83301 -27.333 -8.5 -43s-4.66699 -31.834 -6 -48.501
s-2 -33.334 -2 -50.001c0 -48 7 -84.833 21 -110.5s31.5 -44.334 52.5 -56.001s44.5 -18.834 70.5 -21.501s51.333 -4 76 -4c41.333 0 73.833 4.16699 97.5 12.5s41.5 19.333 53.5 33s19.5 30.167 22.5 49.5s4.5 40.666 4.5 63.999v596c0 13.333 6.33301 20 19 20h39v-624z
" />
    <glyph glyph-name="meemiso" unicode="&#x645;" horiz-adv-x="593" arabic-form="isolated" 
d="M468 328c-11.333 4 -24.333 7.5 -39 10.5s-31.667 4.5 -51 4.5c-28.667 0 -52.667 -3.16699 -72 -9.5s-34.833 -15.833 -46.5 -28.5s-20 -28.667 -25 -48s-7.5 -42 -7.5 -68c0 -50 14.5 -89 43.5 -117s67.5 -42 115.5 -42c22 0 41.167 5 57.5 15s24.5 28.667 24.5 56v227
zM526 107c0 -16.667 -1.83301 -32.835 -5.5 -48.502s-10.167 -29.667 -19.5 -42s-22.333 -22.166 -39 -29.499s-38.334 -11 -65.001 -11c-29.333 0 -58 3.83301 -86 11.5s-50.333 17.167 -67 28.5c-14 -2 -29 -5.83301 -45 -11.5s-30.667 -13.5 -44 -23.5
s-24.333 -22.333 -33 -37s-13 -32 -13 -52c0 -28 2.16699 -55.333 6.5 -82s7.83301 -47 10.5 -61c2.66699 -10 0 -16 -8 -18c-14 -3.33301 -29.333 -6.33301 -46 -9c-2 6.66699 -4.16699 16 -6.5 28s-4.66602 25.5 -6.99902 40.5s-4.33301 31.333 -6 49
s-2.5 35.834 -2.5 54.501c0 30.667 5.33301 56.334 16 77.001s23.5 37.334 38.5 50.001s30 22 45 28s34.167 11 57.5 15c-6.66699 8.66699 -14.5 23 -23.5 43s-13.5 50 -13.5 90c0 29.333 4.33301 56.166 13 80.499s21.667 45.333 39 63s38.833 31.5 64.5 41.5
s55.834 15 90.501 15c15.333 0 30.666 -1 45.999 -3s29.833 -4.33301 43.5 -7s25.5 -5.33398 35.5 -8.00098s18 -4.66699 24 -6v-266z" />
    <glyph glyph-name="nouniso" unicode="&#x646;" horiz-adv-x="636" arabic-form="isolated" 
d="M568 -13c0 -24 -2.33301 -48.3311 -7 -72.998s-15.5 -47.167 -32.5 -67.5s-41.833 -36.833 -74.5 -49.5s-76.667 -19 -132 -19c-32 0 -64.167 2.66699 -96.5 8s-61.5 16.833 -87.5 34.5s-47.167 43 -63.5 76s-24.5 77.5 -24.5 133.5c0 14.667 0.833008 31.167 2.5 49.5
s4 36.666 7 54.999s6.5 36.333 10.5 54s8.33301 33.5 13 47.5c14 -3.33301 27.667 -7.66602 41 -12.999c8 -3.33301 10.333 -10 7 -20c-4.66699 -17.333 -9.66699 -42 -15 -74s-8 -65 -8 -99c0 -48 6.83301 -85 20.5 -111s31.167 -44.833 52.5 -56.5s45 -18.834 71 -21.501
s51.667 -4 77 -4c42 0 75 4.16699 99 12.5s42 19.333 54 33s19.667 30.167 23 49.5s5 40.666 5 63.999v349c0 13.333 6.66699 20 20 20h38v-378zM288 364.002c0 11.333 3.83301 20.833 11.5 28.5s17.167 11.5 28.5 11.5s20.833 -3.83301 28.5 -11.5s11.5 -17.167 11.5 -28.5
s-3.83301 -20.833 -11.5 -28.5s-17.167 -11.5 -28.5 -11.5s-20.833 3.83301 -28.5 11.5s-11.5 17.167 -11.5 28.5z" />
    <glyph glyph-name="haini" unicode="&#x647;" horiz-adv-x="635" arabic-form="initial" 
d="M298 406c49.333 0 92.8369 -4.16992 130.504 -12.5029s69.167 -22.166 94.5 -41.499s44.333 -44.666 57 -75.999s19 -70.333 19 -117v-73c0 -10 -0.666992 -20 -2 -30s-5 -19.167 -11 -27.5s-14.5 -15.166 -25.5 -20.499s-27.167 -8 -48.5 -8
c-14.667 0 -29.834 0.5 -45.501 1.5s-30.667 3 -45 6s-27.333 7.16699 -39 12.5s-20.834 12.333 -27.501 21c-9.33301 -18.667 -23.333 -30.167 -42 -34.5s-39 -6.5 -61 -6.5h-272v54h140l-13 21c-4.66699 7.33301 -8.83398 16 -12.501 26s-6.83398 22 -9.50098 36
s-4 31 -4 51c0 37.333 8 71.333 24 102s32.667 49.667 50 57l-37 -9c-11.333 -2 -18.333 1.66699 -21 11l-11 34c32 8 66.333 13.833 103 17.5s73 5.5 109 5.5zM317.004 351.997c-20 0.666992 -41.332 -1.49707 -63.999 -6.49707s-42.834 -14 -60.501 -27
s-32 -30.5 -43 -52.5s-16.5 -50 -16.5 -84c0 -20.667 2.66699 -39 8 -55s12.333 -29.333 21 -40s18.334 -18.834 29.001 -24.501s21.667 -8.5 33 -8.5h31c14 0 25.167 1.83301 33.5 5.5s14.666 8.66699 18.999 15s7 14.166 8 23.499s1.5 19.666 1.5 30.999v223zM545.005 170
c0 28 -4 53.167 -12 75.5s-19.667 40.833 -35 55.5s-34 26.167 -56 34.5s-45.667 13.833 -71 16.5v-265c5.33301 -6 17.333 -13 36 -21s45 -12 79 -12h59v116z" />
    <glyph glyph-name="wawiso" unicode="&#x648;" horiz-adv-x="471" arabic-form="isolated" 
d="M264 386c24 0 49.168 -2.33398 75.501 -7.00098s50.166 -10.334 71.499 -17.001v-365c0 -43.333 -3.66699 -79.333 -11 -108s-18.5 -51.5 -33.5 -68.5s-33.833 -29 -56.5 -36s-49.667 -10.5 -81 -10.5c-14.667 0 -30.834 0.833008 -48.501 2.5s-36.834 5.5 -57.501 11.5
c-10 2 -13.333 10 -10 24c2 8.66699 4.66699 19 8 31c16.667 -5.33301 33.667 -9.33301 51 -12s36 -4 56 -4c28.667 0 51.167 4.66699 67.5 14s28.833 21.333 37.5 36s14.167 31.167 16.5 49.5s3.5 36.833 3.5 55.5v32c-14.667 -6.66699 -29.5 -11.167 -44.5 -13.5
s-30.833 -3.5 -47.5 -3.5c-18.667 0 -39.667 2.16699 -63 6.5s-45 13.333 -65 27s-37 32.834 -51 57.501s-21 57.334 -21 98.001c0 36.667 6 67.667 18 93s27.333 46 46 62s40.334 27.5 65.001 34.5s49.334 10.5 74.001 10.5zM353.001 316.999
c-10 3.33301 -23.833 6.16504 -41.5 8.49805s-34.834 3.5 -51.501 3.5c-41.333 0 -75.333 -11.167 -102 -33.5s-40 -58.166 -40 -107.499c0 -25.333 4 -46.666 12 -63.999s18.5 -31 31.5 -41s28.333 -17.167 46 -21.5s35.834 -6.5 54.501 -6.5c18 0 33.833 1 47.5 3
s28.167 7 43.5 15v244z" />
    <glyph glyph-name="alefma2souraiso" unicode="&#x649;" horiz-adv-x="754" arabic-form="isolated" 
d="M674 393c-0.666992 -12 -1.66602 -23.668 -2.99902 -35.001c-2 -12 -9.33301 -16.667 -22 -14c-10 2 -27.333 4.5 -52 7.5s-52.667 4.5 -84 4.5c-28 0 -50.667 -1 -68 -3s-31 -6.5 -41 -13.5s-16.833 -17.333 -20.5 -31s-5.5 -31.834 -5.5 -54.501
c0 -20 4.33301 -35.667 13 -47s20 -20.166 34 -26.499s29.833 -11.166 47.5 -14.499s40.667 -6.83301 69 -10.5s53 -9 74 -16s36.667 -17.333 47 -31s16.666 -30.5 18.999 -50.5s3.5 -45 3.5 -75c0 -43.333 -13.667 -76.333 -41 -99s-72 -34 -134 -34h-171
c-32.667 0 -65.834 2.66699 -99.501 8s-64 15.5 -91 30.5s-49 36.333 -66 64s-25.5 63.5 -25.5 107.5c0 30 3.66699 60.833 11 92.5s15 59.167 23 82.5l37 -10c11.333 -2.66699 15.333 -10.334 12 -23.001l-16.5 -59.5c-6.33301 -23.667 -9.5 -51.167 -9.5 -82.5
c0 -37.333 8.33301 -66.5 25 -87.5s37.5 -36.667 62.5 -47s51.833 -16.666 80.5 -18.999s55 -3.5 79 -3.5h161c22 0 40 2.33301 54 7s25.167 11 33.5 19s14 17.333 17 28s4.5 22 4.5 34c0 26 -1 45.833 -3 59.5s-6.83301 24 -14.5 31s-18.667 12 -33 15
s-34.166 6.16699 -59.499 9.5s-49.833 7 -73.5 11s-45 11.5 -64 22.5s-34 25 -45 42s-16.5 39.167 -16.5 66.5c0 26.667 1.66699 50 5 70s11.833 36.833 25.5 50.5s34.167 24 61.5 31s65.333 10.5 114 10.5c36 0 66.667 -2.16699 92 -6.5s43.333 -7.83301 54 -10.5z" />
    <glyph glyph-name="yaiso" unicode="&#x64a;" horiz-adv-x="754" arabic-form="isolated" 
d="M294 -268c0 11.333 3.83301 20.833 11.5 28.5s17.167 11.5 28.5 11.5s20.833 -3.83301 28.5 -11.5s11.5 -17.167 11.5 -28.5s-3.83301 -20.833 -11.5 -28.5s-17.167 -11.5 -28.5 -11.5s-20.833 3.83301 -28.5 11.5s-11.5 17.167 -11.5 28.5zM402 -268
c0 11.333 3.83301 20.833 11.5 28.5s17.167 11.5 28.5 11.5s20.833 -3.83301 28.5 -11.5s11.5 -17.167 11.5 -28.5s-3.83301 -20.833 -11.5 -28.5s-17.167 -11.5 -28.5 -11.5s-20.833 3.83301 -28.5 11.5s-11.5 17.167 -11.5 28.5zM674 393
c-0.666992 -12 -1.66602 -23.668 -2.99902 -35.001c-2 -12 -9.33301 -16.667 -22 -14c-10 2 -27.333 4.5 -52 7.5s-52.667 4.5 -84 4.5c-28 0 -50.667 -1 -68 -3s-31 -6.5 -41 -13.5s-16.833 -17.333 -20.5 -31s-5.5 -31.834 -5.5 -54.501c0 -20 4.33301 -35.667 13 -47
s20 -20.166 34 -26.499s29.833 -11.166 47.5 -14.499s40.667 -6.83301 69 -10.5s53 -9 74 -16s36.667 -17.333 47 -31s16.666 -30.5 18.999 -50.5s3.5 -45 3.5 -75c0 -43.333 -13.667 -76.333 -41 -99s-72 -34 -134 -34h-171c-32.667 0 -65.834 2.66699 -99.501 8
s-64 15.5 -91 30.5s-49 36.333 -66 64s-25.5 63.5 -25.5 107.5c0 30 3.66699 60.833 11 92.5s15 59.167 23 82.5l37 -10c11.333 -2.66699 15.333 -10.334 12 -23.001l-16.5 -59.5c-6.33301 -23.667 -9.5 -51.167 -9.5 -82.5c0 -37.333 8.33301 -66.5 25 -87.5
s37.5 -36.667 62.5 -47s51.833 -16.666 80.5 -18.999s55 -3.5 79 -3.5h161c22 0 40 2.33301 54 7s25.167 11 33.5 19s14 17.333 17 28s4.5 22 4.5 34c0 26 -1 45.833 -3 59.5s-6.83301 24 -14.5 31s-18.667 12 -33 15s-34.166 6.16699 -59.499 9.5s-49.833 7 -73.5 11
s-45 11.5 -64 22.5s-34 25 -45 42s-16.5 39.167 -16.5 66.5c0 26.667 1.66699 50 5 70s11.833 36.833 25.5 50.5s34.167 24 61.5 31s65.333 10.5 114 10.5c36 0 66.667 -2.16699 92 -6.5s43.333 -7.83301 54 -10.5z" />
    <glyph glyph-name="alefwaslaiso" unicode="&#x671;" horiz-adv-x="230" arabic-form="isolated" 
 />
    <glyph glyph-name="piso.001" unicode="&#x67e;" horiz-adv-x="659" arabic-form="isolated" 
 />
    <glyph glyph-name="giso" unicode="&#x686;" horiz-adv-x="499" arabic-form="isolated" 
 />
    <glyph glyph-name="jehiso" unicode="&#x698;" horiz-adv-x="268" arabic-form="isolated" 
 />
    <glyph glyph-name="vehiso" unicode="&#x6a4;" horiz-adv-x="931" arabic-form="isolated" 
d="M269 0c-40 0 -74.333 5.16797 -103 15.501s-52.167 24.5 -70.5 42.5s-32 38.833 -41 62.5s-13.5 48.834 -13.5 75.501c0 26 1.5 48.167 4.5 66.5s5.16699 30.166 6.5 35.499c3.33301 13.333 11 18 23 14l34 -11c-7.33301 -37.333 -11 -70 -11 -98
c0 -31.333 4.83301 -56.666 14.5 -75.999s22.5 -34.333 38.5 -45s34.167 -18 54.5 -22s41.5 -6 63.5 -6h423c37.333 0 67.166 8.5 89.499 25.5s33.5 46.167 33.5 87.5c-22 -10 -39.833 -16.333 -53.5 -19s-33.5 -4 -59.5 -4c-128.667 0 -193 57.667 -193 173
c0 30 3.5 56.667 10.5 80s18.167 43.166 33.5 59.499s35.333 28.666 60 36.999s55.334 12.5 92.001 12.5c28 0 56.667 -3.33301 86 -10s57 -14.667 83 -24v-301c0 -60 -16.5 -103.5 -49.5 -130.5s-81.833 -40.5 -146.5 -40.5h-409zM704 198.001
c21.333 0 38.1699 1.00098 50.5029 3.00098s23.166 4.66699 32.499 8s18.666 7.66602 27.999 12.999v207c-20.667 7.33301 -39.834 12.666 -57.501 15.999s-35.167 5 -52.5 5c-49.333 0 -85 -9.83301 -107 -29.5s-33 -54.5 -33 -104.5c0 -24 3.33301 -43.667 10 -59
s16.334 -27.166 29.001 -35.499s27.667 -14.333 45 -18s35.666 -5.5 54.999 -5.5zM617.004 621.002c0 11.333 3.83301 20.833 11.5 28.5s17.167 11.5 28.5 11.5s20.833 -3.83301 28.5 -11.5s11.5 -17.167 11.5 -28.5s-3.83301 -20.833 -11.5 -28.5
s-17.167 -11.5 -28.5 -11.5s-20.833 3.83301 -28.5 11.5s-11.5 17.167 -11.5 28.5zM725.004 621.002c0 11.333 3.83301 20.833 11.5 28.5s17.167 11.5 28.5 11.5s20.833 -3.83301 28.5 -11.5s11.5 -17.167 11.5 -28.5s-3.83301 -20.833 -11.5 -28.5
s-17.167 -11.5 -28.5 -11.5s-20.833 3.83301 -28.5 11.5s-11.5 17.167 -11.5 28.5zM671.004 715.002c0 11.333 3.83301 20.833 11.5 28.5s17.167 11.5 28.5 11.5s20.833 -3.83301 28.5 -11.5s11.5 -17.167 11.5 -28.5s-3.83301 -20.833 -11.5 -28.5
s-17.167 -11.5 -28.5 -11.5s-20.833 3.83301 -28.5 11.5s-11.5 17.167 -11.5 28.5z" />
    <glyph glyph-name="kehehiso" unicode="&#x6a9;" horiz-adv-x="645" arabic-form="isolated" 
 />
    <glyph glyph-name="gafiso" unicode="&#x6af;" horiz-adv-x="645" arabic-form="isolated" 
 />
    <glyph glyph-name="farsiyaiso" unicode="&#x6cc;" horiz-adv-x="764" arabic-form="isolated" 
 />
    <glyph glyph-name="alefwaslafina" unicode="&#x671;" horiz-adv-x="244" arabic-form="final" 
 />
    <glyph glyph-name="pfina" unicode="&#x67e;" horiz-adv-x="714" arabic-form="final" 
 />
    <glyph glyph-name="pini" unicode="&#x67e;" horiz-adv-x="249" arabic-form="initial" 
 />
    <glyph glyph-name="pmedi" unicode="&#x67e;" horiz-adv-x="279" arabic-form="medial" 
 />
    <glyph glyph-name="vehfina" unicode="&#x6a4;" horiz-adv-x="1007" arabic-form="final" 
d="M824 122c0 -22 -4.99902 -38.835 -14.999 -50.502s-27 -17.5 -51 -17.5h-79c-6.66699 0 -15.334 2.33301 -26.001 7s-21 12.5 -31 23.5s-18.667 25.5 -26 43.5s-11 40.667 -11 68c0 16.667 1.5 32.834 4.5 48.501s9.16699 29.834 18.5 42.501s23 23 41 31
s41.667 12 71 12c12 0 26.5 -0.833008 43.5 -2.5s37.167 -6.5 60.5 -14.5v-191zM882.001 351.998c-4.66699 2 -12.001 4.83301 -22.001 8.5s-21.833 7.5 -35.5 11.5s-28.5 7.33301 -44.5 10s-32 4 -48 4c-37.333 0 -68.833 -4.5 -94.5 -13.5s-46.334 -21.667 -62.001 -38
s-27.5 -36 -35.5 -59s-12 -48.5 -12 -76.5c0 -22 1.5 -40.833 4.5 -56.5s7.16699 -29.167 12.5 -40.5s11.166 -20.666 17.499 -27.999s12.5 -14 18.5 -20h-303c-21.333 0 -42.166 2 -62.499 6s-38.5 11.5 -54.5 22.5s-29.167 26.167 -39.5 45.5s-15.5 44.333 -15.5 75
c0 18.667 1.16699 34 3.5 46s5.16602 23.667 8.49902 35c3.33301 10.667 0.333008 18 -9 22c-13.333 5.33301 -26.666 10 -39.999 14c-3.33301 -9.33301 -7.16602 -24.833 -11.499 -46.5s-6.5 -47.5 -6.5 -77.5c0 -26.667 4.33301 -51.834 13 -75.501s21.5 -44.5 38.5 -62.5
s38 -32.167 63 -42.5s54.167 -15.5 87.5 -15.5h506c28 0 51.167 4.33301 69.5 13s32.166 21 41.499 37c9.33301 -10.667 20 -19.334 32 -26.001s24.333 -11.667 37 -15s24.834 -5.66602 36.501 -6.99902s21.834 -2 30.501 -2h8v54h-8c-21.333 0 -39.833 2 -55.5 6
s-29 8.83301 -40 14.5s-20.5 12.167 -28.5 19.5v258zM639 496.998c0 11.333 3.83301 20.833 11.5 28.5s17.167 11.5 28.5 11.5s20.833 -3.83301 28.5 -11.5s11.5 -17.167 11.5 -28.5s-3.83301 -20.833 -11.5 -28.5s-17.167 -11.5 -28.5 -11.5s-20.833 3.83301 -28.5 11.5
s-11.5 17.167 -11.5 28.5zM747 496.998c0 11.333 3.83301 20.833 11.5 28.5s17.167 11.5 28.5 11.5s20.833 -3.83301 28.5 -11.5s11.5 -17.167 11.5 -28.5s-3.83301 -20.833 -11.5 -28.5s-17.167 -11.5 -28.5 -11.5s-20.833 3.83301 -28.5 11.5s-11.5 17.167 -11.5 28.5z
M693 590.998c0 11.333 3.83301 20.833 11.5 28.5s17.167 11.5 28.5 11.5s20.833 -3.83301 28.5 -11.5s11.5 -17.167 11.5 -28.5s-3.83301 -20.833 -11.5 -28.5s-17.167 -11.5 -28.5 -11.5s-20.833 3.83301 -28.5 11.5s-11.5 17.167 -11.5 28.5z" />
    <glyph glyph-name="vehini" unicode="&#x6a4;" horiz-adv-x="485" arabic-form="initial" 
d="M369 156c-18 -10.667 -36.332 -17.667 -54.999 -21s-40 -5 -64 -5c-64 0 -109 13.667 -135 41s-39 68.333 -39 123c0 54 14.667 94.667 44 122s78.666 41 147.999 41c26.667 0 53.667 -3.83301 81 -11.5s53.333 -16.167 78 -25.5v-260c0 -21.333 -2.66699 -41.5 -8 -60.5
s-15 -36 -29 -51s-32.833 -26.833 -56.5 -35.5s-53.834 -13 -90.501 -13h-263v54h255c19.333 0 37 1.5 53 4.5s30 8.5 42 16.5s21.333 18.5 28 31.5s10.334 29.5 11.001 49.5zM249.001 179c24 0 46.001 2.66797 66.001 8.00098s38 12.666 54 21.999v174
c-22 8.66699 -41.333 14.667 -58 18s-35 5 -55 5c-18.667 0 -35.834 -1.66699 -51.501 -5s-29 -9.33301 -40 -18s-19.5 -20.667 -25.5 -36s-9 -35 -9 -59c0 -22.667 3.16699 -41.167 9.5 -55.5s15 -25.5 26 -33.5s23.833 -13.333 38.5 -16s29.667 -4 45 -4zM175.002 566.001
c0 11.333 3.83301 20.833 11.5 28.5s17.167 11.5 28.5 11.5s20.833 -3.83301 28.5 -11.5s11.5 -17.167 11.5 -28.5s-3.83301 -20.833 -11.5 -28.5s-17.167 -11.5 -28.5 -11.5s-20.833 3.83301 -28.5 11.5s-11.5 17.167 -11.5 28.5zM283.002 566.001
c0 11.333 3.83301 20.833 11.5 28.5s17.167 11.5 28.5 11.5s20.833 -3.83301 28.5 -11.5s11.5 -17.167 11.5 -28.5s-3.83301 -20.833 -11.5 -28.5s-17.167 -11.5 -28.5 -11.5s-20.833 3.83301 -28.5 11.5s-11.5 17.167 -11.5 28.5zM229.002 660.001
c0 11.333 3.83301 20.833 11.5 28.5s17.167 11.5 28.5 11.5s20.833 -3.83301 28.5 -11.5s11.5 -17.167 11.5 -28.5s-3.83301 -20.833 -11.5 -28.5s-17.167 -11.5 -28.5 -11.5s-20.833 3.83301 -28.5 11.5s-11.5 17.167 -11.5 28.5z" />
    <glyph glyph-name="vehmedi" unicode="&#x6a4;" horiz-adv-x="492" arabic-form="medial" 
d="M374 211c0 38.667 -11.501 69.9971 -34.501 93.9971s-54.167 36 -93.5 36c-24.667 0 -45.334 -3.5 -62.001 -10.5s-30.167 -16.5 -40.5 -28.5s-18 -26 -23 -42s-7.5 -32.333 -7.5 -49c0 -17.333 4 -33.833 12 -49.5s18.333 -30 31 -43s26.834 -25 42.501 -36
s30.834 -21.167 45.501 -30.5l45 30c15.333 10.667 29.333 22.334 42 35.001s23 26.834 31 42.501s12 32.834 12 51.501zM-20.001 53.9971h167.997c-12 10 -25.167 22.5 -39.5 37.5s-26.666 33.333 -36.999 55s-15.5 45.167 -15.5 70.5c0 22.667 3.5 45.167 10.5 67.5
s18 42 33 59s34.5 30.333 58.5 40s53.667 14.5 89 14.5c56.667 0 101.5 -16.667 134.5 -50s49.5 -77 49.5 -131c0 -28.667 -5.16699 -53.167 -15.5 -73.5s-22.666 -37.833 -36.999 -52.5s-27.166 -27 -38.499 -37h168v-54h-528v54zM150.996 499.997
c0 11.333 3.83301 20.833 11.5 28.5s17.167 11.5 28.5 11.5s20.833 -3.83301 28.5 -11.5s11.5 -17.167 11.5 -28.5s-3.83301 -20.833 -11.5 -28.5s-17.167 -11.5 -28.5 -11.5s-20.833 3.83301 -28.5 11.5s-11.5 17.167 -11.5 28.5zM258.996 499.997
c0 11.333 3.83301 20.833 11.5 28.5s17.167 11.5 28.5 11.5s20.833 -3.83301 28.5 -11.5s11.5 -17.167 11.5 -28.5s-3.83301 -20.833 -11.5 -28.5s-17.167 -11.5 -28.5 -11.5s-20.833 3.83301 -28.5 11.5s-11.5 17.167 -11.5 28.5zM204.996 593.997
c0 11.333 3.83301 20.833 11.5 28.5s17.167 11.5 28.5 11.5s20.833 -3.83301 28.5 -11.5s11.5 -17.167 11.5 -28.5s-3.83301 -20.833 -11.5 -28.5s-17.167 -11.5 -28.5 -11.5s-20.833 3.83301 -28.5 11.5s-11.5 17.167 -11.5 28.5z" />
    <glyph glyph-name="gfina" unicode="&#x686;" horiz-adv-x="532" arabic-form="final" 
 />
    <glyph glyph-name="gini" unicode="&#x686;" horiz-adv-x="510" arabic-form="initial" 
 />
    <glyph glyph-name="gmedi" unicode="&#x686;" horiz-adv-x="472" arabic-form="medial" 
 />
    <glyph glyph-name="jehfina" unicode="&#x698;" horiz-adv-x="294" arabic-form="final" 
 />
    <glyph glyph-name="kehehfina" unicode="&#x6a9;" horiz-adv-x="698" arabic-form="final" 
 />
    <glyph glyph-name="kafini" unicode="&#x6a9;" horiz-adv-x="546" arabic-form="initial" 
d="M-20 0l-0.000976562 54.002h465v60c0 23.333 -2.33301 46.166 -7 68.499s-14.167 42 -28.5 59s-34.5 30.667 -60.5 41s-60.333 15.5 -103 15.5h-135c-11.333 0 -20.333 4.66699 -27 14c-8.66699 12 -16 23.667 -22 35l338 264
c9.33301 -9.33301 18.666 -19.333 27.999 -30c6 -6.66699 5.33301 -13 -2 -19l-282 -215h131c40.667 0 75.334 -5.5 104.001 -16.5s51.834 -27 69.501 -48s30.5 -46.333 38.5 -76s12 -62.834 12 -99.501v-87c0 -13.333 -6.33301 -20 -19 -20h-500z" />
    <glyph glyph-name="kafmedi" unicode="&#x6a9;" horiz-adv-x="621" arabic-form="medial" 
d="M500 96c7.33301 -8 16.499 -14.832 27.499 -20.499s24.333 -10.667 40 -15s34.5 -6.5 56.5 -6.5h9v-54h-9c-8 0 -17.167 0.5 -27.5 1.5s-21.333 3 -33 6s-23.334 7.16699 -35.001 12.5s-22.5 12.666 -32.5 21.999c-7.33301 -17.333 -17.333 -28.666 -30 -33.999
s-32 -8 -58 -8h-428v54h466v60c0 23.333 -2.33301 46.166 -7 68.499s-14 42 -28 59s-34 30.667 -60 41s-60.333 15.5 -103 15.5h-139c-10.667 0 -19 4.66699 -25 14c-6.66699 8.66699 -14 20.334 -22 35.001l339 264c8.66699 -8.66699 18 -18.667 28 -30
c6 -7.33301 5.33301 -14 -2 -20l-282 -214h131c40.667 0 75.334 -5.5 104.001 -16.5s51.834 -27 69.501 -48s30.5 -46.333 38.5 -76s12 -62.834 12 -99.501v-11z" />
    <glyph glyph-name="gaffina" unicode="&#x6af;" horiz-adv-x="708" arabic-form="final" 
 />
    <glyph glyph-name="gafini" unicode="&#x6af;" horiz-adv-x="431" arabic-form="initial" 
 />
    <glyph glyph-name="gafmedi" unicode="&#x6af;" horiz-adv-x="492" arabic-form="medial" 
 />
    <glyph glyph-name="kirsehini" unicode="&#x649;" horiz-adv-x="293" arabic-form="initial" 
d="M174 345c0 13.333 6.66699 20 20 20h37v-213c0 -101.333 -60.667 -152 -182 -152h-69v54h66c39.333 0 70.5 9.5 93.5 28.5s34.5 47.167 34.5 84.5v178z" />
    <glyph glyph-name="kirsehmedi" unicode="&#x649;" arabic-form="medial" 
d="M119 345c0 13.333 6.66504 20.001 19.998 20.001h37v-271c8 -7.33301 17.5 -13.833 28.5 -19.5s24.5 -10.5 40.5 -14.5s33.333 -6 52 -6h11v-54h-11c-8 0 -17.167 0.5 -27.5 1.5s-21.666 3.16699 -33.999 6.5s-24.5 8.16602 -36.5 14.499s-22.667 15.166 -32 26.499
c-21.333 -32.667 -59.666 -49 -114.999 -49h-72v54h45c34 0 58.167 8.33301 72.5 25s21.5 38.334 21.5 65.001v201z" />
    <glyph glyph-name="alefma2sourafina" unicode="&#x6cc;" horiz-adv-x="691" arabic-form="final" 
d="M435 -163c13.333 0 27.5029 1.33105 42.5029 3.99805s28.667 7.5 41 14.5s22.5 16.333 30.5 28s12 26.5 12 44.5c0 16 -4 30.667 -12 44s-18.5 25.333 -31.5 36s-28.333 20.334 -46 29.001s-35.834 16.334 -54.501 23.001c4.66699 14.667 9 29 13 43
c3.33301 12 11.666 15.333 24.999 10l28 -12l34.5 -16.5c11.667 -5.66699 24.5 -10.834 38.5 -15.501s29.667 -8.33398 47 -11.001s37.666 -4 60.999 -4h45v-54h-117c4.66699 -5.33301 8.66699 -11.5 12 -18.5s6.33301 -15.667 9 -26s4 -23.166 4 -38.499
c0 -11.333 -2.66699 -24.5 -8 -39.5s-15.166 -29.5 -29.499 -43.5s-34.333 -25.833 -60 -35.5s-58.834 -14.5 -99.501 -14.5h-93c-32.667 0 -65 2.33301 -97 7s-60.667 14.334 -86 29.001s-45.833 35.5 -61.5 62.5s-23.5 62.833 -23.5 107.5c0 32 3.5 63.667 10.5 95
s14.167 58.333 21.5 81c15.333 -2.66699 28 -5.33398 38 -8.00098c8.66699 -2 11.334 -8.66699 8.00098 -20c-4.66699 -18 -9.83398 -39.167 -15.501 -63.5s-8.5 -52.5 -8.5 -84.5c0 -39.333 8 -69.333 24 -90s35.833 -35.667 59.5 -45s49.5 -14.666 77.5 -15.999
s54 -2 78 -2h83z" />
    <glyph glyph-name="yaini" unicode="&#x6cc;" horiz-adv-x="293" arabic-form="initial" 
d="M29 -109c0 11.333 3.83301 20.833 11.5 28.5s17.167 11.5 28.5 11.5s20.833 -3.83301 28.5 -11.5s11.5 -17.167 11.5 -28.5s-3.83301 -20.833 -11.5 -28.5s-17.167 -11.5 -28.5 -11.5s-20.833 3.83301 -28.5 11.5s-11.5 17.167 -11.5 28.5zM137 -109
c0 11.333 3.83301 20.833 11.5 28.5s17.167 11.5 28.5 11.5s20.833 -3.83301 28.5 -11.5s11.5 -17.167 11.5 -28.5s-3.83301 -20.833 -11.5 -28.5s-17.167 -11.5 -28.5 -11.5s-20.833 3.83301 -28.5 11.5s-11.5 17.167 -11.5 28.5zM174 345c0 13.333 6.66699 20 20 20h38
v-213c0 -101.333 -60.667 -152 -182 -152h-70v54h66c39.333 0 70.5 9.5 93.5 28.5s34.5 47.167 34.5 84.5v178z" />
    <glyph glyph-name="yamedi" unicode="&#x6cc;" arabic-form="medial" 
d="M118 345c0 13.333 6.66504 20.0029 19.998 20.0029h38v-271c8 -7.33301 17.5 -13.833 28.5 -19.5s24.5 -10.5 40.5 -14.5s33.333 -6 52 -6h11v-54h-11c-8 0 -17.167 0.5 -27.5 1.5s-21.666 3.16699 -33.999 6.5s-24.5 8.16602 -36.5 14.499s-22.667 15.166 -32 26.499
c-21.333 -32.667 -59.666 -49 -114.999 -49h-72v54h45c34 0 58 6.66699 72 20s21 34.666 21 63.999v207zM50.998 -108.997c0 11.333 3.83301 20.833 11.5 28.5s17.167 11.5 28.5 11.5s20.833 -3.83301 28.5 -11.5s11.5 -17.167 11.5 -28.5s-3.83301 -20.833 -11.5 -28.5
s-17.167 -11.5 -28.5 -11.5s-20.833 3.83301 -28.5 11.5s-11.5 17.167 -11.5 28.5zM158.998 -108.997c0 11.333 3.83301 20.833 11.5 28.5s17.167 11.5 28.5 11.5s20.833 -3.83301 28.5 -11.5s11.5 -17.167 11.5 -28.5s-3.83301 -20.833 -11.5 -28.5
s-17.167 -11.5 -28.5 -11.5s-20.833 3.83301 -28.5 11.5s-11.5 17.167 -11.5 28.5z" />
    <glyph glyph-name="alefmaddaabovefina" unicode="&#x622;" horiz-adv-x="254" arabic-form="final" 
d="M158 745c19.333 0 37 -5.16504 53 -15.498s30.333 -22.833 43 -37.5c-4 -6 -8.33301 -11 -13 -15c-8 -6.66699 -16.333 -6.33398 -25 0.999023c-12 10 -22 17.333 -30 22s-16.667 7 -26 7c-12 0 -25.5 -6.33301 -40.5 -19s-34.5 -19 -58.5 -19
c-14 0 -28 3.83301 -42 11.5s-25.5 15.667 -34.5 24s-15.5 14.833 -19.5 19.5l14 14c6.66699 6.66699 15 5 25 -5c7.33301 -6.66699 16 -12.834 26 -18.501s20.667 -8.5 32 -8.5c13.333 0 25 4.66699 35 14s20.167 15.833 30.5 19.5s20.5 5.5 30.5 5.5zM66 608.002
l37.999 -0.000976562c13.333 0 20 -6.66699 20 -20v-422c0 -36.667 10.333 -64.5 31 -83.5s53.334 -28.5 98.001 -28.5h10v-54h-11c-36.667 0 -67 4.66699 -91 14s-43 22.5 -57 39.5s-23.833 37.833 -29.5 62.5s-8.5 52.334 -8.5 83.001v409z" />
    <glyph glyph-name="alefhamzaabovefina" unicode="&#x623;" horiz-adv-x="254" arabic-form="final" 
d="M6 663l-0.000976562 12.998c0 13.333 6.66699 20 20 20h14c-12.667 12.667 -19 28.334 -19 47.001c0 14 2.66699 25.667 8 35s12.333 17 21 23s18.5 10.333 29.5 13s22.5 4 34.5 4c14 0 27 -1 39 -3s20.667 -3.66699 26 -5
c-0.666992 -7.33301 -1.66699 -14.666 -3 -21.999c-2 -7.33301 -6.66699 -10.333 -14 -9c-4 0.666992 -9.33301 1.5 -16 2.5s-17 1.5 -31 1.5c-25.333 0 -41.666 -4 -48.999 -12s-11 -17.667 -11 -29c0 -8.66699 1.83301 -16 5.5 -22s8.5 -10.667 14.5 -14
s12.5 -5.83301 19.5 -7.5s13.833 -2.5 20.5 -2.5h40c13.333 0 20 -6.66699 20 -20v-13h-169zM65.999 607.998l37.999 -0.000976562c13.333 0 20 -6.66699 20 -20v-422c0 -36.667 10.333 -64.5 31 -83.5s53.334 -28.5 98.001 -28.5h10v-54h-11c-36.667 0 -67 4.66699 -91 14
s-43 22.5 -57 39.5s-23.833 37.833 -29.5 62.5s-8.5 52.334 -8.5 83.001v409z" />
    <glyph glyph-name="wawhamzafina" unicode="&#x624;" horiz-adv-x="483" arabic-form="final" 
d="M493 0l-82.001 0.00195312v-9c0 -43.333 -4 -79 -12 -107s-19.833 -50.333 -35.5 -67s-35.5 -28.167 -59.5 -34.5s-51.333 -9.5 -82 -9.5c-12 0 -26 1 -42 3s-32.667 5.33301 -50 10c-13.333 3.33301 -18.666 12 -15.999 26c2 10.667 4.66699 21 8 31
c13.333 -5.33301 28.333 -9.5 45 -12.5s34.334 -4.5 53.001 -4.5c33.333 0 59 4.83301 77 14.5s31.167 22.334 39.5 38.001s13.166 33.167 14.499 52.5s2 38.666 2 57.999v11h-105c-17.333 0 -36.833 2.16699 -58.5 6.5s-41.5 12.5 -59.5 24.5s-33.5 30.667 -46.5 56
s-19.5 58 -19.5 98c0 33.333 5.33301 63.333 16 90s25 47.667 43 63s40.333 27.166 67 35.499s53 12.5 79 12.5c25.333 0 50 -2.33301 74 -7s46.667 -10.334 68 -17.001v-308h82v-54zM352.999 317.002c-30 7.33301 -56.332 10.999 -78.999 10.999
c-18.667 0.666992 -37.167 -1 -55.5 -5s-34.833 -11.167 -49.5 -21.5s-26.334 -24.666 -35.001 -42.999s-13 -43.833 -13 -76.5c0 -42 11.333 -73.833 34 -95.5s52 -32.5 88 -32.5h110v263zM160 452.001l-0.000976562 12.998c0 13.333 6.66699 20 20 20h14
c-12.667 12.667 -19 28.334 -19 47.001c0 14 2.66699 25.667 8 35s12.333 17 21 23s18.5 10.333 29.5 13s22.5 4 34.5 4c14 0 27 -1 39 -3s20.667 -3.66699 26 -5c-0.666992 -7.33301 -1.66699 -14.666 -3 -21.999c-2 -7.33301 -6.66699 -10.333 -14 -9
c-4 0.666992 -9.33301 1.5 -16 2.5s-17 1.5 -31 1.5c-25.333 0 -41.666 -4 -48.999 -12s-11 -17.667 -11 -29c0 -8.66699 1.83301 -16 5.5 -22s8.5 -10.667 14.5 -14s12.5 -5.83301 19.5 -7.5s13.833 -2.5 20.5 -2.5h40c13.333 0 20 -6.66699 20 -20v-13h-169z" />
    <glyph glyph-name="alefhamzabelowfina" unicode="&#x625;" horiz-adv-x="254" arabic-form="final" 
d="M66 608l37.999 -0.000976562c13.333 0 20 -6.66699 20 -20v-422c0 -36.667 10.333 -64.5 31 -83.5s53.334 -28.5 98.001 -28.5h10v-54h-11c-36.667 0 -67 4.66699 -91 14s-43 22.5 -57 39.5s-23.833 37.833 -29.5 62.5s-8.5 52.334 -8.5 83.001v409zM68.999 -213.001
l-0.000976562 12.998c0 13.333 6.66699 20 20 20h14c-12.667 12.667 -19 28.334 -19 47.001c0 14 2.66699 25.667 8 35s12.333 17 21 23s18.5 10.333 29.5 13s22.5 4 34.5 4c14 0 27 -1 39 -3s20.667 -3.66699 26 -5c-0.666992 -7.33301 -1.66699 -14.666 -3 -21.999
c-2 -7.33301 -6.66699 -10.333 -14 -9c-4 0.666992 -9.33301 1.5 -16 2.5s-17 1.5 -31 1.5c-25.333 0 -41.666 -4 -48.999 -12s-11 -17.667 -11 -29c0 -8.66699 1.83301 -16 5.5 -22s8.5 -10.667 14.5 -14s12.5 -5.83301 19.5 -7.5s13.833 -2.5 20.5 -2.5h40
c13.333 0 20 -6.66699 20 -20v-13h-169z" />
    <glyph glyph-name="hamzakirsehfina" unicode="&#x626;" horiz-adv-x="691" arabic-form="final" 
d="M435 -163c13.333 0 27.5029 1.33105 42.5029 3.99805s28.667 7.5 41 14.5s22.5 16.333 30.5 28s12 26.5 12 44.5c0 16 -4 30.667 -12 44s-18.5 25.333 -31.5 36s-28.333 20.334 -46 29.001s-35.834 16.334 -54.501 23.001c4.66699 14.667 9 29 13 43
c3.33301 12 11.666 15.333 24.999 10l28 -12l34.5 -16.5c11.667 -5.66699 24.5 -10.834 38.5 -15.501s29.667 -8.33398 47 -11.001s37.666 -4 60.999 -4h45v-54h-117c4.66699 -5.33301 8.66699 -11.5 12 -18.5s6.33301 -15.667 9 -26s4 -23.166 4 -38.499
c0 -11.333 -2.66699 -24.5 -8 -39.5s-15.166 -29.5 -29.499 -43.5s-34.333 -25.833 -60 -35.5s-58.834 -14.5 -99.501 -14.5h-93c-32.667 0 -65 2.33301 -97 7s-60.667 14.334 -86 29.001s-45.833 35.5 -61.5 62.5s-23.5 62.833 -23.5 107.5c0 32 3.5 63.667 10.5 95
s14.167 58.333 21.5 81c15.333 -2.66699 28 -5.33398 38 -8.00098c8.66699 -2 11.334 -8.66699 8.00098 -20c-4.66699 -18 -9.83398 -39.167 -15.501 -63.5s-8.5 -52.5 -8.5 -84.5c0 -39.333 8 -69.333 24 -90s35.833 -35.667 59.5 -45s49.5 -14.666 77.5 -15.999
s54 -2 78 -2h83zM70.0029 223.998l-0.000976562 12.998c0 13.333 6.66699 20 20 20h14c-12.667 12.667 -19 28.334 -19 47.001c0 14 2.66699 25.667 8 35s12.333 17 21 23s18.5 10.333 29.5 13s22.5 4 34.5 4c14 0 27 -1 39 -3s20.667 -3.66699 26 -5
c-0.666992 -7.33301 -1.66699 -14.666 -3 -21.999c-2 -7.33301 -6.66699 -10.333 -14 -9c-4 0.666992 -9.33301 1.5 -16 2.5s-17 1.5 -31 1.5c-25.333 0 -41.666 -4 -48.999 -12s-11 -17.667 -11 -29c0 -8.66699 1.83301 -16 5.5 -22s8.5 -10.667 14.5 -14
s12.5 -5.83301 19.5 -7.5s13.833 -2.5 20.5 -2.5h40c13.333 0 20 -6.66699 20 -20v-13h-169z" />
    <glyph glyph-name="hamzakirsehini" unicode="&#x626;" horiz-adv-x="293" arabic-form="initial" 
d="M174 345c0 13.333 6.66699 20 20 20h38v-213c0 -101.333 -60.667 -152 -182 -152h-70v54h66c39.333 0 70.5 9.5 93.5 28.5s34.5 47.167 34.5 84.5v178zM108 443l-0.000976562 12.998c0 13.333 6.66699 20 20 20h14c-12.667 12.667 -19 28.334 -19 47.001
c0 14 2.66699 25.667 8 35s12.333 17 21 23s18.5 10.333 29.5 13s22.5 4 34.5 4c14 0 27 -1 39 -3s20.667 -3.66699 26 -5c-0.666992 -7.33301 -1.66699 -14.666 -3 -21.999c-2 -7.33301 -6.66699 -10.333 -14 -9c-4 0.666992 -9.33301 1.5 -16 2.5s-17 1.5 -31 1.5
c-25.333 0 -41.666 -4 -48.999 -12s-11 -17.667 -11 -29c0 -8.66699 1.83301 -16 5.5 -22s8.5 -10.667 14.5 -14s12.5 -5.83301 19.5 -7.5s13.833 -2.5 20.5 -2.5h40c13.333 0 20 -6.66699 20 -20v-13h-169z" />
    <glyph glyph-name="hamzakirsehmedi" unicode="&#x626;" arabic-form="medial" 
d="M118 345c0 13.333 6.66504 20.0029 19.998 20.0029h38v-271c8 -7.33301 17.5 -13.833 28.5 -19.5s24.5 -10.5 40.5 -14.5s33.333 -6 52 -6h11v-54h-11c-8 0 -17.167 0.5 -27.5 1.5s-21.666 3.16699 -33.999 6.5s-24.5 8.16602 -36.5 14.499s-22.667 15.166 -32 26.499
c-21.333 -32.667 -59.666 -49 -114.999 -49h-72v54h45c34 0 58 6.66699 72 20s21 34.666 21 63.999v207zM56.998 442.003l-0.000976562 12.998c0 13.333 6.66699 20 20 20h14c-12.667 12.667 -19 28.334 -19 47.001c0 14 2.66699 25.667 8 35s12.333 17 21 23
s18.5 10.333 29.5 13s22.5 4 34.5 4c14 0 27 -1 39 -3s20.667 -3.66699 26 -5c-0.666992 -7.33301 -1.66699 -14.666 -3 -21.999c-2 -7.33301 -6.66699 -10.333 -14 -9c-4 0.666992 -9.33301 1.5 -16 2.5s-17 1.5 -31 1.5c-25.333 0 -41.666 -4 -48.999 -12
s-11 -17.667 -11 -29c0 -8.66699 1.83301 -16 5.5 -22s8.5 -10.667 14.5 -14s12.5 -5.83301 19.5 -7.5s13.833 -2.5 20.5 -2.5h40c13.333 0 20 -6.66699 20 -20v-13h-169z" />
    <glyph glyph-name="aleffina" unicode="&#x627;" horiz-adv-x="254" arabic-form="final" 
d="M66 608l37.999 -0.000976562c13.333 0 20 -6.66699 20 -20v-422c0 -36.667 10.333 -64.5 31 -83.5s53.334 -28.5 98.001 -28.5h10v-54h-11c-36.667 0 -67 4.66699 -91 14s-43 22.5 -57 39.5s-23.833 37.833 -29.5 62.5s-8.5 52.334 -8.5 83.001v409z" />
    <glyph glyph-name="behfina" unicode="&#x628;" horiz-adv-x="823" arabic-form="final" 
d="M641 345c0 13.333 6.66699 19.999 20 19.999h38v-270c8 -8 17.5 -14.833 28.5 -20.5s24.333 -10.5 40 -14.5s34.167 -6 55.5 -6h9v-54h-9c-8 0 -18 0.5 -30 1.5s-24.5 3.33301 -37.5 7s-25.833 8.66699 -38.5 15s-23.667 15.166 -33 26.499
c-9.33301 -16 -22.666 -28.333 -39.999 -37s-40.333 -13 -69 -13h-332c-38 0 -70.167 5 -96.5 15s-47.833 23.167 -64.5 39.5s-29 35.5 -37 57.5s-12 45 -12 69c0 30.667 2.33301 56.167 7 76.5s9 34.5 13 42.5l40 -11c8 -2.66699 10.333 -10 7 -22
c-4 -15.333 -6.83301 -28.333 -8.5 -39s-2.5 -23.667 -2.5 -39c0 -26 5.33301 -47.667 16 -65s24.667 -31.166 42 -41.499s37.166 -17.666 59.499 -21.999s45.5 -6.5 69.5 -6.5h280c34 0 56.667 8 68 24s17 37.667 17 65v202zM330 -117.001
c0 11.333 3.83301 20.833 11.5 28.5s17.167 11.5 28.5 11.5s20.833 -3.83301 28.5 -11.5s11.5 -17.167 11.5 -28.5s-3.83301 -20.833 -11.5 -28.5s-17.167 -11.5 -28.5 -11.5s-20.833 3.83301 -28.5 11.5s-11.5 17.167 -11.5 28.5z" />
    <glyph glyph-name="behini" unicode="&#x628;" horiz-adv-x="293" arabic-form="initial" 
d="M174 345c0 13.333 6.66699 20 20 20h38v-213c0 -101.333 -60.667 -152 -182 -152h-70v54h66c39.333 0 70.5 9.5 93.5 28.5s34.5 47.167 34.5 84.5v178zM104 -117c0 11.333 3.83301 20.833 11.5 28.5s17.167 11.5 28.5 11.5s20.833 -3.83301 28.5 -11.5
s11.5 -17.167 11.5 -28.5s-3.83301 -20.833 -11.5 -28.5s-17.167 -11.5 -28.5 -11.5s-20.833 3.83301 -28.5 11.5s-11.5 17.167 -11.5 28.5z" />
    <glyph glyph-name="behmedi" unicode="&#x628;" arabic-form="medial" 
d="M118 345c0 13.333 6.66504 20.0029 19.998 20.0029h38v-271c8 -7.33301 17.5 -13.833 28.5 -19.5s24.5 -10.5 40.5 -14.5s33.333 -6 52 -6h11v-54h-11c-8 0 -17.167 0.5 -27.5 1.5s-21.666 3.16699 -33.999 6.5s-24.5 8.16602 -36.5 14.499s-22.667 15.166 -32 26.499
c-21.333 -32.667 -59.666 -49 -114.999 -49h-72v54h45c34 0 58 6.66699 72 20s21 34.666 21 63.999v207zM92.998 -116.997c0 11.333 3.83301 20.833 11.5 28.5s17.167 11.5 28.5 11.5s20.833 -3.83301 28.5 -11.5s11.5 -17.167 11.5 -28.5s-3.83301 -20.833 -11.5 -28.5
s-17.167 -11.5 -28.5 -11.5s-20.833 3.83301 -28.5 11.5s-11.5 17.167 -11.5 28.5z" />
    <glyph glyph-name="tehmarboutafina" unicode="&#x629;" horiz-adv-x="476" arabic-form="final" 
d="M136 492c0 11.333 3.83301 20.833 11.5 28.5s17.167 11.5 28.5 11.5s20.833 -3.83301 28.5 -11.5s11.5 -17.167 11.5 -28.5s-3.83301 -20.833 -11.5 -28.5s-17.167 -11.5 -28.5 -11.5s-20.833 3.83301 -28.5 11.5s-11.5 17.167 -11.5 28.5zM244 492
c0 11.333 3.83301 20.833 11.5 28.5s17.167 11.5 28.5 11.5s20.833 -3.83301 28.5 -11.5s11.5 -17.167 11.5 -28.5s-3.83301 -20.833 -11.5 -28.5s-17.167 -11.5 -28.5 -11.5s-20.833 3.83301 -28.5 11.5s-11.5 17.167 -11.5 28.5zM486 54l0.000976562 -54.0029h-41
c-9.33301 0 -18.833 1.66699 -28.5 5s-18 8 -25 14s-12.667 12.167 -17 18.5s-7.5 11.833 -9.5 16.5c-4.66699 -4.66699 -11 -10.5 -19 -17.5s-17.667 -13.667 -29 -20s-24.666 -11.833 -39.999 -16.5s-32.666 -7 -51.999 -7c-22.667 0 -44.334 2.66699 -65.001 8
s-39.334 15.5 -56.001 30.5s-30.167 36.333 -40.5 64s-15.5 63.834 -15.5 108.501c0 26.667 3 51.834 9 75.501s16 44.334 30 62.001s32.5 31.834 55.5 42.501s52.5 16 88.5 16c20 0 39.333 -1 58 -3s36 -4.5 52 -7.5s38 -7.83301 66 -14.5v-267
c0 -18.667 5.66699 -32.334 17 -41.001s24.666 -13 39.999 -13h22zM349.001 329.997c-21.333 6 -41.499 9.83203 -60.499 11.499s-35.167 2.5 -48.5 2.5c-19.333 0 -36.833 -1.66699 -52.5 -5s-29.5 -10.166 -41.5 -20.499s-21.667 -24.833 -29 -43.5s-11 -43 -11 -73
c0 -56 10.833 -95.833 32.5 -119.5s53.167 -35.5 94.5 -35.5c20 0 37.333 3.5 52 10.5s27.167 14.5 37.5 22.5s19.166 17.333 26.499 28v222z" />
    <glyph glyph-name="tafina" unicode="&#x62a;" horiz-adv-x="823" arabic-form="final" 
d="M641 345c0 13.333 6.66699 19.999 20 19.999h38v-270c8 -8 17.5 -14.833 28.5 -20.5s24.333 -10.5 40 -14.5s34.167 -6 55.5 -6h9v-54h-9c-8 0 -18 0.5 -30 1.5s-24.5 3.33301 -37.5 7s-25.833 8.66699 -38.5 15s-23.667 15.166 -33 26.499
c-9.33301 -16 -22.666 -28.333 -39.999 -37s-40.333 -13 -69 -13h-332c-38 0 -70.167 5 -96.5 15s-47.833 23.167 -64.5 39.5s-29 35.5 -37 57.5s-12 45 -12 69c0 30.667 2.33301 56.167 7 76.5s9 34.5 13 42.5l40 -11c8 -2.66699 10.333 -10 7 -22
c-4 -15.333 -6.83301 -28.333 -8.5 -39s-2.5 -23.667 -2.5 -39c0 -26 5.33301 -47.667 16 -65s24.667 -31.166 42 -41.499s37.166 -17.666 59.499 -21.999s45.5 -6.5 69.5 -6.5h280c34 0 56.667 8 68 24s17 37.667 17 65v202zM266 443.999
c0 11.333 3.83301 20.833 11.5 28.5s17.167 11.5 28.5 11.5s20.833 -3.83301 28.5 -11.5s11.5 -17.167 11.5 -28.5s-3.83301 -20.833 -11.5 -28.5s-17.167 -11.5 -28.5 -11.5s-20.833 3.83301 -28.5 11.5s-11.5 17.167 -11.5 28.5zM374 443.999
c0 11.333 3.83301 20.833 11.5 28.5s17.167 11.5 28.5 11.5s20.833 -3.83301 28.5 -11.5s11.5 -17.167 11.5 -28.5s-3.83301 -20.833 -11.5 -28.5s-17.167 -11.5 -28.5 -11.5s-20.833 3.83301 -28.5 11.5s-11.5 17.167 -11.5 28.5z" />
    <glyph glyph-name="taini" unicode="&#x62a;" horiz-adv-x="293" arabic-form="initial" 
d="M174 345c0 13.333 6.66699 20 20 20h38v-213c0 -101.333 -60.667 -152 -182 -152h-70v54h66c39.333 0 70.5 9.5 93.5 28.5s34.5 47.167 34.5 84.5v178zM100 496c0 11.333 3.83301 20.833 11.5 28.5s17.167 11.5 28.5 11.5s20.833 -3.83301 28.5 -11.5
s11.5 -17.167 11.5 -28.5s-3.83301 -20.833 -11.5 -28.5s-17.167 -11.5 -28.5 -11.5s-20.833 3.83301 -28.5 11.5s-11.5 17.167 -11.5 28.5zM208 496c0 11.333 3.83301 20.833 11.5 28.5s17.167 11.5 28.5 11.5s20.833 -3.83301 28.5 -11.5s11.5 -17.167 11.5 -28.5
s-3.83301 -20.833 -11.5 -28.5s-17.167 -11.5 -28.5 -11.5s-20.833 3.83301 -28.5 11.5s-11.5 17.167 -11.5 28.5z" />
    <glyph glyph-name="tamedi" unicode="&#x62a;" arabic-form="medial" 
d="M118 345c0 13.333 6.66504 20.0029 19.998 20.0029h38v-271c8 -7.33301 17.5 -13.833 28.5 -19.5s24.5 -10.5 40.5 -14.5s33.333 -6 52 -6h11v-54h-11c-8 0 -17.167 0.5 -27.5 1.5s-21.666 3.16699 -33.999 6.5s-24.5 8.16602 -36.5 14.499s-22.667 15.166 -32 26.499
c-21.333 -32.667 -59.666 -49 -114.999 -49h-72v54h45c34 0 58 6.66699 72 20s21 34.666 21 63.999v207zM50.998 495.003c0 11.333 3.83301 20.833 11.5 28.5s17.167 11.5 28.5 11.5s20.833 -3.83301 28.5 -11.5s11.5 -17.167 11.5 -28.5s-3.83301 -20.833 -11.5 -28.5
s-17.167 -11.5 -28.5 -11.5s-20.833 3.83301 -28.5 11.5s-11.5 17.167 -11.5 28.5zM158.998 495.003c0 11.333 3.83301 20.833 11.5 28.5s17.167 11.5 28.5 11.5s20.833 -3.83301 28.5 -11.5s11.5 -17.167 11.5 -28.5s-3.83301 -20.833 -11.5 -28.5
s-17.167 -11.5 -28.5 -11.5s-20.833 3.83301 -28.5 11.5s-11.5 17.167 -11.5 28.5z" />
    <glyph glyph-name="thafina" unicode="&#x62b;" horiz-adv-x="823" arabic-form="final" 
d="M274 442c0 11.333 3.83301 20.833 11.5 28.5s17.167 11.5 28.5 11.5s20.833 -3.83301 28.5 -11.5s11.5 -17.167 11.5 -28.5s-3.83301 -20.833 -11.5 -28.5s-17.167 -11.5 -28.5 -11.5s-20.833 3.83301 -28.5 11.5s-11.5 17.167 -11.5 28.5zM382 442
c0 11.333 3.83301 20.833 11.5 28.5s17.167 11.5 28.5 11.5s20.833 -3.83301 28.5 -11.5s11.5 -17.167 11.5 -28.5s-3.83301 -20.833 -11.5 -28.5s-17.167 -11.5 -28.5 -11.5s-20.833 3.83301 -28.5 11.5s-11.5 17.167 -11.5 28.5zM328 536
c0 11.333 3.83301 20.833 11.5 28.5s17.167 11.5 28.5 11.5s20.833 -3.83301 28.5 -11.5s11.5 -17.167 11.5 -28.5s-3.83301 -20.833 -11.5 -28.5s-17.167 -11.5 -28.5 -11.5s-20.833 3.83301 -28.5 11.5s-11.5 17.167 -11.5 28.5zM641 345
c0 13.333 6.66699 19.999 20 19.999h38v-270c8 -8 17.5 -14.833 28.5 -20.5s24.333 -10.5 40 -14.5s34.167 -6 55.5 -6h9v-54h-9c-8 0 -18 0.5 -30 1.5s-24.5 3.33301 -37.5 7s-25.833 8.66699 -38.5 15s-23.667 15.166 -33 26.499
c-9.33301 -16 -22.666 -28.333 -39.999 -37s-40.333 -13 -69 -13h-332c-38 0 -70.167 5 -96.5 15s-47.833 23.167 -64.5 39.5s-29 35.5 -37 57.5s-12 45 -12 69c0 30.667 2.33301 56.167 7 76.5s9 34.5 13 42.5l40 -11c8 -2.66699 10.333 -10 7 -22
c-4 -15.333 -6.83301 -28.333 -8.5 -39s-2.5 -23.667 -2.5 -39c0 -26 5.33301 -47.667 16 -65s24.667 -31.166 42 -41.499s37.166 -17.666 59.499 -21.999s45.5 -6.5 69.5 -6.5h280c34 0 56.667 8 68 24s17 37.667 17 65v202z" />
    <glyph glyph-name="thaini" unicode="&#x62b;" horiz-adv-x="293" arabic-form="initial" 
d="M174 345c0 13.333 6.66699 20 20 20h38v-213c0 -101.333 -60.667 -152 -182 -152h-70v54h66c39.333 0 70.5 9.5 93.5 28.5s34.5 47.167 34.5 84.5v178zM100 486c0 11.333 3.83301 20.833 11.5 28.5s17.167 11.5 28.5 11.5s20.833 -3.83301 28.5 -11.5
s11.5 -17.167 11.5 -28.5s-3.83301 -20.833 -11.5 -28.5s-17.167 -11.5 -28.5 -11.5s-20.833 3.83301 -28.5 11.5s-11.5 17.167 -11.5 28.5zM208 486c0 11.333 3.83301 20.833 11.5 28.5s17.167 11.5 28.5 11.5s20.833 -3.83301 28.5 -11.5s11.5 -17.167 11.5 -28.5
s-3.83301 -20.833 -11.5 -28.5s-17.167 -11.5 -28.5 -11.5s-20.833 3.83301 -28.5 11.5s-11.5 17.167 -11.5 28.5zM154 580c0 11.333 3.83301 20.833 11.5 28.5s17.167 11.5 28.5 11.5s20.833 -3.83301 28.5 -11.5s11.5 -17.167 11.5 -28.5s-3.83301 -20.833 -11.5 -28.5
s-17.167 -11.5 -28.5 -11.5s-20.833 3.83301 -28.5 11.5s-11.5 17.167 -11.5 28.5z" />
    <glyph glyph-name="thamedi" unicode="&#x62b;" arabic-form="medial" 
d="M118 345c0 13.333 6.66504 20.0029 19.998 20.0029h38v-271c8 -7.33301 17.5 -13.833 28.5 -19.5s24.5 -10.5 40.5 -14.5s33.333 -6 52 -6h11v-54h-11c-8 0 -17.167 0.5 -27.5 1.5s-21.666 3.16699 -33.999 6.5s-24.5 8.16602 -36.5 14.499s-22.667 15.166 -32 26.499
c-21.333 -32.667 -59.666 -49 -114.999 -49h-72v54h45c34 0 58 6.66699 72 20s21 34.666 21 63.999v207zM50.998 486.003c0 11.333 3.83301 20.833 11.5 28.5s17.167 11.5 28.5 11.5s20.833 -3.83301 28.5 -11.5s11.5 -17.167 11.5 -28.5s-3.83301 -20.833 -11.5 -28.5
s-17.167 -11.5 -28.5 -11.5s-20.833 3.83301 -28.5 11.5s-11.5 17.167 -11.5 28.5zM158.998 486.003c0 11.333 3.83301 20.833 11.5 28.5s17.167 11.5 28.5 11.5s20.833 -3.83301 28.5 -11.5s11.5 -17.167 11.5 -28.5s-3.83301 -20.833 -11.5 -28.5
s-17.167 -11.5 -28.5 -11.5s-20.833 3.83301 -28.5 11.5s-11.5 17.167 -11.5 28.5zM104.998 580.003c0 11.333 3.83301 20.833 11.5 28.5s17.167 11.5 28.5 11.5s20.833 -3.83301 28.5 -11.5s11.5 -17.167 11.5 -28.5s-3.83301 -20.833 -11.5 -28.5
s-17.167 -11.5 -28.5 -11.5s-20.833 3.83301 -28.5 11.5s-11.5 17.167 -11.5 28.5z" />
    <glyph glyph-name="jeemfina" unicode="&#x62c;" horiz-adv-x="675" arabic-form="final" 
d="M302 -135c0 11.333 3.83301 20.833 11.5 28.5s17.167 11.5 28.5 11.5s20.833 -3.83301 28.5 -11.5s11.5 -17.167 11.5 -28.5s-3.83301 -20.833 -11.5 -28.5s-17.167 -11.5 -28.5 -11.5s-20.833 3.83301 -28.5 11.5s-11.5 17.167 -11.5 28.5zM502 54l0.00390625 101.006
c0 28 -0.833008 52.667 -2.5 74s-7.66699 39.5 -18 54.5s-26.5 26.333 -48.5 34s-53 11.5 -93 11.5c-30.667 0 -60.667 -1.83301 -90 -5.5s-54 -8.16699 -74 -13.5c-11.333 -3.33301 -18.333 1 -21 13l-9 36c23.333 6 45.333 10.833 66 14.5s42.667 6.5 66 8.5
s44.666 3 63.999 3c39.333 0 72.666 -3.83301 99.999 -11.5s49.666 -20 66.999 -37s29.833 -38.667 37.5 -65s11.5 -58.166 11.5 -95.499v-81c6.66699 -8 15.167 -14.833 25.5 -20.5s22.833 -10.5 37.5 -14.5s32.667 -6 54 -6h8v-54h-8c-19.333 0 -40.333 2.5 -63 7.5
s-42.334 16.167 -59.001 33.5c-3.33301 -16 -11.166 -26.833 -23.499 -32.5s-28.833 -8.5 -49.5 -8.5h-253c-18 0 -34.833 -1.33301 -50.5 -4s-29.334 -7.83398 -41.001 -15.501s-20.834 -18.334 -27.501 -32.001s-10 -31.834 -10 -54.501c0 -23.333 7 -45 21 -65
s30.333 -38 49 -54s37 -29.333 55 -40s29.667 -17.334 35 -20.001c8.66699 -4 10.667 -10.333 6 -19c-6 -10.667 -12.333 -21.334 -19 -32.001c-37.333 18 -66.666 35.5 -87.999 52.5s-38 31.667 -50 44s-22.5 25.666 -31.5 39.999s-16.333 29.666 -22 45.999
s-8.5 33.5 -8.5 51.5c0 36 6.16699 64.333 18.5 85s27.5 36.167 45.5 46.5s36.833 17 56.5 20s36.5 4.5 50.5 4.5h286z" />
    <glyph glyph-name="jeemini" unicode="&#x62c;" horiz-adv-x="523" arabic-form="initial" 
d="M482 79c0 -26 -5.66602 -45.668 -16.999 -59.001s-30.666 -20 -57.999 -20h-427v54h446v101c0 28 -0.833008 52.667 -2.5 74s-7.66699 39.5 -18 54.5s-26.5 26.333 -48.5 34s-53 11.5 -93 11.5c-33.333 0 -63.5 -1.66699 -90.5 -5s-51.5 -8 -73.5 -14
c-11.333 -3.33301 -18.333 1 -21 13l-9 35c23.333 6.66699 45.5 12 66.5 16s43 6.83301 66 8.5s44.167 2.5 63.5 2.5c39.333 0 72.666 -3.83301 99.999 -11.5s49.666 -20 66.999 -37s29.833 -38.667 37.5 -65s11.5 -58.166 11.5 -95.499v-97zM225.001 -117.001
c0 11.333 3.83301 20.833 11.5 28.5s17.167 11.5 28.5 11.5s20.833 -3.83301 28.5 -11.5s11.5 -17.167 11.5 -28.5s-3.83301 -20.833 -11.5 -28.5s-17.167 -11.5 -28.5 -11.5s-20.833 3.83301 -28.5 11.5s-11.5 17.167 -11.5 28.5z" />
    <glyph glyph-name="jeemmedi" unicode="&#x62c;" horiz-adv-x="610" arabic-form="medial" 
d="M488 41c-5.33301 -15.333 -13.665 -26.001 -24.998 -32.001s-27.333 -9 -48 -9h-435v54h457v101c0 28 -0.833008 52.667 -2.5 74s-7.66699 39.5 -18 54.5s-26.5 26.333 -48.5 34s-53 11.5 -93 11.5c-31.333 0 -61.166 -1.66699 -89.499 -5s-52.833 -8 -73.5 -14
c-12 -3.33301 -19.333 1 -22 13l-9 35c23.333 6.66699 45.5 12 66.5 16s43 6.83301 66 8.5s44.167 2.5 63.5 2.5c39.333 0 72.666 -3.83301 99.999 -11.5s49.666 -20 66.999 -37s29.833 -38.667 37.5 -65s11.5 -58.166 11.5 -95.499v-81c8.66699 -8 19 -15 31 -21
c10.667 -5.33301 23.667 -10 39 -14s33.666 -6 54.999 -6h8v-54h-8c-9.33301 0 -19.833 0.5 -31.5 1.5s-23.5 3 -35.5 6s-23.5 7.16699 -34.5 12.5s-20.5 12.333 -28.5 21zM245.001 -117.001c0 11.333 3.83301 20.833 11.5 28.5s17.167 11.5 28.5 11.5
s20.833 -3.83301 28.5 -11.5s11.5 -17.167 11.5 -28.5s-3.83301 -20.833 -11.5 -28.5s-17.167 -11.5 -28.5 -11.5s-20.833 3.83301 -28.5 11.5s-11.5 17.167 -11.5 28.5z" />
    <glyph glyph-name="haafina" unicode="&#x62d;" horiz-adv-x="675" arabic-form="final" 
d="M502 54l0.00390625 101.006c0 28 -0.833008 52.667 -2.5 74s-7.66699 39.5 -18 54.5s-26.5 26.333 -48.5 34s-53 11.5 -93 11.5c-30.667 0 -60.667 -1.83301 -90 -5.5s-54 -8.16699 -74 -13.5c-11.333 -3.33301 -18.333 1 -21 13l-9 36c23.333 6 45.333 10.833 66 14.5
s42.667 6.5 66 8.5s44.666 3 63.999 3c39.333 0 72.666 -3.83301 99.999 -11.5s49.666 -20 66.999 -37s29.833 -38.667 37.5 -65s11.5 -58.166 11.5 -95.499v-81c6.66699 -8 15.167 -14.833 25.5 -20.5s22.833 -10.5 37.5 -14.5s32.667 -6 54 -6h8v-54h-8
c-19.333 0 -40.333 2.5 -63 7.5s-42.334 16.167 -59.001 33.5c-3.33301 -16 -11.166 -26.833 -23.499 -32.5s-28.833 -8.5 -49.5 -8.5h-253c-18 0 -34.833 -1.33301 -50.5 -4s-29.334 -7.83398 -41.001 -15.501s-20.834 -18.334 -27.501 -32.001s-10 -31.834 -10 -54.501
c0 -23.333 7 -45 21 -65s30.333 -38 49 -54s37 -29.333 55 -40s29.667 -17.334 35 -20.001c8.66699 -4 10.667 -10.333 6 -19c-6 -10.667 -12.333 -21.334 -19 -32.001c-37.333 18 -66.666 35.5 -87.999 52.5s-38 31.667 -50 44s-22.5 25.666 -31.5 39.999
s-16.333 29.666 -22 45.999s-8.5 33.5 -8.5 51.5c0 36 6.16699 64.333 18.5 85s27.5 36.167 45.5 46.5s36.833 17 56.5 20s36.5 4.5 50.5 4.5h286z" />
    <glyph glyph-name="haaini" unicode="&#x62d;" horiz-adv-x="523" arabic-form="initial" 
d="M482 79c0 -26 -5.66602 -45.668 -16.999 -59.001s-30.666 -20 -57.999 -20h-427v54h446v101c0 28 -0.833008 52.667 -2.5 74s-7.66699 39.5 -18 54.5s-26.5 26.333 -48.5 34s-53 11.5 -93 11.5c-33.333 0 -63.5 -1.66699 -90.5 -5s-51.5 -8 -73.5 -14
c-11.333 -3.33301 -18.333 1 -21 13l-9 35c23.333 6.66699 45.5 12 66.5 16s43 6.83301 66 8.5s44.167 2.5 63.5 2.5c39.333 0 72.666 -3.83301 99.999 -11.5s49.666 -20 66.999 -37s29.833 -38.667 37.5 -65s11.5 -58.166 11.5 -95.499v-97z" />
    <glyph glyph-name="haamedi" unicode="&#x62d;" horiz-adv-x="619" arabic-form="medial" 
d="M488 41c-5.33301 -15.333 -13.665 -26.001 -24.998 -32.001s-27.333 -9 -48 -9h-435v54h457v101c0 28 -0.833008 52.667 -2.5 74s-7.66699 39.5 -18 54.5s-26.5 26.333 -48.5 34s-53 11.5 -93 11.5c-31.333 0 -61.166 -1.66699 -89.499 -5s-52.833 -8 -73.5 -14
c-12 -3.33301 -19.333 1 -22 13l-9 35c23.333 6.66699 45.5 12 66.5 16s43 6.83301 66 8.5s44.167 2.5 63.5 2.5c39.333 0 72.666 -3.83301 99.999 -11.5s49.666 -20 66.999 -37s29.833 -38.667 37.5 -65s11.5 -58.166 11.5 -95.499v-81c8.66699 -8 19 -15 31 -21
c10.667 -5.33301 23.667 -10 39 -14s33.666 -6 54.999 -6h8v-54h-8c-9.33301 0 -19.833 0.5 -31.5 1.5s-23.5 3 -35.5 6s-23.5 7.16699 -34.5 12.5s-20.5 12.333 -28.5 21z" />
    <glyph glyph-name="khafina" unicode="&#x62e;" horiz-adv-x="675" arabic-form="final" 
d="M271 511c0 11.333 3.83301 20.833 11.5 28.5s17.167 11.5 28.5 11.5s20.833 -3.83301 28.5 -11.5s11.5 -17.167 11.5 -28.5s-3.83301 -20.833 -11.5 -28.5s-17.167 -11.5 -28.5 -11.5s-20.833 3.83301 -28.5 11.5s-11.5 17.167 -11.5 28.5zM502 54l0.00390625 101.006
c0 28 -0.833008 52.667 -2.5 74s-7.66699 39.5 -18 54.5s-26.5 26.333 -48.5 34s-53 11.5 -93 11.5c-30.667 0 -60.667 -1.83301 -90 -5.5s-54 -8.16699 -74 -13.5c-11.333 -3.33301 -18.333 1 -21 13l-9 36c23.333 6 45.333 10.833 66 14.5s42.667 6.5 66 8.5
s44.666 3 63.999 3c39.333 0 72.666 -3.83301 99.999 -11.5s49.666 -20 66.999 -37s29.833 -38.667 37.5 -65s11.5 -58.166 11.5 -95.499v-81c6.66699 -8 15.167 -14.833 25.5 -20.5s22.833 -10.5 37.5 -14.5s32.667 -6 54 -6h8v-54h-8c-19.333 0 -40.333 2.5 -63 7.5
s-42.334 16.167 -59.001 33.5c-3.33301 -16 -11.166 -26.833 -23.499 -32.5s-28.833 -8.5 -49.5 -8.5h-253c-18 0 -34.833 -1.33301 -50.5 -4s-29.334 -7.83398 -41.001 -15.501s-20.834 -18.334 -27.501 -32.001s-10 -31.834 -10 -54.501c0 -23.333 7 -45 21 -65
s30.333 -38 49 -54s37 -29.333 55 -40s29.667 -17.334 35 -20.001c8.66699 -4 10.667 -10.333 6 -19c-6 -10.667 -12.333 -21.334 -19 -32.001c-37.333 18 -66.666 35.5 -87.999 52.5s-38 31.667 -50 44s-22.5 25.666 -31.5 39.999s-16.333 29.666 -22 45.999
s-8.5 33.5 -8.5 51.5c0 36 6.16699 64.333 18.5 85s27.5 36.167 45.5 46.5s36.833 17 56.5 20s36.5 4.5 50.5 4.5h286z" />
    <glyph glyph-name="khaini" unicode="&#x62e;" horiz-adv-x="523" arabic-form="initial" 
d="M190 513c0 11.333 3.83301 20.833 11.5 28.5s17.167 11.5 28.5 11.5s20.833 -3.83301 28.5 -11.5s11.5 -17.167 11.5 -28.5s-3.83301 -20.833 -11.5 -28.5s-17.167 -11.5 -28.5 -11.5s-20.833 3.83301 -28.5 11.5s-11.5 17.167 -11.5 28.5zM482 79
c0 -26 -5.66602 -45.668 -16.999 -59.001s-30.666 -20 -57.999 -20h-427v54h446v101c0 28 -0.833008 52.667 -2.5 74s-7.66699 39.5 -18 54.5s-26.5 26.333 -48.5 34s-53 11.5 -93 11.5c-33.333 0 -63.5 -1.66699 -90.5 -5s-51.5 -8 -73.5 -14
c-11.333 -3.33301 -18.333 1 -21 13l-9 35c23.333 6.66699 45.5 12 66.5 16s43 6.83301 66 8.5s44.167 2.5 63.5 2.5c39.333 0 72.666 -3.83301 99.999 -11.5s49.666 -20 66.999 -37s29.833 -38.667 37.5 -65s11.5 -58.166 11.5 -95.499v-97z" />
    <glyph glyph-name="khamedi" unicode="&#x62e;" horiz-adv-x="619" arabic-form="medial" 
d="M210 512c0 11.333 3.83301 20.833 11.5 28.5s17.167 11.5 28.5 11.5s20.833 -3.83301 28.5 -11.5s11.5 -17.167 11.5 -28.5s-3.83301 -20.833 -11.5 -28.5s-17.167 -11.5 -28.5 -11.5s-20.833 3.83301 -28.5 11.5s-11.5 17.167 -11.5 28.5zM488 41
c-5.33301 -15.333 -13.665 -26.001 -24.998 -32.001s-27.333 -9 -48 -9h-435v54h457v101c0 28 -0.833008 52.667 -2.5 74s-7.66699 39.5 -18 54.5s-26.5 26.333 -48.5 34s-53 11.5 -93 11.5c-31.333 0 -61.166 -1.66699 -89.499 -5s-52.833 -8 -73.5 -14
c-12 -3.33301 -19.333 1 -22 13l-9 35c23.333 6.66699 45.5 12 66.5 16s43 6.83301 66 8.5s44.167 2.5 63.5 2.5c39.333 0 72.666 -3.83301 99.999 -11.5s49.666 -20 66.999 -37s29.833 -38.667 37.5 -65s11.5 -58.166 11.5 -95.499v-81c8.66699 -8 19 -15 31 -21
c10.667 -5.33301 23.667 -10 39 -14s33.666 -6 54.999 -6h8v-54h-8c-9.33301 0 -19.833 0.5 -31.5 1.5s-23.5 3 -35.5 6s-23.5 7.16699 -34.5 12.5s-20.5 12.333 -28.5 21z" />
    <glyph glyph-name="dalfina" unicode="&#x62f;" horiz-adv-x="565" arabic-form="final" 
d="M395 54l0.000976562 91.999c0 30.667 -2.83301 55.667 -8.5 75s-15 35.333 -28 48s-30 23.334 -51 32.001s-44.5 16 -70.5 22s-45.5 10 -58.5 12l-47.5 7c-18 3.33301 -25.667 12 -23 26c2 10 4.33301 20.333 7 31c31.333 -4.66699 56 -8.66699 74 -12
s39.833 -7.83301 65.5 -13.5s53 -15.834 82 -30.501s51.833 -31.5 68.5 -50.5s28.167 -39.5 34.5 -61.5s9.5 -44 9.5 -66v-69c6 -8 14 -15 24 -21c8.66699 -5.33301 20.167 -10.166 34.5 -14.499s32.166 -6.5 53.499 -6.5h9v-54h-9c-7.33301 0 -16 0.5 -26 1.5
s-20.333 3 -31 6s-21.667 7.33301 -33 13s-20.666 12.167 -27.999 19.5c-6.66699 -14.667 -16.334 -25 -29.001 -31s-29.667 -9 -51 -9h-316v34c0 13.333 6.66699 20 20 20h328z" />
    <glyph glyph-name="zalfina" unicode="&#x630;" horiz-adv-x="565" arabic-form="final" 
d="M143 505c0 11.333 3.83301 20.833 11.5 28.5s17.167 11.5 28.5 11.5s20.833 -3.83301 28.5 -11.5s11.5 -17.167 11.5 -28.5s-3.83301 -20.833 -11.5 -28.5s-17.167 -11.5 -28.5 -11.5s-20.833 3.83301 -28.5 11.5s-11.5 17.167 -11.5 28.5zM395 54l0.000976562 91.999
c0 30.667 -2.83301 55.667 -8.5 75s-15 35.333 -28 48s-30 23.334 -51 32.001s-44.5 16 -70.5 22s-45.5 10 -58.5 12l-47.5 7c-18 3.33301 -25.667 12 -23 26c2 10 4.33301 20.333 7 31c31.333 -4.66699 56 -8.66699 74 -12s39.833 -7.83301 65.5 -13.5
s53 -15.834 82 -30.501s51.833 -31.5 68.5 -50.5s28.167 -39.5 34.5 -61.5s9.5 -44 9.5 -66v-69c6 -8 14 -15 24 -21c8.66699 -5.33301 20.167 -10.166 34.5 -14.499s32.166 -6.5 53.499 -6.5h9v-54h-9c-7.33301 0 -16 0.5 -26 1.5s-20.333 3 -31 6s-21.667 7.33301 -33 13
s-20.666 12.167 -27.999 19.5c-6.66699 -14.667 -16.334 -25 -29.001 -31s-29.667 -9 -51 -9h-316v34c0 13.333 6.66699 20 20 20h328z" />
    <glyph glyph-name="rafina" unicode="&#x631;" horiz-adv-x="337" arabic-form="final" 
d="M156 346c0 12.667 6.66699 19 20 19h38v-270c2 -2 6.16699 -5.33301 12.5 -10s14.5 -9.16699 24.5 -13.5s22.167 -8.33301 36.5 -12s30.833 -5.5 49.5 -5.5h9v-54h-9c-14 -0 -32.333 1.83301 -55 5.5s-45.334 14.167 -68.001 31.5v-130c0 -46 -10.167 -79.667 -30.5 -101
s-48.5 -32 -84.5 -32c-23.333 0 -49.333 4.66699 -78 14c-16.667 5.33301 -23 16.333 -19 33l8 28c9.33301 -4 21.333 -8.16699 36 -12.5s27.334 -6.5 38.001 -6.5c30 0 49.5 5.33301 58.5 16s13.5 32 13.5 64v436z" />
    <glyph glyph-name="zafina" unicode="&#x632;" horiz-adv-x="337" arabic-form="final" 
d="M149 484c0 11.333 3.83301 20.833 11.5 28.5s17.167 11.5 28.5 11.5s20.833 -3.83301 28.5 -11.5s11.5 -17.167 11.5 -28.5s-3.83301 -20.833 -11.5 -28.5s-17.167 -11.5 -28.5 -11.5s-20.833 3.83301 -28.5 11.5s-11.5 17.167 -11.5 28.5zM156 346
c0 12.667 6.66699 19 20 19h38v-270c2 -2 6.16699 -5.33301 12.5 -10s14.5 -9.16699 24.5 -13.5s22.167 -8.33301 36.5 -12s30.833 -5.5 49.5 -5.5h9v-54h-9c-14 -0 -32.333 1.83301 -55 5.5s-45.334 14.167 -68.001 31.5v-130c0 -46 -10.167 -79.667 -30.5 -101
s-48.5 -32 -84.5 -32c-23.333 0 -49.333 4.66699 -78 14c-16.667 5.33301 -23 16.333 -19 33l8 28c9.33301 -4 21.333 -8.16699 36 -12.5s27.334 -6.5 38.001 -6.5c30 0 49.5 5.33301 58.5 16s13.5 32 13.5 64v436z" />
    <glyph glyph-name="seenfina" unicode="&#x633;" horiz-adv-x="1250" arabic-form="final" 
d="M668 0c-13.333 0 -30.6641 1.00684 -51.9971 3.00684s-44.333 11.333 -69 28v-47c0 -24 -3.33301 -48.5 -10 -73.5s-18.834 -47.667 -36.501 -68s-41.334 -36.5 -71.001 -48.5s-68.167 -18 -115.5 -18c-32 0 -64.167 2.33301 -96.5 7s-61.833 15.834 -88.5 33.501
s-48.334 43.167 -65.001 76.5s-25 77.666 -25 132.999c0 15.333 0.833008 32.166 2.5 50.499s4 36.666 7 54.999s6.5 36.5 10.5 54.5s8 34 12 48c12.667 -4 26.334 -8.66699 41.001 -14c7.33301 -2.66699 9.66602 -9.66699 6.99902 -21
c-2 -8.66699 -4.33301 -19.334 -7 -32.001s-5.16699 -26.667 -7.5 -42s-4.33301 -31.5 -6 -48.5s-2.5 -33.833 -2.5 -50.5c0 -48 7 -85 21 -111s32 -44.833 54 -56.5s46.167 -19.167 72.5 -22.5s52.166 -5 77.499 -5c34 0 62 4.5 84 13.5s39.167 20.5 51.5 34.5
s20.833 30.667 25.5 50s7 40.333 7 63v277c0 13.333 6.66699 20 20 20h38v-195c7.33301 -7.33301 16.5 -13.833 27.5 -19.5s24.333 -10.5 40 -14.5s34.167 -6 55.5 -6c10.667 0 22.334 0.833008 35.001 2.5s24.5 5.16699 35.5 10.5s20.167 13 27.5 23s11 24 11 42v137
c0 13.333 6.66699 20 20 20h38v-185c10.667 -12.667 22 -22.5 34 -29.5s23.833 -12 35.5 -15s23 -4.66699 34 -5s21.5 -0.5 31.5 -0.5h10c38 0 62 7.33301 72 22s15 37.334 15 68.001v201c0 13.333 6.66699 20 20 20h38v-271c8 -7.33301 18 -14 30 -20
c10 -5.33301 22.667 -10 38 -14s33.666 -6 54.999 -6h9v-54h-9c-8 0 -18 0.5 -30 1.5s-24.5 3.33301 -37.5 7s-26 8.66699 -39 15s-24.167 14.833 -33.5 25.5c-9.33301 -16 -22.5 -28.167 -39.5 -36.5s-39.833 -12.5 -68.5 -12.5h-30c-22.667 0 -43.167 2.5 -61.5 7.5
s-34.166 10.667 -47.499 17s-24.166 12.666 -32.499 18.999s-13.5 11.166 -15.5 14.499c-4 -4.66699 -9.16699 -9.83398 -15.5 -15.501s-14.5 -11.334 -24.5 -17.001s-21.833 -10.834 -35.5 -15.501s-29.834 -8 -48.501 -10h-23z" />
    <glyph glyph-name="seenini" unicode="&#x633;" horiz-adv-x="792" arabic-form="initial" 
d="M573 0c-18 0 -35.0039 2.50488 -51.0039 7.50488s-30.333 10.833 -43 17.5s-23 13.167 -31 19.5s-13.333 11.166 -16 14.499c-2 -3.33301 -6 -8.33301 -12 -15s-14.167 -13.167 -24.5 -19.5s-22.833 -12 -37.5 -17s-31.334 -7.5 -50.001 -7.5h-21
c-8 0 -17.833 0.5 -29.5 1.5s-23.667 3.33301 -36 7s-24.666 8.66699 -36.999 15s-24.166 15.833 -35.499 28.5c-10 -16 -23.667 -28.667 -41 -38s-40.666 -14 -69.999 -14h-58v54h34c16.667 0 31.167 2.16699 43.5 6.5s21.833 10.5 28.5 18.5s11.667 17.5 15 28.5
s5 23.167 5 36.5v133c0 13.333 6.66699 20 20 20h38v-203c8 -7.33301 17.5 -13.833 28.5 -19.5s24.333 -10.5 40 -14.5s34.167 -6 55.5 -6c11.333 0 23.333 0.833008 36 2.5s24.334 5.16699 35.001 10.5s19.5 13.166 26.5 23.499s10.5 24.5 10.5 42.5v144
c0 13.333 6.66699 20 20 20h38v-192c18.667 -22.667 38.667 -36.834 60 -42.501s41 -8.5 59 -8.5c24 0 43.833 2.66699 59.5 8s28 13.166 37 23.499s15.333 23.166 19 38.499s5.5 33.333 5.5 54v167c0 13.333 6.66699 20 20 20h38v-185c0 -26.667 -2.66699 -51 -8 -73
s-14.666 -41 -27.999 -57s-31.5 -28.333 -54.5 -37s-52.5 -13 -88.5 -13z" />
    <glyph glyph-name="seenmedi" unicode="&#x633;" horiz-adv-x="864" arabic-form="medial" 
d="M586 0c-22.667 0 -43.3291 2.3291 -61.9961 6.99609s-34.834 10.334 -48.501 17.001s-24.834 13 -33.501 19s-14 10.667 -16 14c-2.66699 -3.33301 -6.66699 -7.66602 -12 -12.999s-12.833 -11 -22.5 -17s-21.667 -11.5 -36 -16.5s-31.5 -8.5 -51.5 -10.5h-20
c-8.66699 0 -19 0.5 -31 1.5s-24.667 3.33301 -38 7s-26.333 8.66699 -39 15s-23.667 14.833 -33 25.5c-10 -16 -23.167 -28.167 -39.5 -36.5s-38.5 -12.5 -66.5 -12.5h-57v54h33c34 0 57.333 8.83301 70 26.5s19 39.5 19 65.5v131c0 13.333 6.66699 20 20 20h38v-203
c8 -7.33301 18 -14 30 -20c10 -5.33301 22.667 -10 38 -14s33.666 -6 54.999 -6c10.667 0 22.5 0.833008 35.5 2.5s25 5.16699 36 10.5s20 13 27 23s10.5 24 10.5 42v145c0 13.333 6.66699 20 20 20h38v-192c11.333 -13.333 23 -23.333 35 -30s23.833 -11.667 35.5 -15
s23.167 -5.16602 34.5 -5.49902s21.666 -0.5 30.999 -0.5h4c37.333 0 62 7.33301 74 22s18 37.334 18 68.001v201c0 13.333 6.66699 20 20 20h38v-271c8 -7.33301 18 -14 30 -20c10 -5.33301 22.833 -10 38.5 -14s34.167 -6 55.5 -6h8v-54h-8c-8 0 -18.167 0.666992 -30.5 2
s-25.166 3.66602 -38.499 6.99902s-26.333 8.33301 -39 15s-23.667 15.334 -33 26.001c-9.33301 -16 -22.333 -28.333 -39 -37s-39.334 -13 -68.001 -13h-30z" />
    <glyph glyph-name="sheenfina" unicode="&#x634;" horiz-adv-x="1250" arabic-form="final" 
d="M694 452c0 11.333 3.83301 20.833 11.5 28.5s17.167 11.5 28.5 11.5s20.833 -3.83301 28.5 -11.5s11.5 -17.167 11.5 -28.5s-3.83301 -20.833 -11.5 -28.5s-17.167 -11.5 -28.5 -11.5s-20.833 3.83301 -28.5 11.5s-11.5 17.167 -11.5 28.5zM802 452
c0 11.333 3.83301 20.833 11.5 28.5s17.167 11.5 28.5 11.5s20.833 -3.83301 28.5 -11.5s11.5 -17.167 11.5 -28.5s-3.83301 -20.833 -11.5 -28.5s-17.167 -11.5 -28.5 -11.5s-20.833 3.83301 -28.5 11.5s-11.5 17.167 -11.5 28.5zM748 546
c0 11.333 3.83301 20.833 11.5 28.5s17.167 11.5 28.5 11.5s20.833 -3.83301 28.5 -11.5s11.5 -17.167 11.5 -28.5s-3.83301 -20.833 -11.5 -28.5s-17.167 -11.5 -28.5 -11.5s-20.833 3.83301 -28.5 11.5s-11.5 17.167 -11.5 28.5zM668 0
c-13.333 0 -30.6641 1.00684 -51.9971 3.00684s-44.333 11.333 -69 28v-47c0 -24 -3.33301 -48.5 -10 -73.5s-18.834 -47.667 -36.501 -68s-41.334 -36.5 -71.001 -48.5s-68.167 -18 -115.5 -18c-32 0 -64.167 2.33301 -96.5 7s-61.833 15.834 -88.5 33.501
s-48.334 43.167 -65.001 76.5s-25 77.666 -25 132.999c0 15.333 0.833008 32.166 2.5 50.499s4 36.666 7 54.999s6.5 36.5 10.5 54.5s8 34 12 48c12.667 -4 26.334 -8.66699 41.001 -14c7.33301 -2.66699 9.66602 -9.66699 6.99902 -21
c-2 -8.66699 -4.33301 -19.334 -7 -32.001s-5.16699 -26.667 -7.5 -42s-4.33301 -31.5 -6 -48.5s-2.5 -33.833 -2.5 -50.5c0 -48 7 -85 21 -111s32 -44.833 54 -56.5s46.167 -19.167 72.5 -22.5s52.166 -5 77.499 -5c34 0 62 4.5 84 13.5s39.167 20.5 51.5 34.5
s20.833 30.667 25.5 50s7 40.333 7 63v277c0 13.333 6.66699 20 20 20h38v-195c7.33301 -7.33301 16.5 -13.833 27.5 -19.5s24.333 -10.5 40 -14.5s34.167 -6 55.5 -6c10.667 0 22.334 0.833008 35.001 2.5s24.5 5.16699 35.5 10.5s20.167 13 27.5 23s11 24 11 42v137
c0 13.333 6.66699 20 20 20h38v-185c10.667 -12.667 22 -22.5 34 -29.5s23.833 -12 35.5 -15s23 -4.66699 34 -5s21.5 -0.5 31.5 -0.5h10c38 0 62 7.33301 72 22s15 37.334 15 68.001v201c0 13.333 6.66699 20 20 20h38v-271c8 -7.33301 18 -14 30 -20
c10 -5.33301 22.667 -10 38 -14s33.666 -6 54.999 -6h9v-54h-9c-8 0 -18 0.5 -30 1.5s-24.5 3.33301 -37.5 7s-26 8.66699 -39 15s-24.167 14.833 -33.5 25.5c-9.33301 -16 -22.5 -28.167 -39.5 -36.5s-39.833 -12.5 -68.5 -12.5h-30c-22.667 0 -43.167 2.5 -61.5 7.5
s-34.166 10.667 -47.499 17s-24.166 12.666 -32.499 18.999s-13.5 11.166 -15.5 14.499c-4 -4.66699 -9.16699 -9.83398 -15.5 -15.501s-14.5 -11.334 -24.5 -17.001s-21.833 -10.834 -35.5 -15.501s-29.834 -8 -48.501 -10h-23z" />
    <glyph glyph-name="sheenini" unicode="&#x634;" horiz-adv-x="792" arabic-form="initial" 
d="M573 0c-18 0 -35.0039 2.50488 -51.0039 7.50488s-30.333 10.833 -43 17.5s-23 13.167 -31 19.5s-13.333 11.166 -16 14.499c-2 -3.33301 -6 -8.33301 -12 -15s-14.167 -13.167 -24.5 -19.5s-22.833 -12 -37.5 -17s-31.334 -7.5 -50.001 -7.5h-21
c-8 0 -17.833 0.5 -29.5 1.5s-23.667 3.33301 -36 7s-24.666 8.66699 -36.999 15s-24.166 15.833 -35.499 28.5c-10 -16 -23.667 -28.667 -41 -38s-40.666 -14 -69.999 -14h-58v54h34c16.667 0 31.167 2.16699 43.5 6.5s21.833 10.5 28.5 18.5s11.667 17.5 15 28.5
s5 23.167 5 36.5v133c0 13.333 6.66699 20 20 20h38v-203c8 -7.33301 17.5 -13.833 28.5 -19.5s24.333 -10.5 40 -14.5s34.167 -6 55.5 -6c11.333 0 23.333 0.833008 36 2.5s24.334 5.16699 35.001 10.5s19.5 13.166 26.5 23.499s10.5 24.5 10.5 42.5v144
c0 13.333 6.66699 20 20 20h38v-192c18.667 -22.667 38.667 -36.834 60 -42.501s41 -8.5 59 -8.5c24 0 43.833 2.66699 59.5 8s28 13.166 37 23.499s15.333 23.166 19 38.499s5.5 33.333 5.5 54v167c0 13.333 6.66699 20 20 20h38v-185c0 -26.667 -2.66699 -51 -8 -73
s-14.666 -41 -27.999 -57s-31.5 -28.333 -54.5 -37s-52.5 -13 -88.5 -13zM331.996 453.005c0 11.333 3.83301 20.833 11.5 28.5s17.167 11.5 28.5 11.5s20.833 -3.83301 28.5 -11.5s11.5 -17.167 11.5 -28.5s-3.83301 -20.833 -11.5 -28.5s-17.167 -11.5 -28.5 -11.5
s-20.833 3.83301 -28.5 11.5s-11.5 17.167 -11.5 28.5zM439.996 453.005c0 11.333 3.83301 20.833 11.5 28.5s17.167 11.5 28.5 11.5s20.833 -3.83301 28.5 -11.5s11.5 -17.167 11.5 -28.5s-3.83301 -20.833 -11.5 -28.5s-17.167 -11.5 -28.5 -11.5
s-20.833 3.83301 -28.5 11.5s-11.5 17.167 -11.5 28.5zM385.996 547.005c0 11.333 3.83301 20.833 11.5 28.5s17.167 11.5 28.5 11.5s20.833 -3.83301 28.5 -11.5s11.5 -17.167 11.5 -28.5s-3.83301 -20.833 -11.5 -28.5s-17.167 -11.5 -28.5 -11.5
s-20.833 3.83301 -28.5 11.5s-11.5 17.167 -11.5 28.5z" />
    <glyph glyph-name="sheenmedi" unicode="&#x634;" horiz-adv-x="864" arabic-form="medial" 
d="M323 453c0 11.333 3.83301 20.833 11.5 28.5s17.167 11.5 28.5 11.5s20.833 -3.83301 28.5 -11.5s11.5 -17.167 11.5 -28.5s-3.83301 -20.833 -11.5 -28.5s-17.167 -11.5 -28.5 -11.5s-20.833 3.83301 -28.5 11.5s-11.5 17.167 -11.5 28.5zM431 453
c0 11.333 3.83301 20.833 11.5 28.5s17.167 11.5 28.5 11.5s20.833 -3.83301 28.5 -11.5s11.5 -17.167 11.5 -28.5s-3.83301 -20.833 -11.5 -28.5s-17.167 -11.5 -28.5 -11.5s-20.833 3.83301 -28.5 11.5s-11.5 17.167 -11.5 28.5zM377 547
c0 11.333 3.83301 20.833 11.5 28.5s17.167 11.5 28.5 11.5s20.833 -3.83301 28.5 -11.5s11.5 -17.167 11.5 -28.5s-3.83301 -20.833 -11.5 -28.5s-17.167 -11.5 -28.5 -11.5s-20.833 3.83301 -28.5 11.5s-11.5 17.167 -11.5 28.5zM586 0
c-22.667 0 -43.3291 2.3291 -61.9961 6.99609s-34.834 10.334 -48.501 17.001s-24.834 13 -33.501 19s-14 10.667 -16 14c-2.66699 -3.33301 -6.66699 -7.66602 -12 -12.999s-12.833 -11 -22.5 -17s-21.667 -11.5 -36 -16.5s-31.5 -8.5 -51.5 -10.5h-20
c-8.66699 0 -19 0.5 -31 1.5s-24.667 3.33301 -38 7s-26.333 8.66699 -39 15s-23.667 14.833 -33 25.5c-10 -16 -23.167 -28.167 -39.5 -36.5s-38.5 -12.5 -66.5 -12.5h-57v54h33c34 0 57.333 8.83301 70 26.5s19 39.5 19 65.5v131c0 13.333 6.66699 20 20 20h38v-203
c8 -7.33301 18 -14 30 -20c10 -5.33301 22.667 -10 38 -14s33.666 -6 54.999 -6c10.667 0 22.5 0.833008 35.5 2.5s25 5.16699 36 10.5s20 13 27 23s10.5 24 10.5 42v145c0 13.333 6.66699 20 20 20h38v-192c11.333 -13.333 23 -23.333 35 -30s23.833 -11.667 35.5 -15
s23.167 -5.16602 34.5 -5.49902s21.666 -0.5 30.999 -0.5h4c37.333 0 62 7.33301 74 22s18 37.334 18 68.001v201c0 13.333 6.66699 20 20 20h38v-271c8 -7.33301 18 -14 30 -20c10 -5.33301 22.833 -10 38.5 -14s34.167 -6 55.5 -6h8v-54h-8c-8 0 -18.167 0.666992 -30.5 2
s-25.166 3.66602 -38.499 6.99902s-26.333 8.33301 -39 15s-23.667 15.334 -33 26.001c-9.33301 -16 -22.333 -28.333 -39 -37s-39.334 -13 -68.001 -13h-30z" />
    <glyph glyph-name="sadfina" unicode="&#x635;" horiz-adv-x="1162" arabic-form="final" 
d="M505 369c0 13.333 6.66211 19.9971 19.9951 19.9971h38v-64l354 61c20.667 2 38.167 1.16699 52.5 -2.5s28.666 -10.5 42.999 -20.5s27.5 -22.167 39.5 -36.5s22 -32.166 30 -53.499s12 -47.333 12 -78c0 -19.333 -1.83301 -39.166 -5.5 -59.499
s-9.83398 -40.833 -18.501 -61.5c12 -5.33301 26.167 -10 42.5 -14s34.5 -6 54.5 -6h8v-54h-8c-7.33301 0 -16.166 0.5 -26.499 1.5s-21.166 3 -32.499 6s-22.666 7.16699 -33.999 12.5s-21.666 12 -30.999 20c-15.333 -14 -32.166 -24.167 -50.499 -30.5
s-41.166 -9.5 -68.499 -9.5h-361c0 -29.333 -3 -57.666 -9 -84.999s-17.5 -51.5 -34.5 -72.5s-40.333 -37.167 -70 -48.5s-68.167 -17 -115.5 -17c-32 0 -65.333 2.16699 -100 6.5s-66.167 15.333 -94.5 33s-51.5 43.167 -69.5 76.5s-27 77.666 -27 132.999
c0 14.667 0.833008 31.167 2.5 49.5s3.83398 36.666 6.50098 54.999s6 36.5 10 54.5s8 34 12 48c14.667 -3.33301 28.667 -7.66602 42 -12.999c8 -3.33301 10.333 -10.333 7 -21c-5.33301 -17.333 -10.333 -42.166 -15 -74.499s-7 -65.166 -7 -98.499
c0 -48 7.66699 -85 23 -111s34.666 -44.833 57.999 -56.5s49 -19.334 77 -23.001s54.667 -5.5 80 -5.5c34.667 0 62.834 4.5 84.501 13.5s38.5 20.333 50.5 34s20.167 30.167 24.5 49.5s6.5 41 6.5 65v377zM928.995 53.9971c12 0 24.5 1.66699 37.5 5s24.833 10 35.5 20
s20 24.167 28 42.5s12 40.5 12 66.5c0 32 -5.5 58.167 -16.5 78.5s-21.833 35.5 -32.5 45.5s-23.167 16.667 -37.5 20s-26.833 4 -37.5 2l-355 -64v-216h366z" />
    <glyph glyph-name="sadini" unicode="&#x635;" horiz-adv-x="704" arabic-form="initial" 
d="M50 369c0 13.333 6.66699 19.9971 20 19.9971h38v-64l374 61c17.333 2.66699 34 1.33398 50 -3.99902s31 -12.333 45 -21s27.167 -20.167 39.5 -34.5s22.5 -32.166 30.5 -53.499s12 -47.333 12 -78c0 -25.333 -2.66699 -49.666 -8 -72.999s-14.5 -44 -27.5 -62
s-30.5 -32.5 -52.5 -43.5s-49.667 -16.5 -83 -16.5h-508v54h70v315zM497 53.9971c10 0 21.5 1.66797 34.5 5.00098s25.333 10 37 20s20.834 24.167 27.501 42.5s10 40.5 10 66.5c0 32 -5.33301 58.167 -16 78.5s-22.167 35.666 -34.5 45.999s-25.333 17.333 -39 21
s-26.834 4.16699 -39.501 1.5l-369 -66v-215h389z" />
    <glyph glyph-name="sadmedi" unicode="&#x635;" horiz-adv-x="755" arabic-form="medial" 
d="M75 369c0 13.333 6.66504 19.998 19.998 19.998h38v-64l372 61c20 2 37 0.666992 51 -4s28.167 -11.5 42.5 -20.5s27.833 -20.667 40.5 -35s23.167 -32.166 31.5 -53.499s12.5 -47.333 12.5 -78c0 -19.333 -2 -39.166 -6 -59.499s-10.333 -40.833 -19 -61.5
c12.667 -5.33301 27.167 -10 43.5 -14s34.166 -6 53.499 -6h8v-54h-8c-7.33301 0 -16.333 0.5 -27 1.5s-21.667 2.83301 -33 5.5s-22.666 6.66699 -33.999 12s-21.666 12 -30.999 20c-15.333 -14 -32.166 -24 -50.499 -30s-40.833 -9 -67.5 -9h-532v54h95v315z
M518.998 53.998c12 0 24.6689 1.66699 38.002 5s25.166 10 35.499 20s19.166 23.667 26.499 41s11 40 11 68c0 32 -5.33301 58 -16 78s-22.5 35 -35.5 45s-26.333 16.667 -40 20s-26.5 4 -38.5 2l-367 -65v-214h386z" />
    <glyph glyph-name="dadfina" unicode="&#x636;" horiz-adv-x="1162" arabic-form="final" 
d="M606 484c0 11.333 3.83301 20.833 11.5 28.5s17.167 11.5 28.5 11.5s20.833 -3.83301 28.5 -11.5s11.5 -17.167 11.5 -28.5s-3.83301 -20.833 -11.5 -28.5s-17.167 -11.5 -28.5 -11.5s-20.833 3.83301 -28.5 11.5s-11.5 17.167 -11.5 28.5zM505 369
c0 13.333 6.66211 19.9971 19.9951 19.9971h38v-64l354 61c20.667 2 38.167 1.16699 52.5 -2.5s28.666 -10.5 42.999 -20.5s27.5 -22.167 39.5 -36.5s22 -32.166 30 -53.499s12 -47.333 12 -78c0 -19.333 -1.83301 -39.166 -5.5 -59.499s-9.83398 -40.833 -18.501 -61.5
c12 -5.33301 26.167 -10 42.5 -14s34.5 -6 54.5 -6h8v-54h-8c-7.33301 0 -16.166 0.5 -26.499 1.5s-21.166 3 -32.499 6s-22.666 7.16699 -33.999 12.5s-21.666 12 -30.999 20c-15.333 -14 -32.166 -24.167 -50.499 -30.5s-41.166 -9.5 -68.499 -9.5h-361
c0 -29.333 -3 -57.666 -9 -84.999s-17.5 -51.5 -34.5 -72.5s-40.333 -37.167 -70 -48.5s-68.167 -17 -115.5 -17c-32 0 -65.333 2.16699 -100 6.5s-66.167 15.333 -94.5 33s-51.5 43.167 -69.5 76.5s-27 77.666 -27 132.999c0 14.667 0.833008 31.167 2.5 49.5
s3.83398 36.666 6.50098 54.999s6 36.5 10 54.5s8 34 12 48c14.667 -3.33301 28.667 -7.66602 42 -12.999c8 -3.33301 10.333 -10.333 7 -21c-5.33301 -17.333 -10.333 -42.166 -15 -74.499s-7 -65.166 -7 -98.499c0 -48 7.66699 -85 23 -111s34.666 -44.833 57.999 -56.5
s49 -19.334 77 -23.001s54.667 -5.5 80 -5.5c34.667 0 62.834 4.5 84.501 13.5s38.5 20.333 50.5 34s20.167 30.167 24.5 49.5s6.5 41 6.5 65v377zM928.995 53.9971c12 0 24.5 1.66699 37.5 5s24.833 10 35.5 20s20 24.167 28 42.5s12 40.5 12 66.5
c0 32 -5.5 58.167 -16.5 78.5s-21.833 35.5 -32.5 45.5s-23.167 16.667 -37.5 20s-26.833 4 -37.5 2l-355 -64v-216h366z" />
    <glyph glyph-name="dadini" unicode="&#x636;" horiz-adv-x="704" arabic-form="initial" 
d="M173 486c0 11.333 3.83301 20.833 11.5 28.5s17.167 11.5 28.5 11.5s20.833 -3.83301 28.5 -11.5s11.5 -17.167 11.5 -28.5s-3.83301 -20.833 -11.5 -28.5s-17.167 -11.5 -28.5 -11.5s-20.833 3.83301 -28.5 11.5s-11.5 17.167 -11.5 28.5zM50 369
c0 13.333 6.66699 19.9971 20 19.9971h38v-64l374 61c17.333 2.66699 34 1.33398 50 -3.99902s31 -12.333 45 -21s27.167 -20.167 39.5 -34.5s22.5 -32.166 30.5 -53.499s12 -47.333 12 -78c0 -25.333 -2.66699 -49.666 -8 -72.999s-14.5 -44 -27.5 -62
s-30.5 -32.5 -52.5 -43.5s-49.667 -16.5 -83 -16.5h-508v54h70v315zM497 53.9971c10 0 21.5 1.66797 34.5 5.00098s25.333 10 37 20s20.834 24.167 27.501 42.5s10 40.5 10 66.5c0 32 -5.33301 58.167 -16 78.5s-22.167 35.666 -34.5 45.999s-25.333 17.333 -39 21
s-26.834 4.16699 -39.501 1.5l-369 -66v-215h389z" />
    <glyph glyph-name="dadmedi" unicode="&#x636;" horiz-adv-x="755" arabic-form="medial" 
d="M195 485c0 11.333 3.83301 20.833 11.5 28.5s17.167 11.5 28.5 11.5s20.833 -3.83301 28.5 -11.5s11.5 -17.167 11.5 -28.5s-3.83301 -20.833 -11.5 -28.5s-17.167 -11.5 -28.5 -11.5s-20.833 3.83301 -28.5 11.5s-11.5 17.167 -11.5 28.5zM75 369
c0 13.333 6.66504 19.998 19.998 19.998h38v-64l372 61c20 2 37 0.666992 51 -4s28.167 -11.5 42.5 -20.5s27.833 -20.667 40.5 -35s23.167 -32.166 31.5 -53.499s12.5 -47.333 12.5 -78c0 -19.333 -2 -39.166 -6 -59.499s-10.333 -40.833 -19 -61.5
c12.667 -5.33301 27.167 -10 43.5 -14s34.166 -6 53.499 -6h8v-54h-8c-7.33301 0 -16.333 0.5 -27 1.5s-21.667 2.83301 -33 5.5s-22.666 6.66699 -33.999 12s-21.666 12 -30.999 20c-15.333 -14 -32.166 -24 -50.499 -30s-40.833 -9 -67.5 -9h-532v54h95v315z
M518.998 53.998c12 0 24.6689 1.66699 38.002 5s25.166 10 35.499 20s19.166 23.667 26.499 41s11 40 11 68c0 32 -5.33301 58 -16 78s-22.5 35 -35.5 45s-26.333 16.667 -40 20s-26.5 4 -38.5 2l-367 -65v-214h386z" />
    <glyph glyph-name="tahfina" unicode="&#x637;" horiz-adv-x="792" arabic-form="final" 
d="M112 531c0 13.333 6.66309 19.999 19.9961 19.999h38v-227l372 62c15.333 2.66699 31.166 2 47.499 -2s32 -10.833 47 -20.5s28.5 -21.834 40.5 -36.501s22.167 -32.667 30.5 -54s12.5 -47.333 12.5 -78c0 -19.333 -1.83301 -39.166 -5.5 -59.499
s-10.167 -40.5 -19.5 -60.5c12.667 -5.33301 27.334 -10.166 44.001 -14.499s34.334 -6.5 53.001 -6.5h8v-54h-8c-8 0 -17.167 0.5 -27.5 1.5s-21.166 3 -32.499 6s-22.5 7.16699 -33.5 12.5s-21.167 12 -30.5 20c-15.333 -14 -32.166 -24.167 -50.499 -30.5
s-41.166 -9.5 -68.499 -9.5h-500v34c0 13.333 6.66699 20 20 20h43v477zM560.996 53.999c12 0 23.832 1.66797 35.499 5.00098s22.334 9.83301 32.001 19.5s18.5 23.667 26.5 42s12 40.5 12 66.5c0 30 -4.83301 55.167 -14.5 75.5s-21 36 -34 47s-27.167 18.167 -42.5 21.5
s-30 3.66602 -44 0.999023l-362 -64v-214h391z" />
    <glyph glyph-name="tahini" unicode="&#x637;" horiz-adv-x="731" arabic-form="initial" 
d="M75 531c0 13.333 6.66699 19.998 20 19.998h38v-227l185 31l186 31c20 2 37 0.666992 51 -4s28.167 -11.5 42.5 -20.5s27.833 -20.667 40.5 -35s23.167 -32.166 31.5 -53.499s12.5 -47.333 12.5 -78c0 -25.333 -2.66699 -49.666 -8 -72.999s-14.5 -44 -27.5 -62
s-30.5 -32.5 -52.5 -43.5s-50 -16.5 -84 -16.5h-530v54h95v477zM519 53.998c10.667 0 22.8311 1.66797 36.498 5.00098s25.334 9.66602 35.001 18.999s18.334 23.833 26.001 43.5s11.5 41.5 11.5 65.5c0 32 -5 58 -15 78s-21.667 35.167 -35 45.5s-27.333 17 -42 20
s-27.667 3.5 -39 1.5l-364 -64v-214h386z" />
    <glyph glyph-name="tahmedi" unicode="&#x637;" horiz-adv-x="748" arabic-form="medial" 
d="M73 531c0 13.333 6.66406 19.999 19.9971 19.999h38v-227l372 62c15.333 2 31 0.666992 47 -4s31.333 -11.5 46 -20.5s28.334 -20.667 41.001 -35s23.167 -32.166 31.5 -53.499s12.5 -47.333 12.5 -78c0 -19.333 -2 -39.166 -6 -59.499s-10.333 -40.833 -19 -61.5
c12.667 -5.33301 27.167 -10 43.5 -14s34.5 -6 54.5 -6h7v-54h-7c-8 0 -17.167 0.5 -27.5 1.5s-21.166 2.83301 -32.499 5.5s-22.666 6.66699 -33.999 12s-21.666 12 -30.999 20c-15.333 -14.667 -32.333 -24.834 -51 -30.501s-41.334 -8.5 -68.001 -8.5h-530v54h93v477z
M515.997 53.999c18 0 32.168 1.66699 42.501 5s20.666 9.83301 30.999 19.5s19.333 24.667 27 45s11.5 41.5 11.5 63.5c0 32 -5 58.167 -15 78.5s-21.333 35.5 -34 45.5s-26.5 16.667 -41.5 20s-27.5 4 -37.5 2l-369 -65v-214h385z" />
    <glyph glyph-name="zadfina" unicode="&#x638;" horiz-adv-x="792" arabic-form="final" 
d="M286 485c0 11.333 3.83301 20.833 11.5 28.5s17.167 11.5 28.5 11.5s20.833 -3.83301 28.5 -11.5s11.5 -17.167 11.5 -28.5s-3.83301 -20.833 -11.5 -28.5s-17.167 -11.5 -28.5 -11.5s-20.833 3.83301 -28.5 11.5s-11.5 17.167 -11.5 28.5zM112 531
c0 13.333 6.66309 19.999 19.9961 19.999h38v-227l372 62c15.333 2.66699 31.166 2 47.499 -2s32 -10.833 47 -20.5s28.5 -21.834 40.5 -36.501s22.167 -32.667 30.5 -54s12.5 -47.333 12.5 -78c0 -19.333 -1.83301 -39.166 -5.5 -59.499s-10.167 -40.5 -19.5 -60.5
c12.667 -5.33301 27.334 -10.166 44.001 -14.499s34.334 -6.5 53.001 -6.5h8v-54h-8c-8 0 -17.167 0.5 -27.5 1.5s-21.166 3 -32.499 6s-22.5 7.16699 -33.5 12.5s-21.167 12 -30.5 20c-15.333 -14 -32.166 -24.167 -50.499 -30.5s-41.166 -9.5 -68.499 -9.5h-500v34
c0 13.333 6.66699 20 20 20h43v477zM560.996 53.999c12 0 23.832 1.66797 35.499 5.00098s22.334 9.83301 32.001 19.5s18.5 23.667 26.5 42s12 40.5 12 66.5c0 30 -4.83301 55.167 -14.5 75.5s-21 36 -34 47s-27.167 18.167 -42.5 21.5s-30 3.66602 -44 0.999023l-362 -64
v-214h391z" />
    <glyph glyph-name="zadini" unicode="&#x638;" horiz-adv-x="731" arabic-form="initial" 
d="M251 484c0 11.333 3.83301 20.833 11.5 28.5s17.167 11.5 28.5 11.5s20.833 -3.83301 28.5 -11.5s11.5 -17.167 11.5 -28.5s-3.83301 -20.833 -11.5 -28.5s-17.167 -11.5 -28.5 -11.5s-20.833 3.83301 -28.5 11.5s-11.5 17.167 -11.5 28.5zM75 531
c0 13.333 6.66699 19.998 20 19.998h38v-227l185 31l186 31c20 2 37 0.666992 51 -4s28.167 -11.5 42.5 -20.5s27.833 -20.667 40.5 -35s23.167 -32.166 31.5 -53.499s12.5 -47.333 12.5 -78c0 -25.333 -2.66699 -49.666 -8 -72.999s-14.5 -44 -27.5 -62
s-30.5 -32.5 -52.5 -43.5s-50 -16.5 -84 -16.5h-530v54h95v477zM519 53.998c10.667 0 22.8311 1.66797 36.498 5.00098s25.334 9.66602 35.001 18.999s18.334 23.833 26.001 43.5s11.5 41.5 11.5 65.5c0 32 -5 58 -15 78s-21.667 35.167 -35 45.5s-27.333 17 -42 20
s-27.667 3.5 -39 1.5l-364 -64v-214h386z" />
    <glyph glyph-name="zadmedi" unicode="&#x638;" horiz-adv-x="748" arabic-form="medial" 
d="M252 484c0 11.333 3.83301 20.833 11.5 28.5s17.167 11.5 28.5 11.5s20.833 -3.83301 28.5 -11.5s11.5 -17.167 11.5 -28.5s-3.83301 -20.833 -11.5 -28.5s-17.167 -11.5 -28.5 -11.5s-20.833 3.83301 -28.5 11.5s-11.5 17.167 -11.5 28.5zM73 531
c0 13.333 6.66406 19.999 19.9971 19.999h38v-227l372 62c15.333 2 31 0.666992 47 -4s31.333 -11.5 46 -20.5s28.334 -20.667 41.001 -35s23.167 -32.166 31.5 -53.499s12.5 -47.333 12.5 -78c0 -19.333 -2 -39.166 -6 -59.499s-10.333 -40.833 -19 -61.5
c12.667 -5.33301 27.167 -10 43.5 -14s34.5 -6 54.5 -6h7v-54h-7c-8 0 -17.167 0.5 -27.5 1.5s-21.166 2.83301 -32.499 5.5s-22.666 6.66699 -33.999 12s-21.666 12 -30.999 20c-15.333 -14.667 -32.333 -24.834 -51 -30.501s-41.334 -8.5 -68.001 -8.5h-530v54h93v477z
M515.997 53.999c18 0 32.168 1.66699 42.501 5s20.666 9.83301 30.999 19.5s19.333 24.667 27 45s11.5 41.5 11.5 63.5c0 32 -5 58.167 -15 78.5s-21.333 35.5 -34 45.5s-26.5 16.667 -41.5 20s-27.5 4 -37.5 2l-369 -65v-214h385z" />
    <glyph glyph-name="aynfina" unicode="&#x639;" horiz-adv-x="626" arabic-form="final" 
d="M299 54l-142.004 160.999c0 23.333 5.5 45.5 16.5 66.5s26 39.5 45 55.5s40.667 28.833 65 38.5s50.166 14.5 77.499 14.5c26.667 0 52.334 -4.83301 77.001 -14.5s46.5 -22.5 65.5 -38.5s34 -34.5 45 -55.5s16.5 -43.167 16.5 -66.5l-142 -161h213v-54h-235
c-8.66699 0 -16.167 2.16699 -22.5 6.5s-11.166 9.5 -14.499 15.5c-1.33301 2.66699 -2.33301 5 -3 7c-0.666992 -2 -1.66699 -4.33301 -3 -7c-3.33301 -6 -8.16602 -11.167 -14.499 -15.5s-13.833 -6.5 -22.5 -6.5h-123c-10.667 0 -22.167 -0.5 -34.5 -1.5
s-24 -4.33301 -35 -10s-20.167 -14.5 -27.5 -26.5s-11 -28.667 -11 -50c0 -26.667 6.16699 -51.167 18.5 -73.5s27.5 -42 45.5 -59s36.333 -31.833 55 -44.5s33.334 -22 44.001 -28c8.66699 -5.33301 10.334 -12.666 5.00098 -21.999l-22 -31
c-38 20.667 -67.5 40.167 -88.5 58.5s-37.5 34.5 -49.5 48.5s-22.667 28.667 -32 44s-16.833 31.5 -22.5 48.5s-8.5 34.833 -8.5 53.5c0 29.333 5 53.5 15 72.5s22.5 34 37.5 45s31 18.667 48 23s32.5 6.5 46.5 6.5h117zM368.996 64.999l138.998 160
c0 12 -3.16699 24.5 -9.5 37.5s-15.666 25 -27.999 36s-27.666 20 -45.999 27s-39.5 10.5 -63.5 10.5s-45.167 -3.5 -63.5 -10.5s-33.5 -16 -45.5 -27s-21.167 -23 -27.5 -36s-9.5 -25.5 -9.5 -37.5l138 -160c4 -5.33301 6.66699 -10.666 8 -15.999
c1.33301 5.33301 4 10.666 8 15.999z" />
    <glyph glyph-name="aynini" unicode="&#x639;" horiz-adv-x="454" arabic-form="initial" 
d="M373 54c13.333 0 20.002 -6.66699 20.002 -20v-34h-413v54h119c-4 2.66699 -8.66699 7.5 -14 14.5s-10.666 16.333 -15.999 28s-9.83301 26 -13.5 43s-5.5 36.833 -5.5 59.5c0 29.333 3.16699 55.5 9.5 78.5s17.166 42.5 32.499 58.5s35.666 28.333 60.999 37
s57.333 13 96 13c30 0 59 -2.16699 87 -6.5s48.667 -8.16602 62 -11.499l-9 -31c-4 -14 -15 -19.333 -33 -16c-24.667 4 -44.667 6.83301 -60 8.5s-34.666 2.5 -57.999 2.5c-28 0 -50.667 -3.5 -68 -10.5s-30.833 -16.5 -40.5 -28.5s-16.334 -26.333 -20.001 -43
s-5.5 -34.334 -5.5 -53.001c0 -30.667 4 -55.334 12 -74.001s17.5 -33.167 28.5 -43.5s22.167 -17.166 33.5 -20.499s20.666 -5 27.999 -5h167z" />
    <glyph glyph-name="aynmidi" unicode="&#x639;" horiz-adv-x="529" arabic-form="medial" 
d="M264 390c26.667 0 52.332 -4.83301 76.999 -14.5s46.5 -22.5 65.5 -38.5s34 -34.5 45 -55.5s16.5 -43.167 16.5 -66.5l-140 -161h211v-54h-235c-8.66699 0 -16.167 2.16699 -22.5 6.5s-11.166 9.5 -14.499 15.5c-1.33301 2.66699 -2.33301 5 -3 7
c-0.666992 -2 -1.66699 -4.33301 -3 -7c-3.33301 -6 -8.16602 -11.167 -14.499 -15.5s-13.833 -6.5 -22.5 -6.5h-244v54h220l-140 161c0 23.333 5.5 45.5 16.5 66.5s26 39.5 45 55.5s40.667 28.833 65 38.5s50.166 14.5 77.499 14.5zM271.998 65l139 165
c0 8.66699 -3.5 19.5 -10.5 32.5s-16.667 25 -29 36s-27.333 20 -45 27s-38.5 10.5 -62.5 10.5s-44.833 -3.5 -62.5 -10.5s-32.5 -16 -44.5 -27s-21.5 -23 -28.5 -36s-10.5 -23.833 -10.5 -32.5l138 -165c4 -5.33301 6.66699 -10.666 8 -15.999
c1.33301 5.33301 4 10.666 8 15.999z" />
    <glyph glyph-name="ghafina" unicode="&#x63a;" horiz-adv-x="626" arabic-form="final" 
d="M318 493c0 11.333 3.83301 20.833 11.5 28.5s17.167 11.5 28.5 11.5s20.833 -3.83301 28.5 -11.5s11.5 -17.167 11.5 -28.5s-3.83301 -20.833 -11.5 -28.5s-17.167 -11.5 -28.5 -11.5s-20.833 3.83301 -28.5 11.5s-11.5 17.167 -11.5 28.5zM299 54l-142.004 160.999
c0 23.333 5.5 45.5 16.5 66.5s26 39.5 45 55.5s40.667 28.833 65 38.5s50.166 14.5 77.499 14.5c26.667 0 52.334 -4.83301 77.001 -14.5s46.5 -22.5 65.5 -38.5s34 -34.5 45 -55.5s16.5 -43.167 16.5 -66.5l-142 -161h213v-54h-235c-8.66699 0 -16.167 2.16699 -22.5 6.5
s-11.166 9.5 -14.499 15.5c-1.33301 2.66699 -2.33301 5 -3 7c-0.666992 -2 -1.66699 -4.33301 -3 -7c-3.33301 -6 -8.16602 -11.167 -14.499 -15.5s-13.833 -6.5 -22.5 -6.5h-123c-10.667 0 -22.167 -0.5 -34.5 -1.5s-24 -4.33301 -35 -10s-20.167 -14.5 -27.5 -26.5
s-11 -28.667 -11 -50c0 -26.667 6.16699 -51.167 18.5 -73.5s27.5 -42 45.5 -59s36.333 -31.833 55 -44.5s33.334 -22 44.001 -28c8.66699 -5.33301 10.334 -12.666 5.00098 -21.999l-22 -31c-38 20.667 -67.5 40.167 -88.5 58.5s-37.5 34.5 -49.5 48.5
s-22.667 28.667 -32 44s-16.833 31.5 -22.5 48.5s-8.5 34.833 -8.5 53.5c0 29.333 5 53.5 15 72.5s22.5 34 37.5 45s31 18.667 48 23s32.5 6.5 46.5 6.5h117zM368.996 64.999l138.998 160c0 12 -3.16699 24.5 -9.5 37.5s-15.666 25 -27.999 36s-27.666 20 -45.999 27
s-39.5 10.5 -63.5 10.5s-45.167 -3.5 -63.5 -10.5s-33.5 -16 -45.5 -27s-21.167 -23 -27.5 -36s-9.5 -25.5 -9.5 -37.5l138 -160c4 -5.33301 6.66699 -10.666 8 -15.999c1.33301 5.33301 4 10.666 8 15.999z" />
    <glyph glyph-name="ghaini" unicode="&#x63a;" horiz-adv-x="454" arabic-form="initial" 
d="M205 493c0 11.333 3.83301 20.833 11.5 28.5s17.167 11.5 28.5 11.5s20.833 -3.83301 28.5 -11.5s11.5 -17.167 11.5 -28.5s-3.83301 -20.833 -11.5 -28.5s-17.167 -11.5 -28.5 -11.5s-20.833 3.83301 -28.5 11.5s-11.5 17.167 -11.5 28.5zM373 54
c13.333 0 20.002 -6.66699 20.002 -20v-34h-413v54h119c-4 2.66699 -8.66699 7.5 -14 14.5s-10.666 16.333 -15.999 28s-9.83301 26 -13.5 43s-5.5 36.833 -5.5 59.5c0 29.333 3.16699 55.5 9.5 78.5s17.166 42.5 32.499 58.5s35.666 28.333 60.999 37s57.333 13 96 13
c30 0 59 -2.16699 87 -6.5s48.667 -8.16602 62 -11.499l-9 -31c-4 -14 -15 -19.333 -33 -16c-24.667 4 -44.667 6.83301 -60 8.5s-34.666 2.5 -57.999 2.5c-28 0 -50.667 -3.5 -68 -10.5s-30.833 -16.5 -40.5 -28.5s-16.334 -26.333 -20.001 -43s-5.5 -34.334 -5.5 -53.001
c0 -30.667 4 -55.334 12 -74.001s17.5 -33.167 28.5 -43.5s22.167 -17.166 33.5 -20.499s20.666 -5 27.999 -5h167z" />
    <glyph glyph-name="ghamedi" unicode="&#x63a;" horiz-adv-x="529" arabic-form="medial" 
d="M225 493c0 11.333 3.83301 20.833 11.5 28.5s17.167 11.5 28.5 11.5s20.833 -3.83301 28.5 -11.5s11.5 -17.167 11.5 -28.5s-3.83301 -20.833 -11.5 -28.5s-17.167 -11.5 -28.5 -11.5s-20.833 3.83301 -28.5 11.5s-11.5 17.167 -11.5 28.5zM264 390
c26.667 0 52.332 -4.83301 76.999 -14.5s46.5 -22.5 65.5 -38.5s34 -34.5 45 -55.5s16.5 -43.167 16.5 -66.5l-140 -161h211v-54h-235c-8.66699 0 -16.167 2.16699 -22.5 6.5s-11.166 9.5 -14.499 15.5c-1.33301 2.66699 -2.33301 5 -3 7
c-0.666992 -2 -1.66699 -4.33301 -3 -7c-3.33301 -6 -8.16602 -11.167 -14.499 -15.5s-13.833 -6.5 -22.5 -6.5h-244v54h220l-140 161c0 23.333 5.5 45.5 16.5 66.5s26 39.5 45 55.5s40.667 28.833 65 38.5s50.166 14.5 77.499 14.5zM271.998 65l139 165
c0 8.66699 -3.5 19.5 -10.5 32.5s-16.667 25 -29 36s-27.333 20 -45 27s-38.5 10.5 -62.5 10.5s-44.833 -3.5 -62.5 -10.5s-32.5 -16 -44.5 -27s-21.5 -23 -28.5 -36s-10.5 -23.833 -10.5 -32.5l138 -165c4 -5.33301 6.66699 -10.666 8 -15.999
c1.33301 5.33301 4 10.666 8 15.999z" />
    <glyph glyph-name="fafina" unicode="&#x641;" horiz-adv-x="1007" arabic-form="final" 
d="M824 313c-23.333 8 -43.501 12.835 -60.501 14.502s-31.5 2.5 -43.5 2.5c-29.333 0 -53 -4 -71 -12s-31.667 -18.333 -41 -31s-15.5 -26.834 -18.5 -42.501s-4.5 -31.834 -4.5 -48.501c0 -27.333 3.66699 -50 11 -68s16 -32.5 26 -43.5s20.333 -18.833 31 -23.5
s19.334 -7 26.001 -7h79c24 0 41 5.83301 51 17.5s15 28.5 15 50.5v191zM881.999 94.002c8 -7.33301 17.501 -13.833 28.501 -19.5s24.333 -10.5 40 -14.5s34.167 -6 55.5 -6h8v-54h-8c-8.66699 0 -18.834 0.666992 -30.501 2s-23.834 3.66602 -36.501 6.99902
s-25 8.33301 -37 15s-22.667 15.334 -32 26.001c-9.33301 -16 -23.166 -28.333 -41.499 -37s-41.5 -13 -69.5 -13h-506c-33.333 0 -62.5 5.16699 -87.5 15.5s-46 24.5 -63 42.5s-29.833 38.833 -38.5 62.5s-13 48.834 -13 75.501c0 30 2.16699 55.833 6.5 77.5
s8.16602 37.167 11.499 46.5c13.333 -4 26.666 -8.66699 39.999 -14c9.33301 -4 12.333 -11.333 9 -22c-3.33301 -11.333 -6.16602 -23 -8.49902 -35s-3.5 -27.333 -3.5 -46c0 -30.667 5.16699 -55.667 15.5 -75s23.5 -34.5 39.5 -45.5s34.167 -18.5 54.5 -22.5
s41.166 -6 62.499 -6h303c-6 6 -12.167 12.667 -18.5 20s-12.166 16.666 -17.499 27.999s-9.5 24.833 -12.5 40.5s-4.5 34.5 -4.5 56.5c0 28 4 53.5 12 76.5s19.833 42.667 35.5 59s36.334 29 62.001 38s57.167 13.5 94.5 13.5c16 0 32 -1.33301 48 -4s30.833 -6 44.5 -10
s25.5 -7.83301 35.5 -11.5s17.333 -6.5 22 -8.5v-258zM706 497.002c0 11.333 3.83301 20.833 11.5 28.5s17.167 11.5 28.5 11.5s20.833 -3.83301 28.5 -11.5s11.5 -17.167 11.5 -28.5s-3.83301 -20.833 -11.5 -28.5s-17.167 -11.5 -28.5 -11.5s-20.833 3.83301 -28.5 11.5
s-11.5 17.167 -11.5 28.5z" />
    <glyph glyph-name="faini" unicode="&#x641;" horiz-adv-x="485" arabic-form="initial" 
d="M369 156c-18 -10.667 -36.332 -17.667 -54.999 -21s-40 -5 -64 -5c-64 0 -109 13.667 -135 41s-39 68.333 -39 123c0 54 14.667 94.667 44 122s78.666 41 147.999 41c26.667 0 53.667 -3.83301 81 -11.5s53.333 -16.167 78 -25.5v-260c0 -21.333 -2.66699 -41.5 -8 -60.5
s-15 -36 -29 -51s-32.833 -26.833 -56.5 -35.5s-53.834 -13 -90.501 -13h-263v54h255c19.333 0 37 1.5 53 4.5s30 8.5 42 16.5s21.333 18.5 28 31.5s10.334 29.5 11.001 49.5zM249.001 179c24 0 46.001 2.66797 66.001 8.00098s38 12.666 54 21.999v174
c-22 8.66699 -41.333 14.667 -58 18s-35 5 -55 5c-18.667 0 -35.834 -1.66699 -51.501 -5s-29 -9.33301 -40 -18s-19.5 -20.667 -25.5 -36s-9 -35 -9 -59c0 -22.667 3.16699 -41.167 9.5 -55.5s15 -25.5 26 -33.5s23.833 -13.333 38.5 -16s29.667 -4 45 -4zM220.002 578.001
c0 11.333 3.83301 20.833 11.5 28.5s17.167 11.5 28.5 11.5s20.833 -3.83301 28.5 -11.5s11.5 -17.167 11.5 -28.5s-3.83301 -20.833 -11.5 -28.5s-17.167 -11.5 -28.5 -11.5s-20.833 3.83301 -28.5 11.5s-11.5 17.167 -11.5 28.5z" />
    <glyph glyph-name="famedi" unicode="&#x641;" horiz-adv-x="492" arabic-form="medial" 
d="M374 211c0 38.667 -11.501 69.9971 -34.501 93.9971s-54.167 36 -93.5 36c-24.667 0 -45.334 -3.5 -62.001 -10.5s-30.167 -16.5 -40.5 -28.5s-18 -26 -23 -42s-7.5 -32.333 -7.5 -49c0 -17.333 4 -33.833 12 -49.5s18.333 -30 31 -43s26.834 -25 42.501 -36
s30.834 -21.167 45.501 -30.5l45 30c15.333 10.667 29.333 22.334 42 35.001s23 26.834 31 42.501s12 32.834 12 51.501zM-20.001 53.9971h167.997c-12 10 -25.167 22.5 -39.5 37.5s-26.666 33.333 -36.999 55s-15.5 45.167 -15.5 70.5c0 22.667 3.5 45.167 10.5 67.5
s18 42 33 59s34.5 30.333 58.5 40s53.667 14.5 89 14.5c56.667 0 101.5 -16.667 134.5 -50s49.5 -77 49.5 -131c0 -28.667 -5.16699 -53.167 -15.5 -73.5s-22.666 -37.833 -36.999 -52.5s-27.166 -27 -38.499 -37h168v-54h-528v54zM203.996 494.997
c0 11.333 3.83301 20.833 11.5 28.5s17.167 11.5 28.5 11.5s20.833 -3.83301 28.5 -11.5s11.5 -17.167 11.5 -28.5s-3.83301 -20.833 -11.5 -28.5s-17.167 -11.5 -28.5 -11.5s-20.833 3.83301 -28.5 11.5s-11.5 17.167 -11.5 28.5z" />
    <glyph glyph-name="kaaffina" unicode="&#x642;" horiz-adv-x="717" arabic-form="final" 
d="M341 492c0 11.333 3.83301 20.833 11.5 28.5s17.167 11.5 28.5 11.5s20.833 -3.83301 28.5 -11.5s11.5 -17.167 11.5 -28.5s-3.83301 -20.833 -11.5 -28.5s-17.167 -11.5 -28.5 -11.5s-20.833 3.83301 -28.5 11.5s-11.5 17.167 -11.5 28.5zM449 492
c0 11.333 3.83301 20.833 11.5 28.5s17.167 11.5 28.5 11.5s20.833 -3.83301 28.5 -11.5s11.5 -17.167 11.5 -28.5s-3.83301 -20.833 -11.5 -28.5s-17.167 -11.5 -28.5 -11.5s-20.833 3.83301 -28.5 11.5s-11.5 17.167 -11.5 28.5zM604 -35
c0 -30 -2.33203 -59.1641 -6.99902 -87.4971s-15.667 -53.5 -33 -75.5s-43.666 -39.5 -78.999 -52.5s-83.666 -19.5 -144.999 -19.5c-46 0 -87.667 4.16699 -125 12.5s-69 21.666 -95 39.999s-46.167 42.166 -60.5 71.499s-21.5 65 -21.5 107
c0 24.667 1.5 45.834 4.5 63.501s5.16699 29.167 6.5 34.5c4 16.667 13.333 22.667 28 18l30 -9l-6 -34.5c-2 -11 -3.5 -22.333 -4.5 -34s-1.5 -22.167 -1.5 -31.5c0 -42 7.33301 -75.167 22 -99.5s35.167 -43 61.5 -56s52 -21 77 -24s53.167 -4.5 84.5 -4.5
c46.667 0 83.667 4.66699 111 14s48 21.666 62 36.999s23 32.833 27 52.5s6 39.834 6 60.501v52h-97c-37.333 0 -69 4.5 -95 13.5s-46.833 21.833 -62.5 38.5s-26.834 36.667 -33.501 60s-9.33398 49 -8.00098 77c1.33301 25.333 5.83301 48.166 13.5 68.499
s19.5 37.666 35.5 51.999s36.167 25.333 60.5 33s54.166 11.5 89.499 11.5c16 0 32.167 -1.5 48.5 -4.5s31.5 -6.5 45.5 -10.5s26.5 -7.83301 37.5 -11.5s18.833 -6.5 23.5 -8.5v-265h123v-54h-123v-35zM546.001 54.0029v223.002c-20 7.33301 -39.333 12.666 -58 15.999
s-36 5 -52 5c-19.333 0 -36.833 -2.16699 -52.5 -6.5s-29 -11.5 -40 -21.5s-19.667 -23 -26 -39s-9.5 -36 -9.5 -60c0 -23.333 3 -42.5 9 -57.5s14.333 -26.833 25 -35.5s23 -14.834 37 -18.501s29 -5.5 45 -5.5h122z" />
    <glyph glyph-name="kaafini" unicode="&#x642;" horiz-adv-x="485" arabic-form="initial" 
d="M172 587c0 11.333 3.83301 20.833 11.5 28.5s17.167 11.5 28.5 11.5s20.833 -3.83301 28.5 -11.5s11.5 -17.167 11.5 -28.5s-3.83301 -20.833 -11.5 -28.5s-17.167 -11.5 -28.5 -11.5s-20.833 3.83301 -28.5 11.5s-11.5 17.167 -11.5 28.5zM280 587
c0 11.333 3.83301 20.833 11.5 28.5s17.167 11.5 28.5 11.5s20.833 -3.83301 28.5 -11.5s11.5 -17.167 11.5 -28.5s-3.83301 -20.833 -11.5 -28.5s-17.167 -11.5 -28.5 -11.5s-20.833 3.83301 -28.5 11.5s-11.5 17.167 -11.5 28.5zM369 156
c-18 -10.667 -36.332 -17.667 -54.999 -21s-40 -5 -64 -5c-64 0 -109 13.667 -135 41s-39 68.333 -39 123c0 54 14.667 94.667 44 122s78.666 41 147.999 41c26.667 0 53.667 -3.83301 81 -11.5s53.333 -16.167 78 -25.5v-260c0 -21.333 -2.66699 -41.5 -8 -60.5
s-15 -36 -29 -51s-32.833 -26.833 -56.5 -35.5s-53.834 -13 -90.501 -13h-263v54h255c19.333 0 37 1.5 53 4.5s30 8.5 42 16.5s21.333 18.5 28 31.5s10.334 29.5 11.001 49.5zM249.001 179c24 0 46.001 2.66797 66.001 8.00098s38 12.666 54 21.999v174
c-22 8.66699 -41.333 14.667 -58 18s-35 5 -55 5c-18.667 0 -35.834 -1.66699 -51.501 -5s-29 -9.33301 -40 -18s-19.5 -20.667 -25.5 -36s-9 -35 -9 -59c0 -22.667 3.16699 -41.167 9.5 -55.5s15 -25.5 26 -33.5s23.833 -13.333 38.5 -16s29.667 -4 45 -4z" />
    <glyph glyph-name="kaafmedi" unicode="&#x642;" horiz-adv-x="492" arabic-form="medial" 
d="M151 496c0 11.333 3.83301 20.833 11.5 28.5s17.167 11.5 28.5 11.5s20.833 -3.83301 28.5 -11.5s11.5 -17.167 11.5 -28.5s-3.83301 -20.833 -11.5 -28.5s-17.167 -11.5 -28.5 -11.5s-20.833 3.83301 -28.5 11.5s-11.5 17.167 -11.5 28.5zM259 496
c0 11.333 3.83301 20.833 11.5 28.5s17.167 11.5 28.5 11.5s20.833 -3.83301 28.5 -11.5s11.5 -17.167 11.5 -28.5s-3.83301 -20.833 -11.5 -28.5s-17.167 -11.5 -28.5 -11.5s-20.833 3.83301 -28.5 11.5s-11.5 17.167 -11.5 28.5zM374 211
c0 38.667 -11.501 69.9971 -34.501 93.9971s-54.167 36 -93.5 36c-24.667 0 -45.334 -3.5 -62.001 -10.5s-30.167 -16.5 -40.5 -28.5s-18 -26 -23 -42s-7.5 -32.333 -7.5 -49c0 -17.333 4 -33.833 12 -49.5s18.333 -30 31 -43s26.834 -25 42.501 -36
s30.834 -21.167 45.501 -30.5l45 30c15.333 10.667 29.333 22.334 42 35.001s23 26.834 31 42.501s12 32.834 12 51.501zM-20.001 53.9971h167.997c-12 10 -25.167 22.5 -39.5 37.5s-26.666 33.333 -36.999 55s-15.5 45.167 -15.5 70.5c0 22.667 3.5 45.167 10.5 67.5
s18 42 33 59s34.5 30.333 58.5 40s53.667 14.5 89 14.5c56.667 0 101.5 -16.667 134.5 -50s49.5 -77 49.5 -131c0 -28.667 -5.16699 -53.167 -15.5 -73.5s-22.666 -37.833 -36.999 -52.5s-27.166 -27 -38.499 -37h168v-54h-528v54z" />
    <glyph glyph-name="kaffina" unicode="&#x643;" horiz-adv-x="783" arabic-form="final" 
d="M659 95c8 -8 17.998 -15.0039 29.998 -21.0039c10 -5.33301 22.833 -10 38.5 -14s34.167 -6 55.5 -6h9v-54h-9c-8 0 -18 0.666992 -30 2s-24.5 4 -37.5 8s-25.833 9.33301 -38.5 16s-24 15.667 -34 27c-9.33301 -16.667 -22.666 -29.667 -39.999 -39s-40 -14 -68 -14
h-253c-40 0 -74.333 5.16699 -103 15.5s-52.5 24.5 -71.5 42.5s-33 38.833 -42 62.5s-13.5 48.834 -13.5 75.501c0 30 2.33301 55.833 7 77.5s8.66699 37.167 12 46.5c12.667 -4 26 -8.66699 40 -14c9.33301 -3.33301 12.333 -10.666 9 -21.999
s-6.16602 -22.666 -8.49902 -33.999s-3.5 -26.666 -3.5 -45.999c0 -31.333 5.33301 -56.666 16 -75.999s24 -34.5 40 -45.5s34.333 -18.5 55 -22.5s41.667 -6 63 -6h226c34 0 58 8.16699 72 24.5s21 38.166 21 65.499v444c0 13.333 6.66699 20 20 20h38v-513z
M278.998 268.996l-0.000976562 12.998c0 13.333 6.66699 20 20 20h14c-12.667 12.667 -19 28.334 -19 47.001c0 14 2.66699 25.667 8 35s12.333 17 21 23s18.5 10.333 29.5 13s22.5 4 34.5 4c14 0 27 -1 39 -3s20.667 -3.66699 26 -5
c-0.666992 -7.33301 -1.66699 -14.666 -3 -21.999c-2 -7.33301 -6.66699 -10.333 -14 -9c-4 0.666992 -9.33301 1.5 -16 2.5s-17 1.5 -31 1.5c-25.333 0 -41.666 -4 -48.999 -12s-11 -17.667 -11 -29c0 -8.66699 1.83301 -16 5.5 -22s8.5 -10.667 14.5 -14
s12.5 -5.83301 19.5 -7.5s13.833 -2.5 20.5 -2.5h40c13.333 0 20 -6.66699 20 -20v-13h-169z" />
    <glyph glyph-name="lamfina" unicode="&#x644;" horiz-adv-x="686" arabic-form="final" 
d="M562 94c2 -2 6.00098 -5.16504 12.001 -9.49805s14.167 -8.66602 24.5 -12.999s22.666 -8.33301 36.999 -12s30.833 -5.5 49.5 -5.5h7v-54h-7c-14 0 -32.167 2.33301 -54.5 7s-45.166 16 -68.499 34v-57c0 -24 -1.83301 -48.5 -5.5 -73.5s-13.334 -47.667 -29.001 -68
s-39.334 -36.666 -71.001 -48.999s-75.167 -18.5 -130.5 -18.5c-32 0 -64.5 2.33301 -97.5 7s-62.667 15.834 -89 33.501s-47.833 43.167 -64.5 76.5s-25 77.666 -25 132.999c0 15.333 0.833008 32.166 2.5 50.499s3.83398 36.833 6.50098 55.5s6 36.834 10 54.501
s8.33301 33.5 13 47.5c14.667 -4.66699 28 -9.33398 40 -14.001c9.33301 -3.33301 12.666 -9.66602 9.99902 -18.999c-3.33301 -10 -6.5 -21.333 -9.5 -34s-5.66699 -26.834 -8 -42.501s-4.16602 -31.834 -5.49902 -48.501s-2 -33.334 -2 -50.001c0 -48 7 -84.833 21 -110.5
s32 -44.5 54 -56.5s46.333 -19.167 73 -21.5s52.334 -3.5 77.001 -3.5c41.333 0 73.5 4 96.5 12s40.167 19 51.5 33s18.166 30.667 20.499 50s3.5 40.666 3.5 63.999v596c0 13.333 6.66699 20 20 20h38v-514z" />
    <glyph glyph-name="lamini" unicode="&#x644;" horiz-adv-x="273" arabic-form="initial" 
d="M206 200c0 -31.333 -2.83301 -59.333 -8.5 -84s-15.5 -45.5 -29.5 -62.5s-33.167 -30.167 -57.5 -39.5s-54.833 -14 -91.5 -14h-39v54h38c44.667 0 77.5 9.66699 98.5 29s31.5 47.333 31.5 84v421c0 13.333 6.66699 20 20 20h38v-408z" />
    <glyph glyph-name="lammedi" unicode="&#x644;" horiz-adv-x="298" arabic-form="medial" 
d="M116 588c0 13.333 6.99707 20 20.9971 20h37v-513c7.33301 -8 16.5 -14.833 27.5 -20.5s24.333 -10.5 40 -14.5s34.5 -6 56.5 -6h7v-54h-7c-8 0 -18.167 0.666992 -30.5 2s-25 3.83301 -38 7.5s-25.667 8.83398 -38 15.501s-23.166 15.667 -32.499 27
c-10 -16 -23.667 -28.667 -41 -38s-40.666 -14 -69.999 -14h-68v54h43c36.667 0 61.334 8.16699 74.001 24.5s19 38.166 19 65.499v444v0z" />
    <glyph glyph-name="meemfina" unicode="&#x645;" horiz-adv-x="642" arabic-form="final" 
d="M511 44c-9.33301 -21.333 -23.0029 -38.002 -41.0029 -50.002s-45 -18 -81 -18c-29.333 0 -58 3.83301 -86 11.5s-50.333 17.167 -67 28.5c-14 -2 -29.167 -5.66699 -45.5 -11s-31 -13.166 -44 -23.499s-23.833 -22.833 -32.5 -37.5s-13 -32 -13 -52
c0 -28 2.16699 -55.333 6.5 -82s7.83301 -46.667 10.5 -60c2.66699 -10.667 -0.666016 -17 -9.99902 -19l-44 -9c-2 6.66699 -4.16699 16 -6.5 28s-4.66602 25.5 -6.99902 40.5s-4.33301 31.333 -6 49s-2.5 35.834 -2.5 54.501c0 30.667 5.33301 56.334 16 77.001
s23.5 37.334 38.5 50.001s30 22 45 28s34.167 11 57.5 15c-6.66699 8.66699 -14.5 23 -23.5 43s-13.5 50 -13.5 90c0 29.333 4.33301 56.166 13 80.499s21.667 45.333 39 63s38.833 31.5 64.5 41.5s55.834 15 90.501 15c15.333 0 30.666 -1 45.999 -3
s29.833 -4.33301 43.5 -7s25.667 -5.33398 36 -8.00098s18.5 -4.66699 24.5 -6v-276c1.33301 -2.66699 4.83301 -6 10.5 -10s13.5 -8.5 23.5 -13.5s22.333 -9.5 37 -13.5s32 -6 52 -6h7v-54h-7c-7.33301 0 -16.5 0.5 -27.5 1.5s-22.667 3.16699 -35 6.5
s-24.666 7.83301 -36.999 13.5s-22.833 13.167 -31.5 22.5zM460.997 326.998c-12 4 -25.3291 7.66699 -39.9961 11s-31.667 5 -51 5c-26.667 0.666992 -49.334 -2.66602 -68.001 -9.99902s-33.834 -17.333 -45.501 -30s-20.834 -28.334 -27.501 -47.001s-10 -41 -10 -67
c0 -50 15.667 -89 47 -117s68.666 -42 111.999 -42c22 0 41.333 5 58 15s25 28.667 25 56v226z" />
    <glyph glyph-name="meemini" unicode="&#x645;" horiz-adv-x="500" arabic-form="initial" 
d="M296 386c31.333 0 59.502 -3.16699 84.502 -9.5s43.167 -11.166 54.5 -14.499v-255c0 -16.667 -1.83301 -33.167 -5.5 -49.5s-10.334 -31 -20.001 -44s-23 -23.5 -40 -31.5s-39.167 -12 -66.5 -12c-10 0 -23.167 1.5 -39.5 4.5s-32.166 6.5 -47.499 10.5
c-18 4 -37 9 -57 15h-179v54h116c-4.66699 12 -9.66699 30.667 -15 56s-8 52 -8 80c0 29.333 5.16699 56.166 15.5 80.499s25.166 45 44.499 62s42.666 30.167 69.999 39.5s58.333 14 93 14zM377.002 320c-8.66699 2 -20.3291 4.16895 -34.9961 6.50195s-29.667 3.5 -45 3.5
c-28.667 0 -53.334 -4.16699 -74.001 -12.5s-37.834 -19.333 -51.501 -33s-23.834 -29.334 -30.501 -47.001s-10 -35.834 -10 -54.501c0 -22.667 2.5 -46.834 7.5 -72.501s10.5 -43.5 16.5 -53.5c25.333 -7.33301 49.166 -15.166 71.499 -23.499s45.833 -12.5 70.5 -12.5
c23.333 0 42.5 6.33301 57.5 19s22.5 33 22.5 61v219z" />
    <glyph glyph-name="meemmedi" unicode="&#x645;" horiz-adv-x="556" arabic-form="medial" 
d="M423 43c-4 -12.667 -8.99805 -22.8311 -14.998 -30.498s-13.667 -14.834 -23 -21.501s-20.666 -11.834 -33.999 -15.501s-29.333 -5.5 -48 -5.5c-10 0 -23.167 1.5 -39.5 4.5s-32.833 6.5 -49.5 10.5s-35 9 -55 15h-179v54h116c-4.66699 12 -9.66699 30.667 -15 56
s-8 52 -8 80c0 29.333 5.16699 56.166 15.5 80.499s25.166 45 44.499 62s42.666 30.167 69.999 39.5s58.333 14 93 14c31.333 0 59.166 -3.16699 83.499 -9.5s42.166 -11.166 53.499 -14.499v-265c1.33301 -1.33301 4.83301 -4.33301 10.5 -9s13.5 -9.5 23.5 -14.5
s22.333 -9.5 37 -13.5s32 -6 52 -6h7v-54h-7c-7.33301 0 -16.5 0.5 -27.5 1.5s-22.667 3 -35 6s-24.666 7.33301 -36.999 13s-23.5 13.167 -33.5 22.5zM375.002 322.003l-33.9941 5.00098c-14 2 -28.667 3 -44 3c-28.667 0 -53.334 -4.16699 -74.001 -12.5
s-37.834 -19.333 -51.501 -33s-23.834 -29.334 -30.501 -47.001s-10 -35.834 -10 -54.501c0 -21.333 2.66699 -44.833 8 -70.5s10.666 -44.167 15.999 -55.5c25.333 -7.33301 49.166 -15.166 71.499 -23.499s45.833 -12.5 70.5 -12.5c23.333 0 42.166 6.33301 56.499 19
s21.5 33 21.5 61v221z" />
    <glyph glyph-name="nounfina" unicode="&#x646;" horiz-adv-x="695" arabic-form="final" 
d="M573 -13c0 -24 -2.00098 -48.498 -6.00098 -73.498s-14 -47.5 -30 -67.5s-39.833 -36.5 -71.5 -49.5s-75.167 -19.5 -130.5 -19.5c-32 0 -64.667 2.66699 -98 8s-63.666 16.833 -90.999 34.5s-49.666 43.167 -66.999 76.5s-26 78 -26 134
c0 14.667 0.833008 31.167 2.5 49.5s4 36.666 7 54.999s6.5 36.333 10.5 54s8.33301 33.5 13 47.5c14.667 -4 28.334 -8.33301 41.001 -13c8.66699 -3.33301 11.334 -10 8.00098 -20c-5.33301 -17.333 -10.5 -42 -15.5 -74s-7.5 -65 -7.5 -99c0 -48 7.33301 -85 22 -111
s33.167 -45 55.5 -57s47.166 -19.333 74.499 -22s53.666 -4 78.999 -4c42 0 74.5 4.16699 97.5 12.5s40 19.5 51 33.5s17.667 30.667 20 50s3.5 40.666 3.5 63.999v349c0 13.333 7 20 21 20h37v-269c13.333 -10.667 25 -18.5 35 -23.5s22.167 -9.33301 36.5 -13
s31.166 -5.5 50.499 -5.5h8v-54h-8c-13.333 0 -31.5 4 -54.5 12s-45.5 21.333 -67.5 40v-65zM289.999 362.002c0 11.333 3.83301 20.833 11.5 28.5s17.167 11.5 28.5 11.5s20.833 -3.83301 28.5 -11.5s11.5 -17.167 11.5 -28.5s-3.83301 -20.833 -11.5 -28.5
s-17.167 -11.5 -28.5 -11.5s-20.833 3.83301 -28.5 11.5s-11.5 17.167 -11.5 28.5z" />
    <glyph glyph-name="nounini" unicode="&#x646;" horiz-adv-x="293" arabic-form="initial" 
d="M174 345c0 13.333 6.66699 20 20 20h38v-213c0 -101.333 -60.667 -152 -182 -152h-70v54h66c39.333 0 70.5 9.5 93.5 28.5s34.5 47.167 34.5 84.5v178zM157 487c0 11.333 3.83301 20.833 11.5 28.5s17.167 11.5 28.5 11.5s20.833 -3.83301 28.5 -11.5
s11.5 -17.167 11.5 -28.5s-3.83301 -20.833 -11.5 -28.5s-17.167 -11.5 -28.5 -11.5s-20.833 3.83301 -28.5 11.5s-11.5 17.167 -11.5 28.5z" />
    <glyph glyph-name="nounmedi" unicode="&#x646;" arabic-form="medial" 
d="M118 345c0 13.333 6.66504 20.0029 19.998 20.0029h38v-271c8 -7.33301 17.5 -13.833 28.5 -19.5s24.5 -10.5 40.5 -14.5s33.333 -6 52 -6h11v-54h-11c-8 0 -17.167 0.5 -27.5 1.5s-21.666 3.16699 -33.999 6.5s-24.5 8.16602 -36.5 14.499s-22.667 15.166 -32 26.499
c-21.333 -32.667 -59.666 -49 -114.999 -49h-72v54h45c34 0 58 6.66699 72 20s21 34.666 21 63.999v207zM103.998 487.003c0 11.333 3.83301 20.833 11.5 28.5s17.167 11.5 28.5 11.5s20.833 -3.83301 28.5 -11.5s11.5 -17.167 11.5 -28.5s-3.83301 -20.833 -11.5 -28.5
s-17.167 -11.5 -28.5 -11.5s-20.833 3.83301 -28.5 11.5s-11.5 17.167 -11.5 28.5z" />
    <glyph glyph-name="haiso" unicode="&#x647;" horiz-adv-x="464" arabic-form="isolated" 
d="M229 -7c-32 0 -59.6689 5.16699 -83.002 15.5s-42.5 24.333 -57.5 42s-26.167 38.5 -33.5 62.5s-11 49.667 -11 77c0 63.333 17.833 114 53.5 152s86.834 57 153.501 57c14.667 0 30.5 -0.833008 47.5 -2.5s33 -4 48 -7s28.5 -5.83301 40.5 -8.5s20.667 -4.66699 26 -6
v-214c0 -16.667 -1.33301 -34.667 -4 -54s-9.66699 -37.5 -21 -54.5s-28.666 -31.167 -51.999 -42.5s-55.333 -17 -96 -17h-11zM355.998 329c-16 5.33301 -32.666 9 -49.999 11s-35 3 -53 3c-26 0 -48.833 -4 -68.5 -12s-35.667 -18.833 -48 -32.5s-21.333 -30 -27 -49
s-8.5 -39.5 -8.5 -61.5c0 -26 3.5 -47.833 10.5 -65.5s16.833 -32 29.5 -43s27.167 -18.833 43.5 -23.5s34.166 -7 53.499 -7h11c22 0 39.833 3.33301 53.5 10s24.5 14.667 32.5 24s13.5 19 16.5 29s4.5 18.667 4.5 26v191z" />
    <glyph glyph-name="hafina" unicode="&#x647;" horiz-adv-x="476" arabic-form="final" 
d="M486 54l0.000976562 -54.0029h-41c-9.33301 0 -18.833 1.66699 -28.5 5s-18 8 -25 14s-12.667 12.167 -17 18.5s-7.5 11.833 -9.5 16.5c-4.66699 -4.66699 -11 -10.5 -19 -17.5s-17.667 -13.667 -29 -20s-24.666 -11.833 -39.999 -16.5s-32.666 -7 -51.999 -7
c-22.667 0 -44.334 2.66699 -65.001 8s-39.334 15.5 -56.001 30.5s-30.167 36.333 -40.5 64s-15.5 63.834 -15.5 108.501c0 26.667 3 51.834 9 75.501s16 44.334 30 62.001s32.5 31.834 55.5 42.501s52.5 16 88.5 16c20 0 39.333 -1 58 -3s36 -4.5 52 -7.5
s38 -7.83301 66 -14.5v-267c0 -18.667 5.66699 -32.334 17 -41.001s24.666 -13 39.999 -13h22zM349.001 329.997c-21.333 6 -41.499 9.83203 -60.499 11.499s-35.167 2.5 -48.5 2.5c-19.333 0 -36.833 -1.66699 -52.5 -5s-29.5 -10.166 -41.5 -20.499
s-21.667 -24.833 -29 -43.5s-11 -43 -11 -73c0 -56 10.833 -95.833 32.5 -119.5s53.167 -35.5 94.5 -35.5c20 0 37.333 3.5 52 10.5s27.167 14.5 37.5 22.5s19.166 17.333 26.499 28v222z" />
    <glyph glyph-name="hamedi" unicode="&#x647;" horiz-adv-x="555" arabic-form="medial" 
d="M572 0h-166c8 -8.66699 15.833 -22.334 23.5 -41.001s11.5 -41.334 11.5 -68.001c0 -34.667 -13.833 -63.667 -41.5 -87s-66.5 -35 -116.5 -35c-30.667 0 -56.5 3 -77.5 9s-38.167 13 -51.5 21s-23.666 15.667 -30.999 23l-15 15v163h-128v54h126v276
c14.667 10 30.667 18.833 48 26.5s37.166 14.334 59.499 20.001s47.5 8.5 75.5 8.5c57.333 0 98.666 -14.5 123.999 -43.5s38 -69.167 38 -120.5v-38c0 -30 -4.66699 -55.167 -14 -75.5s-22.666 -38.166 -39.999 -53.499h175v-54zM164 54l120.001 -0.00195312
c13.333 0 26.666 2.66699 39.999 8s25.333 12.833 36 22.5s19.334 21.334 26.001 35.001s10 28.834 10 45.501v65c0 22.667 -3 40.5 -9 53.5s-14.167 23 -24.5 30s-22.5 11.5 -36.5 13.5s-28.667 3 -44 3c-20.667 0 -38.5 -1.83301 -53.5 -5.5s-27.333 -8 -37 -13
s-18.834 -10.833 -27.501 -17.5v-240zM278.001 -177.002c40.667 0 69.501 7.33301 86.501 22s25.5 36.334 25.5 65.001c0 12.667 -1.83301 24.167 -5.5 34.5s-8 19.166 -13 26.499s-10.167 13.5 -15.5 18.5s-9.66602 8.5 -12.999 10.5h-177v-130
c6 -9.33301 13.667 -17.333 23 -24s20.666 -12.167 33.999 -16.5s31.666 -6.5 54.999 -6.5z" />
    <glyph glyph-name="wawfina" unicode="&#x648;" horiz-adv-x="483" arabic-form="final" 
d="M493 0l-82.001 0.00195312v-9c0 -43.333 -4 -79 -12 -107s-19.833 -50.333 -35.5 -67s-35.5 -28.167 -59.5 -34.5s-51.333 -9.5 -82 -9.5c-12 0 -26 1 -42 3s-32.667 5.33301 -50 10c-13.333 3.33301 -18.666 12 -15.999 26c2 10.667 4.66699 21 8 31
c13.333 -5.33301 28.333 -9.5 45 -12.5s34.334 -4.5 53.001 -4.5c33.333 0 59 4.83301 77 14.5s31.167 22.334 39.5 38.001s13.166 33.167 14.499 52.5s2 38.666 2 57.999v11h-105c-17.333 0 -36.833 2.16699 -58.5 6.5s-41.5 12.5 -59.5 24.5s-33.5 30.667 -46.5 56
s-19.5 58 -19.5 98c0 33.333 5.33301 63.333 16 90s25 47.667 43 63s40.333 27.166 67 35.499s53 12.5 79 12.5c25.333 0 50 -2.33301 74 -7s46.667 -10.334 68 -17.001v-308h82v-54zM352.999 317.002c-30 7.33301 -56.332 10.999 -78.999 10.999
c-18.667 0.666992 -37.167 -1 -55.5 -5s-34.833 -11.167 -49.5 -21.5s-26.334 -24.666 -35.001 -42.999s-13 -43.833 -13 -76.5c0 -42 11.333 -73.833 34 -95.5s52 -32.5 88 -32.5h110v263z" />
    <glyph glyph-name="yafina" unicode="&#x64a;" horiz-adv-x="691" arabic-form="final" 
d="M273 -347c0 11.333 3.83301 20.833 11.5 28.5s17.167 11.5 28.5 11.5s20.833 -3.83301 28.5 -11.5s11.5 -17.167 11.5 -28.5s-3.83301 -20.833 -11.5 -28.5s-17.167 -11.5 -28.5 -11.5s-20.833 3.83301 -28.5 11.5s-11.5 17.167 -11.5 28.5zM381 -347
c0 11.333 3.83301 20.833 11.5 28.5s17.167 11.5 28.5 11.5s20.833 -3.83301 28.5 -11.5s11.5 -17.167 11.5 -28.5s-3.83301 -20.833 -11.5 -28.5s-17.167 -11.5 -28.5 -11.5s-20.833 3.83301 -28.5 11.5s-11.5 17.167 -11.5 28.5zM435 -163
c13.333 0 27.5029 1.33105 42.5029 3.99805s28.667 7.5 41 14.5s22.5 16.333 30.5 28s12 26.5 12 44.5c0 16 -4 30.667 -12 44s-18.5 25.333 -31.5 36s-28.333 20.334 -46 29.001s-35.834 16.334 -54.501 23.001c4.66699 14.667 9 29 13 43
c3.33301 12 11.666 15.333 24.999 10l28 -12l34.5 -16.5c11.667 -5.66699 24.5 -10.834 38.5 -15.501s29.667 -8.33398 47 -11.001s37.666 -4 60.999 -4h45v-54h-117c4.66699 -5.33301 8.66699 -11.5 12 -18.5s6.33301 -15.667 9 -26s4 -23.166 4 -38.499
c0 -11.333 -2.66699 -24.5 -8 -39.5s-15.166 -29.5 -29.499 -43.5s-34.333 -25.833 -60 -35.5s-58.834 -14.5 -99.501 -14.5h-93c-32.667 0 -65 2.33301 -97 7s-60.667 14.334 -86 29.001s-45.833 35.5 -61.5 62.5s-23.5 62.833 -23.5 107.5c0 32 3.5 63.667 10.5 95
s14.167 58.333 21.5 81c15.333 -2.66699 28 -5.33398 38 -8.00098c8.66699 -2 11.334 -8.66699 8.00098 -20c-4.66699 -18 -9.83398 -39.167 -15.501 -63.5s-8.5 -52.5 -8.5 -84.5c0 -39.333 8 -69.333 24 -90s35.833 -35.667 59.5 -45s49.5 -14.666 77.5 -15.999
s54 -2 78 -2h83z" />
    <glyph glyph-name=".notdef" horiz-adv-x="500" 
d="M62 0v562h375v-562h-375zM125 62h250v438h-250v-438z" />
    <glyph glyph-name="space" unicode=" " horiz-adv-x="256" 
 />
    <glyph glyph-name="space" unicode="&#xa0;" horiz-adv-x="256" 
 />
    <glyph glyph-name="exclam" unicode="!" horiz-adv-x="203" 
d="M132 172c0 -10.667 -4.66699 -16 -14 -16h-44v430c0 14.667 7.33301 22 22 22h36v-436zM61 41c0 11.333 3.83301 20.833 11.5 28.5s17.167 11.5 28.5 11.5s20.833 -3.83301 28.5 -11.5s11.5 -17.167 11.5 -28.5s-3.83301 -21 -11.5 -29s-17.167 -12 -28.5 -12
s-20.833 4 -28.5 12s-11.5 17.667 -11.5 29z" />
    <glyph glyph-name="quotedbl" unicode="&#x22;" horiz-adv-x="290" 
d="M219 441c0 -6 -1.33203 -10.833 -3.99902 -14.5s-7.33398 -5.5 -14.001 -5.5h-18l-9 191c0 14 6.66699 21 20 21h33zM93.001 441c0 -6 -1.5 -10.833 -4.5 -14.5s-7.5 -5.5 -13.5 -5.5h-18l-9 191c0 14 6.66699 21 20 21h33z" />
    <glyph glyph-name="numbersign" unicode="#" horiz-adv-x="574" 
d="M312 0c-4.66699 0 -8.16699 2 -10.5 6s-2.83301 8.66699 -1.5 14l37 177h-175l-43 -197h-29c-5.33301 0 -9.16602 2 -11.499 6s-2.83301 8.66699 -1.5 14l38 177h-64c-10.667 0 -16 4.33301 -16 13v26h88l46 209h-66c-10.667 0 -16 4.33301 -16 13v26h90l43 197h29
c3.33301 0 6.66602 -1.66699 9.99902 -5s4.33301 -8 3 -14l-38 -178h175l44 197h28c4 0 7.5 -1.66699 10.5 -5s3.83301 -8 2.5 -14l-38 -178h63c10.667 0 16 -4.66699 16 -14v-25h-87l-45 -209h64c10.667 0 16 -5 16 -15v-24h-89l-43 -197h-29zM171 236h174l46 209h-175z
" />
    <glyph glyph-name="dollar" unicode="$" horiz-adv-x="590" 
d="M275 777h40v-152c41.333 -2 75.5 -6.83301 102.5 -14.5s44.5 -13.167 52.5 -16.5v-27c0 -12.667 -6 -17 -18 -13c-25.333 8 -51 14.667 -77 20s-54.333 8 -85 8c-33.333 0 -60.833 -2.5 -82.5 -7.5s-38.667 -12.167 -51 -21.5s-21 -20.666 -26 -33.999s-7.5 -28 -7.5 -44
c0 -23.333 4.5 -41.666 13.5 -54.999s20.5 -23.666 34.5 -30.999s29.333 -12.333 46 -15s33 -4.66699 49 -6c20.667 -2 44.334 -5 71.001 -9s51.834 -11.333 75.501 -22s43.667 -26 60 -46s24.5 -47 24.5 -81c0 -22 -3.33301 -42.5 -10 -61.5s-17.334 -36 -32.001 -51
s-34.167 -27.333 -58.5 -37s-53.833 -15.834 -88.5 -18.501v-140h-39v139c-14 0 -29.333 0.833008 -46 2.5s-33.5 3.66699 -50.5 6s-33.167 5.16602 -48.5 8.49902s-28.333 7 -39 11v32c0 12.667 5.66699 16.667 17 12s30.333 -10.5 57 -17.5s60.334 -10.5 101.001 -10.5
c125.333 0 188 40.333 188 121c0 26 -6.66699 46.5 -20 61.5s-30 26.5 -50 34.5s-41.833 13.667 -65.5 17s-45.834 6 -66.501 8c-18 2 -37 5.16699 -57 9.5s-38.333 11.666 -55 21.999s-30.5 24.5 -41.5 42.5s-16.5 41.333 -16.5 70c0 30 5.66699 54.667 17 74
s26.166 35 44.499 47s39.5 20.5 63.5 25.5s48.667 7.83301 74 8.5v151z" />
    <glyph glyph-name="percent" unicode="%" horiz-adv-x="568" 
d="M440 622c9.33301 14 21.333 16.667 36 8l26 -16l-371 -594c-7.33301 -10.667 -16.333 -13 -27 -7l-33 20zM143 441c-38 0 -63.333 9.83301 -76 29.5s-19 45.5 -19 77.5s6.33301 57.667 19 77s38 29 76 29c19.333 0 35 -2.5 47 -7.5s21.5 -12.167 28.5 -21.5
s11.833 -20.5 14.5 -33.5s4 -27.5 4 -43.5s-1.33301 -30.5 -4 -43.5s-7.5 -24.333 -14.5 -34s-16.5 -17 -28.5 -22s-27.667 -7.5 -47 -7.5zM143 616c-13.333 0 -23.833 -1.66699 -31.5 -5s-13.334 -8 -17.001 -14s-6 -13.167 -7 -21.5s-1.5 -17.5 -1.5 -27.5
s0.5 -19.167 1.5 -27.5s3.33301 -15.5 7 -21.5s9.33398 -10.667 17.001 -14s18.167 -5 31.5 -5c12.667 0 22.667 1.66699 30 5s13 8 17 14s6.5 13.167 7.5 21.5s1.5 17.5 1.5 27.5s-0.5 19.167 -1.5 27.5s-3.5 15.5 -7.5 21.5s-9.66699 10.667 -17 14s-17.333 5 -30 5z
M433 22c-38 0 -63.333 9.83301 -76 29.5s-19 45.5 -19 77.5s6.33301 57.667 19 77s38 29 76 29c19.333 0 35 -2.5 47 -7.5s21.5 -12.167 28.5 -21.5s11.833 -20.5 14.5 -33.5s4 -27.5 4 -43.5s-1.33301 -30.5 -4 -43.5s-7.5 -24.333 -14.5 -34s-16.5 -17 -28.5 -22
s-27.667 -7.5 -47 -7.5zM433 197c-13.333 0 -23.833 -1.66699 -31.5 -5s-13.334 -8 -17.001 -14s-6 -13.167 -7 -21.5s-1.5 -17.5 -1.5 -27.5s0.5 -19.167 1.5 -27.5s3.33301 -15.5 7 -21.5s9.33398 -10.667 17.001 -14s18.167 -5 31.5 -5c12.667 0 22.667 1.66699 30 5
s13 8 17 14s6.5 13.167 7.5 21.5s1.5 17.5 1.5 27.5s-0.5 19.167 -1.5 27.5s-3.5 15.5 -7.5 21.5s-9.66699 10.667 -17 14s-17.333 5 -30 5z" />
    <glyph glyph-name="ampersand" unicode="&#x26;" horiz-adv-x="633" 
d="M539 381c14 0 20.998 -7.66992 20.998 -23.0029c0.666992 -27.333 -3.83301 -62.666 -13.5 -105.999s-29.167 -87.666 -58.5 -132.999l92 -102c3.33301 -4.66699 3.83301 -8.66699 1.5 -12s-6.83301 -5 -13.5 -5h-48l-65 74c-32.667 -34 -64.667 -57 -96 -69
s-66.666 -18 -105.999 -18c-69.333 0 -120 16.167 -152 48.5s-49 70.333 -51 114s0.833008 75.667 8.5 96s18.667 39.5 33 57.5s46.833 41.667 97.5 71c-29.333 44 -47.166 71.5 -53.499 82.5s-12.333 24 -18 39s-8.5 30.833 -8.5 47.5c0 46.667 14 83.167 42 109.5
s72 39.5 132 39.5c36 -2 64.5 -5.83301 85.5 -11.5s37.833 -11.167 50.5 -16.5v-39c-0.666992 -7.33301 -5.66699 -10.333 -15 -9c-16 6.66699 -32.333 12.667 -49 18s-38.334 9 -65.001 11c-46 0 -78.833 -8.16699 -98.5 -24.5s-29.5 -43.5 -29.5 -81.5
c0 -14 5.66699 -31.5 17 -52.5s31.333 -49.833 60 -86.5l210 -240c22 35.333 37.333 70.833 46 106.5s12.334 73.834 11.001 114.501h33zM226.998 335.997c-41.333 -18 -72.499 -39.167 -93.499 -63.5s-31.5 -58 -31.5 -101s13.333 -76.333 40 -100s61.667 -35.5 105 -35.5
c39.333 0 73.666 7.66699 102.999 23s51.333 33 66 53z" />
    <glyph glyph-name="quotesingle" unicode="'" horiz-adv-x="153" 
d="M89 428c0 -6 -1.66797 -10.833 -5.00098 -14.5s-7.66602 -5.5 -12.999 -5.5h-18l-8 191c0 14 6.66699 21 20 21h33z" />
    <glyph glyph-name="parenleft" unicode="(" horiz-adv-x="300" 
d="M179 695l40 0.00488281c11.333 0 14.666 -4.66699 9.99902 -14c-16.667 -30.667 -30.5 -57.334 -41.5 -80.001s-20.5 -46.5 -28.5 -71.5s-14.5 -52 -19.5 -81s-7.5 -62.167 -7.5 -99.5c0 -34 3.5 -67.333 10.5 -100s15.5 -63.834 25.5 -93.501
s21.167 -57.334 33.5 -83.001s21.833 -44.5 28.5 -56.5c5.33301 -10.667 1.33301 -16 -12 -16h-40c-22 38.667 -39.333 73.834 -52 105.501s-24.167 68 -34.5 109s-15.5 83.167 -15.5 126.5c0 51.333 5.33301 98.666 16 141.999s22.334 80.666 35.001 111.999
s30 64.666 52 99.999z" />
    <glyph glyph-name="parenright" unicode=")" horiz-adv-x="300" 
d="M131 695c22 -35.333 39.333 -68.6709 52 -100.004s24.334 -68.666 35.001 -111.999s16 -90.666 16 -141.999c0 -43.333 -5.16699 -85.5 -15.5 -126.5s-21.833 -77.333 -34.5 -109s-30 -66.834 -52 -105.501h-40c-13.333 0 -17.333 5.33301 -12 16
c6.66699 12 16.167 30.833 28.5 56.5s23.5 53.334 33.5 83.001s18.5 60.834 25.5 93.501s10.5 66 10.5 100c0 37.333 -2.5 70.5 -7.5 99.5s-11.5 56 -19.5 81s-17.5 48.833 -28.5 71.5s-24.833 49.334 -41.5 80.001c-4.66699 9.33301 -1.33398 14 9.99902 14h40z" />
    <glyph glyph-name="asterisk" unicode="*" horiz-adv-x="377" 
d="M133 436c-6.66699 -11.333 -15.667 -13.333 -27 -6l-9 6l69 111h-111c-13.333 0 -20 6.66699 -20 20v11h130l-58 94c-6.66699 11.333 -4.33398 20.666 6.99902 27.999l9 6l71 -115l61 98c6.66699 11.333 15.667 13.333 27 6l9 -6l-70 -111h112
c13.333 0 20 -6.66699 20 -20v-11h-131l59 -94c6.66699 -11.333 4.33398 -20.666 -6.99902 -27.999l-9 -6l-72 114z" />
    <glyph glyph-name="plus" unicode="+" horiz-adv-x="375" 
d="M227 132c0 -13.333 -6.66699 -20 -20 -20h-36v112h-92c-13.333 0 -20 6.66699 -20 20v36h112v92c0 13.333 6.66699 20 20 20h36v-112h92c13.333 0 20 -6.66699 20 -20v-36h-112v-92z" />
    <glyph glyph-name="comma" unicode="," horiz-adv-x="199" 
d="M102 87c15.333 0 27.667 -5.16602 37 -15.499s14 -23.5 14 -39.5c0 -22 -4.83301 -44.333 -14.5 -67s-20.834 -43 -33.501 -61l-29 11c-7.33301 4 -8.66602 10.333 -3.99902 19l24 53c-10.667 0 -20.667 4.5 -30 13.5s-14 21.833 -14 38.5c0 13.333 5 24.666 15 33.999
s21.667 14 35 14z" />
    <glyph glyph-name="hyphen" unicode="-" horiz-adv-x="373" 
d="M70 224c-13.333 0 -20 6.66699 -20 20v36h260c13.333 0 20 -6.66699 20 -20v-36h-260z" />
    <glyph glyph-name="period" unicode="." horiz-adv-x="184" 
d="M56 41c0 11.333 3.83301 20.833 11.5 28.5s17.167 11.5 28.5 11.5s21 -3.83301 29 -11.5s12 -17.167 12 -28.5s-4 -21 -12 -29s-17.667 -12 -29 -12s-20.833 4 -28.5 12s-11.5 17.667 -11.5 29z" />
    <glyph glyph-name="slash" unicode="/" horiz-adv-x="379" 
d="M82 -61l-43.002 -0.000976562c-5.33301 0 -9.16602 1.83301 -11.499 5.5s-2.16602 8.83398 0.500977 15.501l259 704h43c4.66699 0 8.5 -1.33301 11.5 -4s3.16699 -7.66699 0.5 -15z" />
    <glyph glyph-name="zero" unicode="0" horiz-adv-x="542" 
d="M274 -6c-50 0 -89.5 9 -118.5 27s-50.667 42.5 -65 73.5s-23.5 67.667 -27.5 110s-6 87.5 -6 135.5s2.66699 92.333 8 133s15.833 75.834 31.5 105.501s37.667 52.667 66 69s65.5 24.5 111.5 24.5s83.167 -8.16699 111.5 -24.5s50.333 -39.333 66 -69
s26.167 -64.834 31.5 -105.501s8 -85 8 -133s-2 -93.167 -6 -135.5s-13.167 -79 -27.5 -110s-36 -55.5 -65 -73.5s-68.5 -27 -118.5 -27zM274 616c-36 0 -64.502 -6.5 -85.502 -19.5s-37 -31.5 -48 -55.5s-18 -53 -21 -87s-4.5 -72 -4.5 -114c0 -46 1.33301 -87 4 -123
s9.33398 -66.333 20.001 -91s26.667 -43.334 48 -56.001s50.333 -19 87 -19s65.667 6.33301 87 19s37.333 31.334 48 56.001s17.334 55 20.001 91s4 77 4 123c0 42 -1.5 80 -4.5 114s-10 63 -21 87s-27 42.5 -48 55.5s-49.5 19.5 -85.5 19.5z" />
    <glyph glyph-name="one" unicode="1" horiz-adv-x="287" 
d="M200 666c13.333 0 20 -7 20 -21v-625c0 -13.333 -6.66699 -20 -20 -20h-38v608h-92c-14 0 -21 7 -21 21v37h151z" />
    <glyph glyph-name="two" unicode="2" horiz-adv-x="513" 
d="M65 629l29.5029 11.5068c13 5 28 9.83301 45 14.5s35.333 8.66699 55 12s39.5 5 59.5 5c36 0 66.333 -3.83301 91 -11.5s44.834 -18.334 60.501 -32.001s27 -29.834 34 -48.501s10.5 -39 10.5 -61c0 -20 -3 -39.333 -9 -58s-15 -37.834 -27 -57.501
s-27.333 -40.334 -46 -62.001s-40 -45.167 -64 -70.5l-189 -213h344c13.333 0 20 -6.66699 20 -20v-38h-370c-18.667 0 -32.334 2.66699 -41.001 8s-14.834 12.666 -18.501 21.999s-4.5 19.166 -2.5 29.499s8.66699 21.166 20 32.499l183 203
c46 46.667 81.667 87.334 107 122.001s38 67.667 38 99c0 33.333 -11.167 58.333 -33.5 75s-59.5 25 -111.5 25c-32.667 0 -61.834 -4.16699 -87.501 -12.5s-42.834 -14.5 -51.501 -18.5c-16 -6.66699 -26.667 -3.33398 -32 9.99902z" />
    <glyph glyph-name="three" unicode="3" horiz-adv-x="484" 
d="M368 355c30.667 -7.33301 51.165 -24.1719 61.498 -50.5049s15.5 -65.166 15.5 -116.499c0 -26 -2.16699 -50.5 -6.5 -73.5s-13.666 -43 -27.999 -60s-35.5 -30.333 -63.5 -40s-65.333 -14.5 -112 -14.5c-27.333 0 -54.833 2.83301 -82.5 8.5s-59.5 14.834 -95.5 27.501
l11 35c4 13.333 13 17.666 27 12.999c27.333 -10 51.5 -17.667 72.5 -23s43.833 -7.33301 68.5 -6c26 0 48.5 1.66699 67.5 5s34.667 9.83301 47 19.5s21.666 23.334 27.999 41.001s9.5 40.834 9.5 69.501c0 22 -1.5 41.167 -4.5 57.5s-9 30 -18 41s-21.667 19.333 -38 25
s-37.5 8.5 -63.5 8.5h-124v36c0 13.333 7.33301 20 22 20h74c26.667 0 49 1.83301 67 5.5s32.167 10.334 42.5 20.001s17.666 23.167 21.999 40.5s6.5 39.666 6.5 66.999c0 39.333 -13 66.5 -39 81.5s-60.667 22.5 -104 22.5c-12.667 0 -24.167 -0.666992 -34.5 -2
s-20.666 -3.16602 -30.999 -5.49902s-21.166 -5.16602 -32.499 -8.49902l-33 -10c-16.667 -3.33301 -26.667 1.66699 -30 15l-7 33c10.667 6 23.667 11.167 39 15.5s33.5 8.33301 54.5 12s45.833 5.5 74.5 5.5c44 0 79 -4.66699 105 -14s45.833 -21.666 59.5 -36.999
s22.5 -32.833 26.5 -52.5s6 -39.5 6 -59.5c0 -15.333 -0.166992 -31 -0.5 -47s-2.33301 -31 -6 -45s-9.66699 -26.333 -18 -37s-20.166 -18.334 -35.499 -23.001z" />
    <glyph glyph-name="four" unicode="4" horiz-adv-x="513" 
d="M459 239c12 0 17.9971 -6.00098 17.9971 -18.001v-41h-84v-168c0 -13.333 -6.66699 -20 -20 -20h-38v188h-256c-15.333 0 -27.166 2.83301 -35.499 8.5s-14.333 13.167 -18 22.5s-5 19.333 -4 30s5.5 22 13.5 34l233 346c11.333 16.667 21.833 29 31.5 37
s23.334 12 41.001 12s30.834 -5.16699 39.501 -15.5s13 -24.166 13 -41.499v-374h66zM334.997 613.999l-255 -376h255v376z" />
    <glyph glyph-name="five" unicode="5" horiz-adv-x="491" 
d="M123 607c4 14 8.99805 24.999 14.998 32.999s12.667 13.833 20 17.5s15 6 23 7s15.667 1.5 23 1.5h233v-40c0 -12 -6.33301 -18 -19 -18h-238l-58 -220h138c32 0 59.667 -3.5 83 -10.5s43 -17.667 59 -32s27.833 -33.5 35.5 -57.5s11.5 -54 11.5 -90
c0 -34 -5 -64 -15 -90s-24 -47.5 -42 -64.5s-39.667 -29.833 -65 -38.5s-53 -13 -83 -13c-22.667 0 -44 1.66699 -64 5s-38.167 7.33301 -54.5 12s-30.5 9.33398 -42.5 14.001s-21 8.66699 -27 12c4 12 8.33301 24 13 36c4.66699 11.333 13.334 14.333 26.001 9
c16.667 -6.66699 31.667 -12 45 -16s28 -7.5 44 -10.5s32.667 -4.5 50 -4.5c34.667 0 62.334 4.5 83.001 13.5s36.667 20.667 48 35s18.833 30.333 22.5 48s5.5 35.167 5.5 52.5c0 26.667 -3.16699 48.5 -9.5 65.5s-15 30.5 -26 40.5s-24.5 16.833 -40.5 20.5
s-33.333 5.5 -52 5.5h-157c-38.667 0 -54 17 -46 51z" />
    <glyph glyph-name="six" unicode="6" horiz-adv-x="510" 
d="M272 395c26 0 50.501 -1.66406 73.501 -4.99707s43.333 -11.333 61 -24s31.5 -31.834 41.5 -57.501s15 -61.167 15 -106.5c0 -30 -3 -57.833 -9 -83.5s-16.5 -47.834 -31.5 -66.501s-35 -33.334 -60 -44.001s-56.5 -16 -94.5 -16c-40.667 0 -74 6.83301 -100 20.5
s-46.5 31.334 -61.5 53.001s-25.5 46.167 -31.5 73.5s-9 55 -9 83v225c0 42.667 7.5 78.334 22.5 107.001s34.333 51.667 58 69s50.5 29.666 80.5 36.999s60.333 11 91 11c31.333 0 56 -1.83301 74 -5.5s30.667 -6.83398 38 -9.50098c-4 -14.667 -7.66699 -26.667 -11 -36
c-4 -12 -12.667 -16.667 -26 -14c-12 2.66699 -23.833 4.5 -35.5 5.5s-25.5 1.5 -41.5 1.5c-64.667 0 -112.834 -15.5 -144.501 -46.5s-47.5 -70.833 -47.5 -119.5v-86c13.333 6 27.333 11.167 42 15.5s31 8.5 49 12.5s37 6 57 6zM268.001 46.0029
c36 0 63.833 5.16699 83.5 15.5s33.334 23.166 41.001 38.499s12.667 31.5 15 48.5s3.5 34.833 3.5 53.5c0 24 -1.83301 44.667 -5.5 62s-10.5 31.5 -20.5 42.5s-24 19.167 -42 24.5s-41.667 8 -71 8c-24.667 0 -46 -2 -64 -6s-33.833 -8.33301 -47.5 -13
s-25.834 -10 -36.501 -16v-78c0 -61.333 10.5 -106.666 31.5 -135.999s58.5 -44 112.5 -44z" />
    <glyph glyph-name="seven" unicode="7" horiz-adv-x="457" 
d="M46 608c-13.333 0 -19.999 6.66797 -19.999 20.001v38h350c26 0 42.333 -6.83301 49 -20.5s4 -33.834 -8 -60.501l-281 -585h-43c-6 -0 -10.333 1.83301 -13 5.5s-2.33398 8.5 0.999023 14.5l283 588h-318z" />
    <glyph glyph-name="eight" unicode="8" horiz-adv-x="508" 
d="M258 671c26.667 0 50.999 -2.83301 72.999 -8.5s40.833 -15.167 56.5 -28.5s27.667 -30.666 36 -51.999s12.5 -47.333 12.5 -78c0 -27.333 -5 -50 -15 -68s-21.833 -33 -35.5 -45s-29.5 -22 -47.5 -30c48 -18 82.5 -41.833 103.5 -71.5s31.5 -64.5 31.5 -104.5
c0 -28 -4.16699 -53.833 -12.5 -77.5s-21.333 -44 -39 -61s-40 -30.333 -67 -40s-59.167 -14.5 -96.5 -14.5s-69.5 4.83301 -96.5 14.5s-49.333 23 -67 40s-30.667 37.333 -39 61s-12.5 49.5 -12.5 77.5c0 40 10.667 74.833 32 104.5s55.666 53.5 102.999 71.5
c-18.667 8 -34.5 18 -47.5 30s-24.333 27 -34 45s-14.5 40.667 -14.5 68c0 30.667 4 56.667 12 78s19.833 38.666 35.5 51.999s34.334 22.833 56.001 28.5s45.834 8.5 72.501 8.5zM256.999 50c16 0 33.6689 2.16895 53.002 6.50195s36.666 11.833 51.999 22.5s28 25 38 43
s15 41 15 69c0 18 -5 34.833 -15 50.5s-22.333 29 -37 40s-31.334 19.833 -50.001 26.5s-37 12.667 -55 18c-18.667 -5.33301 -37.167 -11.333 -55.5 -18s-34.833 -15.5 -49.5 -26.5s-27 -24.333 -37 -40s-15 -32.5 -15 -50.5c0 -28 5.33301 -50.833 16 -68.5
s23.5 -31.834 38.5 -42.501s31.667 -18.334 50 -23.001s35.5 -7 51.5 -7zM258.001 613.002c-44 0 -74.667 -8.83301 -92 -26.5s-26 -43.5 -26 -77.5c0 -26.667 6.16699 -48.167 18.5 -64.5s26.5 -29.166 42.5 -38.499s35 -16 57 -20c22 4 41.167 10.667 57.5 20
s30.833 22.166 43.5 38.499s19 37.833 19 64.5c0 34 -9 59.833 -27 77.5s-49 26.5 -93 26.5z" />
    <glyph glyph-name="nine" unicode="9" horiz-adv-x="477" 
d="M233 249c-29.333 0 -56.167 3.16797 -80.5 9.50098s-45.333 17 -63 32s-31 35.333 -40 61s-13.5 57.834 -13.5 96.501c0 74.667 16.167 130.167 48.5 166.5s79.166 54.5 140.499 54.5c48.667 0 87 -6.5 115 -19.5s48.667 -32.333 62 -58s21.5 -52.334 24.5 -80.001
s4.5 -63.167 4.5 -106.5v-129c0 -33.333 -1.5 -66.833 -4.5 -100.5s-12.5 -64.167 -28.5 -91.5s-39.5 -49.5 -70.5 -66.5s-74.167 -25.5 -129.5 -25.5c-27.333 0 -52 2.66699 -74 8s-37.333 9.66602 -46 12.999c2.66699 12 6 26 10 42c2 10 8.66699 13.333 20 10
c27.333 -10 59 -15.333 95 -16c44 0 78.333 7.66699 103 23s41.167 34.666 49.5 57.999s13.333 44.833 15 64.5s2.5 38.834 2.5 57.501v44c-11.333 -10 -23.166 -18 -35.499 -24s-27.333 -11.333 -45 -16s-37.5 -7 -59.5 -7zM228.999 611.001
c-24 0 -44.999 -3.33203 -62.999 -9.99902s-32.5 -16.167 -43.5 -28.5s-19 -27.5 -24 -45.5s-7.5 -40 -7.5 -66c0 -16 0.666992 -33.5 2 -52.5s6.5 -36.333 15.5 -52s23.333 -28.334 43 -38.001s46.167 -14.5 79.5 -14.5c21.333 0 40.666 2.5 57.999 7.5
s32.833 11.5 46.5 19.5s26.167 17 37.5 27v104c0 19.333 -1.33301 38.333 -4 57s-9 35 -19 49s-24.833 24.667 -44.5 32s-45.167 11 -76.5 11z" />
    <glyph glyph-name="colon" unicode=":" horiz-adv-x="194" 
d="M56 41c0 11.333 3.83301 20.833 11.5 28.5s17.167 11.5 28.5 11.5s21 -3.83301 29 -11.5s12 -17.167 12 -28.5s-4 -21 -12 -29s-17.667 -12 -29 -12s-20.833 4 -28.5 12s-11.5 17.667 -11.5 29zM56 396c0 11.333 3.83301 20.833 11.5 28.5s17.167 11.5 28.5 11.5
s21 -3.83301 29 -11.5s12 -17.167 12 -28.5s-4 -21 -12 -29s-17.667 -12 -29 -12s-20.833 4 -28.5 12s-11.5 17.667 -11.5 29z" />
    <glyph glyph-name="semicolon" unicode=";" horiz-adv-x="184" 
d="M135 49c2.66699 -9.33301 3.5 -20.001 2.5 -32.001s-3.33301 -24.333 -7 -37s-8.16699 -25.334 -13.5 -38.001s-11.333 -26 -18 -40c-10.667 2.66699 -20 5.66699 -28 9c-6 2.66699 -7 8.33398 -3 17.001c5.33301 14 9.33301 25.667 12 35s5.33398 20 8.00098 32
c-10.667 1.33301 -18.834 5.83301 -24.501 13.5s-8.5 16.834 -8.5 27.501c0 11.333 4 20.833 12 28.5s17.667 11.5 29 11.5c20.667 0 33.667 -9 39 -27v0zM56 395.999c0 11.333 3.83301 20.833 11.5 28.5s17.167 11.5 28.5 11.5s21 -3.83301 29 -11.5s12 -17.167 12 -28.5
s-4 -21 -12 -29s-17.667 -12 -29 -12s-20.833 4 -28.5 12s-11.5 17.667 -11.5 29z" />
    <glyph glyph-name="less" unicode="&#x3c;" horiz-adv-x="571" 
d="M49 223v69l471 212v-57l-421 -188l421 -191v-57z" />
    <glyph glyph-name="equal" unicode="=" horiz-adv-x="390" 
d="M80 278c-13.333 0 -20 6.66699 -20 20v36h260c13.333 0 20 -6.66699 20 -20v-36h-260zM80 166c-13.333 0 -20 6.66699 -20 20v36h260c13.333 0 20 -6.66699 20 -20v-36h-260z" />
    <glyph glyph-name="greater" unicode="&#x3e;" horiz-adv-x="571" 
d="M49 11v57l421 191l-421 188v57l471 -212v-69z" />
    <glyph glyph-name="question" unicode="?" horiz-adv-x="425" 
d="M131 298c0 13.333 6.66113 20.0068 19.9941 20.0068h49c16 0 31.667 0.666992 47 2s29 6.33301 41 15s20.667 20.5 26 35.5s8 36.167 8 63.5s-2.5 50.166 -7.5 68.499s-13.667 32.666 -26 42.999s-27.166 17 -44.499 20s-35.333 4.5 -54 4.5
c-19.333 0 -34.666 -1.33301 -45.999 -4s-22 -5.33398 -32 -8.00098c-13.333 -2.66699 -22 1.66602 -26 12.999l-11 33c12.667 4 25.334 7.33301 38.001 10s26.334 5 41.001 7s29 3 43 3c23.333 0 45.5 -2.5 66.5 -7.5s39.833 -14.333 56.5 -28s29.5 -31.334 38.5 -53.001
s14.333 -40.5 16 -56.5s2.5 -31.333 2.5 -46c-0.666992 -46 -9.66699 -82.333 -27 -109s-38.666 -43.334 -63.999 -50.001s-57.666 -10.334 -96.999 -11.001v-116h-38c-13.333 0 -20 6.66699 -20 20v131zM119.994 41.0068c0 11.333 3.83301 20.833 11.5 28.5
s17.167 11.5 28.5 11.5s21 -3.83301 29 -11.5s12 -17.167 12 -28.5s-4 -21 -12 -29s-17.667 -12 -29 -12s-20.833 4 -28.5 12s-11.5 17.667 -11.5 29z" />
    <glyph glyph-name="at" unicode="@" horiz-adv-x="943" 
d="M882 338c0 -51.333 -5.16797 -97.833 -15.501 -139.5s-24.5 -77.167 -42.5 -106.5s-38.667 -52 -62 -68s-50.666 -24 -81.999 -24c-18.667 0 -33.167 4.66699 -43.5 14s-17.5 19 -21.5 29c-15.333 -10.667 -37.833 -20.5 -67.5 -29.5s-64.5 -13.5 -104.5 -13.5
c-36.667 0 -67.667 5.16699 -93 15.5s-46 24.5 -62 42.5s-27.5 38.833 -34.5 62.5s-10.5 49.167 -10.5 76.5c0 33.333 4.83301 67.166 14.5 101.499s24.667 65.333 45 93s46.833 50.167 79.5 67.5s72 26 118 26c32 0 63 -3.83301 93 -11.5s59.667 -16.167 89 -25.5l-38 -362
c0 -12 5 -22 15 -30s21.333 -12 34 -12c20 0 38.5 8 55.5 24s31.667 37.5 44 64.5s22.166 58.167 29.499 93.5s11 72.333 11 111c0 46 -8.5 88.167 -25.5 126.5s-40.167 71.333 -69.5 99s-63.666 49.334 -102.999 65.001s-81.666 23.5 -126.999 23.5
c-60 0 -114.333 -11.167 -163 -33.5s-90.334 -52.5 -125.001 -90.5s-61.5 -82.667 -80.5 -134s-28.5 -106 -28.5 -164c0 -63.333 9 -120.333 27 -171s43.5 -93.834 76.5 -129.501s72.667 -63 119 -82s97.833 -28.5 154.5 -28.5c34 0 70.167 2.83301 108.5 8.5
s75.5 15 111.5 28s63 23.833 81 32.5v-47c-14 -7.33301 -37.667 -16.5 -71 -27.5s-69.5 -19.667 -108.5 -26s-79.5 -9.5 -121.5 -9.5c-76.667 0 -142 12.333 -196 37s-98 57.834 -132 99.501s-58.833 89.667 -74.5 144s-23.5 111.5 -23.5 171.5
c0 68.667 10.667 131.5 32 188.5s51.5 106 90.5 147s85.833 72.667 140.5 95s115.667 33.5 183 33.5c62 0 116.5 -9.33301 163.5 -28s86 -44.167 117 -76.5s54.333 -70 70 -113s23.5 -88.833 23.5 -137.5zM624.999 408c-18 6.66699 -37.332 12.335 -57.999 17.002
s-42.667 7 -66 7c-34 0 -63.667 -6.33301 -89 -19s-46.333 -30.834 -63 -54.501s-29.167 -49.834 -37.5 -78.501s-12.5 -56 -12.5 -82c0 -48.667 12.833 -85.5 38.5 -110.5s66.167 -37.5 121.5 -37.5c20.667 0 41.167 2 61.5 6s43.166 12.333 68.499 25z" />
    <glyph glyph-name="A" unicode="A" horiz-adv-x="629" 
d="M590 19c4.66699 -12.667 1.33203 -19 -10.001 -19h-46l-66 174h-300l-67 -174h-49c-9.33301 -0 -11.666 6.33301 -6.99902 19l233 619c10 26 23 39 39 39s29 -13 39 -39zM447.998 232l-131 353l-129 -353h260z" />
    <glyph glyph-name="B" unicode="B" horiz-adv-x="585" 
d="M372 352c28.667 -8 51.667 -18.166 69 -30.499s31 -26 41 -41s16.5 -30.667 19.5 -47s4.5 -32.166 4.5 -47.499c0 -18.667 -2 -38.834 -6 -60.501s-12.167 -41.834 -24.5 -60.501s-30 -34.167 -53 -46.5s-54.5 -18.5 -94.5 -18.5h-213c-35.333 0 -53 18 -53 54v584
c8.66699 4 18.667 8.33301 30 13s24.166 9.16699 38.499 13.5s30.5 7.83301 48.5 10.5s38.667 4 62 4c31.333 0 60.333 -3.5 87 -10.5s49.667 -17.833 69 -32.5s34.333 -33.167 45 -55.5s16 -48.5 16 -78.5c0 -9.33301 -0.666992 -20.5 -2 -33.5
s-5.16602 -26.333 -11.499 -40s-15 -27 -26 -40s-26.5 -25.167 -46.5 -36.5zM120 370.001l129.003 0.000976562c27.333 0 50.666 3.66699 69.999 11s35 17.166 47 29.499s20.833 26.333 26.5 42s8.5 31.834 8.5 48.501c0 38 -11.833 67.5 -35.5 88.5
s-62.834 31.5 -117.501 31.5c-18.667 0 -35.834 -0.833008 -51.501 -2.5s-29.667 -4.33398 -42 -8.00098s-23.833 -8.5 -34.5 -14.5v-226zM313.003 58.002c36 0 61.8311 3.83594 77.498 11.5029s27.834 18 36.501 31s14.5 27 17.5 42s4.5 28.833 4.5 41.5
c0 15.333 -2.66699 31.166 -8 47.499s-14.666 30.166 -27.999 41.499s-29.5 20.666 -48.5 27.999s-42.833 11 -71.5 11h-173v-254h193z" />
    <glyph glyph-name="C" unicode="C" horiz-adv-x="566" 
d="M531 23c-28 -13.333 -53.833 -22.668 -77.5 -28.001s-56.167 -8 -97.5 -8c-97.333 0 -170 30.833 -218 92.5s-72 148.167 -72 259.5c0 52 5.66699 98.833 17 140.5s28.333 77 51 106s51 51.167 85 66.5s73.333 23 118 23c64.667 0 129.334 -10.333 194.001 -31v-39
c0 -13.333 -7 -18 -21 -14c-56 18 -113.333 27 -172 27c-69.333 0 -122 -24.5 -158 -73.5s-54 -116.5 -54 -202.5c0 -92.667 19.167 -164.5 57.5 -215.5s96.166 -76.5 173.499 -76.5c38 0 67 2.5 87 7.5s43 13.167 69 24.5c12 4.66699 18 -0.666016 18 -15.999v-43v0z" />
    <glyph glyph-name="D" unicode="D" horiz-adv-x="609" 
d="M268 666c58.667 0 105.998 -8 141.998 -24s64.833 -38.5 86.5 -67.5s36.334 -64 44.001 -105s11.5 -86.167 11.5 -135.5c0 -58.667 -5 -109.167 -15 -151.5s-26.167 -77 -48.5 -104s-51.666 -46.833 -87.999 -59.5s-80.5 -19 -132.5 -19h-154
c-35.333 0 -53 17.667 -53 53v562c0 34 17.667 51 53 51h154zM275.998 58c46.667 0 84.334 6.66602 113.001 19.999s50.5 32.333 65.5 57s25.333 54 31 88s8.5 71 8.5 111c0 36.667 -2.83301 71.5 -8.5 104.5s-15.834 62.5 -30.501 88.5s-36.5 45.833 -65.5 59.5
s-66.833 20.834 -113.5 21.501h-157v-550h157z" />
    <glyph glyph-name="E" unicode="E" horiz-adv-x="515" 
d="M113 608v-231h242v-38c0 -13.333 -6.66699 -20 -20 -20h-222v-261h344v-38c0 -13.333 -6.66699 -20 -20 -20h-328c-36 0 -54 17.667 -54 53v562c0 34 18 51 54 51h348v-38c0 -13.333 -6.66699 -20 -20 -20h-324z" />
    <glyph glyph-name="F" unicode="F" horiz-adv-x="505" 
d="M113 608v-231h249v-38c0 -13.333 -6.66699 -20 -20 -20h-229v-299c0 -13.333 -6.66699 -20 -20 -20h-38v615c0 34 18 51 54 51h357v-33c0 -16.667 -8.33301 -25 -25 -25h-328z" />
    <glyph glyph-name="G" unicode="G" horiz-adv-x="612" 
d="M531 359c23.333 0 35 -11.666 35 -34.999v-297c-21.333 -6.66699 -43.166 -12.667 -65.499 -18s-47.166 -9.66602 -74.499 -12.999s-56.333 -5 -87 -5c-18 0 -37.333 1.66699 -58 5s-41.167 9.5 -61.5 18.5s-39.833 21.5 -58.5 37.5s-35.167 36.667 -49.5 62
s-25.666 56 -33.999 92s-12.5 78.667 -12.5 128c0 48.667 4.33301 91 13 127s20.167 66.667 34.5 92s30.833 46 49.5 62s38.167 28.333 58.5 37s40.666 14.667 60.999 18s39.5 5 57.5 5c53.333 0 97.666 -4.66699 132.999 -14s58.333 -17.333 69 -24v-40
c0 -12.667 -6 -16.334 -18 -11.001c-7.33301 2.66699 -17.5 6 -30.5 10s-27.833 7.5 -44.5 10.5s-34.5 5.5 -53.5 7.5s-37.5 3 -55.5 3c-42.667 0 -77.334 -7.5 -104.001 -22.5s-48.5 -35.333 -65.5 -61s-29 -55.834 -36 -90.501s-10.5 -71 -10.5 -109
c0 -94 19.333 -165 58 -213s88.667 -72 150 -72c46.667 0 82.667 2.5 108 7.5s48.333 11.167 69 18.5v226h-137c-14 0 -21 7 -21 21v37h181z" />
    <glyph glyph-name="H" unicode="H" horiz-adv-x="578" 
d="M521 666v-646c0 -13.333 -6.66699 -20 -20 -20h-38v322h-334v-302c0 -13.333 -6.66699 -20 -20 -20h-38v646c0 13.333 6.66699 20 20 20h38v-286h334v266c0 13.333 6.66699 20 20 20h38z" />
    <glyph glyph-name="I" unicode="I" horiz-adv-x="210" 
d="M142 0h-58v646c0 13.333 6.66699 20 20 20h38v-666z" />
    <glyph glyph-name="J" unicode="J" horiz-adv-x="307" 
d="M258 666l0.000976562 -547.002c0 -42 -10 -71.667 -30 -89s-41.333 -28.166 -64 -32.499s-43.5 -6.5 -62.5 -6.5s-34.333 0.666992 -46 2s-23.5 3.33301 -35.5 6v36c0 11.333 5.33301 16.333 16 15c24 -4 42.667 -5.83301 56 -5.5s27.166 1.83301 41.499 4.5
s26.333 6.83398 36 12.501s17.167 13.5 22.5 23.5s8 23 8 39v522c0 13.333 6.66699 20 20 20h38z" />
    <glyph glyph-name="K" unicode="K" horiz-adv-x="548" 
d="M128 0h-58v646c0 13.333 6.66699 20 20 20h38v-666zM440 0l-286.002 293c-8 7.33301 -14.333 14.333 -19 21s-7 14.334 -7 23.001c0 9.33301 2.5 18 7.5 26s12.5 17.333 22.5 28l241 275h52c4 0 6.5 -1.16699 7.5 -3.5s0.5 -4.83301 -1.5 -7.5l-268 -319l313 -324
c2.66699 -2.66699 3.33398 -5.33398 2.00098 -8.00098s-4.66602 -4 -9.99902 -4h-54z" />
    <glyph glyph-name="L" unicode="L" horiz-adv-x="493" 
d="M464 58v-38c0 -13.333 -6.66699 -20 -20 -20h-242c-50.667 0 -87 13 -109 39s-33 59 -33 99v508c0 13.333 7 20 21 20h37v-501c0 -39.333 8.5 -67 25.5 -83s42.5 -24 76.5 -24h244z" />
    <glyph glyph-name="M" unicode="M" horiz-adv-x="789" 
d="M650 644c4.66699 7.33301 10.834 12.833 18.501 16.5s16.167 5.5 25.5 5.5s18.666 -4 27.999 -12s14 -20.667 14 -38v-596c0 -13.333 -6.33301 -20 -19 -20h-39v582l-238 -345c-12.667 -15.333 -26.334 -23 -41.001 -23s-27.667 7.66699 -39 23l-239 345v-562
c0 -13.333 -6.66699 -20 -20 -20h-38v615c0 18 4.5 31 13.5 39s18.167 12 27.5 12s17.833 -1.83301 25.5 -5.5s13.834 -9.16699 18.501 -16.5l251 -369l251 369v0z" />
    <glyph glyph-name="N" unicode="N" horiz-adv-x="640" 
d="M128 578v-558c0 -13.333 -6.66699 -20 -20 -20h-38v613c0 17.333 3.83301 30.5 11.5 39.5s19.167 13.5 34.5 13.5s30 -9.66699 44 -29l355 -549v558c0 13.333 6.66699 20 20 20h38v-613c0 -17.333 -3.83301 -30.5 -11.5 -39.5s-19.167 -13.5 -34.5 -13.5
s-30 9.66699 -44 29z" />
    <glyph glyph-name="O" unicode="O" horiz-adv-x="655" 
d="M338 675c58 1.33301 104.667 -6.99707 140 -24.9971s62.833 -42.833 82.5 -74.5s32.834 -68.334 39.501 -110.001s10 -85.5 10 -131.5s-3.66699 -89.833 -11 -131.5s-20.833 -78.167 -40.5 -109.5s-47.167 -56.166 -82.5 -74.499s-81 -27.5 -137 -27.5
c-58 0 -104.833 9 -140.5 27s-63.334 42.5 -83.001 73.5s-33 67.333 -40 109s-10.5 86.167 -10.5 133.5c0 46 3.83301 89.667 11.5 131s21.5 77.666 41.5 108.999s47.667 56.166 83 74.499s81 27.166 137 26.499zM339 47.0029c44.667 0 81.002 6.66699 109.002 20
s49.667 32.833 65 58.5s25.666 56.5 30.999 92.5s8 74.667 8 116c0 37.333 -2.33301 73 -7 107s-14.5 64.167 -29.5 90.5s-36.667 47.5 -65 63.5s-65.833 24 -112.5 24c-45.333 0 -82 -7.5 -110 -22.5s-49.667 -35.333 -65 -61s-25.833 -55.667 -31.5 -90
s-8.5 -71.5 -8.5 -111.5c0 -36.667 2.5 -72.5 7.5 -107.5s15.167 -66 30.5 -93s37.166 -48.167 65.499 -63.5s65.833 -23 112.5 -23z" />
    <glyph glyph-name="P" unicode="P" horiz-adv-x="585" 
d="M289 679c79.333 0 139.331 -20.499 179.998 -61.499s61 -96.5 61 -166.5c0 -42.667 -3.5 -77.334 -10.5 -104.001s-19.667 -51.667 -38 -75s-43 -42 -74 -56s-70.833 -21.333 -119.5 -22c-37.333 0 -72.166 4 -104.499 12s-53.5 14.667 -63.5 20v-226h-58v623
c29.333 14.667 62.333 27.667 99 39s79.334 17 128.001 17zM297.998 252.001c22.667 0 48.502 4.66895 77.502 14.002s51.333 27 67 53s24.667 50.333 27 73s3.5 42.334 3.5 59.001c0 21.333 -2.83301 42.166 -8.5 62.499s-14.834 38.166 -27.501 53.499
s-30.167 28.166 -52.5 38.499s-50.833 15.5 -85.5 15.5c-46 0 -83 -3.83301 -111 -11.5s-50.667 -16.167 -68 -25.5v-294c15.333 -9.33301 38.666 -18 69.999 -26s67.333 -12 108 -12z" />
    <glyph glyph-name="Q" unicode="Q" horiz-adv-x="658" 
d="M587 -34v-31.001c0 -6 -1.66699 -10.167 -5 -12.5s-8.33301 -2.83301 -15 -1.5l-318 80c-40 10 -71.667 25.833 -95 47.5s-41.5 47.334 -54.5 77.001s-21.333 62.5 -25 98.5s-5.5 72.667 -5.5 110c0 48 3.5 92.833 10.5 134.5s20.167 77.667 39.5 108
s46.5 54.333 81.5 72s81.167 26.5 138.5 26.5c58 0 104.833 -8.66699 140.5 -26s63.167 -41.333 82.5 -72s32.333 -66.667 39 -108s10 -86.333 10 -135c0 -38.667 -2 -75.5 -6 -110.5s-11.333 -65.833 -22 -92.5s-28.5 -53 -53.5 -79s-60.5 -43.333 -106.5 -52zM127 333.999
c0 -37.333 1.83398 -73.168 5.50098 -107.501s13 -65 28 -92s36.667 -48 65 -63s66.166 -22.5 113.499 -22.5c46 0 82.667 7.16699 110 21.5s48.833 33.166 64.5 56.499s26.167 52.5 31.5 87.5s8 74.833 8 119.5c0 36.667 -2.33301 72 -7 106s-14.5 64 -29.5 90
s-36.667 47 -65 63s-65.833 24 -112.5 24c-45.333 0 -82 -7.5 -110 -22.5s-49.5 -35.167 -64.5 -60.5s-25 -55.166 -30 -89.499s-7.5 -71.166 -7.5 -110.499z" />
    <glyph glyph-name="R" unicode="R" horiz-adv-x="599" 
d="M557 18c3.33301 -4.66699 4.16797 -8.83398 2.50098 -12.501s-5.83398 -5.5 -12.501 -5.5h-49l-198 279h-181v-279h-58v629c18 8.66699 37.833 16.334 59.5 23.001s45.167 12.5 70.5 17.5s51 7.5 77 7.5c79.333 0 139 -17.167 179 -51.5s60 -85.833 60 -154.5
c0 -42.667 -10.5 -80.167 -31.5 -112.5s-57.833 -56.5 -110.5 -72.5zM305.002 337c17.333 0 34.667 2.49805 52 7.49805s33 13.167 47 24.5s25 26 33 44s12 41.333 12 70c0 30 -5 53.333 -15 70s-23.833 29.834 -41.5 39.501s-38.5 16.834 -62.5 21.501
s-48.833 6.16699 -74.5 4.5s-46.5 -4 -62.5 -7s-40.667 -11.167 -74 -24.5v-250h186z" />
    <glyph glyph-name="S" unicode="S" horiz-adv-x="576" 
d="M503 638l0.00195312 -36c0 -16.667 -7.33301 -22.334 -22 -17.001c-29.333 10 -59 18.167 -89 24.5s-63 9.5 -99 9.5c-38.667 0 -69.5 -3.16699 -92.5 -9.5s-40.667 -14.666 -53 -24.999s-20.333 -22.5 -24 -36.5s-5.5 -30.333 -5.5 -49
c0 -27.333 5.16699 -48.833 15.5 -64.5s23.5 -27.5 39.5 -35.5s33.667 -13.333 53 -16s49 -5.5 89 -8.5s68.833 -7.16699 86.5 -12.5s34.167 -12.666 49.5 -21.999s29.5 -20.5 42.5 -33.5s23.5 -29 31.5 -48s12 -41.833 12 -68.5c0 -27.333 -3.83301 -53 -11.5 -77
s-21 -45 -40 -63s-44.667 -32.167 -77 -42.5s-73.166 -15.5 -122.499 -15.5c-16 0 -33.833 0.833008 -53.5 2.5s-39.334 4 -59.001 7s-38.334 6.5 -56.001 10.5s-32.834 8.33301 -45.501 13v43c0 13.333 6.33301 17.333 19 12c8 -4 28.833 -10.333 62.5 -19
s74.5 -13.334 122.5 -14.001c72.667 0.666992 124.667 12.334 156 35.001s47 57 47 103c0 30 -6.66699 53.833 -20 71.5s-30 31 -50 40s-41.333 15.5 -64 19.5s-48 6.83301 -76 8.5s-53.5 5 -76.5 10s-44.333 14.167 -64 27.5s-36 30.333 -49 51s-19.5 47.667 -19.5 81
c0 36 6.33301 65.833 19 89.5s29.5 42.167 50.5 55.5s45.5 22.666 73.5 27.999s57.333 8 88 8c28 0 53.833 -1.5 77.5 -4.5s44.667 -6.66699 63 -11s33.5 -8.5 45.5 -12.5s20.667 -7 26 -9z" />
    <glyph glyph-name="T" unicode="T" horiz-adv-x="527" 
d="M498 666v-38c0 -13.333 -6.66699 -20 -20 -20h-186v-608h-58v608h-204v38c0 13.333 6.66699 20 20 20h448z" />
    <glyph glyph-name="U" unicode="U" horiz-adv-x="625" 
d="M577 666l-0.000976562 -611c-21.333 -12 -44 -22.667 -68 -32s-51 -16.833 -81 -22.5s-62.333 -8.5 -97 -8.5c-35.333 0 -69.333 3.5 -102 10.5s-61.5 18.667 -86.5 35s-45.333 38.333 -61 66s-24.167 62.167 -25.5 103.5v439c0 13.333 6.66699 20 20 20h38v-449
c0 -28 4.33301 -51.333 13 -70s19.834 -34.167 33.501 -46.5s29.167 -22 46.5 -29s34.666 -12.167 51.999 -15.5s46.666 -5.33301 87.999 -6c29.333 1.33301 53.833 4 73.5 8s37.834 9 54.501 15s31.334 12.667 44.001 20v553c0 13.333 6 20 18 20h40z" />
    <glyph glyph-name="V" unicode="V" horiz-adv-x="603" 
d="M564 666c12.667 0 16.332 -6.33301 10.999 -19l-233 -614c-10 -26 -23.167 -39 -39.5 -39s-29.5 13 -39.5 39l-232 614c-5.33301 12.667 -0.666016 19 14.001 19h42l216 -587l217 587h44z" />
    <glyph glyph-name="W" unicode="W" horiz-adv-x="855" 
d="M808 666c14 0 19.3311 -8.33301 15.998 -25l-139 -601c-6.66699 -26.667 -21.667 -40 -45 -40s-40.333 13.333 -51 40l-167 415l-153 -415c-9.33301 -26.667 -25.666 -40 -48.999 -40s-38.333 13.333 -45 40l-139 601c-3.33301 16.667 2.33398 25 17.001 25h35l138 -581
l183 515h43c14 0 18.667 -8 14 -24l-16 -49l184 -442l136 581h38z" />
    <glyph glyph-name="X" unicode="X" horiz-adv-x="597" 
d="M330 424l151.997 241.999h40c9.33301 0 14.333 -2.33301 15 -7s0 -9 -2 -13l-191 -312l194 -307c6.66699 -10 8.83398 -17 6.50098 -21s-7.5 -6 -15.5 -6h-43l-149 242l-23 36.5c-8 12.333 -14 24.833 -18 37.5c-4 -13.333 -9.66699 -26.166 -17 -38.499l-22 -35.5
l-145 -242h-47c-8 0 -13.167 2.16699 -15.5 6.5s-0.166016 11.166 6.50098 20.499l191 307l-190 312c-2.66699 4 -3.5 8.33301 -2.5 13s5.83301 7 14.5 7h44l148 -242l15.5 -24c7.66699 -12 14.167 -24 19.5 -36c4.66699 12.667 10.834 24.834 18.501 36.501z" />
    <glyph glyph-name="Y" unicode="Y" horiz-adv-x="617" 
d="M577 666c6 0 9.83105 -2.16699 11.498 -6.5s0.833984 -8.83301 -2.49902 -13.5l-249 -368v-258c0 -13.333 -6.66699 -20 -20 -20h-38v279l-252 370c-3.33301 4.66699 -4.16602 8.66699 -2.49902 12s4.5 5 8.5 5h49l226 -327l225 327h44z" />
    <glyph glyph-name="Z" unicode="Z" horiz-adv-x="580" 
d="M547 58l-0.000976562 -38c0 -13.333 -6.66699 -20 -20 -20h-421c-11.333 0 -21.5 2.16699 -30.5 6.5s-15.5 10.333 -19.5 18s-5.66699 17 -5 28s4.33398 20.5 11.001 28.5l413 527h-397c-13.333 0 -20 6.66699 -20 20v38h427c14 0 24.833 -1.83301 32.5 -5.5
s14 -9.66699 19 -18s6.5 -18.5 4.5 -30.5s-7.66699 -23.667 -17 -35l-407 -519h430z" />
    <glyph glyph-name="bracketleft" unicode="[" horiz-adv-x="280" 
d="M79 0v681h158v-53h-105v-575h105v-53h-158z" />
    <glyph glyph-name="backslash" unicode="\" horiz-adv-x="363" 
d="M8 645c-4 12.667 0.666992 19 14 19h41l260 -707c4.66699 -12 1.66699 -18 -9 -18h-46z" />
    <glyph glyph-name="bracketright" unicode="]" horiz-adv-x="280" 
d="M58 0v53h105v575h-105v53h158v-681h-158z" />
    <glyph glyph-name="asciicircum" unicode="^" horiz-adv-x="595" 
d="M389 393l-91 232l-88 -232h-47c-10.667 0 -14 5 -10 15l94 236c10 24.667 27.333 37 52 37s42 -12.333 52 -37l96 -236c3.33301 -10 0 -15 -10 -15h-48z" />
    <glyph glyph-name="underscore" unicode="_" horiz-adv-x="443" 
d="M80 -56c-13.333 0 -20 6.66699 -20 20v36h294c13.333 -0 20 -6.66699 20 -20v-36h-294z" />
    <glyph glyph-name="grave" unicode="`" horiz-adv-x="171" 
d="M95 546l-91 120h47l75 -120h-31z" />
    <glyph glyph-name="a" unicode="a" horiz-adv-x="466" 
d="M226 444c24.667 0 47.8281 -2.16309 69.4951 -6.49609s40.167 -12 55.5 -23s27.5 -25.5 36.5 -43.5s13.5 -40.667 13.5 -68v-275c-16.667 -8.66699 -33.667 -16 -51 -22s-36.666 -10.833 -57.999 -14.5s-43.666 -5.5 -66.999 -5.5c-32.667 0 -59.167 2.5 -79.5 7.5
s-38.666 12.5 -54.999 22.5s-29.5 24.167 -39.5 42.5s-15 39.166 -15 62.499c0 41.333 14.5 71.333 43.5 90s71.167 30.667 126.5 36s101 10.666 137 15.999v51c0 5.33301 -1.5 12.666 -4.5 21.999s-8.83301 17.666 -17.5 24.999s-20.5 13.333 -35.5 18s-34.833 7 -59.5 7
c-31.333 0 -57.666 -2 -78.999 -6s-38.666 -7.66699 -51.999 -11c-11.333 -2.66699 -17 2 -17 14v41c14 4 28.167 7.33301 42.5 10s29.5 5 45.5 7s36 3 60 3zM342.994 207.004c-34.667 -4.66699 -73.3311 -8.83301 -115.998 -12.5s-75.5 -10.167 -98.5 -19.5
s-34.5 -29 -34.5 -59c0 -24 11 -42.167 33 -54.5s57.333 -18.5 106 -18.5c21.333 0 41.666 2.16699 60.999 6.5s35.666 9.5 48.999 15.5v142z" />
    <glyph glyph-name="b" unicode="b" horiz-adv-x="494" 
d="M263 436c33.333 0 61.6699 -5.17188 85.0029 -15.5049s42.166 -25 56.499 -44s24.833 -41.833 31.5 -68.5s10 -56.667 10 -90c0 -31.333 -2.66699 -60.666 -8 -87.999s-14.833 -51.166 -28.5 -71.499s-32.334 -36.333 -56.001 -48s-53.834 -17.5 -90.501 -17.5
c-26 0 -50.333 1.83301 -73 5.5s-42.834 7.83398 -60.501 12.501s-32.667 9.33398 -45 14.001s-20.833 8.33398 -25.5 11.001v628h39c12.667 0 19 -7 19 -21v-235c31.333 11.333 57.833 18.833 79.5 22.5s43.834 5.5 66.501 5.5zM245.004 46.9951
c29.333 0 53.334 3.33203 72.001 9.99902s33.5 16.834 44.5 30.501s18.5 31.5 22.5 53.5s6 47.667 6 77c0 34 -3.33301 61.667 -10 83s-15.834 37.833 -27.501 49.5s-25.167 19.834 -40.5 24.501s-31.666 7 -48.999 7c-32.667 0 -59.834 -2.83301 -81.501 -8.5
s-43.167 -13.834 -64.5 -24.501v-273c21.333 -8.66699 43.5 -15.667 66.5 -21s43.5 -8 61.5 -8z" />
    <glyph glyph-name="c" unicode="c" horiz-adv-x="448" 
d="M365 60c14 3.33301 22.333 -1.33301 25 -14l6 -33c-14 -4 -28.333 -7.33301 -43 -10s-30.334 -5 -47.001 -7s-33.667 -3 -51 -3c-40 0 -73.167 5.66699 -99.5 17s-47.166 27.333 -62.499 48s-26 43.334 -32 68.001s-9 52.667 -9 84c0 32 3 61.667 9 89
s16.667 51.5 32 72.5s36.666 37.167 63.999 48.5s60 17 98 17c23.333 0 47.5 -1.5 72.5 -4.5s48.167 -8.5 69.5 -16.5v-34c0 -13.333 -6.33301 -18.333 -19 -15c-30.667 8 -54.667 12.833 -72 14.5s-34.666 2.5 -51.999 2.5c-32.667 -0.666992 -58.667 -6.33398 -78 -17.001
s-34 -24.167 -44 -40.5s-17 -34 -21 -53s-6 -40.167 -6 -63.5s2 -43.5 6 -60.5s11 -33.333 21 -49s24.333 -28.5 43 -38.5s44.667 -15 78 -15c25.333 0 48.5 1.83301 69.5 5.5z" />
    <glyph glyph-name="d" unicode="d" horiz-adv-x="503" 
d="M433 664c13.333 0 20.002 -6.99805 20.002 -20.998v-608c-17.333 -9.33301 -35.166 -16.833 -53.499 -22.5s-38.833 -10.334 -61.5 -14.001s-46.334 -5.5 -71.001 -5.5c-38.667 0 -73.334 5.5 -104.001 16.5s-53.667 26.833 -69 47.5s-26 45.167 -32 73.5
s-9 58.166 -9 89.499c0 16 1.66699 36.167 5 60.5s11.666 48 24.999 71s33 42.833 59 59.5s62 25 108 25c44.667 0 93 -9.33301 145 -28v256h38zM395.002 348.002c-10.667 5.33301 -20.8311 10 -30.498 14s-19.834 7.5 -30.501 10.5s-22.334 5.16699 -35.001 6.5
s-27 2 -43 2s-32.5 -1.66699 -49.5 -5s-32.833 -10.5 -47.5 -21.5s-26.667 -27.167 -36 -48.5s-14 -50 -14 -86c0 -26.667 2.16699 -50.5 6.5 -71.5s12.333 -38.833 24 -53.5s28 -26 49 -34s48.167 -12 81.5 -12c32 0 57.667 2.5 77 7.5s35.333 10.5 48 16.5v275z" />
    <glyph glyph-name="e" unicode="e" horiz-adv-x="462" 
d="M411 298c0 -23.333 -3.66797 -42.834 -11.001 -58.501s-17.5 -28.334 -30.5 -38.001s-28.5 -16.5 -46.5 -20.5s-37.333 -6 -58 -6h-159c2 -26.667 7.5 -48 16.5 -64s20.5 -28.5 34.5 -37.5s30.167 -15.333 48.5 -19s37.5 -5.5 57.5 -5.5c26.667 0 47 1.83301 61 5.5
s27.667 7.83398 41 12.501c14.667 5.33301 22 0.666016 22 -14.001v-35c-13.333 -5.33301 -26.5 -9.83301 -39.5 -13.5s-26.5 -6.5 -40.5 -8.5s-29.667 -3 -47 -3c-19.333 0 -41.166 2.33301 -65.499 7s-47.333 14.334 -69 29.001s-40 35.5 -55 62.5s-22.5 63.5 -22.5 109.5
c0 56.667 7.16699 101 21.5 133s31.666 56 51.999 72s41.833 26.333 64.5 31s42.334 7 59.001 7s34.667 -2.5 54 -7.5s37.333 -13.167 54 -24.5s30.5 -26.166 41.5 -44.499s16.5 -41.5 16.5 -69.5zM230.999 230.999c23.333 0 43.168 0.667969 59.501 2.00098
s29.166 4.16602 38.499 8.49902s16.333 11 21 20s7 21.167 7 36.5c-3.33301 32.667 -14 56.5 -32 71.5s-44.667 23.167 -80 24.5c-27.333 0 -50 -4.33301 -68 -13s-32.333 -20.167 -43 -34.5s-18 -31.333 -22 -51s-6 -41.167 -6 -64.5h125z" />
    <glyph glyph-name="f" unicode="f" horiz-adv-x="356" 
d="M259 664c16.667 0 33.334 -1.33203 50.001 -3.99902s31 -6 43 -10c-2 -12.667 -4.33301 -24.667 -7 -36c-2 -9.33301 -7.66699 -13 -17 -11c-10.667 2.66699 -20.834 4.66699 -30.501 6s-20.167 2.16602 -31.5 2.49902s-23.333 -0.5 -36 -2.5s-24.167 -6 -34.5 -12
s-18.333 -14 -24 -24s-8.5 -24.667 -8.5 -44v-93h140v-39c0 -12.667 -6.33301 -19 -19 -19h-121v-358c0 -13.333 -7 -20 -21 -20h-37v378h-45v39c0 12.667 6.33301 19 19 19h26v115c0 22 4.5 40.333 13.5 55s20.833 26.167 35.5 34.5s31.167 14.333 49.5 18
s36.833 5.5 55.5 5.5z" />
    <glyph glyph-name="g" unicode="g" horiz-adv-x="498" 
d="M257 444c22.667 0 44.1709 -1.99707 64.5039 -5.99707s38.833 -8.66699 55.5 -14s31.167 -10.833 43.5 -16.5l27.5 -12.5v-399c0 -70.667 -17.833 -121.834 -53.5 -153.501s-89.167 -47.5 -160.5 -47.5c-15.333 -0.666992 -30.5 0 -45.5 2s-29.5 5 -43.5 9
c-17.333 4.66699 -24.333 13.334 -21 26.001c1.33301 4.66699 5 16.667 11 36c12.667 -4.66699 27.167 -8.5 43.5 -11.5s34.833 -4.5 55.5 -4.5c34.667 1.33301 62.5 6 83.5 14s36.667 17.667 47 29s17.166 24.666 20.499 39.999s5 31.666 5 48.999v44
c-16 -6 -34.833 -12 -56.5 -18s-46.834 -9 -75.501 -9c-22 0 -45.333 3.16699 -70 9.5s-47.334 17.666 -68.001 33.999s-37.667 38.833 -51 67.5s-20 65 -20 109c0 16 2.16699 36.5 6.5 61.5s13.666 49.5 27.999 73.5s35.333 44.667 63 62s64.5 26 110.5 26z
M390.004 362.003c-19.333 6.66699 -38.333 12.501 -57 17.501s-41.667 7.5 -69 7.5c-25.333 0 -46.833 -2.83301 -64.5 -8.5s-33.667 -14.667 -48 -27s-25.333 -29 -33 -50s-11.5 -47.5 -11.5 -79.5c0 -52.667 12.667 -93.167 38 -121.5s65.333 -42.5 120 -42.5
c28 0 51.333 3.16699 70 9.5s37 14.166 55 23.499v271z" />
    <glyph glyph-name="h" unicode="h" horiz-adv-x="479" 
d="M262 436c26.667 0 50.001 -4.33105 70.001 -12.998s36.333 -20.334 49 -35.001s22.167 -31.667 28.5 -51s9.5 -40 9.5 -62v-255c0 -13.333 -6.33301 -20 -19 -20h-39v275c0 32 -8.33301 57.167 -25 75.5s-41.334 27.5 -74.001 27.5
c-26.667 0 -52.167 -4.16699 -76.5 -12.5s-46.833 -17.833 -67.5 -28.5v-317c0 -13.333 -6.33301 -20 -19 -20h-39v664h39c12.667 0 19 -6.66699 19 -20v-244c26.667 13.333 52.167 22.666 76.5 27.999s46.833 8 67.5 8z" />
    <glyph glyph-name="i" unicode="i" horiz-adv-x="232" 
d="M144 539c0 -12.667 -3.83301 -22.5 -11.5 -29.5s-17.167 -10.5 -28.5 -10.5s-20.833 3.5 -28.5 10.5s-11.5 16.833 -11.5 29.5s3.83301 22.334 11.5 29.001s17.167 10 28.5 10s20.833 -3.33301 28.5 -10s11.5 -16.334 11.5 -29.001zM177 58
c13.333 0 20 -6.66602 20 -19.999v-38h-51c-8 0 -16 1.5 -24 4.5s-15.5 8 -22.5 15s-12.667 16.167 -17 27.5s-6.5 25.666 -6.5 42.999v346h38c13.333 0 20 -6.66699 20 -20v-323c0 -10 1.5 -17.5 4.5 -22.5s7 -8.33301 12 -10s13.833 -2.5 26.5 -2.5z" />
    <glyph glyph-name="j" unicode="j" horiz-adv-x="280" 
d="M217 539c0 -12.667 -4 -22.5 -12 -29.5s-17.667 -10.5 -29 -10.5s-20.833 3.5 -28.5 10.5s-11.5 16.833 -11.5 29.5s3.83301 22.334 11.5 29.001s17.167 10 28.5 10s21 -3.33301 29 -10s12 -16.334 12 -29.001zM151 436l38 0.000976562c13.333 0 20 -7 20 -21v-486
c0 -21.333 -3.16699 -41.333 -9.5 -60s-15.833 -35 -28.5 -49s-28.5 -25 -47.5 -33s-41.5 -12 -67.5 -12c-13.333 0 -27 1.16699 -41 3.5s-28.667 5.5 -44 9.5c-12 2.66699 -16.667 10 -14 22c0.666992 3.33301 2 8.83301 4 16.5s4 14.5 6 20.5l23.5 -7
c7 -2 15.833 -3.83301 26.5 -5.5s19.667 -2.5 27 -2.5c24.667 0 44.167 3.66699 58.5 11s25 17.166 32 29.499s11.5 27 13.5 44s3 35.5 3 55.5v464z" />
    <glyph glyph-name="k" unicode="k" horiz-adv-x="462" 
d="M118 0h-58v664h39c12.667 0 19 -6.33301 19 -19v-645zM418 17c3.33301 -3.33301 4.33203 -7 2.99902 -11s-5.66602 -6 -12.999 -6h-51l-213 199c-6 5.33301 -11.833 11.333 -17.5 18s-8.5 13.667 -8.5 21c0 8.66699 2.83301 16.5 8.5 23.5s12.834 14.167 21.501 21.5
l168 153h54c5.33301 0 8.66602 -1.66699 9.99902 -5s0 -7 -4 -11l-189 -182z" />
    <glyph glyph-name="l" unicode="l" horiz-adv-x="274" 
d="M233 24c2.66699 -12.667 -0.666992 -20.668 -10 -24.001c-16.667 -4.66699 -35.667 -7 -57 -7c-20 0 -36.333 2.83301 -49 8.5s-22.5 13.834 -29.5 24.501s-11.833 23.334 -14.5 38.001s-4 31 -4 49v551h38c13.333 0 20 -7 20 -21v-544c0 -20 3.5 -33.167 10.5 -39.5
s21.5 -9.5 43.5 -9.5c12 0 21.667 0.666992 29 2s13 2.66602 17 3.99902z" />
    <glyph glyph-name="m" unicode="m" horiz-adv-x="774" 
d="M550 436c48.667 0 86.6709 -10.168 114.004 -30.501s41.666 -56.5 42.999 -108.5v-277c0 -13.333 -7.66699 -20 -23 -20h-35v281c0 35.333 -8.33301 60.666 -25 75.999s-41.334 23.333 -74.001 24c-31.333 0 -57.833 -3.83301 -79.5 -11.5s-43.834 -16.5 -66.501 -26.5
c2.66699 -9.33301 4.66699 -19.5 6 -30.5s2 -21.5 2 -31.5v-261c0 -13.333 -6.66699 -20 -20 -20h-38v287c-1.33301 30.667 -8.33301 53.834 -21 69.501s-35.334 23.834 -68.001 24.501c-28 0 -54.167 -2.83301 -78.5 -8.5s-47.166 -13.167 -68.499 -22.5v-329
c0 -14 -6.66699 -21 -20 -21h-38v386c20.667 9.33301 41.5 17.5 62.5 24.5s43.667 13 68 18s49.166 7.5 74.499 7.5c30 0 53.833 -3.5 71.5 -10.5s34.167 -19.167 49.5 -36.5c28 16 56.167 27.833 84.5 35.5s54.833 11.5 79.5 11.5z" />
    <glyph glyph-name="n" unicode="n" horiz-adv-x="492" 
d="M247 436c26.667 0 50.832 -2.50098 72.499 -7.50098s40 -13.333 55 -25s26.333 -27 34 -46s11.5 -42.833 11.5 -71.5v-266c0 -13.333 -6.33301 -20 -19 -20h-39v294c0 17.333 -2.83301 31.5 -8.5 42.5s-14 19.5 -25 25.5s-24.167 10.167 -39.5 12.5s-32.333 3.5 -51 3.5
c-20 0 -40.667 -2.83301 -62 -8.5s-40.666 -12.167 -57.999 -19.5v-330c0 -13.333 -7 -20 -21 -20h-37v387c17.333 8.66699 35.5 16.334 54.5 23.001s39.667 12.667 62 18s45.833 8 70.5 8z" />
    </font>
</defs>
</svg>
