<svg id="Layer_1" data-name="Layer 1" xmlns="http://www.w3.org/2000/svg" viewBox="0 0 257.34 191.58"><defs><style>.cls-1{fill:#f2f2f2;}</style></defs><title>pckg</title><g id="Store"><g id="Group"><path id="Shape" class="cls-1" d="M30.63,191.58c10.08,0,21.86-8.12,21.86-17.59V80c0-12.51,8.2-22.66,20.66-23.5H95a7.86,7.86,0,0,0,7.86-8.12V8.29A8.34,8.34,0,0,0,94.5,0H-13.26a8.34,8.34,0,0,0-8.37,8.29V32.8a23.61,23.61,0,0,1-22.88,23.5h-86.24a23.57,23.57,0,0,0-23.74,23.5v88.1a23.5,23.5,0,0,0,22.88,23.5H30.63v0.17Z" transform="translate(154.48 0)"/></g></g></svg>